<svg width="276" height="244" viewBox="0 0 276 244" fill="none" xmlns="http://www.w3.org/2000/svg">
<path d="M188.772 9.86654C188.367 10.6281 187.79 11.2849 187.087 11.785C186.368 12.3031 185.553 12.6712 184.689 12.8676C183.742 13.0901 182.768 13.1732 181.797 13.1143L178.755 12.9498L178.454 18.4312L174.453 18.212L175.398 0L182.825 0.397402C183.821 0.443692 184.802 0.651977 185.73 1.01406C186.521 1.32024 187.239 1.78682 187.84 2.38441C188.413 2.96616 188.848 3.66843 189.115 4.43994C189.399 5.27226 189.515 6.15245 189.457 7.02991C189.455 8.01615 189.22 8.98796 188.772 9.86654ZM185.442 6.93398C185.486 6.54685 185.44 6.15482 185.307 5.78867C185.173 5.42252 184.957 5.0922 184.675 4.82364C184.016 4.28978 183.194 3.99939 182.346 4.00143L179.249 3.82328L178.947 9.38692L182.113 9.59247C182.535 9.64425 182.963 9.61155 183.372 9.49628C183.782 9.381 184.164 9.18544 184.497 8.921C184.783 8.68759 185.015 8.3955 185.178 8.06451C185.341 7.73352 185.431 7.37135 185.442 7.0025V6.93398Z" fill="white"/>
<path d="M207.682 22.3093L205.038 15.8001L201.954 15.1697L200.776 20.8704L196.843 20.0619L200.543 2.24731L208.765 3.93285C210.573 4.19152 212.223 5.10896 213.396 6.50911C213.883 7.17812 214.214 7.94715 214.366 8.76025C214.517 9.57334 214.486 10.41 214.273 11.2094C214.075 12.4857 213.447 13.6559 212.492 14.5257C211.582 15.2721 210.48 15.7471 209.313 15.896L212.273 23.2959L207.682 22.3093ZM210.19 10.5654C210.292 10.2096 210.306 9.83451 210.232 9.47192C210.158 9.10933 209.998 8.76991 209.765 8.48242C209.198 7.88415 208.444 7.49738 207.628 7.38614L203.736 6.57763L202.667 11.7027L206.641 12.525C207.433 12.7534 208.28 12.6851 209.025 12.3331C209.33 12.1578 209.591 11.9167 209.79 11.6275C209.989 11.3382 210.121 11.0081 210.176 10.6613L210.19 10.5654Z" fill="white"/>
<path d="M238.638 26.9001C237.787 27.7696 236.778 28.4675 235.664 28.9556C234.532 29.4542 233.311 29.7198 232.074 29.7367C229.387 29.7627 226.793 28.7572 224.825 26.9275C223.934 26.0755 223.213 25.0617 222.701 23.9401C222.202 22.8459 221.932 21.6616 221.906 20.4595C221.883 19.204 222.106 17.9562 222.564 16.7869C223.471 14.4637 225.259 12.5925 227.538 11.5796C228.679 11.0938 229.902 10.8287 231.142 10.7985C232.474 10.7811 233.797 11.0279 235.034 11.5248C237.454 12.4328 239.421 14.253 240.515 16.5951C241.009 17.695 241.275 18.8838 241.296 20.0895C241.333 21.3459 241.109 22.5964 240.638 23.762C240.193 24.9338 239.512 26.0019 238.638 26.9001ZM236.733 22.2272C237.014 21.5257 237.158 20.7768 237.158 20.0209C237.161 19.2973 237.022 18.58 236.747 17.9106C236.47 17.2401 236.065 16.6302 235.554 16.1154C235.01 15.5872 234.367 15.1722 233.661 14.8947C232.955 14.6171 232.202 14.4824 231.443 14.4984C230.734 14.5283 230.039 14.7056 229.402 15.0192C228.756 15.3332 228.179 15.7708 227.703 16.3073C227.188 16.8585 226.788 17.5058 226.524 18.2121C226.244 18.9138 226.099 19.6626 226.099 20.4183C226.084 21.1462 226.219 21.8694 226.497 22.5424C226.777 23.2035 227.176 23.8074 227.675 24.3238C228.218 24.8533 228.862 25.2691 229.568 25.5468C230.273 25.8244 231.028 25.9584 231.786 25.9409C232.501 25.9175 233.202 25.7398 233.841 25.4201C234.483 25.1067 235.06 24.6742 235.541 24.1457C236.045 23.5866 236.444 22.9414 236.719 22.2409L236.733 22.2272Z" fill="white"/>
<path d="M257.438 40.0966C256.814 40.5265 256.103 40.8121 255.355 40.9325C254.569 41.0402 253.769 40.9983 252.998 40.8092C252.105 40.5943 251.25 40.243 250.463 39.7677C249.256 39.046 248.185 38.1184 247.298 37.027C246.391 35.9426 245.706 34.69 245.283 33.3408L248.764 32.0938C249.094 33.0653 249.555 33.9873 250.134 34.8345C250.703 35.6479 251.448 36.3224 252.313 36.8078C252.877 37.185 253.539 37.3898 254.218 37.397C254.472 37.4001 254.722 37.3325 254.939 37.2018C255.157 37.0712 255.334 36.8826 255.451 36.657C255.571 36.4514 255.646 36.2224 255.67 35.9856C255.683 35.7165 255.616 35.4495 255.478 35.2182C255.286 34.8538 255.052 34.5134 254.78 34.2041C254.346 33.7245 253.889 33.2672 253.409 32.8337C252.783 32.2299 252.192 31.5893 251.642 30.9153C251.17 30.3605 250.786 29.7365 250.504 29.0653C250.269 28.4499 250.176 27.7895 250.23 27.1331C250.32 26.3607 250.587 25.6196 251.011 24.9679C251.397 24.2954 251.926 23.7154 252.56 23.2687C253.159 22.849 253.841 22.5639 254.56 22.4328C255.32 22.2828 256.102 22.2828 256.862 22.4328C257.713 22.6271 258.527 22.9555 259.274 23.4057C261.431 24.6227 263.087 26.5648 263.947 28.8871L260.617 30.4493C260.237 29.6217 259.778 28.8324 259.247 28.0923C258.763 27.4505 258.158 26.9103 257.465 26.5027C256.958 26.1461 256.344 25.9721 255.725 26.0094C255.504 26.0253 255.29 26.0947 255.101 26.2117C254.913 26.3286 254.755 26.4897 254.643 26.6809C254.495 26.8999 254.414 27.1569 254.41 27.4209C254.403 27.7121 254.484 27.9986 254.643 28.2431C254.864 28.6213 255.131 28.971 255.437 29.2845C255.794 29.6682 256.26 30.1616 256.808 30.7371C257.422 31.3459 257.995 31.996 258.521 32.683C258.953 33.2549 259.3 33.8875 259.548 34.5604C259.757 35.1532 259.828 35.7861 259.754 36.4104C259.662 37.112 259.419 37.7854 259.041 38.3837C258.633 39.0609 258.087 39.6445 257.438 40.0966Z" fill="white"/>
<path d="M278.911 41.5766L269.949 52.9505L266.811 50.4565L275.841 39.0825L271.429 35.6292L273.731 32.7378L285.556 42.1247L283.254 45.0299L278.911 41.5766Z" fill="white"/>
<path d="M35.9841 244.197L19.7461 252.419L17.9236 248.842L34.1616 240.62L35.9841 244.197Z" fill="white"/>
<path d="M23.2951 223.367C24.1167 223.367 24.9292 223.54 25.6795 223.874C26.4015 224.225 27.0377 224.731 27.5431 225.354C28.105 226.052 28.5451 226.84 28.8448 227.684C29.3259 228.83 29.5006 230.082 29.3519 231.315C29.2117 232.334 28.8867 233.319 28.3926 234.221L24.871 232.85C25.1991 232.24 25.4346 231.584 25.5698 230.904C25.6794 230.298 25.6226 229.673 25.4054 229.095C25.2955 228.77 25.116 228.473 24.8793 228.225C24.6426 227.976 24.3545 227.782 24.0351 227.657C23.237 227.435 22.3859 227.508 21.6371 227.862L10.6747 231.973L9.22217 228.123L20.3764 223.916C21.3072 223.554 22.2968 223.369 23.2951 223.367Z" fill="white"/>
<path d="M20.6503 199.798L17.0053 202.292L18.636 209.815L22.9798 210.582L23.8431 214.584L4.24787 210.815L3.4668 207.211L19.7596 195.7L20.6503 199.798ZM8.57801 208.02L14.8677 209.143L13.84 204.402L8.57801 208.02Z" fill="white"/>
<path d="M9.50987 160.605C10.278 160.993 10.948 161.551 11.4694 162.236C12.0045 162.948 12.3954 163.758 12.6204 164.62C12.8718 165.558 12.9827 166.528 12.9493 167.498L12.8671 170.554L18.3483 170.691L18.225 174.706L0 174.213L0.205545 166.758C0.215469 165.766 0.396253 164.783 0.739961 163.853C1.04569 163.05 1.51196 162.318 2.11026 161.702C2.66944 161.105 3.35222 160.637 4.1109 160.331C4.93346 160.023 5.80948 159.883 6.68706 159.92C7.66789 159.93 8.63338 160.165 9.50987 160.605ZM6.65965 164.017C6.2726 163.985 5.88324 164.042 5.52194 164.185C5.16065 164.327 4.83719 164.551 4.5768 164.84C4.06061 165.51 3.78977 166.337 3.80943 167.183L3.72721 170.28L9.29062 170.431L9.38654 167.265C9.46369 166.408 9.19756 165.555 8.64658 164.894C8.40429 164.62 8.10728 164.398 7.77457 164.245C7.44186 164.092 7.08078 164.009 6.71446 164.004L6.65965 164.017Z" fill="white"/>
<path d="M21.4314 141.352L15.0732 144.175L14.5114 147.272L20.2529 148.3L19.5541 152.246L1.54834 149.04L3.01456 140.817C3.23169 139.005 4.10995 137.336 5.4811 136.131C6.13764 135.629 6.89723 135.279 7.7052 135.106C8.51316 134.933 9.34943 134.942 10.1538 135.131C11.4336 135.298 12.6179 135.898 13.511 136.83C14.3228 137.709 14.865 138.803 15.0732 139.982L22.2535 136.748L21.4314 141.352ZM9.59199 139.173C9.23501 139.079 8.86068 139.072 8.50056 139.154C8.14045 139.235 7.80512 139.401 7.52284 139.639C6.94292 140.225 6.57212 140.986 6.46771 141.804L5.76886 145.723L10.9623 146.628L11.6748 142.626C11.8766 141.828 11.7741 140.983 11.3871 140.256C11.2037 139.956 10.9561 139.702 10.6623 139.51C10.3684 139.318 10.0356 139.193 9.68791 139.146L9.59199 139.173Z" fill="white"/>
<path d="M25.186 110.286C27.0109 111.967 28.095 114.303 28.2006 116.781C28.3246 118.741 27.8714 120.694 26.8973 122.399C25.9231 124.104 24.4706 125.486 22.7194 126.374C21.6359 126.9 20.456 127.199 19.2526 127.251C17.9995 127.319 16.7456 127.133 15.5665 126.703C14.3595 126.271 13.2574 125.59 12.3326 124.702C11.44 123.88 10.7142 122.894 10.1949 121.797C9.66369 120.676 9.36535 119.46 9.31793 118.22C9.21351 115.535 10.1513 112.913 11.9352 110.903C12.7586 109.994 13.7437 109.246 14.8402 108.696C15.9301 108.172 17.1131 107.869 18.3208 107.806C19.5744 107.75 20.8268 107.941 22.0069 108.367C23.1842 108.788 24.2653 109.44 25.186 110.286ZM20.5544 112.369C19.8441 112.109 19.0905 111.988 18.3345 112.013C17.6109 112.02 16.8968 112.179 16.2379 112.478C15.5582 112.777 14.9471 113.212 14.4427 113.756C13.9382 114.301 13.5511 114.943 13.3055 115.644C13.0505 116.35 12.9432 117.101 12.9903 117.85C13.0342 118.56 13.2305 119.252 13.5659 119.878C14.2678 121.171 15.433 122.15 16.8272 122.619C17.5372 122.881 18.2904 123.007 19.047 122.989C19.7744 122.975 20.4918 122.817 21.1573 122.523C21.8095 122.231 22.4001 121.817 22.8976 121.304C23.9246 120.187 24.4667 118.708 24.4049 117.192C24.3882 116.468 24.2103 115.757 23.8842 115.11C23.5377 114.47 23.0726 113.903 22.5139 113.438C21.954 112.969 21.3131 112.607 20.6229 112.369H20.5544Z" fill="white"/>
<path d="M37.8613 91.1422C38.3073 91.7526 38.6116 92.4548 38.752 93.1977C38.9019 93.9808 38.9019 94.7853 38.752 95.5684C38.5566 96.4618 38.2287 97.3209 37.7791 98.1173C37.0982 99.3608 36.2029 100.474 35.1344 101.406C34.0731 102.326 32.845 103.033 31.5168 103.489L30.1465 100.036C31.0911 99.6614 31.9843 99.1687 32.8049 98.5695C33.5937 97.9713 34.2435 97.2093 34.7096 96.3358C35.0777 95.7651 35.264 95.0962 35.244 94.4173C35.242 94.1628 35.1691 93.9139 35.0336 93.6985C34.8981 93.4831 34.7052 93.3097 34.4767 93.1977C34.2661 93.0797 34.0322 93.0096 33.7915 92.9922C33.4772 92.9559 33.1597 93.0233 32.8871 93.184C32.5356 93.399 32.2053 93.6467 31.9005 93.924C31.5168 94.2666 31.0509 94.7188 30.5302 95.2944C29.9794 95.9379 29.3938 96.5509 28.7762 97.1306C28.2314 97.6092 27.6169 98.002 26.9537 98.2954C26.3521 98.5654 25.6932 98.6831 25.0353 98.638C24.2594 98.5626 23.5103 98.3145 22.8428 97.9117C22.1639 97.5421 21.5708 97.0331 21.1026 96.418C20.6664 95.8274 20.3626 95.1497 20.2119 94.431C20.0609 93.6757 20.0609 92.8979 20.2119 92.1425C20.3806 91.2819 20.6859 90.4538 21.1163 89.6896C21.6647 88.5877 22.4021 87.5905 23.295 86.7433C24.1836 85.9545 25.1979 85.3199 26.296 84.866L27.9403 88.1411C27.1214 88.5512 26.3455 89.0425 25.6245 89.6074C24.9964 90.11 24.4707 90.7288 24.0761 91.43C23.7362 91.9498 23.5684 92.5635 23.5965 93.184C23.6189 93.4068 23.6956 93.6208 23.8198 93.8071C23.944 93.9935 24.112 94.1465 24.3091 94.2529C24.5405 94.382 24.7982 94.4569 25.0627 94.4721C25.3508 94.4603 25.6303 94.3703 25.8712 94.2118C26.2366 93.9733 26.5764 93.6978 26.8852 93.3896C27.2689 93.0196 27.7485 92.5399 28.2555 92.0192C28.8487 91.3817 29.4901 90.7907 30.1739 90.2515C30.7451 89.7499 31.3988 89.3512 32.1061 89.0729C32.696 88.8508 33.3277 88.7619 33.956 88.8126C34.6565 88.8928 35.3329 89.1167 35.9429 89.4704C36.6975 89.8798 37.3525 90.4506 37.8613 91.1422Z" fill="white"/>
<path d="M38.7794 69.614L50.3995 78.3432L47.9604 81.5498L36.3402 72.8206L33.0104 77.2469L30.1465 75.0269L39.2316 62.9541L42.1777 65.1878L38.7794 69.614Z" fill="white"/>
<path d="M68.0764 51.4295C68.5201 52.5741 68.734 53.7951 68.7058 55.0224C68.6776 56.2498 68.4078 57.4596 67.912 58.5827C67.3743 59.8036 66.596 60.9035 65.6236 61.8167C64.6766 62.7496 63.5542 63.4855 62.3211 63.9819C61.1771 64.4288 59.9592 64.6566 58.731 64.6534C57.523 64.6525 56.3284 64.4005 55.223 63.9134C54.0675 63.4198 53.027 62.6918 52.1672 61.7756C51.2909 60.8762 50.6057 59.8088 50.1529 58.6375C49.7206 57.5001 49.5067 56.2913 49.5225 55.0746C49.5518 53.8361 49.8266 52.6157 50.331 51.4843C50.8685 50.2667 51.6415 49.1676 52.6057 48.2502C53.5539 47.3124 54.6818 46.5759 55.9218 46.0851C57.0647 45.6326 58.2828 45.4001 59.512 45.3999C60.7185 45.4143 61.9104 45.6658 63.02 46.1399C64.1686 46.6457 65.2068 47.372 66.0758 48.2776C66.9517 49.1799 67.6327 50.2527 68.0764 51.4295ZM63.0337 51.1965C62.5232 50.6233 61.9036 50.1574 61.2112 49.8261C60.557 49.5236 59.8487 49.3559 59.1283 49.3328C58.4059 49.3064 57.685 49.4181 57.0044 49.6617C56.2928 49.9273 55.6442 50.338 55.0997 50.8676C54.5436 51.3963 54.1048 52.0359 53.8116 52.745C53.541 53.4001 53.4148 54.1059 53.4416 54.8142C53.4719 55.5293 53.6249 56.2339 53.8938 56.8972C54.1907 57.5901 54.6135 58.222 55.1408 58.7608C55.6612 59.3291 56.2842 59.794 56.977 60.1312C57.6309 60.4389 58.3392 60.6143 59.0612 60.6473C59.7832 60.6802 60.5046 60.57 61.1838 60.323C61.8805 60.0599 62.5117 59.6484 63.0337 59.1171C63.6214 58.6092 64.0894 57.9774 64.404 57.2672C64.6818 56.6086 64.8172 55.8988 64.8014 55.1842C64.7856 54.4673 64.6321 53.7602 64.3492 53.1013C64.0607 52.4071 63.6421 51.7745 63.1159 51.2376L63.0337 51.1965Z" fill="white"/>
<path d="M88.2746 43.2894L81.7383 40.6995L79.1485 42.4809L82.4646 47.2772L79.1622 49.5519L68.8164 34.4781L75.6679 29.7504C77.1049 28.6173 78.9125 28.0603 80.738 28.1882C81.5576 28.2996 82.342 28.5923 83.0341 29.0451C83.7263 29.4978 84.3088 30.0992 84.7393 30.8055C85.5151 31.8339 85.9207 33.0943 85.8903 34.3821C85.8222 35.5668 85.4182 36.7075 84.7256 37.671L92.0841 40.5076L88.2746 43.2894ZM81.5191 33.3681C81.3341 33.0475 81.0742 32.7765 80.7616 32.5784C80.4489 32.3803 80.0929 32.261 79.724 32.2307C78.8996 32.2283 78.0984 32.5035 77.4493 33.0118L74.1743 35.2729L77.1341 39.5758L80.4776 37.2736C81.189 36.8556 81.7172 36.1855 81.9576 35.3962C82.0454 35.0556 82.054 34.6994 81.9827 34.355C81.9115 34.0105 81.7622 33.687 81.5465 33.4092L81.5191 33.3681Z" fill="white"/>
<path d="M99.5797 36.6158L91.1523 20.4457L94.7151 18.5957L103.129 34.7522L99.5797 36.6158Z" fill="white"/>
<path d="M120.189 23.7207C120.202 24.5186 120.038 25.3096 119.709 26.0366C119.366 26.7673 118.865 27.413 118.243 27.9277C117.556 28.5073 116.778 28.9702 115.941 29.298C114.798 29.79 113.547 29.9788 112.31 29.8462C111.288 29.7171 110.298 29.4013 109.391 28.9143L110.761 25.3788C111.372 25.6994 112.028 25.9258 112.707 26.0503C113.319 26.1624 113.951 26.1007 114.529 25.8722C114.844 25.7579 115.13 25.576 115.367 25.3392C115.604 25.1024 115.786 24.8166 115.9 24.5018C116.117 23.7053 116.034 22.8569 115.667 22.1174L111.433 11.1546L115.269 9.66089L119.572 20.7882C119.96 21.7182 120.169 22.7131 120.189 23.7207Z" fill="white"/>
<path d="M143.881 20.8843L141.36 17.2665L133.851 18.9521L133.056 23.2961L129.068 24.1868L132.659 4.57706L136.276 3.76855L147.992 19.9661L143.881 20.8843ZM135.481 8.89367L134.413 15.1836L139.14 14.1147L135.481 8.89367Z" fill="white"/>
</svg>
