<svg width="594" height="594" viewBox="0 0 594 594" fill="none" xmlns="http://www.w3.org/2000/svg">
<path d="M325.017 16.9876C324.319 18.2988 323.325 19.4296 322.115 20.2908C320.877 21.1827 319.473 21.8166 317.986 22.1547C316.356 22.5378 314.679 22.6809 313.008 22.5794L307.77 22.2962L307.251 31.7338L300.362 31.3563L301.99 0L314.777 0.684223C316.491 0.763922 318.181 1.12254 319.779 1.74595C321.14 2.27311 322.377 3.07644 323.412 4.10534C324.398 5.10695 325.148 6.31607 325.607 7.64442C326.095 9.07746 326.295 10.5929 326.196 12.1037C326.192 13.8017 325.788 15.4749 325.017 16.9876ZM319.284 11.9385C319.359 11.272 319.279 10.597 319.05 9.96658C318.821 9.33616 318.448 8.76744 317.962 8.30505C316.828 7.38588 315.412 6.88591 313.952 6.88942L308.62 6.5827L308.101 16.1618L313.551 16.5157C314.277 16.6049 315.014 16.5486 315.719 16.3501C316.424 16.1516 317.082 15.8149 317.656 15.3596C318.148 14.9578 318.548 14.4549 318.829 13.885C319.109 13.3151 319.265 12.6915 319.284 12.0565V11.9385Z" fill="#FFF9EF"/>
<path d="M357.575 38.4106L353.021 27.2035L347.713 26.1182L345.684 35.9332L338.913 34.5412L345.283 3.86914L359.439 6.77119C362.553 7.21656 365.392 8.79614 367.413 11.2068C368.251 12.3587 368.821 13.6828 369.082 15.0827C369.343 16.4826 369.289 17.9232 368.923 19.2996C368.582 21.497 367.5 23.5118 365.856 25.0093C364.289 26.2945 362.392 27.1122 360.382 27.3687L365.479 40.1094L357.575 38.4106ZM361.892 18.1906C362.068 17.5781 362.093 16.9323 361.965 16.308C361.838 15.6837 361.562 15.0993 361.161 14.6044C360.185 13.5743 358.887 12.9084 357.481 12.7169L350.78 11.3248L348.94 20.1489L355.782 21.5646C357.145 21.9578 358.604 21.8404 359.887 21.2342C360.411 20.9324 360.861 20.5173 361.204 20.0193C361.546 19.5213 361.774 18.9529 361.869 18.3558L361.892 18.1906Z" fill="#FFF9EF"/>
<path d="M410.871 46.3151C409.408 47.8122 407.669 49.0137 405.752 49.8542C403.802 50.7126 401.7 51.1699 399.57 51.1991C394.945 51.2437 390.478 49.5126 387.09 46.3623C385.556 44.8954 384.314 43.1498 383.433 41.2188C382.574 39.3349 382.109 37.2958 382.064 35.226C382.024 33.0645 382.409 30.9161 383.197 28.9028C384.76 24.903 387.837 21.6811 391.761 19.9372C393.726 19.1007 395.831 18.6444 397.966 18.5923C400.26 18.5624 402.538 18.9874 404.667 19.8428C408.833 21.4062 412.221 24.5401 414.104 28.5725C414.955 30.4663 415.412 32.5131 415.448 34.589C415.512 36.7523 415.126 38.9053 414.316 40.9121C413.549 42.9297 412.377 44.7686 410.871 46.3151ZM407.592 38.2696C408.077 37.0619 408.325 35.7723 408.323 34.471C408.33 33.225 408.089 31.9901 407.616 30.8375C407.14 29.683 406.443 28.633 405.563 27.7467C404.626 26.8372 403.518 26.1228 402.303 25.6449C401.088 25.167 399.79 24.9351 398.485 24.9627C397.264 25.0141 396.067 25.3194 394.97 25.8592C393.859 26.3999 392.865 27.1534 392.044 28.077C391.159 29.026 390.469 30.1405 390.015 31.3566C389.532 32.5648 389.284 33.854 389.284 35.1552C389.257 36.4084 389.49 37.6535 389.968 38.8123C390.451 39.9505 391.138 40.9902 391.997 41.8795C392.932 42.7911 394.04 43.507 395.255 43.985C396.471 44.4631 397.769 44.6938 399.075 44.6636C400.305 44.6233 401.513 44.3174 402.614 43.767C403.719 43.2273 404.712 42.4827 405.539 41.5728C406.407 40.6101 407.094 39.4992 407.568 38.2932L407.592 38.2696Z" fill="#FFF9EF"/>
<path d="M443.241 69.0358C442.167 69.7761 440.942 70.2677 439.655 70.4751C438.301 70.6604 436.924 70.5884 435.597 70.2627C434.059 69.8927 432.586 69.2879 431.232 68.4696C429.154 67.2269 427.31 65.6299 425.782 63.7508C424.22 61.8837 423.042 59.727 422.314 57.4041L428.307 55.257C428.875 56.9297 429.669 58.5172 430.666 59.9758C431.645 61.3763 432.927 62.5376 434.417 63.3733C435.389 64.0228 436.528 64.3753 437.697 64.3879C438.134 64.3931 438.564 64.2768 438.939 64.0518C439.314 63.8268 439.619 63.5021 439.82 63.1138C440.027 62.7597 440.156 62.3655 440.198 61.9577C440.22 61.4944 440.105 61.0348 439.867 60.6364C439.536 60.009 439.133 59.4229 438.664 58.8905C437.918 58.0648 437.13 57.2773 436.305 56.5311C435.226 55.4914 434.209 54.3884 433.261 53.2279C432.449 52.2727 431.789 51.1985 431.303 50.0428C430.899 48.9832 430.737 47.8463 430.831 46.716C430.985 45.3861 431.446 44.1101 432.176 42.9882C432.841 41.8302 433.751 40.8317 434.842 40.0625C435.873 39.34 437.048 38.849 438.287 38.6233C439.595 38.3651 440.942 38.3651 442.25 38.6233C443.714 38.9579 445.116 39.5233 446.403 40.2985C450.116 42.3937 452.967 45.7376 454.448 49.736L448.715 52.4257C448.06 51.0008 447.27 49.6419 446.355 48.3676C445.523 47.2625 444.481 46.3325 443.288 45.6307C442.414 45.0166 441.358 44.7172 440.292 44.7813C439.911 44.8087 439.542 44.9282 439.217 45.1296C438.893 45.331 438.622 45.6082 438.428 45.9374C438.174 46.3146 438.035 46.757 438.027 47.2115C438.016 47.7129 438.155 48.2061 438.428 48.6271C438.81 49.2783 439.269 49.8805 439.796 50.4203C440.41 51.0809 441.212 51.9303 442.156 52.9212C443.214 53.9694 444.199 55.0888 445.105 56.2715C445.85 57.2563 446.446 58.3454 446.874 59.5039C447.234 60.5246 447.355 61.6143 447.228 62.6891C447.071 63.8972 446.652 65.0565 446.001 66.0866C445.299 67.2526 444.358 68.2575 443.241 69.0358Z" fill="#FFF9EF"/>
<path d="M480.211 71.5843L464.781 91.1672L459.379 86.8731L474.926 67.2902L467.329 61.3445L471.293 56.3662L491.654 72.528L487.69 77.5299L480.211 71.5843Z" fill="#FFF9EF"/>
<path d="M510.174 122.854C508.195 123.532 506.108 123.844 504.016 123.774C501.865 123.674 499.755 123.145 497.811 122.217C494.764 120.808 492.195 118.539 490.421 115.688C488.648 112.837 487.748 109.529 487.832 106.173C487.903 104.099 488.392 102.06 489.271 100.18C490.183 98.2035 491.483 96.4303 493.093 94.9657C494.654 93.5236 496.486 92.4057 498.483 91.6767C500.479 90.9477 502.601 90.6221 504.724 90.7188C506.857 90.8271 508.948 91.3479 510.882 92.2524C512.954 93.2442 514.814 94.6306 516.355 96.3341C517.92 98.0105 519.132 99.9843 519.918 102.138C520.655 104.121 521 106.229 520.933 108.343C520.867 110.418 520.377 112.458 519.493 114.336C518.578 116.297 517.278 118.054 515.671 119.503C514.086 120.983 512.216 122.123 510.174 122.854ZM510.788 114.195C511.76 113.32 512.56 112.272 513.147 111.104C513.702 109.991 514.038 108.781 514.138 107.541C514.215 106.296 514.055 105.046 513.666 103.861C513.222 102.629 512.539 101.496 511.656 100.529C510.773 99.5611 509.709 98.7771 508.523 98.2216C507.383 97.7001 506.143 97.4343 504.889 97.443C503.662 97.4508 502.447 97.6827 501.303 98.1273C500.089 98.5964 498.976 99.2931 498.024 100.18C497.052 101.045 496.252 102.086 495.664 103.247C494.811 104.956 494.496 106.883 494.762 108.775C495.027 110.666 495.86 112.433 497.151 113.841C498.02 114.839 499.089 115.642 500.289 116.2C501.407 116.71 502.622 116.975 503.851 116.979C505.086 116.973 506.31 116.741 507.461 116.295C508.664 115.828 509.768 115.14 510.717 114.265L510.788 114.195Z" fill="#FFF9EF"/>
<path d="M523.292 158.079L528.01 146.967L525.061 142.413L516.686 147.84L512.911 142.059L539.193 125.048L547.026 137.081C548.869 139.624 549.709 142.757 549.386 145.881C549.152 147.287 548.607 148.622 547.79 149.79C546.974 150.957 545.907 151.927 544.667 152.629C542.86 153.911 540.675 154.551 538.462 154.446C536.422 154.271 534.474 153.518 532.847 152.275L527.633 164.827L523.292 158.079ZM540.68 146.919C541.22 146.61 541.679 146.177 542.019 145.656C542.359 145.136 542.571 144.542 542.638 143.923C542.692 142.501 542.259 141.102 541.411 139.959L537.684 134.202L530.11 139.11L533.932 144.985C534.621 146.222 535.749 147.157 537.094 147.604C537.677 147.763 538.289 147.791 538.885 147.685C539.481 147.579 540.046 147.341 540.538 146.99L540.68 146.919Z" fill="#FFF9EF"/>
<path d="M534.239 177.804L562.551 164.072L565.57 170.277L537.259 184.009L534.239 177.804Z" fill="#FFF9EF"/>
<path d="M555.473 213.902C554.059 213.892 552.666 213.57 551.391 212.958C550.15 212.34 549.068 211.444 548.23 210.339C547.29 209.131 546.557 207.776 546.059 206.329C545.266 204.338 545.006 202.175 545.304 200.053C545.569 198.298 546.161 196.61 547.05 195.074L553.066 197.434C552.478 198.481 552.048 199.61 551.792 200.784C551.589 201.824 551.67 202.901 552.028 203.898C552.192 204.452 552.476 204.963 552.859 205.396C553.242 205.828 553.716 206.17 554.246 206.399C555.603 206.809 557.063 206.709 558.351 206.116L577.391 199.345L579.75 205.998L560.404 212.911C558.836 213.544 557.164 213.88 555.473 213.902Z" fill="#FFF9EF"/>
<path d="M559.153 254.649L565.5 250.473L562.952 237.449L555.496 235.986L554.128 229.097L587.724 236.175L588.951 242.427L560.64 261.727L559.153 254.649ZM580.198 240.823L569.393 238.699L571.021 246.886L580.198 240.823Z" fill="#FFF9EF"/>
<path d="M577.202 322.481C575.89 321.794 574.753 320.818 573.875 319.626C572.982 318.384 572.333 316.982 571.964 315.497C571.577 313.868 571.418 312.192 571.492 310.519L571.728 305.281L562.291 304.856L562.598 297.943L593.953 299.359L593.363 312.17C593.321 313.884 592.978 315.578 592.348 317.172C591.827 318.55 591.023 319.804 589.989 320.853C588.983 321.838 587.776 322.595 586.45 323.071C585.024 323.557 583.519 323.765 582.015 323.684C580.338 323.667 578.689 323.255 577.202 322.481ZM582.227 316.701C582.888 316.773 583.557 316.689 584.18 316.455C584.803 316.222 585.363 315.845 585.813 315.356C586.731 314.213 587.223 312.787 587.205 311.321L587.465 305.989L577.862 305.564L577.626 311.014C577.471 312.484 577.894 313.957 578.806 315.12C579.221 315.599 579.731 315.987 580.303 316.26C580.876 316.532 581.499 316.682 582.133 316.701H582.227Z" fill="#FFF9EF"/>
<path d="M556.086 355.23L567.246 350.511L568.284 345.202L558.445 343.244L559.79 336.473L590.461 342.56L587.677 356.716C587.263 359.838 585.709 362.695 583.312 364.738C582.166 365.579 580.848 366.154 579.453 366.424C578.058 366.693 576.62 366.649 575.244 366.295C573.042 365.962 571.02 364.889 569.51 363.252C568.168 361.715 567.3 359.822 567.01 357.802L554.435 363.157L556.086 355.23ZM576.329 359.382C576.944 359.545 577.589 359.561 578.211 359.43C578.834 359.299 579.417 359.024 579.915 358.627C580.933 357.636 581.59 356.332 581.779 354.923L583.124 348.199L574.276 346.453L572.908 353.319C572.539 354.687 572.699 356.145 573.356 357.4C573.664 357.917 574.082 358.36 574.579 358.698C575.076 359.036 575.641 359.262 576.234 359.359L576.329 359.382Z" fill="#FFF9EF"/>
<path d="M548.654 408.599C547.125 407.143 545.898 405.399 545.043 403.468C544.189 401.537 543.725 399.456 543.676 397.345C543.614 392.723 545.299 388.248 548.395 384.816C549.854 383.282 551.581 382.026 553.491 381.112C555.38 380.239 557.427 379.757 559.507 379.696C561.666 379.628 563.817 379.997 565.83 380.782C567.856 381.538 569.709 382.693 571.28 384.179C572.824 385.634 574.074 387.372 574.96 389.299C575.824 391.249 576.297 393.349 576.352 395.481C576.406 397.778 576.005 400.063 575.173 402.205C574.385 404.358 573.173 406.332 571.61 408.009C570.165 409.559 568.435 410.817 566.514 411.713C564.634 412.589 562.595 413.071 560.522 413.129C558.365 413.192 556.217 412.831 554.199 412.067C552.127 411.315 550.237 410.133 548.654 408.599ZM556.676 405.249C557.889 405.713 559.176 405.953 560.474 405.957C561.721 405.954 562.956 405.705 564.106 405.223C565.256 404.741 566.299 404.036 567.175 403.149C568.089 402.204 568.797 401.079 569.251 399.846C569.733 398.623 569.95 397.312 569.888 396C569.826 394.777 569.513 393.581 568.968 392.484C568.41 391.385 567.65 390.4 566.727 389.582C565.771 388.717 564.658 388.044 563.447 387.6C562.236 387.133 560.947 386.9 559.649 386.916C558.4 386.903 557.162 387.152 556.015 387.648C554.865 388.118 553.822 388.816 552.948 389.7C552.025 390.638 551.316 391.765 550.872 393.003C550.388 394.225 550.171 395.537 550.235 396.849C550.275 398.075 550.589 399.277 551.155 400.365C551.704 401.464 552.457 402.448 553.373 403.267C554.333 404.144 555.455 404.825 556.676 405.272V405.249Z" fill="#FFF9EF"/>
<path d="M526.241 441.206C525.494 440.142 524.994 438.925 524.778 437.643C524.564 436.285 524.62 434.898 524.943 433.561C525.31 432.029 525.899 430.559 526.689 429.197C527.887 427.121 529.436 425.269 531.266 423.723C533.141 422.112 535.325 420.899 537.684 420.16L539.878 426.129C538.205 426.697 536.617 427.491 535.159 428.489C533.772 429.478 532.627 430.769 531.809 432.264C531.168 433.238 530.824 434.377 530.818 435.543C530.832 435.979 530.96 436.404 531.187 436.776C531.414 437.148 531.734 437.455 532.116 437.667C532.474 437.863 532.866 437.991 533.272 438.044C533.736 438.047 534.192 437.924 534.593 437.69C535.207 437.34 535.784 436.929 536.315 436.464C537.141 435.717 537.928 434.93 538.674 434.104C539.699 433.004 540.786 431.964 541.93 430.99C542.885 430.178 543.96 429.517 545.115 429.031C546.161 428.605 547.294 428.435 548.418 428.536C549.749 428.685 551.031 429.128 552.17 429.834C553.328 430.496 554.334 431.397 555.119 432.476C555.848 433.497 556.348 434.664 556.582 435.897C556.852 437.205 556.852 438.554 556.582 439.861C556.287 441.334 555.745 442.746 554.977 444.037C553.917 445.922 552.545 447.613 550.919 449.039C549.364 450.357 547.603 451.409 545.705 452.153L542.992 446.467C544.402 445.812 545.745 445.022 547.003 444.108C548.102 443.266 549.024 442.216 549.716 441.017C550.327 440.134 550.618 439.068 550.542 437.997C550.508 437.618 550.383 437.253 550.178 436.932C549.972 436.612 549.693 436.346 549.362 436.157C548.964 435.931 548.521 435.794 548.064 435.756C547.561 435.754 547.068 435.902 546.649 436.18C546.01 436.579 545.417 437.045 544.879 437.572C544.219 438.186 543.369 439.012 542.402 439.932C541.366 441.01 540.245 442.004 539.052 442.905C538.093 443.669 537.018 444.275 535.867 444.698C534.843 445.077 533.744 445.215 532.658 445.099C531.456 444.933 530.3 444.523 529.261 443.896C528.076 443.221 527.047 442.305 526.241 441.206Z" fill="#FFF9EF"/>
<path d="M524.023 478.177L504.3 462.794L508.546 457.344L528.27 472.727L534.145 465.201L539.146 469.117L523.174 489.62L518.149 485.704L524.023 478.177Z" fill="#FFF9EF"/>
<path d="M473.039 508.59C472.313 506.621 471.977 504.53 472.048 502.432C472.155 500.305 472.659 498.216 473.534 496.274C475.526 492.102 479.025 488.84 483.325 487.143C485.309 486.405 487.414 486.045 489.53 486.082C491.609 486.134 493.656 486.607 495.547 487.474C497.517 488.363 499.284 489.648 500.737 491.249C502.931 493.587 504.376 496.529 504.885 499.695C505.393 502.861 504.943 506.107 503.592 509.015C502.627 511.105 501.256 512.982 499.557 514.536C496.35 517.626 492.05 519.323 487.596 519.255C485.526 519.211 483.487 518.745 481.603 517.886C479.63 516.989 477.857 515.706 476.389 514.111C474.899 512.525 473.758 510.644 473.039 508.59ZM481.697 509.133C482.572 510.105 483.62 510.905 484.788 511.492C485.906 512.041 487.122 512.364 488.365 512.441C489.608 512.517 490.854 512.348 492.031 511.941C493.274 511.514 494.41 510.822 495.358 509.912C496.361 509.029 497.165 507.943 497.717 506.726C498.2 505.609 498.449 504.405 498.448 503.187C498.423 501.952 498.184 500.731 497.741 499.577C497.262 498.377 496.557 497.28 495.664 496.345C494.783 495.371 493.727 494.57 492.55 493.986C491.44 493.431 490.227 493.11 488.988 493.042C487.696 492.935 486.397 493.105 485.176 493.54C483.956 493.975 482.842 494.666 481.91 495.566C480.909 496.442 480.105 497.52 479.551 498.728C479.054 499.849 478.804 501.064 478.819 502.291C478.819 503.521 479.06 504.739 479.527 505.877C480.011 507.082 480.715 508.186 481.603 509.133H481.697Z" fill="#FFF9EF"/>
<path d="M437.98 522.015L449.116 526.734L453.646 523.737L448.101 515.361L453.858 511.539L471.199 537.705L459.237 545.632C456.718 547.52 453.598 548.426 450.46 548.18C449.046 547.945 447.702 547.4 446.523 546.584C445.344 545.769 444.36 544.702 443.642 543.462C442.335 541.665 441.677 539.476 441.778 537.256C441.931 535.223 442.659 533.275 443.878 531.641L431.303 526.545L437.98 522.015ZM449.281 539.309C449.592 539.861 450.031 540.331 450.56 540.68C451.089 541.029 451.694 541.246 452.324 541.314C453.751 541.346 455.147 540.897 456.288 540.04L461.997 536.265L457.019 528.739L451.192 532.608C449.962 533.311 449.036 534.447 448.597 535.794C448.435 536.378 448.409 536.992 448.519 537.589C448.63 538.186 448.874 538.75 449.234 539.238L449.281 539.309Z" fill="#FFF9EF"/>
<path d="M418.327 533.222L432.318 561.298L426.136 564.389L412.146 536.289L418.327 533.222Z" fill="#FFF9EF"/>
<path d="M382.418 554.693C382.421 553.281 382.735 551.888 383.338 550.611C383.939 549.366 384.819 548.276 385.91 547.426C387.116 546.471 388.471 545.722 389.921 545.208C391.909 544.405 394.069 544.121 396.197 544.382C397.951 544.65 399.644 545.225 401.198 546.081L398.721 552.098C397.68 551.52 396.559 551.098 395.394 550.847C394.344 550.65 393.26 550.74 392.257 551.107C391.697 551.296 391.185 551.605 390.757 552.012C390.329 552.42 389.996 552.916 389.779 553.466C389.379 554.826 389.488 556.286 390.086 557.571L397.164 576.447L390.511 578.806L383.433 559.53C382.818 557.988 382.475 556.352 382.418 554.693Z" fill="#FFF9EF"/>
<path d="M341.673 558.845L345.896 565.145L358.896 562.479L360.288 555L367.177 553.584L360.383 587.252L354.154 588.527L334.595 560.214L341.673 558.845ZM355.688 579.75L357.717 568.944L349.553 570.619L355.688 579.75Z" fill="#FFF9EF"/>
<path d="M274.009 577.413C274.686 576.096 275.654 574.951 276.84 574.063C278.07 573.158 279.464 572.501 280.945 572.128C282.568 571.703 284.247 571.528 285.923 571.609L291.184 571.798L291.515 562.36L298.404 562.62L297.271 594L284.46 593.528C282.75 593.498 281.057 593.171 279.459 592.56C278.076 592.049 276.82 591.245 275.778 590.201C274.743 589.226 273.937 588.034 273.419 586.709C272.914 585.279 272.69 583.765 272.758 582.25C272.798 580.563 273.226 578.908 274.009 577.413ZM279.836 582.368C279.77 583.037 279.861 583.712 280.103 584.339C280.344 584.965 280.73 585.527 281.228 585.978C282.382 586.87 283.804 587.344 285.263 587.323L290.595 587.511L290.948 577.932L285.475 577.744C284.009 577.594 282.543 578.026 281.393 578.947C280.921 579.365 280.541 579.877 280.277 580.449C280.013 581.022 279.871 581.643 279.86 582.274L279.836 582.368Z" fill="#FFF9EF"/>
<path d="M241.073 556.58L245.792 567.692L251.124 568.707L252.987 558.845L259.759 560.119L253.955 590.956L239.799 588.29C236.671 587.906 233.796 586.376 231.73 583.996C230.872 582.858 230.279 581.544 229.993 580.148C229.707 578.752 229.736 577.31 230.079 575.927C230.398 573.729 231.445 571.702 233.051 570.17C234.585 568.828 236.466 567.945 238.478 567.621L233.028 555.188L241.073 556.58ZM237.109 576.87C236.944 577.483 236.929 578.127 237.065 578.746C237.2 579.366 237.482 579.945 237.888 580.433C238.885 581.452 240.2 582.101 241.616 582.273L248.34 583.547L250.015 574.7L243.149 573.402C241.777 573.047 240.322 573.216 239.068 573.874C238.547 574.181 238.103 574.601 237.768 575.104C237.433 575.606 237.216 576.178 237.133 576.776L237.109 576.87Z" fill="#FFF9EF"/>
<path d="M187.635 549.738C189.069 548.214 190.783 546.98 192.684 546.104C194.618 545.212 196.713 544.722 198.842 544.665C201.142 544.577 203.437 544.954 205.589 545.774C207.743 546.543 209.723 547.729 211.417 549.266C212.975 550.706 214.248 552.427 215.168 554.338C216.045 556.212 216.543 558.241 216.631 560.308C216.723 562.47 216.378 564.629 215.616 566.654C214.902 568.681 213.786 570.542 212.337 572.128C210.865 573.633 209.119 574.842 207.193 575.691C205.247 576.574 203.148 577.071 201.012 577.154C197.645 577.305 194.307 576.467 191.41 574.744C188.513 573.021 186.184 570.488 184.709 567.457C183.818 565.588 183.32 563.556 183.247 561.487C183.154 559.325 183.499 557.166 184.261 555.141C185.009 553.13 186.157 551.292 187.635 549.738ZM191.103 557.618C190.616 558.865 190.376 560.196 190.395 561.535C190.404 562.748 190.644 563.95 191.103 565.074C191.589 566.22 192.303 567.256 193.203 568.117C194.151 569.021 195.276 569.719 196.506 570.17C197.732 570.636 199.042 570.837 200.351 570.76C201.576 570.692 202.773 570.371 203.867 569.816C206.072 568.604 207.752 566.622 208.585 564.248C209.035 563.024 209.259 561.729 209.246 560.426C209.227 559.183 208.962 557.956 208.467 556.816C207.979 555.676 207.274 554.642 206.391 553.772C205.45 552.848 204.313 552.146 203.065 551.719C201.838 551.254 200.529 551.046 199.219 551.106C197.994 551.174 196.797 551.495 195.704 552.05C194.603 552.646 193.626 553.447 192.825 554.409C191.959 555.382 191.286 556.511 190.844 557.736L191.103 557.618Z" fill="#FFF9EF"/>
<path d="M154.911 527.536C155.96 526.772 157.171 526.263 158.45 526.049C159.798 525.78 161.185 525.78 162.532 526.049C164.068 526.393 165.54 526.974 166.897 527.772C168.996 528.935 170.873 530.461 172.441 532.278C174.057 534.139 175.285 536.305 176.051 538.648L170.105 541.008C169.436 539.386 168.564 537.856 167.51 536.454C166.521 535.124 165.258 534.021 163.806 533.222C162.821 532.59 161.673 532.262 160.503 532.278C160.065 532.282 159.636 532.407 159.265 532.64C158.895 532.874 158.596 533.206 158.403 533.599C158.201 533.954 158.08 534.349 158.049 534.755C158.047 535.212 158.169 535.661 158.403 536.053C158.747 536.671 159.159 537.248 159.63 537.775C160.22 538.436 160.998 539.238 161.989 540.135C163.099 541.164 164.155 542.251 165.151 543.391C165.976 544.337 166.652 545.403 167.156 546.552C167.583 547.599 167.769 548.728 167.699 549.856C167.548 551.19 167.113 552.477 166.425 553.631C165.787 554.806 164.902 555.828 163.83 556.627C162.805 557.354 161.64 557.861 160.409 558.113C159.1 558.373 157.753 558.373 156.445 558.113C154.977 557.813 153.568 557.279 152.269 556.533C150.379 555.489 148.68 554.133 147.244 552.522C145.854 551.006 144.729 549.267 143.917 547.378L149.579 544.618C150.272 546.03 151.11 547.367 152.08 548.605C152.928 549.692 153.978 550.605 155.171 551.295C156.073 551.883 157.14 552.164 158.214 552.097C158.592 552.057 158.954 551.927 159.27 551.718C159.586 551.508 159.847 551.226 160.031 550.894C160.265 550.499 160.402 550.054 160.432 549.596C160.411 549.096 160.265 548.609 160.008 548.18C159.597 547.551 159.123 546.966 158.592 546.434C157.955 545.75 157.129 544.948 156.233 543.957C155.148 542.93 154.139 541.826 153.213 540.654C152.442 539.696 151.828 538.62 151.396 537.469C151.025 536.451 150.88 535.364 150.971 534.284C151.126 533.078 151.519 531.915 152.127 530.862C152.803 529.565 153.753 528.429 154.911 527.536Z" fill="#FFF9EF"/>
<path d="M117.965 525.625L133.159 505.782L138.632 509.982L123.438 529.824L130.917 535.581L127.048 540.654L106.404 524.846L110.274 519.773L117.965 525.625Z" fill="#FFF9EF"/>
<path d="M86.9636 474.875C90.9541 473.386 95.3706 473.53 99.2556 475.276C103.472 477.216 106.788 480.693 108.528 484.996C109.296 486.973 109.673 489.081 109.636 491.202C109.604 493.275 109.155 495.322 108.315 497.218C107.438 499.237 106.153 501.052 104.54 502.55C102.985 504.051 101.138 505.215 99.114 505.971C97.1372 506.725 95.0303 507.077 92.9159 507.008C90.8016 506.939 88.7221 506.451 86.7985 505.57C84.7102 504.624 82.833 503.268 81.2777 501.583C78.2318 498.413 76.5395 494.182 76.5591 489.786C76.6118 487.667 77.0877 485.579 77.9588 483.647C78.8299 481.714 80.0787 479.975 81.6316 478.532C83.1453 476.967 84.9587 475.723 86.9636 474.875ZM86.4918 483.534C85.5154 484.422 84.7151 485.487 84.1325 486.672C83.5988 487.797 83.2865 489.015 83.2123 490.258C83.1504 491.501 83.3348 492.744 83.755 493.915C84.1967 495.149 84.8964 496.275 85.8076 497.218C86.6946 498.216 87.7791 499.02 88.9926 499.577C90.1209 500.047 91.3334 500.279 92.5552 500.262C93.7853 500.24 95.0009 499.992 96.1413 499.53C97.3427 499.043 98.4398 498.33 99.3735 497.43C100.342 496.544 101.141 495.488 101.733 494.316C102.267 493.182 102.579 491.957 102.653 490.706C102.708 489.471 102.524 488.238 102.11 487.073C101.682 485.825 100.981 484.688 100.058 483.746C99.175 482.743 98.0894 481.939 96.8727 481.387C95.7492 480.899 94.5345 480.658 93.3101 480.679C92.0724 480.701 90.8491 480.949 89.7004 481.41C88.5082 481.912 87.42 482.632 86.4918 483.534Z" fill="#FFF9EF"/>
<path d="M73.2562 439.979L68.7027 451.186L71.7462 455.669L80.0509 450.053L83.9202 455.763L57.9679 473.341L49.9463 461.544C47.9538 459.052 46.9687 455.903 47.1859 452.72C47.4179 451.307 47.9618 449.965 48.7781 448.789C49.5944 447.614 50.6624 446.635 51.9045 445.925C53.6858 444.597 55.8656 443.915 58.0859 443.99C60.0992 444.11 62.0411 444.779 63.701 445.925L68.6791 433.302L73.2562 439.979ZM56.0569 451.445C55.5111 451.768 55.0479 452.213 54.7039 452.745C54.3599 453.277 54.1446 453.883 54.0751 454.513C54.0608 455.937 54.5262 457.325 55.3963 458.453L59.2184 464.139L66.6973 459.09L62.7809 453.309C62.0637 452.082 60.9226 451.159 59.5723 450.714C58.9827 450.573 58.3696 450.561 57.775 450.679C57.1804 450.797 56.6184 451.042 56.1277 451.398L56.0569 451.445Z" fill="#FFF9EF"/>
<path d="M61.9551 420.443L33.9975 434.6L30.8596 428.442L58.8173 414.285L61.9551 420.443Z" fill="#FFF9EF"/>
<path d="M40.108 384.58C41.5226 384.579 42.9215 384.876 44.2132 385.453C45.4564 386.057 46.5518 386.927 47.4218 388.001C48.3893 389.203 49.147 390.559 49.6632 392.012C50.4914 393.985 50.7922 396.14 50.5361 398.265C50.2949 400.019 49.7352 401.714 48.8846 403.266L42.8212 400.907C43.3862 399.856 43.7917 398.727 44.0245 397.557C44.2132 396.512 44.1153 395.436 43.7413 394.442C43.5522 393.882 43.243 393.371 42.8355 392.943C42.428 392.515 41.9319 392.181 41.382 391.965C40.0079 391.584 38.5426 391.71 37.2533 392.319L18.3789 399.397L15.8781 392.767L35.0827 385.524C36.6853 384.902 38.3891 384.582 40.108 384.58Z" fill="#FFF9EF"/>
<path d="M35.5546 343.999L29.2788 348.293L32.0864 361.246L39.5654 362.567L41.0517 369.457L7.31379 362.968L5.96899 356.763L34.021 336.944L35.5546 343.999ZM14.7692 358.155L25.5983 360.09L23.8289 351.926L14.7692 358.155Z" fill="#FFF9EF"/>
<path d="M16.3735 276.521C17.6961 277.189 18.8497 278.149 19.7473 279.328C20.6685 280.555 21.3417 281.949 21.7291 283.434C22.1619 285.048 22.3528 286.718 22.2953 288.388L22.1538 293.65L31.591 293.886L31.3786 300.799L0 299.949L0.353894 287.114C0.370981 285.407 0.682245 283.714 1.27402 282.112C1.8004 280.73 2.6032 279.47 3.63332 278.408C4.59608 277.38 5.77165 276.575 7.07789 276.049C8.49413 275.518 10.0024 275.278 11.5134 275.341C13.2021 275.359 14.8644 275.762 16.3735 276.521ZM11.4662 282.396C10.7998 282.339 10.1294 282.438 9.50735 282.683C8.88529 282.929 8.32837 283.315 7.88005 283.811C6.99131 284.965 6.525 286.389 6.55884 287.846L6.41729 293.178L15.996 293.437L16.1612 287.987C16.294 286.512 15.8358 285.044 14.8872 283.906C14.47 283.432 13.9586 283.052 13.3858 282.787C12.8129 282.523 12.1913 282.382 11.5606 282.372L11.4662 282.396Z" fill="#FFF9EF"/>
<path d="M36.8994 243.371L25.9523 248.231L24.985 253.563L34.8704 255.333L33.6672 262.128L2.66602 256.607L5.19046 242.451C5.5643 239.33 7.07644 236.457 9.4372 234.382C10.5676 233.518 11.8754 232.915 13.2665 232.618C14.6576 232.32 16.0974 232.334 17.4824 232.659C19.6859 232.948 21.7248 233.98 23.2627 235.585C24.6603 237.099 25.5939 238.982 25.9523 241.012L38.315 235.443L36.8994 243.371ZM16.5151 239.619C15.9005 239.458 15.256 239.446 14.6359 239.586C14.0159 239.725 13.4386 240.012 12.9525 240.422C11.9541 241.431 11.3157 242.741 11.1359 244.15L9.93265 250.897L18.8744 252.455L20.1012 245.565C20.4487 244.19 20.2721 242.735 19.6058 241.483C19.29 240.968 18.8638 240.529 18.3579 240.199C17.8519 239.868 17.2789 239.654 16.6802 239.572L16.5151 239.619Z" fill="#FFF9EF"/>
<path d="M43.3639 189.883C46.5059 192.777 48.3724 196.799 48.5543 201.067C48.7677 204.441 47.9875 207.804 46.3102 210.739C44.633 213.674 42.1322 216.054 39.1171 217.583C37.2516 218.489 35.2201 219.003 33.1481 219.093C30.9906 219.21 28.8317 218.889 26.8016 218.149C24.7234 217.406 22.8259 216.232 21.2337 214.704C19.6968 213.289 18.4472 211.591 17.5532 209.702C16.6385 207.773 16.1249 205.678 16.0432 203.544C15.8634 198.92 17.4781 194.406 20.5495 190.945C21.9672 189.38 23.6632 188.092 25.5512 187.147C27.4276 186.244 29.4645 185.723 31.5438 185.613C33.7022 185.517 35.8584 185.846 37.8903 186.58C39.9174 187.304 41.7786 188.427 43.3639 189.883ZM35.3894 193.47C34.1666 193.022 32.869 192.814 31.5674 192.856C30.3215 192.87 29.0921 193.143 27.9577 193.658C26.7874 194.172 25.7352 194.921 24.8666 195.859C23.9981 196.796 23.3316 197.903 22.9088 199.109C22.4697 200.324 22.285 201.617 22.3661 202.907C22.4417 204.129 22.7797 205.32 23.357 206.399C24.5657 208.625 26.5717 210.311 28.9722 211.118C30.1946 211.569 31.4914 211.786 32.7942 211.755C34.0466 211.731 35.2817 211.459 36.4275 210.953C37.5505 210.449 38.5674 209.737 39.4238 208.853C41.1921 206.93 42.1255 204.385 42.0191 201.775C41.9902 200.528 41.684 199.302 41.1225 198.188C40.5259 197.088 39.7252 196.111 38.7632 195.31C37.7992 194.503 36.6958 193.88 35.5074 193.47H35.3894Z" fill="#FFF9EF"/>
<path d="M65.1873 156.923C65.9553 157.974 66.4792 159.183 66.7209 160.462C66.979 161.811 66.979 163.196 66.7209 164.544C66.3845 166.082 65.8199 167.561 65.0457 168.932C63.8734 171.074 62.3319 172.991 60.4923 174.595C58.665 176.178 56.5505 177.396 54.2638 178.181L51.9045 172.236C53.5307 171.591 55.0687 170.743 56.4815 169.711C57.8396 168.681 58.9585 167.369 59.7609 165.865C60.3946 164.883 60.7155 163.731 60.6811 162.562C60.6775 162.124 60.5521 161.695 60.3187 161.325C60.0854 160.954 59.7533 160.655 59.3598 160.462C58.9974 160.259 58.5946 160.138 58.1802 160.108C57.639 160.046 57.0923 160.162 56.6231 160.439C56.0179 160.809 55.4491 161.235 54.9244 161.713C54.2638 162.303 53.4616 163.081 52.5651 164.072C51.6167 165.18 50.6085 166.236 49.5452 167.234C48.6071 168.058 47.549 168.734 46.4073 169.239C45.3715 169.704 44.237 169.907 43.1043 169.829C41.7684 169.699 40.4786 169.272 39.3294 168.579C38.1605 167.942 37.1394 167.066 36.3331 166.007C35.5822 164.99 35.0591 163.823 34.7996 162.586C34.5396 161.285 34.5396 159.946 34.7996 158.646C35.0901 157.164 35.6158 155.738 36.3567 154.422C37.3009 152.525 38.5706 150.808 40.108 149.35C41.6379 147.991 43.3843 146.899 45.2749 146.117L48.106 151.756C46.6959 152.462 45.3602 153.308 44.1188 154.281C43.0372 155.146 42.1321 156.211 41.4528 157.419C40.8675 158.314 40.5786 159.37 40.627 160.439C40.6656 160.822 40.7976 161.191 41.0115 161.512C41.2253 161.832 41.5146 162.096 41.8539 162.279C42.2523 162.501 42.696 162.63 43.1515 162.657C43.6476 162.636 44.1287 162.481 44.5435 162.208C45.1726 161.798 45.7576 161.323 46.2893 160.793C46.95 160.156 47.7757 159.33 48.6486 158.433C49.67 157.336 50.7743 156.318 51.9517 155.39C52.935 154.526 54.0605 153.84 55.2783 153.361C56.2939 152.978 57.3816 152.825 58.4633 152.912C59.6694 153.05 60.834 153.436 61.8843 154.045C63.1836 154.75 64.3114 155.732 65.1873 156.923Z" fill="#FFF9EF"/>
<path d="M66.7681 119.857L86.7749 134.887L82.5754 140.408L62.5686 125.378L56.8355 132.999L51.9045 129.177L67.5467 108.391L72.6192 112.236L66.7681 119.857Z" fill="#FFF9EF"/>
<path d="M117.21 88.5483C117.974 90.5192 118.342 92.6213 118.294 94.7345C118.245 96.8477 117.781 98.9307 116.927 100.864C116.001 102.966 114.661 104.86 112.987 106.432C111.356 108.039 109.424 109.306 107.301 110.16C105.331 110.93 103.234 111.322 101.119 111.316C99.0396 111.315 96.9828 110.881 95.0796 110.042C93.0903 109.192 91.2988 107.939 89.8184 106.362C88.3096 104.813 87.1299 102.975 86.3502 100.959C85.6059 99.0003 85.2377 96.9191 85.265 94.8243C85.3153 92.6919 85.7884 90.5908 86.6569 88.6427C87.5823 86.5464 88.9133 84.654 90.5734 83.0745C92.2059 81.4598 94.1479 80.1918 96.2829 79.3467C98.2506 78.5676 100.348 78.1673 102.464 78.167C104.542 78.1919 106.594 78.6247 108.504 79.4411C110.482 80.3119 112.269 81.5624 113.765 83.1217C115.273 84.6752 116.446 86.5223 117.21 88.5483ZM108.528 88.1472C107.649 87.1603 106.582 86.3582 105.39 85.7878C104.263 85.267 103.044 84.9781 101.804 84.9384C100.56 84.893 99.3186 85.0852 98.1467 85.5047C96.9215 85.9621 95.8048 86.6691 94.8673 87.581C93.91 88.4913 93.1544 89.5925 92.6496 90.8133C92.1838 91.9413 91.9665 93.1565 92.0125 94.376C92.0648 95.6072 92.3281 96.8203 92.7911 97.9623C93.3023 99.1554 94.0302 100.243 94.9381 101.171C95.8341 102.149 96.9067 102.95 98.0995 103.53C99.2254 104.06 100.445 104.362 101.688 104.419C102.931 104.476 104.173 104.286 105.343 103.861C106.542 103.408 107.629 102.699 108.528 101.784C109.54 100.91 110.345 99.8222 110.887 98.5993C111.365 97.4655 111.598 96.2433 111.571 95.013C111.544 93.7787 111.28 92.5612 110.793 91.4268C110.296 90.2315 109.575 89.1423 108.669 88.218L108.528 88.1472Z" fill="#FFF9EF"/>
<path d="M151.986 74.5334L140.732 70.0742L136.273 73.1414L141.982 81.3992L136.297 85.3158L118.484 59.3625L130.28 51.2226C132.755 49.2718 135.867 48.3128 139.01 48.5329C140.421 48.7247 141.771 49.2287 142.963 50.0083C144.155 50.7879 145.158 51.8233 145.899 53.0394C147.235 54.8099 147.933 56.98 147.881 59.1974C147.763 61.237 147.068 63.2011 145.875 64.8599L158.545 69.7438L151.986 74.5334ZM140.355 57.4514C140.036 56.8994 139.589 56.4328 139.05 56.0917C138.512 55.7507 137.899 55.5453 137.264 55.4931C135.844 55.4891 134.465 55.9628 133.347 56.838L127.709 60.731L132.805 68.1395L138.562 64.1757C139.786 63.456 140.696 62.3022 141.11 60.9433C141.261 60.3569 141.276 59.7436 141.153 59.1506C141.03 58.5575 140.773 58.0005 140.402 57.5222L140.355 57.4514Z" fill="#FFF9EF"/>
<path d="M171.45 63.0426L156.94 35.2018L163.075 32.0166L177.561 59.8338L171.45 63.0426Z" fill="#FFF9EF"/>
<path d="M206.934 40.8411C206.957 42.2149 206.675 43.5767 206.108 44.8285C205.517 46.0865 204.655 47.1983 203.584 48.0845C202.4 49.0823 201.061 49.8794 199.62 50.4438C197.652 51.2909 195.498 51.616 193.368 51.3876C191.609 51.1654 189.905 50.6216 188.343 49.7832L190.702 43.696C191.754 44.2479 192.884 44.6376 194.052 44.8521C195.106 45.0451 196.193 44.9389 197.19 44.5454C197.732 44.3487 198.224 44.0354 198.632 43.6278C199.039 43.2201 199.353 42.7279 199.549 42.186C199.923 40.8146 199.78 39.3538 199.148 38.0806L191.858 19.2055L198.464 16.6338L205.872 35.792C206.54 37.3934 206.901 39.1063 206.934 40.8411Z" fill="#FFF9EF"/>
<path d="M247.726 35.9571L243.385 29.7283L230.456 32.6303L229.088 40.1096L222.222 41.6432L228.403 7.88032L234.632 6.48828L254.804 34.3763L247.726 35.9571ZM233.264 15.3124L231.423 26.142L239.563 24.3017L233.264 15.3124Z" fill="#FFF9EF"/>
</svg>
