<svg width="120" height="179" viewBox="0 0 120 179" fill="none" xmlns="http://www.w3.org/2000/svg">
<path fill-rule="evenodd" clip-rule="evenodd" d="M114.701 41.6333C115.271 46.157 114.299 50.0877 113.899 53.5311C113.497 56.9745 113.667 59.9335 114.175 63.145C114.683 66.3565 115.529 69.8233 116.14 73.7746C116.754 77.7258 117.133 82.1644 116.754 84.8064C116.372 87.4483 115.233 88.2938 113.794 89.1157C112.355 89.9406 110.622 90.742 109.565 91.9045C108.507 93.067 108.128 94.5876 107.958 96.2374C107.788 97.8842 107.832 99.6602 108.381 102.05C108.93 104.436 109.987 107.439 111.13 110.334C112.272 113.228 113.497 116.017 114.786 117.963C116.075 119.907 117.429 121.007 118.422 121.873C119.415 122.739 120.049 123.374 119.435 125.593C118.821 127.812 116.962 131.617 114.616 136.434C112.269 141.251 109.435 147.084 105.503 152.705C101.571 158.327 96.5399 163.737 92.6692 167.013C88.8015 170.289 86.0937 171.431 83.7061 172.782C81.3185 174.135 79.2452 175.7 76.9633 176.566C74.6784 177.432 72.1851 177.602 70.1763 177.432C68.1676 177.261 66.6463 176.753 65.313 176.48C63.9797 176.204 62.8403 176.163 61.3601 176.501C59.88 176.839 58.0621 177.558 55.8419 177.854C53.6217 178.151 50.9991 178.025 47.9566 177.2C44.9112 176.375 41.4457 174.854 39.2255 173.818C37.0053 172.782 36.0332 172.233 35.3989 171.769C34.7646 171.302 34.4679 170.923 31.3403 168.155C28.2096 165.387 22.248 160.229 17.0704 153.425C11.8899 146.62 7.49353 138.166 4.76526 132.841C2.03698 127.516 0.979736 125.317 1.00029 124.069C1.02085 122.822 2.12215 122.525 4.02519 120.729C5.92823 118.932 8.63301 115.635 10.2835 111.916C11.931 108.197 12.5243 104.055 12.9677 100.799C13.4112 97.5437 13.7078 95.1776 13.5169 93.4662C13.326 91.7548 12.6505 90.698 11.7636 89.8937C10.8767 89.0893 9.77542 88.5404 8.50672 88.3936C7.23803 88.2468 5.80194 88.4993 5.04131 87.8241C4.28069 87.146 4.19552 85.5402 4.11035 82.8366C4.02519 80.13 3.94002 76.3285 4.63897 73.2198C5.33793 70.114 6.81513 67.7039 7.5787 65.6343C8.33933 63.5618 8.38338 61.8299 8.0016 59.5049C7.61981 57.18 6.81807 54.265 6.9238 49.8264C7.02952 45.3879 8.04565 39.4287 10.4773 33.6809C12.909 27.9331 16.7562 22.3967 19.8838 18.4455C23.0115 14.4942 25.4226 12.1252 29.3755 9.80323C33.3285 7.47827 38.8261 5.19736 44.1975 3.52703C49.566 1.85671 54.8111 0.799913 61.6391 1.03182C68.4671 1.26373 76.881 2.78434 82.737 4.58383C88.5929 6.38038 91.891 8.44994 95.9937 12.2133C100.096 15.9737 105.001 21.428 108.51 26.709C112.02 31.993 114.134 37.1067 114.704 41.6274L114.701 41.6333Z" fill="white" stroke="#2B2A29" stroke-width="0.200307" stroke-miterlimit="22.9256"/>
<path fill-rule="evenodd" clip-rule="evenodd" d="M31.3403 168.155C28.2096 165.387 22.248 160.229 17.0704 153.425C11.8899 146.62 7.49353 138.166 4.76526 132.841C2.03698 127.516 0.979736 125.317 1.00029 124.069C1.02085 122.822 2.12215 122.525 4.02519 120.729C5.92823 118.932 8.63301 115.635 10.2835 111.916C11.931 108.197 12.5243 104.055 12.9677 100.799C13.4112 97.5437 13.7078 95.1776 13.5169 93.4662C13.326 91.7548 12.6505 90.698 11.7636 89.8937C10.8767 89.0893 9.77542 88.5404 8.50673 88.3936C7.23803 88.2468 5.80194 88.4993 5.04131 87.8241C4.28069 87.146 4.19552 85.5402 4.11035 82.8366C4.02519 80.13 3.94002 76.3285 4.63897 73.2198C5.33793 70.114 6.81514 67.7039 7.5787 65.6343C8.33933 63.5618 8.38338 61.8299 8.0016 59.5049C7.61982 57.18 6.81807 54.265 6.9238 49.8264C7.02952 45.3879 8.04565 39.4287 10.4773 33.6809C12.909 27.9331 16.7562 22.3967 19.8838 18.4455C23.0115 14.4942 25.4226 12.1252 29.3755 9.80323C33.3285 7.47828 38.8261 5.19736 44.1975 3.52703C49.566 1.85671 54.8111 0.799913 61.6391 1.03182C68.4671 1.26373 76.881 2.78434 82.737 4.58383C88.593 6.38038 91.891 8.44994 95.9937 12.2133C100.096 15.9737 105.001 21.428 108.51 26.709C112.02 31.993 114.134 37.1067 114.704 41.6275C115.274 46.1511 114.302 50.0818 113.902 53.5252C113.5 56.9686 113.67 59.9276 114.178 63.1391C114.686 66.3506 115.532 69.8175 116.143 73.7687C116.757 77.72 117.136 82.1585 116.757 84.8005C116.375 87.4425 115.236 88.2879 113.796 89.1099C112.357 89.9348 110.625 90.7362 109.567 91.8986C108.51 93.0611 108.131 94.5817 107.961 96.2315C107.791 97.8783 107.835 99.6543 108.384 102.044C108.933 104.43 109.99 107.434 111.133 110.328C112.275 113.222 113.5 116.011 114.789 117.957C116.078 119.901 117.432 121.002 118.425 121.868C119.417 122.734 120.052 123.368 119.438 125.587C118.824 127.806 116.965 131.611 114.619 136.428C112.272 141.245 109.438 147.078 105.506 152.7C101.574 158.321 96.5428 163.731 92.6722 167.007C88.8044 170.284 86.0967 171.425 83.7091 172.776C81.3215 174.129 79.2481 175.694 76.9662 176.56C74.6814 177.426 72.1881 177.596 70.1793 177.426C68.1705 177.255 66.6493 176.748 65.316 176.475C63.9827 176.199 62.8432 176.158 61.3631 176.495C59.8829 176.833 58.065 177.552 55.8448 177.848C53.6246 178.145 51.0021 178.019 47.9595 177.194C44.9141 176.369 41.4487 174.848 39.2285 173.812C37.0083 172.776 36.0362 172.227 35.4018 171.763C34.7675 171.296 34.4709 170.918 31.3432 168.149L31.3403 168.155ZM22.0718 94.705C21.8721 95.3714 21.6371 96.1111 21.226 96.3225C20.8148 96.5339 20.2216 96.2168 19.7135 95.9644C19.2054 95.709 18.7825 95.5211 18.5623 94.57C18.3391 93.6189 18.3185 91.9074 18.4771 90.6275C18.6357 89.3476 18.9734 88.5022 20.6122 87.9767C22.2509 87.4484 25.1906 87.237 28.2977 86.3387C31.4049 85.4404 34.6823 83.8552 37.5574 82.3669C40.4326 80.8757 42.9053 79.4813 43.2754 79.0175C43.6454 78.5537 41.9127 79.0175 39.3871 79.8101C36.8614 80.6027 33.5399 81.724 30.1039 82.4315C26.6678 83.139 23.1173 83.4355 20.0101 83.4355C16.903 83.4355 14.2364 83.139 12.7474 82.8014C11.2556 82.4638 10.9384 82.0822 10.6535 81.3747C10.3686 80.6672 10.1131 79.631 10.2512 76.7248C10.3892 73.8186 10.9178 69.0425 11.5316 65.4083C12.1454 61.7741 12.8414 59.2789 12.9472 57.2504C13.0529 55.222 12.5654 53.6573 12.1542 52.1895C11.7431 50.7218 11.4053 49.3479 12.166 45.7959C12.9266 42.2468 14.7856 36.5196 16.997 31.72C19.2054 26.9233 21.7634 23.0543 24.4711 20.0336C27.1759 17.0129 30.0305 14.8347 33.1934 12.8386C36.3534 10.8424 39.8217 9.02531 43.1726 7.70431C46.5235 6.38332 49.7569 5.55843 53.0578 5.14745C56.3558 4.73648 59.7185 4.73648 63.5539 4.98893C67.3923 5.24139 71.7035 5.74924 76.2291 6.81778C80.7547 7.88632 85.4888 9.51261 89.0423 11.4765C92.5929 13.4404 94.9629 15.7448 97.2888 18.1754C99.6147 20.606 101.897 23.1629 103.897 26.6503C105.894 30.1377 107.606 34.5528 108.557 37.9345C109.509 41.3163 109.7 43.6618 109.656 46.019C109.614 48.3763 109.338 50.7423 109.086 52.2424C108.833 53.7424 108.598 54.3765 108.569 55.3071C108.537 56.2377 108.707 57.4618 108.854 58.4569C109.001 59.4491 109.13 60.2094 109.403 61.5539C109.679 62.8955 110.099 64.8182 110.575 67.5454C111.051 70.2725 111.579 73.801 111.779 76.2316C111.979 78.6623 111.852 79.995 111.612 80.8492C111.368 81.7064 111.009 82.0851 109.961 82.3699C108.916 82.6546 107.18 82.8454 104.739 82.8454C102.296 82.8454 99.1478 82.6546 95.9878 82.1996C92.8278 81.7446 89.6561 81.0254 87.1921 80.4882C84.7281 79.948 82.9749 79.5899 81.6328 79.3785C80.2906 79.1672 79.3597 79.1026 79.1805 79.3785C79.0014 79.6545 79.5711 80.2651 80.3758 80.7729C81.1805 81.2808 82.2142 81.68 85.1657 82.5489C88.1143 83.4149 92.9776 84.7477 95.9379 85.6254C98.8981 86.5031 99.9554 86.9258 100.842 87.3896C101.729 87.8535 102.449 88.3613 103.03 89.0923C103.612 89.8203 104.055 90.7714 104.023 91.881C103.991 92.9907 103.482 94.2588 102.901 95.0309C102.32 95.8029 101.665 96.0759 101.095 95.9702C100.525 95.8646 100.038 95.3773 99.7851 94.6375C99.5325 93.8977 99.509 92.9055 99.2153 92.9466C98.9187 92.9877 98.349 94.068 97.8732 94.7226C97.3974 95.3773 97.0157 95.6092 96.2022 95.9585C95.3887 96.3078 94.1406 96.7716 93.2213 97.1004C92.3021 97.4292 91.7089 97.6171 91.2977 98.0075C90.8866 98.3979 90.6516 98.9909 90.4519 99.2757C90.2522 99.5604 90.0819 99.5399 89.7236 98.9997C89.3653 98.4596 88.8132 97.4028 88.499 96.0524C88.1818 94.6991 88.0966 93.0523 87.9058 92.3536C87.7149 91.655 87.4182 91.9104 87.0923 92.9231C86.7633 93.9359 86.405 95.7119 86.2465 97.0857C86.0879 98.4596 86.129 99.4312 85.6444 99.9273C85.1569 100.423 84.1437 100.444 82.9367 100.541C81.7326 100.635 80.3376 100.805 79.2687 100.764C78.1997 100.723 77.4596 100.467 77.0073 99.2962C76.5521 98.122 76.3847 96.0319 76.279 94.5406C76.1733 93.0494 76.1292 92.1628 75.9618 92.5533C75.7915 92.9437 75.4949 94.614 75.2746 96.0818C75.0514 97.5496 74.9046 98.8177 74.7577 99.6954C74.6109 100.573 74.4611 101.058 73.6682 101.345C72.8753 101.63 71.4392 101.715 70.1382 101.938C68.8372 102.161 67.6742 102.519 66.4378 102.584C65.2014 102.649 63.8887 102.414 63.2543 101.727C62.62 101.04 62.6641 99.898 62.8638 97.8284C63.0635 95.7559 63.4247 92.7558 63.5187 91.0326C63.6126 89.3095 63.4452 88.8662 63.1809 89.1833C62.9166 89.5003 62.5583 90.5776 62.1442 91.8869C61.7331 93.1961 61.2661 94.7402 60.9402 96.3577C60.6112 97.9752 60.4233 99.6661 60.2853 100.764C60.1472 101.862 60.0621 102.37 59.7478 102.698C59.4306 103.027 58.8815 103.174 57.3367 103.089C55.792 103.004 53.2575 102.687 51.5131 102.329C49.7686 101.97 48.8171 101.568 48.2033 100.996C47.5895 100.426 47.3135 99.6866 47.1255 98.3011C46.9346 96.9155 46.8289 94.887 46.7437 94.2324C46.6586 93.5778 46.5969 94.297 46.5205 95.3097C46.4471 96.3225 46.3619 97.6347 46.1916 98.6474C46.0213 99.6602 45.7687 100.379 45.2606 100.802C44.7526 101.225 43.9919 101.351 42.8202 101.172C41.6484 100.993 40.0596 100.506 38.7821 100.01C37.5016 99.5134 36.5296 99.0056 36.0127 97.9693C35.4958 96.9331 35.4312 95.3714 35.3049 94.1972C35.1786 93.0229 34.9878 92.2421 34.8615 92.3478C34.7352 92.4534 34.6706 93.4457 34.4914 94.5553C34.3123 95.6649 34.0157 96.8891 33.581 97.6728C33.1464 98.4537 32.5766 98.7942 32.1332 98.8882C31.6897 98.9821 31.3726 98.8353 30.5062 98.5829C29.6399 98.3275 28.2214 97.9693 27.3345 97.5055C26.4476 97.0388 26.0863 96.4693 25.5284 95.8557C24.9674 95.2422 24.2068 94.5876 23.6899 94.0797C23.173 93.5719 22.897 93.2138 22.6738 93.3312C22.4506 93.4486 22.2832 94.0386 22.0835 94.705H22.0718ZM93.3476 115.973C94.6046 115.635 97.1537 114.863 98.6691 114.262C100.187 113.66 100.672 113.225 100.93 112.729C101.189 112.233 101.221 111.672 100.942 110.052C100.66 108.429 100.07 105.746 99.7146 104.022C99.3592 102.299 99.2447 101.539 98.8893 101.319C98.534 101.096 97.9437 101.413 97.2036 101.835C96.4635 102.258 95.5737 102.787 94.9188 103.427C94.2639 104.066 93.841 104.815 93.4827 105.804C93.1244 106.794 92.8278 108.018 92.6516 109.127C92.4783 110.237 92.4255 111.229 92.4078 112.133C92.3932 113.037 92.4137 113.851 92.3755 114.499C92.3374 115.148 92.2434 115.635 92.1788 115.926C92.1142 116.217 92.0848 116.311 93.3417 115.973H93.3476ZM80.4052 119.387C81.2392 119.302 82.8251 118.583 84.5607 118.16C86.2934 117.737 88.1759 117.611 89.0863 117.009C89.9967 116.407 89.9321 115.33 89.8352 113.196C89.7412 111.062 89.612 107.871 89.4446 106.107C89.2743 104.342 89.0628 104.005 88.5342 103.814C88.0056 103.623 87.1598 103.582 86.408 103.708C85.6562 103.835 85.0013 104.131 84.1995 104.903C83.3948 105.675 82.4433 106.92 81.7561 107.871C81.0689 108.822 80.646 109.477 80.32 110.554C79.9911 111.631 79.7591 113.131 79.6211 114.505C79.483 115.879 79.4419 117.124 79.4625 118.025C79.483 118.923 79.5682 119.472 80.4023 119.387H80.4052ZM64.2646 122.029C65.7007 121.923 68.3673 121.733 70.5963 121.574C72.8253 121.416 74.6227 121.289 75.5977 120.928C76.5697 120.57 76.7166 119.977 76.7489 118.36C76.7812 116.742 76.696 114.1 76.4963 111.766C76.2966 109.43 75.9794 107.401 75.5242 106.336C75.069 105.267 74.4788 105.164 73.865 105.226C73.2512 105.291 72.6168 105.522 71.7182 105.872C70.8195 106.221 69.6565 106.685 68.567 107.73C67.4774 108.775 66.4643 110.404 65.6508 111.966C64.8373 113.531 64.2235 115.031 63.78 116.149C63.3366 117.271 63.0605 118.007 62.8696 118.844C62.6787 119.678 62.573 120.608 62.5113 121.181C62.4467 121.75 62.4262 121.962 62.5231 122.058C62.6171 122.152 62.8285 122.132 64.2675 122.026L64.2646 122.029ZM47.8803 121.195C49.8685 121.228 53.5659 121.163 55.9153 121.228C58.2618 121.292 59.2544 121.48 59.7214 121.134C60.1854 120.784 60.1237 119.898 59.8271 118.239C59.5305 116.581 59.0019 114.15 58.0504 112.26C57.0988 110.369 55.7244 109.016 54.2971 107.894C52.8699 106.773 51.3897 105.887 50.3002 105.37C49.2106 104.853 48.5146 104.703 47.8479 104.768C47.1813 104.833 46.547 105.106 46.1769 105.772C45.8069 106.438 45.7012 107.495 45.6483 109.08C45.5954 110.666 45.5954 112.779 45.522 114.743C45.4486 116.707 45.2988 118.527 45.2577 119.531C45.2136 120.535 45.2783 120.726 45.4486 120.884C45.616 121.043 45.892 121.169 47.8803 121.201V121.195ZM33.2081 117.529C34.3916 118.016 36.697 118.671 38.1859 119.082C39.6778 119.493 40.3533 119.663 40.8936 119.695C41.4311 119.728 41.8334 119.622 42.0889 119.082C42.3415 118.542 42.4472 117.57 42.4178 116.302C42.3855 115.034 42.2181 113.469 41.8363 111.907C41.4546 110.343 40.8643 108.778 40.1771 107.542C39.4898 106.306 38.7087 105.396 37.8511 104.636C36.9936 103.876 36.0656 103.262 35.3989 103.01C34.7323 102.757 34.3299 102.863 34.0245 103.412C33.7191 103.961 33.5076 104.956 33.2844 106.741C33.0612 108.526 32.8292 111.103 32.5972 112.847C32.3652 114.59 32.1332 115.5 32.048 116.111C31.9629 116.725 32.0275 117.042 33.211 117.526L33.2081 117.529ZM28.3447 115.586C27.4989 115.606 25.9542 114.866 24.8235 114.338C23.6929 113.81 22.9733 113.492 22.4858 113.09C21.9983 112.688 21.7458 112.201 21.6606 110.354C21.5754 108.505 21.6606 105.294 21.9572 103.233C22.2538 101.172 22.7619 100.262 23.4579 99.989C24.1569 99.7131 25.0438 100.074 25.9513 100.761C26.8617 101.448 27.7897 102.461 28.3624 103.403C28.9321 104.342 29.1435 105.208 29.2728 106.964C29.399 108.716 29.4431 111.358 29.3902 113.073C29.3374 114.784 29.1905 115.565 28.3447 115.588V115.586ZM81.1394 139.308C81.759 139.161 82.8457 138.926 84.3963 138.104C85.944 137.279 87.9527 135.864 89.0364 134.162C90.1201 132.459 90.2787 130.475 90.1876 128.059C90.0966 125.646 89.7589 122.801 89.3536 121.333C88.9454 119.866 88.4696 119.769 87.3977 119.901C86.3258 120.033 84.6547 120.391 83.386 120.582C82.1173 120.773 81.251 120.793 80.7106 121.269C80.1702 121.744 79.9588 122.675 79.8766 124.445C79.7914 126.215 79.8355 128.825 79.9236 131.261C80.0146 133.698 80.1497 135.958 80.2084 137.317C80.2672 138.674 80.2466 139.129 80.3083 139.325C80.3729 139.522 80.5197 139.457 81.1364 139.311L81.1394 139.308ZM62.7933 143.235C63.0781 143.394 63.4364 143.564 64.3879 143.438C65.3395 143.312 66.8813 142.889 68.7315 141.885C70.5816 140.881 72.7372 139.296 74.0588 137.617C75.3803 135.938 75.8679 134.162 76.0264 131.995C76.185 129.829 76.0147 127.272 75.9002 125.646C75.7827 124.019 75.721 123.321 74.8635 123.162C74.0059 123.004 72.3584 123.382 70.89 123.626C69.4216 123.87 68.1294 123.975 66.9048 124.028C65.6772 124.081 64.5172 124.081 63.7859 124.386C63.0576 124.692 62.761 125.305 62.6112 125.866C62.4644 126.426 62.4644 126.934 62.3997 129.468C62.3351 132.004 62.2089 136.569 62.1472 139.126C62.0826 141.683 62.0826 142.231 62.1912 142.581C62.297 142.93 62.5084 143.077 62.7933 143.235ZM58.1943 143.711C57.137 143.626 55.234 143.329 53.701 142.719C52.168 142.105 51.005 141.175 49.7275 139.581C48.4471 137.984 47.0521 135.723 46.174 133.927C45.2959 132.13 44.9376 130.798 44.7996 129.11C44.6615 127.419 44.7467 125.37 44.7467 124.281C44.7467 123.192 44.6615 123.065 45.1813 123.045C45.6982 123.024 46.8201 123.109 48.7554 123.203C50.6908 123.297 53.4396 123.406 55.3955 123.544C57.3514 123.682 58.5114 123.849 59.0841 124.419C59.6538 124.988 59.6333 125.96 59.6333 129.13C59.6333 132.301 59.6538 137.667 59.6656 140.438C59.6773 143.206 59.6773 143.376 59.5716 143.523C59.4659 143.67 59.2544 143.799 58.1972 143.714L58.1943 143.711ZM31.12 122.102C31.0877 123.655 30.982 126.435 31.1875 128.505C31.3931 130.574 31.9129 131.939 32.9437 133.287C33.9746 134.634 35.5164 135.967 36.8614 136.959C38.2035 137.951 39.3459 138.606 40.1653 138.867C40.9847 139.126 41.481 138.988 41.8363 138.539C42.1888 138.089 42.4002 137.329 42.4589 134.502C42.5177 131.675 42.4208 126.785 42.3004 124.333C42.1799 121.882 42.0302 121.871 41.2813 121.824C40.5295 121.777 39.1756 121.691 37.5163 121.28C35.857 120.87 33.8894 120.13 32.7646 119.845C31.6398 119.56 31.352 119.728 31.2316 119.977C31.1112 120.227 31.1523 120.552 31.12 122.105V122.102ZM27.4108 133.921C26.7119 133.801 25.5607 133.504 24.3037 132.541C23.0468 131.578 21.6812 129.952 20.947 128.731C20.2128 127.51 20.107 126.697 20.0219 124.292C19.9367 121.888 19.8721 117.893 19.9485 115.967C20.0219 114.039 20.2333 114.176 20.8148 114.54C21.3963 114.904 22.3478 115.497 23.5901 116.12C24.8323 116.742 26.3653 117.4 27.405 117.764C28.4475 118.128 28.9967 118.201 29.2228 118.524C29.449 118.847 29.355 119.416 29.2111 121.774C29.0672 124.131 28.8792 128.273 28.7676 130.598C28.656 132.923 28.6237 133.431 28.4857 133.71C28.3477 133.988 28.1039 134.041 27.4079 133.921H27.4108ZM93.8792 133.677C94.3138 133.842 95.1156 133.745 96.2169 133.058C97.3152 132.371 98.7102 131.094 99.7469 130.116C100.784 129.139 101.459 128.461 101.75 126.529C102.041 124.595 101.944 121.404 101.829 119.328C101.712 117.253 101.576 116.29 101.5 115.709C101.427 115.128 101.415 114.928 100.643 115.248C99.8702 115.571 98.3372 116.416 97.0274 117.012C95.7176 117.608 94.6281 117.957 93.9555 118.374C93.283 118.791 93.0304 119.278 92.9511 120.001C92.8719 120.726 92.9658 121.686 93.0569 123.837C93.1479 125.989 93.2301 129.327 93.3065 131.208C93.3799 133.09 93.4445 133.513 93.8762 133.677H93.8792ZM102.02 110.657C102.411 111.035 103.353 110.836 104.223 110.657C105.095 110.478 105.897 110.319 106.246 109.797C106.595 109.274 106.49 108.385 106.299 107.721C106.108 107.055 105.832 106.612 105.758 105.951C105.685 105.291 105.811 104.413 105.791 103.409C105.77 102.405 105.6 101.275 105.38 100.535C105.156 99.7952 104.883 99.4459 104.525 99.2874C104.167 99.1289 103.72 99.1612 103.215 99.4929C102.707 99.8246 102.137 100.459 101.806 101.151C101.474 101.844 101.377 102.593 101.441 103.802C101.506 105.012 101.726 106.682 101.759 107.997C101.791 109.312 101.632 110.275 102.023 110.654L102.02 110.657ZM103.509 125.751C103.732 125.969 104.155 126.212 104.525 126.268C104.895 126.327 105.212 126.2 105.676 125.878C106.14 125.555 106.754 125.038 107.145 124.372C107.535 123.705 107.706 122.892 107.694 121.339C107.682 119.786 107.494 117.494 107.344 115.988C107.198 114.482 107.092 113.763 106.883 113.346C106.678 112.929 106.369 112.811 105.944 112.718C105.515 112.624 104.966 112.547 104.528 112.512C104.09 112.474 103.761 112.474 103.482 112.618C103.203 112.759 102.969 113.046 102.907 114.408C102.842 115.77 102.948 118.213 103.013 120.103C103.077 121.994 103.098 123.335 103.13 124.087C103.162 124.835 103.203 124.994 103.236 125.17C103.268 125.343 103.289 125.534 103.512 125.751H103.509ZM18.7121 111.006C18.3479 110.965 17.6489 110.783 17.0998 110.701C16.5506 110.616 16.1483 110.627 15.7988 110.575C15.4493 110.522 15.1527 110.404 15.0323 109.979C14.9119 109.55 14.9647 108.81 15.232 107.618C15.5022 106.424 15.9867 104.777 16.2745 103.45C16.5594 102.123 16.6446 101.119 16.809 100.291C16.9735 99.4606 17.2172 98.806 17.7136 98.5623C18.2099 98.3187 18.9617 98.4889 19.552 98.8735C20.1423 99.258 20.5769 99.8598 20.7737 100.823C20.9705 101.783 20.9264 103.104 20.8471 104.827C20.7678 106.55 20.6503 108.672 20.5417 109.835C20.4301 110.997 20.3244 111.197 20.0924 111.209C19.8604 111.22 19.5021 111.038 19.3053 110.997C19.1085 110.956 19.0762 111.05 18.7121 111.009V111.006ZM18.4478 124.107C18.5476 121.962 18.7796 117.787 18.9617 115.495C19.1408 113.202 19.2671 112.788 18.8912 112.541C18.5153 112.292 17.6372 112.21 16.856 112.166C16.0748 112.125 15.3876 112.125 15.1174 112.53C14.8473 112.938 14.997 113.751 15.0528 115.594C15.1116 117.438 15.0793 120.312 15.0881 122.041C15.0998 123.77 15.1527 124.348 15.464 124.968C15.7753 125.587 16.345 126.242 16.859 126.664C17.3729 127.087 17.8252 127.278 18.0748 127.207C18.3244 127.137 18.3655 126.811 18.3714 126.588C18.3773 126.365 18.345 126.25 18.4448 124.104L18.4478 124.107ZM8.83565 129.835C10.4949 132.802 13.3289 138.679 16.3215 143.655C19.3141 148.631 22.4623 152.711 26.5856 156.927C30.7088 161.142 35.8042 165.496 40.0332 168.381C44.2621 171.267 47.6218 172.682 50.1063 173.178C52.5909 173.674 54.1973 173.251 55.742 172.735C57.2868 172.218 58.764 171.605 60.1384 171.255C61.5128 170.906 62.7815 170.821 63.9856 171.17C65.1897 171.519 66.3321 172.3 67.5068 172.849C68.6786 173.398 69.8856 173.715 71.9032 173.439C73.9208 173.163 76.7548 172.297 79.6622 170.923C82.5696 169.55 85.5504 167.668 88.2464 165.44C90.9424 163.209 93.3506 160.631 95.6677 157.957C97.9819 155.283 100.202 152.515 102.951 148.605C105.7 144.694 108.977 139.645 111.08 135.873C113.183 132.101 114.114 129.609 114.419 127.654C114.725 125.698 114.407 124.284 113.658 123.186C112.907 122.088 111.723 121.304 111.056 120.767C110.39 120.227 110.243 119.93 109.832 121.145C109.421 122.361 108.742 125.088 108.128 126.958C107.515 128.828 106.966 129.843 106.375 130.73C105.782 131.617 105.148 132.38 104.769 133.478C104.387 134.576 104.261 136.014 104.02 136.457C103.776 136.901 103.418 136.352 102.772 135.823C102.126 135.295 101.198 134.787 100.519 134.819C99.8438 134.851 99.4209 135.421 98.5634 136.108C97.7058 136.795 96.4166 137.596 95.6031 138.359C94.7896 139.12 94.4518 139.839 94.1552 140.884C93.8586 141.929 93.6061 143.303 93.192 143.514C92.7808 143.726 92.2081 142.775 91.8381 142.002C91.4681 141.23 91.3007 140.64 90.5694 140.511C89.8411 140.385 88.5489 140.723 87.5152 141.113C86.4785 141.503 85.6973 141.947 84.872 142.572C84.0468 143.194 83.1805 143.999 82.4198 145.299C81.6592 146.6 81.0043 148.396 80.3788 148.957C79.7562 149.517 79.1629 148.839 78.602 147.7C78.0411 146.558 77.5125 144.953 76.6784 144.436C75.8444 143.919 74.7019 144.489 73.9413 144.712C73.1807 144.935 72.7989 144.806 71.9737 144.903C71.1484 144.997 69.8797 145.314 68.5288 145.822C67.175 146.329 65.7389 147.025 64.8931 147.882C64.0473 148.74 63.7947 149.752 63.454 151.041C63.1163 152.33 62.6934 153.894 62.1971 154.443C61.7008 154.992 61.1281 154.528 60.485 153.428C59.8389 152.33 59.1223 150.595 58.3705 149.432C57.6216 148.27 56.8375 147.68 55.5688 147.363C54.3001 147.046 52.5439 147.002 50.7495 146.79C48.9522 146.579 47.1138 146.2 45.9919 145.998C44.87 145.798 44.4706 145.775 44.268 146.303C44.0683 146.831 44.0683 147.909 43.9391 148.766C43.8128 149.623 43.5573 150.257 42.9464 149.717C42.3327 149.177 41.3606 147.466 40.5794 146.136C39.7982 144.803 39.205 143.852 37.8306 142.827C36.4561 141.803 34.3005 140.702 33.0407 140.332C31.7837 139.962 31.4225 140.32 31.3403 141.263C31.2551 142.202 31.446 143.726 31.4049 144.803C31.3638 145.88 31.0877 146.514 30.4945 145.775C29.9012 145.035 28.9938 142.921 28.3389 141.178C27.684 139.434 27.2816 138.06 26.3507 136.942C25.4197 135.82 23.963 134.954 22.7766 134.364C21.5931 133.771 20.6827 133.454 20.1863 133.909C19.69 134.364 19.6049 135.588 19.2466 135.979C18.8883 136.369 18.2539 135.926 17.4698 134.807C16.6886 133.686 15.7577 131.89 14.9647 129.893C14.1718 127.897 13.5169 125.698 12.9148 124.178C12.3128 122.657 11.7636 121.812 11.2967 121.316C10.8297 120.82 10.4509 120.67 10.1131 120.881C9.77542 121.093 9.4788 121.662 8.83271 122.698C8.18662 123.735 7.19398 125.235 6.94142 126.016C6.68592 126.796 7.17342 126.861 8.83271 129.829L8.83565 129.835Z" fill="#2B2A29" stroke="#2B2A29" stroke-width="0.200307" stroke-miterlimit="22.9256"/>
<path fill-rule="evenodd" clip-rule="evenodd" d="M54.7647 82.9798C55.2023 82.742 55.9423 82.3398 57.1112 82.0756C58.28 81.8114 59.8747 81.6852 61.2667 81.7263C62.6558 81.7674 63.8394 81.9788 64.9172 82.3017C65.995 82.6246 66.967 83.0561 67.713 83.379C68.4589 83.7019 68.9758 83.9133 69.4428 84.0013C69.9068 84.0923 70.3209 84.0601 70.5352 83.8105C70.7526 83.561 70.7731 83.0972 70.6204 81.6118C70.4677 80.1264 70.1388 77.6224 69.1931 74.7074C68.2475 71.7895 66.6822 68.4635 65.0023 66.2531C63.3225 64.0455 61.5252 62.9564 60.4298 62.6805C59.3343 62.4046 58.9437 62.9447 57.8043 64.5035C56.6619 66.0622 54.7706 68.6396 53.4578 71.1407C52.148 73.6389 51.4167 76.0578 50.9204 78.1567C50.4241 80.2527 50.1598 82.0287 50.2597 83.0532C50.3595 84.0777 50.8235 84.3536 51.2787 84.3331C51.7339 84.3125 52.1774 83.9955 52.6355 83.7841C53.0966 83.5728 53.5724 83.4671 53.8778 83.379C54.1832 83.288 54.3212 83.2146 54.7588 82.9768L54.7647 82.9798ZM55.5312 79.783C57.4548 79.7301 60.9848 79.5833 63.2579 79.5599C65.531 79.5393 66.5442 79.645 66.9935 79.5012C67.4428 79.3573 67.3253 78.9669 66.829 77.9013C66.3327 76.8327 65.4546 75.089 64.7791 74.2935C64.1037 73.495 63.6279 73.6448 62.4415 73.6213C61.2579 73.6007 59.3666 73.4099 58.1831 73.4246C56.9996 73.4393 56.5238 73.6624 56.2125 73.953C55.9012 74.2436 55.7515 74.6017 55.2933 75.4472C54.8322 76.2926 54.0628 77.6253 53.6223 78.4209C53.1847 79.2193 53.079 79.4835 53.1847 79.6362C53.2904 79.7888 53.6076 79.8329 55.5312 79.78V79.783Z" fill="#2B2A29"/>
<path fill-rule="evenodd" clip-rule="evenodd" d="M81.5384 74.2258C83.1066 74.8804 86.1962 76.0958 88.8275 76.4187C91.4589 76.7416 93.638 76.1691 95.6291 74.8247C97.6203 73.4773 99.4293 71.3519 100.466 69.984C101.503 68.616 101.767 68.0025 101.059 68.2549C100.351 68.5074 98.6687 69.6288 97.5292 70.5006C96.3868 71.3725 95.7848 71.9948 94.6541 72.3911C93.5234 72.7874 91.8641 72.9547 90.7893 73.0457C89.7174 73.1367 89.2299 73.1455 88.4046 73.0986C87.5794 73.0516 86.4164 72.9459 85.1918 72.8491C83.9642 72.7551 82.6749 72.67 81.5971 72.6171C80.5193 72.5643 79.653 72.5438 79.0333 72.4792C78.4137 72.4146 78.0436 72.3089 77.9643 72.3676C77.885 72.4263 78.0965 72.6465 78.4607 72.8432C78.8248 73.0399 79.3446 73.2072 79.6295 73.3393C79.9144 73.4714 79.9672 73.5653 81.5384 74.2229V74.2258Z" fill="#2B2A29"/>
<path fill-rule="evenodd" clip-rule="evenodd" d="M20.7449 71.1192C21.3146 71.7004 22.3513 72.7455 23.3762 73.6438C24.4012 74.542 25.4173 75.2935 26.548 75.7896C27.6786 76.2857 28.9268 76.5294 30.5214 76.456C32.1161 76.3826 34.0632 75.9892 35.8018 75.2671C37.5404 74.542 39.0734 73.4882 40.0131 72.6633C40.9529 71.8384 41.3024 71.2484 41.1438 71.1515C40.9852 71.0575 40.3186 71.4568 39.5051 71.8501C38.6916 72.2406 37.7283 72.6222 36.768 72.9275C35.8077 73.2328 34.8444 73.4647 33.5346 73.5938C32.2248 73.7201 30.5655 73.7406 29.4025 73.6408C28.2396 73.541 27.5729 73.3179 26.6478 72.9744C25.7227 72.631 24.5392 72.1642 23.5936 71.6681C22.6479 71.172 21.9401 70.6436 21.3645 70.306C20.7889 69.9685 20.3455 69.8187 20.134 69.851C19.9226 69.8833 19.9431 70.0947 20.0077 70.2591C20.0723 70.4235 20.1781 70.538 20.7478 71.1192H20.7449Z" fill="#2B2A29"/>
<path fill-rule="evenodd" clip-rule="evenodd" d="M69.296 45.2863C70.227 44.7168 71.622 43.4692 73.3459 41.9486C75.0698 40.428 77.1196 38.6314 78.8846 36.5501C80.6497 34.4688 82.1298 32.1028 83.3867 30.4442C84.6437 28.7856 85.6804 27.8345 86.8433 26.9567C88.0063 26.079 89.2956 25.2776 90.3851 24.7903C91.4747 24.303 92.3616 24.1357 93.6508 24.0506C94.9401 23.9654 96.6317 23.9654 97.7007 23.9772C98.7696 23.9889 99.2131 24.0095 99.5831 23.9684C99.9532 23.9243 100.25 23.8216 100.27 23.6836C100.291 23.5456 100.038 23.3783 99.6771 23.1963C99.3188 23.0172 98.8519 22.8264 98.5053 22.5622C98.1559 22.298 97.9238 21.9604 97.3424 21.4937C96.7609 21.0299 95.8299 20.4369 94.6787 19.8997C93.5275 19.3596 92.1531 18.8752 91.181 18.6198C90.2089 18.3673 89.6362 18.3439 88.9285 18.5141C88.2207 18.6844 87.3749 19.0425 86.4645 19.6649C85.5541 20.2872 84.582 21.1767 83.6951 22.116C82.8082 23.0554 82.0035 24.0506 81.096 25.3187C80.1856 26.5869 79.1725 28.128 78.2415 29.7044C77.3105 31.2779 76.4647 32.8836 75.757 34.3103C75.0492 35.737 74.4765 36.9816 73.7276 38.103C72.9758 39.2244 72.0449 40.2166 70.8936 41.3468C69.7424 42.477 68.368 43.7451 67.7542 44.4849C67.1404 45.2246 67.2873 45.436 67.5956 45.5945C67.9011 45.753 68.368 45.8587 69.299 45.2892L69.296 45.2863Z" fill="#2B2A29"/>
<path fill-rule="evenodd" clip-rule="evenodd" d="M52.9434 44.924C51.4515 43.9318 48.9171 42.0912 46.6763 40.2448C44.4355 38.3954 42.4884 36.5342 40.5032 35.1193C38.515 33.7044 36.4856 32.7327 35.029 32.2249C33.5694 31.717 32.6825 31.6759 31.5078 31.9284C30.3331 32.1808 28.8764 32.7327 27.8603 33.1848C26.8442 33.6398 26.2744 33.9979 25.737 34.3561C25.1966 34.7142 24.6886 35.0753 24.298 35.181C23.9074 35.2866 23.6313 35.1399 23.6959 34.7905C23.7605 34.4412 24.1599 33.8923 24.5212 33.3551C24.8794 32.8149 25.1966 32.2865 26.245 31.3794C27.2905 30.4694 29.0673 29.1807 30.3889 28.347C31.7104 27.5133 32.5768 27.1317 33.3374 26.8675C34.098 26.6033 34.7529 26.4565 35.8748 26.9086C36.9966 27.3636 38.5825 28.4204 40.324 30.0584C42.0685 31.6965 43.9715 33.9157 46.0654 35.7651C48.1594 37.6145 50.4413 39.094 52.1123 40.4033C53.7833 41.7125 54.8406 42.8545 55.6864 43.7205C56.5322 44.5864 57.1665 45.1794 57.0725 45.5493C56.9785 45.9192 56.1533 46.066 55.519 46.066C54.8846 46.066 54.4412 45.9192 52.9493 44.924H52.9434Z" fill="#2B2A29"/>
<path fill-rule="evenodd" clip-rule="evenodd" d="M25.9868 70.5817C27.2232 71.025 29.3171 71.5534 32.0219 71.4066C34.7267 71.2598 38.0482 70.4349 40.5856 69.6012C43.123 68.7675 44.8762 67.9221 46.4004 67.0444C47.9217 66.1667 49.2109 65.2596 50.3533 64.0766C51.4957 62.8935 52.4884 61.4346 53.0699 59.7114C53.6513 57.9882 53.8187 56.0038 53.481 54.2689C53.1433 52.5369 52.2975 51.0574 50.7322 49.2198C49.1669 47.3821 46.885 45.1834 44.0304 43.2929C41.1759 41.4024 37.7516 39.8172 34.8559 38.9718C31.9602 38.1263 29.5902 38.0207 27.699 38.3054C25.8077 38.5902 24.3892 39.2683 23.2908 40.5041C22.1925 41.74 21.4084 43.5365 20.6066 45.7646C19.8019 47.9927 18.9796 50.6552 18.683 53.0242C18.3864 55.3903 18.6184 57.4628 18.9884 59.3327C19.3585 61.2027 19.8665 62.873 20.4891 64.2468C21.1117 65.6206 21.8518 66.698 22.4539 67.5111C23.0559 68.3243 23.5228 68.8732 23.9457 69.3282C24.3686 69.7832 24.7475 70.1414 25.9868 70.5847V70.5817ZM26.4303 43.6804C26.2306 44.2734 25.3613 45.3067 24.7827 47.3792C24.2012 49.4487 23.9046 52.5575 24.2424 54.8619C24.5801 57.1663 25.5522 58.6663 26.5888 59.911C27.6255 61.1586 28.7239 62.1508 29.9192 62.7967C31.1144 63.4425 32.4037 63.736 34.1775 63.5893C35.9543 63.4425 38.2156 62.8495 40.1832 62.0158C42.1479 61.1821 43.819 60.1018 44.8968 58.8983C45.9746 57.6947 46.4621 56.3619 46.791 55.1995C47.1199 54.037 47.2873 53.0448 47.4459 52.2845C47.6045 51.5242 47.7513 50.9958 48.0597 50.805C48.3651 50.6141 48.8321 50.7609 49.255 51.1631C49.6779 51.5653 50.0567 52.2199 50.3768 52.8951C50.694 53.5702 50.9466 54.2689 51.0523 54.9999C51.158 55.7279 51.1169 56.4882 50.6088 57.7798C50.1008 59.0685 49.1287 60.8856 47.7455 62.3446C46.3593 63.8035 44.5649 64.9014 42.609 65.9788C40.6531 67.0561 38.5386 68.1129 36.5416 68.7881C34.5446 69.4633 32.6621 69.7598 31.0557 69.7392C29.4493 69.7187 28.116 69.3811 26.8385 68.5444C25.558 67.7108 24.3334 66.378 23.3408 65.0893C22.3481 63.8006 21.5875 62.553 21.1117 60.7242C20.636 58.8953 20.4451 56.4882 20.6037 54.4274C20.7623 52.3667 21.2703 50.6552 21.6932 49.2403C22.1161 47.8254 22.4539 46.704 22.865 45.8586C23.2762 45.0131 23.7637 44.4436 24.2482 43.9769C24.7357 43.5101 25.2203 43.152 25.6961 43.0463C26.1718 42.9406 26.6358 43.0874 26.4361 43.6804H26.4303Z" fill="#2B2A29"/>
<path fill-rule="evenodd" clip-rule="evenodd" d="M67.7652 60.3733C67.2895 59.2754 66.6346 57.8781 66.476 56.4543C66.3174 55.0277 66.6551 53.5687 67.8827 52.0158C69.1073 50.4629 71.2218 48.8131 73.3804 47.0078C75.536 45.1995 77.7356 43.2356 80.1673 41.6827C82.5989 40.1298 85.2626 38.9879 87.7354 38.4712C90.2082 37.9545 92.493 38.0602 94.2903 38.6092C96.0876 39.1581 97.3974 40.1533 98.6044 41.7796C99.8085 43.4058 100.91 45.6691 101.406 48.5841C101.902 51.4991 101.797 55.0717 101.447 58.1892C101.098 61.3068 100.507 63.9693 99.1008 66.0506C97.694 68.1319 95.4738 69.632 93.6031 70.4774C91.7324 71.3229 90.2111 71.5137 88.1906 71.4285C86.1701 71.3434 83.6562 70.9853 81.204 70.2778C78.7518 69.5703 76.3612 68.5135 74.3113 67.2542C72.2615 65.9978 70.5464 64.5388 69.5449 63.4086C68.5406 62.2785 68.2439 61.4741 67.7682 60.3762L67.7652 60.3733ZM69.8915 58.5444C70.379 59.5279 71.1602 61.2393 72.5228 62.7188C73.8855 64.1983 75.8326 65.4459 77.5447 66.491C79.2569 67.536 80.737 68.3814 83.0219 68.8365C85.3037 69.2915 88.3932 69.3531 90.3462 68.9627C92.3021 68.5723 93.1273 67.7268 94.2668 66.6906C95.4092 65.6543 96.8659 64.4302 97.8702 62.4839C98.8746 60.5406 99.4238 57.8781 99.6881 55.6676C99.9524 53.4601 99.9319 51.7046 99.5706 49.9932C99.2124 48.2818 98.5134 46.6115 97.8585 45.3022C97.2036 43.993 96.5898 43.0418 95.8409 42.5751C95.0891 42.1113 94.2022 42.1318 93.8645 42.5105C93.5267 42.8921 93.7382 43.6319 94.2022 44.5184C94.6662 45.405 95.3857 46.4412 95.8615 47.7299C96.3372 49.0186 96.5692 50.5627 96.2844 52.6117C95.9995 54.6607 95.1948 57.2176 94.2668 59.0259C93.3358 60.8312 92.2786 61.888 91.2419 62.5221C90.2052 63.1562 89.192 63.3675 88.0291 63.2736C86.8661 63.1797 85.5563 62.7775 84.129 62.2902C82.7017 61.8029 81.1599 61.2334 79.7326 60.5259C78.3054 59.8185 76.9956 58.973 75.906 58.1481C74.8165 57.3233 73.9501 56.5219 73.5595 55.6647C73.1689 54.8075 73.2541 53.9004 73.1484 53.0755C73.0426 52.2506 72.746 51.5109 72.3877 51.2261C72.0295 50.9414 71.6066 51.1087 71.0339 51.6489C70.4641 52.1861 69.7446 53.0961 69.1955 53.8769C68.6463 54.6578 68.2645 55.3124 68.2645 55.8203C68.2645 56.3281 68.6463 56.6862 68.9311 56.9915C69.216 57.2968 69.4069 57.5522 69.8915 58.5356V58.5444Z" fill="#2B2A29"/>
</svg>
