<svg width="189" height="188" viewBox="0 0 189 188" fill="none" xmlns="http://www.w3.org/2000/svg">
<path fill-rule="evenodd" clip-rule="evenodd" d="M18.8538 59.4065C19.4672 58.3684 20.6661 56.5251 21.5913 54.8898C22.5178 53.255 23.1699 51.8268 24.0952 50.5685C25.0205 49.309 26.2204 48.2185 27.3542 46.8425C28.4885 45.4671 29.5576 43.8058 30.5874 42.4304C31.6176 41.0544 32.6086 39.9639 33.5858 39.0945C34.5637 38.2251 35.5289 37.5757 36.7283 36.6934C37.927 35.811 39.3618 34.6948 40.7696 33.5787C42.1775 32.4631 43.5597 31.3464 44.9545 30.2428C46.3496 29.1398 47.7581 28.0496 48.7742 27.2839C49.7915 26.518 50.4172 26.0772 51.1992 25.6099C51.9817 25.1425 52.9206 24.649 54.3543 23.8058C55.7883 22.9621 57.7183 21.7676 59.2431 20.8463C60.7687 19.9246 61.8899 19.276 63.3365 18.5231C64.7839 17.7703 66.5566 16.914 68.747 16.2134C70.9373 15.5124 73.5451 14.967 76.2048 14.3962C78.8642 13.8255 81.5759 13.2279 83.5704 12.8646C85.5654 12.5007 86.8425 12.3711 87.638 12.2674C88.4331 12.1634 88.7465 12.0856 89.0596 12.2418C89.372 12.3971 89.685 12.7866 90.2453 13.4485C90.8062 14.1104 91.6143 15.0451 92.4225 15.7461C93.2306 16.4467 94.0394 16.914 94.7299 17.225C95.4211 17.5367 95.995 17.6923 96.321 17.8225C96.6467 17.9522 96.7254 18.0558 96.6986 18.5362C96.6728 19.0167 96.5426 19.8729 96.6078 20.3403C96.6728 20.8071 96.9333 20.8856 96.8288 21.4177C96.7249 21.9494 96.256 22.9353 95.8121 23.8058C95.369 24.6752 94.952 25.428 94.7041 25.9988C94.4568 26.5698 94.3781 26.9597 94.3781 27.2583C94.3781 27.5563 94.4568 27.7643 94.5478 27.7256C94.6386 27.6863 94.7436 27.4005 95.2782 26.6613C95.8121 25.921 96.7769 24.7268 97.3372 24.0002C97.8985 23.2736 98.0545 23.0137 98.1586 22.7284C98.2636 22.4429 98.3155 22.1309 98.3155 21.677C98.3155 21.2227 98.2636 20.6258 98.3675 20.1457C98.472 19.6658 98.7331 19.302 99.1369 19.1207C99.5411 18.9387 100.089 18.9387 101.106 18.9387C102.123 18.9387 103.609 18.9387 104.456 18.9387C105.304 18.9387 105.512 18.9386 105.538 19.211C105.564 19.484 105.408 20.0288 105.447 20.5352C105.486 21.0413 105.721 21.5082 106.06 21.8328C106.399 22.1574 106.841 22.3389 107.207 22.6378C107.572 22.9364 107.859 23.351 107.898 23.6762C107.937 24.0002 107.728 24.2335 107.468 24.9861C107.207 25.7395 106.894 27.0115 106.698 27.79C106.503 28.5688 106.425 28.8543 106.464 28.8674C106.503 28.8805 106.659 28.6206 107.245 28.1014C107.833 27.5823 108.849 26.8035 109.293 25.9857C109.736 25.1682 109.605 24.3119 109.371 23.65C109.136 22.9881 108.797 22.5207 108.406 21.9756C108.015 21.4302 107.572 20.8071 107.324 20.3272C107.076 19.8468 107.024 19.5091 107.076 19.3151C107.129 19.1201 107.285 19.0683 107.728 19.0423C108.172 19.0167 108.902 19.0167 109.528 19.0036C110.154 18.9905 110.675 18.9648 111 18.809C111.327 18.6533 111.457 18.3673 111.717 18.1858C111.978 18.004 112.37 17.9256 112.93 17.8607C113.491 17.7959 114.221 17.7441 115.107 17.7834C115.994 17.8219 117.037 17.9522 117.884 18.1989C118.732 18.4448 119.384 18.8084 119.736 19.2503C120.087 19.6909 120.14 20.2101 120.061 20.8207C119.983 21.4302 119.775 22.1309 119.319 22.8062C118.862 23.4812 118.159 24.1298 117.193 25.0516C116.228 25.9732 115.003 27.1673 113.634 28.3351C112.265 29.5031 110.753 30.6458 108.928 31.5152C107.102 32.3845 104.964 32.9821 102.865 33.3978C100.766 33.8124 98.7067 34.0455 96.425 34.2404C94.1439 34.4355 91.6406 34.5908 88.8507 34.5259C86.0611 34.4612 82.9838 34.1757 79.8027 34.2019C76.6224 34.2275 73.3367 34.5657 71.1463 34.8767C68.956 35.1884 67.8606 35.4737 66.7915 35.6813C65.7222 35.8888 64.6798 36.019 63.5194 36.3818C62.3593 36.7451 61.0812 37.3426 60.0251 37.9136C58.9691 38.4844 58.1351 39.0297 57.1699 39.6789C56.2059 40.3277 55.1105 41.0805 54.3932 41.6644C53.6768 42.2483 53.337 42.664 52.8939 42.8459C52.4512 43.0273 51.9035 42.9752 51.1861 43.0926C50.4693 43.2088 49.5823 43.4947 48.709 43.7802C47.8357 44.0657 46.975 44.351 46.0493 44.8439C45.1234 45.3375 44.133 46.0381 43.1034 46.908C42.073 47.7774 41.0043 48.8155 40.1175 49.88C39.231 50.9443 38.5273 52.0343 38.0191 52.865C37.5102 53.6958 37.1977 54.2666 37.0795 54.6305C36.963 54.9938 37.0411 55.1491 37.2234 55.2144C37.4061 55.2793 37.6929 55.2531 38.6182 55.24C39.5445 55.2274 41.1084 55.2274 42.9987 55.63C44.8887 56.0321 47.1058 56.8365 49.7257 57.7327C52.3461 58.6277 55.3715 59.6142 57.8741 60.6263C60.3769 61.6388 62.3593 62.6771 63.793 63.4168C65.227 64.1571 66.114 64.5977 66.6224 64.923C67.1307 65.2471 67.2609 65.4546 67.8606 66.0517C68.4608 66.6487 69.5294 67.6347 70.429 68.5562C71.3291 69.478 72.0585 70.3348 72.9192 71.6068C73.7798 72.878 74.7702 74.5661 76.0742 76.7205C77.378 78.875 78.9944 81.496 80.0892 83.3134C81.1846 85.1305 81.7588 86.1426 82.3064 86.7793C82.8536 87.415 83.3745 87.6743 83.8703 87.9729C84.366 88.2715 84.8355 88.6086 85.3175 88.8684C85.8001 89.1277 86.2953 89.3096 87.364 89.8806C88.4331 90.4519 90.0763 91.4122 90.9757 92.0092C91.8753 92.6062 92.0318 92.8399 92.5396 93.3459C93.048 93.852 93.9092 94.631 94.9385 95.5657C95.9687 96.5 97.168 97.5899 98.146 98.6413C99.1238 99.6925 99.88 100.705 100.688 101.769C101.497 102.833 102.357 103.95 102.944 104.703C103.531 105.455 103.844 105.845 103.999 106.13C104.156 106.416 104.156 106.597 103.896 106.636C103.635 106.675 103.113 106.571 102.54 106.571C101.966 106.571 101.34 106.675 100.453 107.052C99.5669 107.428 98.4194 108.077 97.4024 108.609C96.3862 109.141 95.4992 109.557 94.6649 110.05C93.8303 110.543 93.0491 111.114 92.4618 111.646C91.8753 112.179 91.4841 112.671 91.0146 112.996C90.5452 113.32 89.9979 113.476 89.3584 113.749C88.7199 114.021 87.9903 114.41 87.4427 114.982C86.8955 115.553 86.53 116.305 86.0474 116.89C85.5654 117.474 84.9651 117.889 84.2478 118.188C83.5315 118.487 82.6971 118.667 81.8627 119.031C81.0283 119.395 80.1937 119.94 78.642 120.563C77.0913 121.186 74.8223 121.886 72.6324 122.808C70.4421 123.729 68.33 124.872 66.4658 125.897C64.6011 126.922 62.9847 127.831 61.9025 128.558C60.8208 129.284 60.273 129.829 59.9206 130.543C59.5688 131.257 59.4128 132.14 59.2952 132.62C59.1781 133.1 59.0999 133.178 58.8263 132.815C58.5527 132.451 58.0833 131.646 57.7702 131.244C57.4573 130.842 57.3007 130.842 56.8832 131.517C56.4664 132.192 55.7889 133.542 54.6803 135.994C53.5718 138.447 52.0341 142.004 50.7692 144.768C49.5047 147.532 48.5143 149.506 47.81 150.972C47.1058 152.439 46.689 153.399 46.4017 154.256C46.1149 155.113 45.9585 155.865 45.8278 156.32C45.6981 156.773 45.593 156.929 45.3976 156.67C45.2023 156.41 44.9156 155.735 44.5899 155.113C44.2638 154.489 43.8983 153.918 43.4941 153.606C43.0903 153.295 42.6475 153.244 42.2038 153.127C41.7605 153.01 41.3174 152.828 40.9393 152.815C40.5612 152.802 40.2483 152.958 39.8963 153.14C39.5445 153.321 39.1529 153.529 38.8924 153.75C38.6314 153.97 38.5011 154.203 38.3835 154.45C38.2664 154.697 38.1619 154.956 38.0054 155.099C37.8489 155.242 37.641 155.268 37.0537 154.905C36.4672 154.541 35.5026 153.788 34.7464 152.945C33.9902 152.101 33.443 151.167 32.5687 149.661C31.6954 148.156 30.4965 146.079 29.4663 144.314C28.4365 142.549 27.5763 141.095 26.8977 139.875C26.2204 138.655 25.7247 137.669 25.0205 136.202C24.3168 134.736 23.404 132.789 22.7912 131.673C22.1789 130.556 21.866 130.271 21.4616 129.882C21.0578 129.492 20.562 128.999 19.5581 126.832C18.5541 124.664 17.0422 120.822 15.66 116.552C14.2778 112.282 13.027 107.584 12.4005 104.184C11.7751 100.783 11.7751 98.6804 11.7361 96.6949C11.6969 94.7088 11.6181 92.8399 11.6574 90.1659C11.6969 87.4924 11.8529 84.0144 12.2178 81.0031C12.5833 77.992 13.1567 75.448 13.5737 73.6958C13.9911 71.9434 14.2521 70.9836 14.6296 69.9322C15.0083 68.881 15.5035 67.7387 15.7777 66.9858C16.0513 66.233 16.1031 65.8697 16.4162 65.9606C16.7286 66.0512 17.3032 66.5969 17.9548 67.116C18.6065 67.6352 19.3364 68.1282 19.9231 68.3749C20.5102 68.6211 20.9527 68.6211 21.9831 68.4006C23.0129 68.1798 24.6298 67.7387 26.1286 67.5312C27.6282 67.3235 29.0104 67.3492 31.0048 67.609C32.9998 67.8683 35.6071 68.3618 38.4754 68.7257C41.3437 69.0885 44.4723 69.3221 46.3885 69.3874C48.3053 69.4523 49.0089 69.3483 49.1523 69.1669C49.2957 68.985 48.8787 68.7257 46.7409 68.1935C44.6025 67.6612 40.7435 66.8567 37.7712 66.0646C34.7985 65.2733 32.7125 64.4943 31.5126 64.144C30.3138 63.7933 30.0007 63.8716 29.3748 64.0144C28.749 64.1571 27.811 64.364 26.6369 64.6239C25.4642 64.8832 24.0563 65.1949 23.2477 65.3505C22.4394 65.5064 22.231 65.5064 21.5526 64.8314C20.8751 64.1566 19.7271 62.8068 19.0885 62.0409C18.4499 61.2749 18.3193 61.0936 18.2673 60.886C18.2152 60.6779 18.2415 60.4448 18.8538 59.4065ZM42.6853 125.287C42.9589 124.326 43.3244 122.872 43.6762 121.419C44.028 119.965 44.3668 118.512 44.6405 116.889C44.9145 115.267 45.123 113.476 45.4491 111.957C45.7751 110.438 46.2185 109.193 46.8957 107.908C47.5738 106.623 48.4869 105.299 49.1644 104.391C49.8428 103.482 50.2855 102.989 50.9373 102.509C51.5894 102.028 52.45 101.562 53.076 101.25C53.7014 100.938 54.0927 100.783 54.549 100.822C55.0054 100.861 55.5269 101.094 57.1694 101.626C58.812 102.158 61.5764 102.989 63.5314 103.639C65.4869 104.287 66.635 104.754 67.3254 105.079C68.0166 105.403 68.2507 105.584 68.5764 105.935C68.903 106.285 69.3199 106.805 69.6587 107.298C69.9979 107.791 70.2589 108.258 70.5194 108.44C70.7804 108.622 71.0409 108.518 72.436 108.012C73.8308 107.506 76.3603 106.597 78.7723 105.779C81.1843 104.962 83.4779 104.235 84.743 103.833C86.0076 103.43 86.2417 103.352 86.268 103.145C86.2938 102.938 86.112 102.6 86.0202 102.197C85.9292 101.795 85.9292 101.328 85.8116 100.939C85.6945 100.549 85.4603 100.237 84.1697 99.4065C82.8788 98.5759 80.532 97.2266 77.0509 95.228C73.5698 93.2288 68.9549 90.581 65.9695 88.6995C62.9842 86.8175 61.6283 85.7013 60.2068 84.5073C58.7857 83.3134 57.3002 82.0414 55.6964 80.7559C54.0927 79.4709 52.3719 78.1738 51.1462 77.3432C49.9206 76.5125 49.1907 76.1486 48.4734 75.8115C47.7564 75.4742 47.0523 75.1621 46.0356 75.1234C45.0189 75.0847 43.6894 75.3184 42.7242 75.448C41.7601 75.5777 41.1599 75.6038 40.7812 75.7728C40.4037 75.9412 40.2472 76.2527 40.169 76.616C40.0906 76.9793 40.0906 77.3944 39.5823 78.2256C39.0734 79.0563 38.0573 80.3015 36.9487 81.5735C35.8403 82.846 34.6414 84.144 33.8983 85.0396C33.1547 85.935 32.8679 86.4276 32.4894 86.8562C32.1119 87.2844 31.6428 87.6483 30.9518 87.9076C30.2612 88.1673 29.3481 88.3226 28.5787 88.388C27.8099 88.4528 27.1839 88.4266 26.4666 88.1025C25.7499 87.7779 24.9416 87.1548 24.2638 86.441C23.5858 85.7269 23.0381 84.9225 22.764 84.7928C22.4903 84.6632 22.4903 85.2078 22.7903 86.1943C23.09 87.1804 23.6902 88.6086 24.0159 89.8806C24.3414 91.1518 24.3946 92.2685 24.4203 92.931C24.4464 93.5927 24.4464 93.7998 24.5635 93.9169C24.6812 94.0335 24.9155 94.0596 26.4142 94.8772C27.9135 95.6948 30.6777 97.3041 32.9589 98.6408C35.241 99.9775 37.0402 101.042 38.3961 101.782C39.752 102.522 40.6645 102.937 41.2512 103.365C41.8377 103.794 42.0988 104.234 42.3855 104.793C42.6721 105.351 42.9852 106.026 43.2199 106.883C43.4546 107.74 43.6106 108.777 43.6757 110.023C43.7414 111.269 43.7151 112.723 43.4283 114.424C43.1416 116.124 42.5934 118.071 42.3198 119.317C42.0462 120.562 42.0462 121.108 42.0332 121.523C42.02 121.938 41.9943 122.224 41.9943 123.146C41.9943 124.067 42.02 125.624 42.124 126.169C42.229 126.715 42.4111 126.247 42.6853 125.287Z" fill="white"/>
<path fill-rule="evenodd" clip-rule="evenodd" d="M66.1818 171.501C65.6383 171.193 64.713 170.544 63.546 169.895C62.3793 169.246 60.9714 168.597 59.8891 168.214C58.8074 167.832 58.0512 167.715 57.1705 167.345C56.2909 166.975 55.2874 166.352 54.3485 165.697C53.41 165.041 52.5362 164.353 52.0794 163.873C51.6236 163.393 51.5847 163.12 51.5584 162.854C51.5327 162.588 51.5191 162.328 51.5773 162.075C51.6368 161.822 51.767 161.576 51.9823 161.335C52.1975 161.095 52.4969 160.862 52.9137 160.161C53.3313 159.46 53.8659 158.292 54.6609 156.689C55.4565 155.086 56.5125 153.049 57.3402 151.381C58.1683 149.713 58.7685 148.415 59.4134 146.956C60.0592 145.495 60.7498 143.873 61.3039 142.679C61.8578 141.485 62.2754 140.719 62.6203 140.012C62.9658 139.304 63.2394 138.655 63.4217 138.253C63.6044 137.85 63.6963 137.695 64.0544 137.338C64.4127 136.981 65.039 136.423 65.6383 135.858C66.238 135.294 66.8119 134.722 67.4116 134.139C68.0112 133.555 68.6372 132.957 69.0805 132.425C69.5236 131.893 69.7847 131.426 70.0714 130.959C70.358 130.491 70.6711 130.024 70.9253 129.622C71.1794 129.22 71.3747 128.882 71.5249 128.733C71.6752 128.583 71.7791 128.623 71.9618 128.616C72.1446 128.61 72.4051 128.557 73.0242 128.304C73.6433 128.051 74.6211 127.598 75.6183 127.156C76.6155 126.715 77.6328 126.286 78.4084 125.975C79.1845 125.663 79.7185 125.469 80.2793 125.209C80.8397 124.95 81.4262 124.624 82.3127 123.937C83.1997 123.249 84.3858 122.198 85.2723 121.471C86.1593 120.744 86.7458 120.342 87.7295 119.687C88.7141 119.031 90.0967 118.123 91.4325 117.279C92.7692 116.436 94.0593 115.657 95.1349 115.015C96.2103 114.372 97.0715 113.866 97.8203 113.489C98.5702 113.113 99.2093 112.866 99.965 112.691C100.721 112.516 101.595 112.412 102.436 112.237C103.277 112.062 104.085 111.815 104.893 111.685C105.702 111.555 106.51 111.542 107.226 111.574C107.944 111.607 108.57 111.685 108.941 111.711C109.313 111.737 109.43 111.711 109.476 111.582C109.521 111.451 109.496 111.218 109.476 110.218C109.457 109.219 109.444 107.454 109.306 106.228C109.169 105.001 108.909 104.313 108.726 103.6C108.544 102.886 108.439 102.145 108.426 101.639C108.413 101.133 108.492 100.86 108.283 100.523C108.074 100.186 107.579 99.7834 106.588 98.9072C105.597 98.0316 104.111 96.6812 102.775 95.5004C101.439 94.3189 100.252 93.3074 98.7525 92.2106C97.2532 91.1136 95.4415 89.9322 94.1964 89.0696C92.9513 88.2065 92.2734 87.6612 91.439 87.1616C90.6045 86.6618 89.6141 86.2074 88.851 85.8247C88.0885 85.4416 87.5541 85.1305 86.5042 84.2412C85.4551 83.3519 83.8907 81.8855 82.8934 80.8928C81.8957 79.8995 81.4662 79.381 81.0544 78.8488C80.6433 78.316 80.2515 77.7714 79.7102 76.9924C79.1682 76.213 78.4777 75.2014 77.5907 73.9032C76.7043 72.6053 75.6226 71.0218 74.775 69.743C73.9279 68.4647 73.3147 67.4919 72.7932 66.6419C72.2717 65.7913 71.8415 65.0641 71.3265 64.5256C70.8119 63.9867 70.212 63.6359 69.6061 63.2276C69.0001 62.8182 68.3867 62.3514 67.409 61.6639C66.4312 60.9759 65.0885 60.0673 64.1107 59.1588C63.1333 58.2501 62.5201 57.3417 62.3241 56.9782C62.1294 56.6149 62.3504 56.7958 63.2237 57.0949C64.0975 57.3933 65.6226 57.8085 66.8938 58.2564C68.1652 58.7044 69.1818 59.1848 70.0162 59.6392C70.8506 60.0929 71.5029 60.5217 72.2917 61.1903C73.0803 61.8584 74.0057 62.7665 74.9709 63.7211C75.9355 64.6752 76.939 65.6742 77.6952 66.667C78.4514 67.6603 78.9603 68.6462 79.5205 69.71C80.0815 70.7745 80.6943 71.9172 81.2419 72.8327C81.7897 73.747 82.2712 74.4349 83.2228 75.5904C84.1748 76.745 85.5963 78.3678 87.0237 79.7888C88.4514 81.2102 89.8857 82.4303 91.4174 83.6761C92.9492 84.9219 94.5793 86.1939 96.1041 87.2907C97.6297 88.3874 99.0508 89.309 100.042 89.9777C101.033 90.6457 101.593 91.0609 102.283 91.7812C102.975 92.5016 103.797 93.5274 104.507 94.2802C105.217 95.033 105.817 95.5129 106.169 95.7466C106.521 95.9802 106.625 95.9671 106.69 95.8375C106.756 95.7075 106.782 95.4611 106.658 95.1951C106.534 94.929 106.261 94.6435 105.987 94.2739C105.713 93.9032 105.439 93.4495 104.931 92.8461C104.422 92.2423 103.679 91.4897 102.799 90.6588C101.919 89.8282 100.902 88.9195 99.7807 87.9917C98.6595 87.0633 97.4344 86.1164 96.4566 85.3636C95.4783 84.6102 94.7488 84.0525 93.947 83.4878C93.145 82.9233 92.2712 82.3519 91.5407 81.8787C90.8114 81.4045 90.2243 81.0281 89.5852 80.542C88.9466 80.0547 88.2556 79.4578 87.3949 78.614C86.5348 77.7703 85.505 76.6803 84.7099 75.7397C83.9144 74.7983 83.3534 74.0067 82.7995 73.241C82.2454 72.4751 81.6978 71.7359 80.9548 70.5485C80.2123 69.3608 79.2726 67.7244 78.1646 66.2193C77.0566 64.7139 75.7791 63.3373 74.6311 62.1893C73.4842 61.0407 72.4675 60.1191 71.4247 59.2497C70.3817 58.3798 69.3126 57.5622 68.2828 57.0044C67.2524 56.4467 66.2615 56.1475 65.1861 55.8423C64.1107 55.5374 62.9501 55.2259 61.8615 54.9989C60.773 54.7715 59.7563 54.6293 58.7911 54.3888C57.8265 54.1489 56.9137 53.8112 55.8315 53.4024C54.7491 52.9937 53.4982 52.5138 52.2075 51.9166C50.9167 51.3191 49.5866 50.6061 48.5699 50.067C47.5527 49.5281 46.8491 49.1648 46.438 48.9181C46.0278 48.6719 45.9102 48.5416 46.001 48.4638C46.0929 48.3858 46.3928 48.3602 47.0182 47.9712C47.6442 47.5813 48.5956 46.8285 49.606 46.2059C50.617 45.5822 51.6861 45.0898 52.7353 44.6746C53.785 44.2591 54.8148 43.9212 56.2489 43.7593C57.6831 43.5967 59.5216 43.6097 61.275 43.6488C63.0284 43.6876 64.6972 43.753 66.2485 43.9804C67.8002 44.2067 69.2339 44.5962 70.4725 44.9926C71.7113 45.3882 72.7537 45.7902 73.9143 46.2575C75.0748 46.7251 76.3525 47.2571 77.3634 47.6859C78.3738 48.1134 79.1163 48.4382 80.0027 48.7429C80.8895 49.0477 81.9194 49.3336 82.8058 49.5093C83.6928 49.684 84.4353 49.7487 85.0739 49.8265C85.7134 49.904 86.248 49.9955 86.3777 50.203C86.5079 50.4106 86.2328 50.7352 85.6395 51.4949C85.0465 52.2539 84.1333 53.4479 83.5598 54.2007C82.9864 54.9535 82.7523 55.265 82.4388 55.6676C82.1257 56.0697 81.735 56.5632 81.7213 56.8094C81.7084 57.0562 82.0737 57.0562 82.6215 56.6541C83.1693 56.2515 83.8986 55.4471 84.5114 54.8239C85.1243 54.2007 85.62 53.76 86.1152 53.2404C86.6109 52.7213 87.1061 52.1237 87.4353 51.7704C87.7645 51.4165 87.9268 51.3065 88.0802 51.1797C88.2336 51.0526 88.3764 50.9104 88.5261 51.0661C88.6761 51.2213 88.8327 51.6752 89.3673 52.3506C89.9018 53.0261 90.8145 53.921 91.4531 54.6869C92.0922 55.4528 92.4577 56.0891 93.0243 56.7707C93.5915 57.452 94.3603 58.178 94.8686 58.8018C95.3774 59.4244 95.6252 59.9435 95.8599 60.1903C96.0947 60.4369 96.3159 60.4103 96.3485 60.6178C96.3814 60.8258 96.2245 61.2666 96.0222 62.448C95.8207 63.6291 95.5728 65.5503 95.3968 66.8029C95.221 68.0549 95.1165 68.6394 95.0513 69.0873C94.9863 69.5349 94.96 69.8459 95.0508 70.0154C95.1426 70.1838 95.3512 70.2092 95.527 70.112C95.703 70.0148 95.847 69.7942 96.1336 69.1784C96.4203 68.561 96.8505 67.5494 97.228 66.816C97.6065 66.0825 97.9328 65.6281 98.3433 65.2456C98.754 64.8623 99.2492 64.5507 99.5033 64.2914C99.7575 64.0315 99.7712 63.8246 99.8751 63.948C99.9796 64.0708 100.175 64.525 101.035 65.4986C101.896 66.472 103.421 67.9646 104.699 69.3144C105.977 70.6636 107.006 71.8712 107.971 72.9225C108.936 73.9733 109.835 74.8694 110.37 75.2975C110.904 75.7257 111.074 75.687 111.145 75.6024C111.218 75.5175 111.191 75.3884 111.093 74.4606C110.995 73.5322 110.826 71.806 110.761 70.1769C110.696 68.5485 110.735 67.0172 110.702 65.5178C110.67 64.0186 110.566 62.5521 110.767 61.2347C110.97 59.9179 111.478 58.7488 111.928 57.6202C112.378 56.4911 112.769 55.401 113.29 53.9084C113.812 52.4159 114.464 50.5203 115.07 48.7622C115.676 47.0035 116.237 45.381 116.634 44.3364C117.032 43.2914 117.267 42.8245 117.462 42.4292C117.658 42.0331 117.814 41.7078 117.892 41.4094C117.971 41.1108 117.971 40.8384 117.964 40.5662C117.958 40.2932 117.944 40.0208 117.833 39.8718C117.723 39.7222 117.514 39.6968 117.201 39.7484C116.888 39.8003 116.471 39.9305 115.494 40.3266C114.515 40.7218 112.978 41.3837 111.668 41.7476C110.357 42.1104 109.275 42.1753 108.225 42.1366C107.176 42.0978 106.159 41.9545 104.862 41.7994C103.565 41.643 101.987 41.4747 99.6599 40.988C97.3325 40.5013 94.2562 39.6968 92.3001 39.1645C90.3445 38.6323 89.5107 38.3724 89.2302 38.1194C88.9498 37.8664 89.2239 37.6198 89.6404 37.3668C90.0578 37.1137 90.6187 36.8539 91.5439 36.6986C92.4698 36.5428 93.7605 36.4911 95.6447 36.4587C97.5283 36.4262 100.006 36.4126 102.059 36.4057C104.112 36.3995 105.742 36.3995 107.065 36.1988C108.389 35.9976 109.405 35.595 110.207 35.3357C111.008 35.0764 111.596 34.9593 112.202 34.7909C112.808 34.6222 113.434 34.401 114.327 33.9081C115.22 33.4145 116.381 32.6486 117.521 31.9157C118.662 31.1823 119.783 30.4811 120.598 30.0148C121.413 29.5475 121.921 29.3133 122.364 29.2165C122.807 29.1187 123.186 29.1575 123.74 29.3587C124.294 29.5595 125.024 29.9234 125.636 30.3066C126.25 30.6893 126.744 31.0911 127.233 31.637C127.722 32.1818 128.205 32.8697 128.518 33.3434C128.831 33.817 128.974 34.0768 129.053 34.6153C129.13 35.1542 129.143 35.9714 129.195 36.7827C129.247 37.5942 129.339 38.3986 129.28 39.0155C129.221 39.6319 129.013 40.0596 128.72 40.5468C128.427 41.0335 128.048 41.5781 127.527 42.7791C127.005 43.9793 126.341 45.8358 126.014 47.2896C125.688 48.7429 125.702 49.7943 125.682 50.7027C125.663 51.6114 125.61 52.3768 125.61 54.1933C125.61 56.0107 125.663 58.879 125.812 60.8976C125.962 62.9156 126.21 64.0839 126.432 65.2325C126.654 66.3809 126.849 67.5096 126.875 69.0932C126.901 70.6767 126.758 72.7139 126.712 74.7455C126.666 76.777 126.719 78.8012 126.823 80.45C126.927 82.0984 127.083 83.3703 127.37 85.1288C127.658 86.8875 128.074 89.1329 128.602 91.4954C129.13 93.8568 129.77 96.3364 130.219 98.2114C130.669 100.087 130.93 101.359 131.132 102.455C131.334 103.552 131.477 104.474 131.51 105.012C131.543 105.551 131.464 105.706 130.995 106.433C130.526 107.16 129.665 108.458 128.876 109.503C128.087 110.548 127.37 111.34 126.94 111.852C126.51 112.365 126.367 112.598 126.275 112.702C126.184 112.806 126.145 112.78 125.995 112.599C125.845 112.417 125.585 112.079 125.324 111.872C125.063 111.664 124.802 111.586 124.594 111.475C124.385 111.366 124.229 111.222 123.968 111.138C123.707 111.054 123.342 111.028 123.022 111.015C122.703 111.002 122.429 111.002 122.051 111.035C121.673 111.067 121.191 111.132 120.813 111.23C120.435 111.326 120.161 111.456 119.894 111.534C119.626 111.612 119.366 111.638 118.981 111.664C118.597 111.69 118.088 111.716 117.742 111.722C117.397 111.728 117.215 111.716 117.195 111.768C117.175 111.819 117.319 111.937 117.534 112.079C117.749 112.222 118.036 112.39 118.244 112.546C118.453 112.702 118.583 112.845 118.74 112.923C118.897 113.001 119.079 113.014 119.346 113.02C119.613 113.026 119.966 113.026 120.507 113.014C121.047 113.001 121.777 112.975 122.312 112.994C122.846 113.014 123.186 113.079 123.394 113.203C123.603 113.326 123.681 113.507 123.733 113.76C123.785 114.013 123.811 114.338 123.805 114.675C123.798 115.012 123.759 115.363 123.615 115.72C123.472 116.076 123.225 116.44 122.788 116.868C122.351 117.297 121.725 117.79 120.734 118.258C119.743 118.725 118.388 119.166 116.765 119.783C115.142 120.399 113.251 121.19 111.935 121.71C110.618 122.229 109.875 122.475 109.099 122.806C108.323 123.137 107.515 123.553 106.674 124.098C105.833 124.643 104.959 125.318 103.93 126.064C102.9 126.81 101.714 127.628 100.696 128.342C99.6793 129.056 98.8322 129.666 97.9589 130.483C97.0856 131.301 96.1856 132.326 94.7451 133.896C93.3047 135.467 91.3229 137.583 89.6671 139.672C88.0115 141.762 86.6817 143.826 85.5276 145.597C84.3738 147.368 83.3966 148.848 82.3599 150.413C81.3234 151.976 80.228 153.625 79.3871 155.001C78.5464 156.376 77.9599 157.479 77.5355 158.251C77.1124 159.024 76.8519 159.465 76.6622 159.653C76.4738 159.842 76.3562 159.776 76.0563 159.355C75.7565 158.932 75.2739 158.155 74.7135 156.98C74.1531 155.805 73.5136 154.235 72.9533 152.761C72.3925 151.288 71.911 149.912 71.5261 149.082C71.1416 148.251 70.8543 147.965 70.6001 147.745C70.3454 147.525 70.1244 147.368 69.9418 147.355C69.7589 147.343 69.6161 147.473 69.5505 147.888C69.4853 148.303 69.499 149.004 69.707 149.881C69.916 150.756 70.3202 151.807 70.828 153.054C71.3363 154.3 71.9497 155.74 72.6404 157.272C73.3319 158.803 74.1007 160.425 74.4788 161.367C74.8575 162.307 74.8438 162.567 74.7061 162.995C74.5696 163.423 74.3091 164.021 73.8917 164.858C73.4747 165.695 72.9014 166.772 72.5494 167.434C72.1976 168.096 72.0668 168.342 71.8321 168.563C71.5979 168.784 71.2587 168.978 70.8801 169.192C70.5025 169.407 70.0855 169.641 69.6418 169.932C69.1987 170.224 68.7296 170.575 68.3578 170.841C67.9866 171.108 67.7126 171.289 67.5103 171.425C67.3082 171.561 67.1779 171.653 67.032 171.714C66.8865 171.776 66.7252 171.809 66.1818 171.501Z" fill="white"/>
<path fill-rule="evenodd" clip-rule="evenodd" d="M107.911 173.997C108.707 173.504 109.906 172.686 110.741 172.109C111.575 171.532 112.045 171.193 112.566 170.843C113.088 170.493 113.661 170.129 114.248 169.935C114.834 169.74 115.434 169.714 116.217 169.714C116.999 169.714 117.963 169.74 119.45 169.539C120.937 169.337 122.944 168.909 124.912 168.416C126.881 167.923 128.81 167.365 129.932 166.976C131.053 166.586 131.366 166.365 131.627 166.08C131.888 165.794 132.096 165.444 132.461 165.002C132.826 164.561 133.348 164.029 133.811 163.64C134.273 163.25 134.677 163.004 135.16 162.855C135.642 162.706 136.203 162.654 136.731 162.517C137.259 162.381 137.755 162.161 138.106 161.914C138.459 161.667 138.667 161.394 139.234 160.291C139.801 159.188 140.727 157.254 141.548 155.898C142.37 154.541 143.087 153.763 143.869 152.744C144.651 151.725 145.499 150.466 146.157 149.453C146.815 148.441 147.285 147.676 147.715 147.215C148.145 146.754 148.537 146.599 148.875 146.605C149.214 146.612 149.501 146.78 149.944 147.013C150.388 147.247 150.987 147.546 151.398 147.741C151.808 147.935 152.03 148.026 152.297 148C152.564 147.975 152.878 147.831 153.132 147.702C153.386 147.572 153.581 147.455 153.972 147.286C154.364 147.117 154.951 146.897 155.661 146.54C156.372 146.183 157.206 145.69 158.086 144.846C158.966 144.003 159.892 142.808 160.785 141.576C161.678 140.342 162.539 139.07 163.438 137.701C164.338 136.332 165.276 134.865 166.156 133.146C167.036 131.426 167.858 129.453 168.542 127.889C169.227 126.325 169.774 125.17 170.23 124.002C170.687 122.833 171.053 121.652 171.417 119.868C171.782 118.083 172.147 115.695 172.532 113.515C172.916 111.334 173.32 109.361 173.64 107.123C173.959 104.883 174.194 102.379 174.317 100.192C174.442 98.0045 174.454 96.1355 174.454 93.7861C174.454 91.4368 174.442 88.608 174.219 86.402C173.998 84.1947 173.568 82.6118 173.138 80.9828C172.707 79.3538 172.278 77.6794 171.769 76.5501C171.26 75.4215 170.674 74.837 170.42 74.4151C170.166 73.9933 170.244 73.7334 170.309 72.8515C170.374 71.9685 170.426 70.4634 170.407 69.6065C170.387 68.7497 170.295 68.5422 168.939 65.817C167.584 63.0911 164.964 57.8472 163.216 54.4862C161.47 51.1247 160.596 49.6447 159.716 48.2562C158.836 46.8673 157.949 45.5697 157.109 44.7906C156.267 44.0118 155.472 43.7525 154.846 43.3112C154.22 42.87 153.764 42.2463 153.177 41.39C152.59 40.5337 151.874 39.4427 151.235 38.6126C150.596 37.7817 150.036 37.2109 149.69 36.8864C149.345 36.5621 149.214 36.4838 148.986 36.4838C148.758 36.4838 148.432 36.5621 148.184 36.6855C147.936 36.8089 147.767 36.9773 147.747 37.3019C147.728 37.6265 147.858 38.106 147.976 39.8259C148.093 41.5453 148.197 44.5053 148.321 46.8416C148.445 49.1774 148.588 50.891 149.175 53.1171C149.762 55.3425 150.792 58.0809 151.385 60.0736C151.979 62.0659 152.135 63.3117 152.402 64.4478C152.669 65.5833 153.047 66.608 153.399 67.6466C153.751 68.685 154.078 69.7362 154.632 71.372C155.186 73.0073 155.967 75.2265 156.502 77.4332C157.036 79.6393 157.324 81.8328 157.578 83.6631C157.832 85.4927 158.053 86.9593 158.379 88.9389C158.706 90.9176 159.135 93.4103 159.299 94.9744C159.462 96.5381 159.357 97.1739 159.123 98.141C158.888 99.1081 158.523 100.406 158.282 102.281C158.04 104.157 157.923 106.61 157.284 109.77C156.645 112.931 155.485 116.798 154.507 119.595C153.529 122.393 152.734 124.118 152.043 125.469C151.352 126.819 150.766 127.791 150.277 128.544C149.788 129.298 149.397 129.829 149.097 130.258C148.797 130.686 148.588 131.011 148.262 131.401C147.936 131.79 147.494 132.243 146.88 132.64C146.268 133.036 145.485 133.373 144.84 133.672C144.195 133.97 143.686 134.229 143.275 134.554C142.865 134.878 142.552 135.268 141.574 136.384C140.597 137.5 138.953 139.343 137.735 140.641C136.516 141.939 135.721 142.691 135.049 143.263C134.377 143.834 133.83 144.223 133.315 144.463C132.8 144.703 132.318 144.794 131.099 144.885C129.88 144.976 127.924 145.067 125.336 145.151C122.748 145.236 119.528 145.313 117.096 145.58C114.665 145.846 113.022 146.299 111.686 146.546C110.35 146.793 109.32 146.832 108.446 146.858C107.573 146.883 106.856 146.897 106.621 146.8C106.386 146.703 106.634 146.495 107.409 145.788C108.185 145.08 109.489 143.873 110.636 142.835C111.784 141.797 112.774 140.926 113.419 140.317C114.065 139.707 114.365 139.356 114.743 139.097C115.122 138.837 115.578 138.668 116.105 138.493C116.634 138.318 117.234 138.136 117.775 137.935C118.316 137.734 118.798 137.513 119.11 137.26C119.424 137.007 119.567 136.721 119.985 135.962C120.402 135.202 121.093 133.97 121.881 132.711C122.67 131.452 123.557 130.167 124.599 128.973C125.642 127.778 126.842 126.675 127.781 125.858C128.72 125.04 129.397 124.508 130.108 123.969C130.819 123.431 131.561 122.886 132.396 122.373C133.23 121.86 134.156 121.38 134.925 120.997C135.694 120.614 136.308 120.329 136.705 120.115C137.103 119.9 137.285 119.758 137.604 119.335C137.924 118.914 138.38 118.213 138.745 117.526C139.11 116.838 139.384 116.162 139.775 115.131C140.166 114.099 140.675 112.71 141.32 111.425C141.966 110.14 142.748 108.959 143.315 107.869C143.882 106.778 144.235 105.779 144.423 104.241C144.612 102.703 144.638 100.626 144.514 98.8813C144.391 97.1351 144.116 95.72 143.869 94.3638C143.621 93.0077 143.4 91.7103 143.177 90.1528C142.956 88.5949 142.735 86.7778 142.539 85.0846C142.344 83.3901 142.175 81.8197 142.083 79.633C141.992 77.4457 141.979 74.6424 141.94 71.4499C141.9 68.2567 141.835 64.6746 141.854 61.4883C141.874 58.302 141.979 55.5118 141.998 52.7731C142.017 50.0342 141.952 47.3471 142.082 45.1796C142.213 43.0122 142.539 41.3644 142.852 40.0596C143.165 38.7551 143.465 37.7954 143.719 37.0813C143.973 36.3672 144.182 35.8999 144.377 35.5819C144.573 35.2642 144.755 35.0952 144.853 34.7904C144.951 34.4851 144.964 34.044 144.859 33.5698C144.755 33.096 144.534 32.5905 144.364 32.0714C144.195 31.5524 144.078 31.0202 143.725 30.7347C143.373 30.4494 142.787 30.4095 141.757 29.8841C140.727 29.3583 139.254 28.3462 137.676 27.2175C136.099 26.0877 134.417 24.8425 133.386 24.1409C132.357 23.4399 131.979 23.2846 131.711 23.2459C131.444 23.2062 131.288 23.2846 130.284 23.3169C129.28 23.3494 127.429 23.3363 126.321 23.3687C125.213 23.4012 124.847 23.479 124.476 23.661C124.105 23.8418 123.726 24.1284 123.394 24.4008C123.061 24.6732 122.774 24.9328 122.689 25.0824C122.605 25.2314 122.722 25.2702 123.028 25.4004C123.335 25.53 123.83 25.7506 125.284 26.6465C126.738 27.5415 129.149 29.1115 130.844 30.3448C132.539 31.5781 133.517 32.4734 134.338 33.3889C135.16 34.3033 135.825 35.2385 136.157 35.7769C136.489 36.3154 136.489 36.4581 136.268 36.6271C136.046 36.7958 135.604 36.9898 134.867 37.6005C134.13 38.2105 133.1 39.2356 132.507 40.1317C131.913 41.0267 131.757 41.7921 131.411 43.33C131.066 44.8687 130.532 47.1788 129.971 49.937C129.411 52.6951 128.824 55.9008 128.524 58.0097C128.224 60.1191 128.211 61.1313 128.276 62.9159C128.341 64.7008 128.485 67.2571 128.458 70.1194C128.432 72.9811 128.237 76.1481 128.146 77.9267C128.054 79.704 128.067 80.0941 128.302 80.6973C128.537 81.3006 128.993 82.1183 129.254 82.7085C129.515 83.2992 129.58 83.663 129.795 84.0264C130.01 84.3897 130.375 84.753 130.785 85.5446C131.197 86.3365 131.653 87.5568 131.992 88.7115C132.331 89.8664 132.552 90.9574 132.63 92.6121C132.709 94.2666 132.643 96.4863 132.728 97.9663C132.813 99.4452 133.048 100.185 133.269 101.036C133.491 101.886 133.699 102.845 133.758 103.631C133.817 104.416 133.725 105.026 133.562 105.578C133.4 106.13 133.165 106.623 132.728 107.59C132.292 108.556 131.653 109.998 130.936 111.452C130.218 112.905 129.423 114.371 128.921 115.287C128.419 116.201 128.211 116.565 128.022 116.948C127.833 117.331 127.664 117.733 127.422 118.032C127.181 118.33 126.868 118.525 126.34 118.745C125.812 118.966 125.069 119.213 123.765 119.498C122.461 119.783 120.597 120.108 118.615 120.718C116.634 121.328 114.535 122.224 113.061 122.97C111.588 123.716 110.741 124.313 109.919 124.897C109.098 125.481 108.303 126.053 107.651 126.708C106.999 127.364 106.491 128.103 105.428 129.531C104.366 130.959 102.749 133.074 100.786 135.592C98.8245 138.11 96.5175 141.03 94.2096 143.691C91.9017 146.352 89.5947 148.753 88.1864 150.531C86.7785 152.309 86.2696 153.465 85.4876 154.685C84.7053 155.904 83.6492 157.189 83.1603 158.066C82.6708 158.941 82.7498 159.409 82.8279 159.734C82.9057 160.058 82.9845 160.239 83.3231 160.953C83.6623 161.667 84.2616 162.913 84.9395 163.621C85.6175 164.328 86.3737 164.496 87.0773 164.64C87.7815 164.782 88.4337 164.899 89.066 164.906C89.6983 164.912 90.3111 164.808 90.9108 164.795C91.5104 164.782 92.0975 164.86 92.5145 165.165C92.9319 165.47 93.1794 166.002 93.4986 166.593C93.8183 167.183 94.2096 167.832 94.594 168.734C94.9784 169.636 95.3565 170.791 95.6957 171.765C96.0343 172.738 96.3348 173.53 96.6992 174.14C97.0647 174.75 97.4949 175.178 97.8141 175.444C98.1338 175.71 98.3419 175.814 98.6548 175.84C98.9684 175.866 99.3852 175.814 99.9325 175.73C100.48 175.646 101.158 175.529 101.829 175.419C102.501 175.308 103.166 175.205 103.772 175.133C104.379 175.061 104.926 175.023 105.343 174.977C105.76 174.932 106.047 174.879 106.386 174.769C106.726 174.659 107.116 174.49 107.911 173.997ZM168.011 118.402C167.966 117.792 167.991 116.702 167.881 115.929C167.77 115.157 167.523 114.703 167.027 114.197C166.532 113.69 165.789 113.133 165.136 112.659C164.485 112.185 163.924 111.796 163.481 111.42C163.038 111.043 162.711 110.679 162.574 110.361C162.438 110.044 162.49 109.771 162.582 109.55C162.672 109.33 162.803 109.161 162.985 109.2C163.168 109.239 163.403 109.485 163.879 109.888C164.355 110.29 165.071 110.848 165.684 111.231C166.297 111.614 166.806 111.822 167.308 112.347C167.81 112.873 168.304 113.717 168.585 114.203C168.865 114.69 168.931 114.82 168.963 115.3C168.995 115.781 168.995 116.611 168.976 117.214C168.957 117.818 168.918 118.194 168.8 118.499C168.683 118.804 168.487 119.038 168.331 119.09C168.174 119.142 168.057 119.012 168.011 118.402ZM119.129 158.891C119.644 158.917 120.517 158.93 121.423 158.638C122.329 158.346 123.268 157.749 124.239 157.133C125.211 156.516 126.214 155.88 127.036 155.465C127.857 155.049 128.496 154.855 129.199 154.706C129.904 154.557 130.673 154.452 131.338 154.291C132.003 154.128 132.564 153.907 133.026 153.654C133.489 153.401 133.854 153.115 134.167 152.967C134.48 152.817 134.741 152.804 134.923 152.506C135.105 152.207 135.21 151.623 135.405 151.149C135.601 150.676 135.888 150.312 135.628 150.338C135.367 150.364 134.559 150.779 133.658 151.227C132.759 151.675 131.768 152.155 130.816 152.369C129.865 152.583 128.952 152.531 127.987 152.824C127.022 153.115 126.006 153.752 124.983 154.368C123.959 154.984 122.929 155.582 122.088 156.108C121.247 156.633 120.595 157.087 120.034 157.47C119.474 157.853 119.005 158.164 118.732 158.372C118.458 158.58 118.379 158.684 118.418 158.755C118.458 158.826 118.614 158.866 119.129 158.891Z" fill="white"/>
<path fill-rule="evenodd" clip-rule="evenodd" d="M94.418 0.999959C146.012 0.999959 187.836 42.6369 187.836 94.0001C187.836 145.363 146.012 187 94.418 187C42.8241 187 1 145.363 1 94.0001C1 42.6369 42.8241 0.999959 94.418 0.999959ZM94.418 7.36281C142.482 7.36281 181.445 46.1509 181.445 94.0001C181.445 141.849 142.482 180.637 94.418 180.637C46.3539 180.637 7.39146 141.849 7.39146 94.0001C7.39146 46.1509 46.3539 7.36281 94.418 7.36281Z" fill="white"/>
<path d="M94.418 0.999959C146.012 0.999959 187.836 42.6369 187.836 94.0001C187.836 145.363 146.012 187 94.418 187C42.8241 187 1 145.363 1 94.0001C1 42.6369 42.8241 0.999959 94.418 0.999959ZM94.418 7.36281C142.482 7.36281 181.445 46.1509 181.445 94.0001C181.445 141.849 142.482 180.637 94.418 180.637C46.3539 180.637 7.39146 141.849 7.39146 94.0001C7.39146 46.1509 46.3539 7.36281 94.418 7.36281Z" stroke="white" stroke-width="0.5" stroke-miterlimit="2.61313"/>
</svg>
