<svg width="3322" height="4954" viewBox="0 0 3322 4954" fill="none" xmlns="http://www.w3.org/2000/svg">
<path fill-rule="evenodd" clip-rule="evenodd" d="M3182.31 1137.35C3198.25 1263.94 3171.05 1373.94 3159.87 1470.3C3148.61 1566.67 3153.38 1649.47 3167.6 1739.35C3181.81 1829.22 3205.48 1926.24 3222.58 2036.82C3239.76 2147.39 3250.36 2271.6 3239.76 2345.54C3229.07 2419.47 3197.18 2443.13 3156.91 2466.14C3116.64 2489.22 3068.15 2511.65 3038.57 2544.18C3008.98 2576.71 2998.38 2619.27 2993.61 2665.43C2988.84 2711.52 2990.08 2761.22 3005.44 2828.09C3020.81 2894.88 3050.4 2978.92 3082.37 3059.92C3114.34 3140.92 3148.61 3218.97 3184.69 3273.43C3220.77 3327.82 3258.66 3358.62 3286.44 3382.86C3314.22 3407.09 3331.97 3424.84 3314.79 3486.94C3297.61 3549.05 3245.59 3655.52 3179.92 3790.33C3114.26 3925.14 3034.95 4088.37 2924.9 4245.69C2814.86 4403.01 2674.07 4554.41 2565.75 4646.09C2457.51 4737.77 2381.74 4769.73 2314.92 4807.52C2248.1 4845.39 2190.08 4889.18 2126.22 4913.41C2062.28 4937.65 1992.5 4942.41 1936.29 4937.65C1880.07 4932.88 1837.5 4918.67 1800.19 4911.03C1762.88 4903.31 1730.99 4902.16 1689.57 4911.6C1648.15 4921.05 1597.27 4941.18 1535.14 4949.48C1473.01 4957.77 1399.62 4954.24 1314.47 4931.16C1229.25 4908.07 1132.27 4865.52 1070.13 4836.52C1008 4807.52 980.798 4792.16 963.046 4779.18C945.294 4766.11 936.993 4755.52 849.466 4678.05C761.856 4600.58 595.019 4456.24 450.125 4265.82C305.149 4075.39 182.117 3838.8 105.767 3689.77C29.4163 3540.75 -0.1706 3479.22 0.4047 3444.31C0.98 3409.39 31.7997 3401.1 85.056 3350.82C138.312 3300.54 214.005 3208.29 260.194 3104.2C306.3 3000.12 322.902 2884.2 335.312 2793.1C347.722 2701.99 356.022 2635.78 350.68 2587.88C345.338 2539.99 326.436 2510.42 301.615 2487.91C276.795 2465.4 245.976 2450.03 210.471 2445.93C174.967 2441.82 134.778 2448.88 113.492 2429.99C92.2062 2411.01 89.8228 2366.08 87.4394 2290.42C85.056 2214.67 82.6726 2108.29 102.233 2021.29C121.793 1934.37 163.132 1866.93 184.501 1809.01C205.787 1751.01 207.02 1702.54 196.336 1637.48C185.651 1572.42 163.215 1490.84 166.173 1366.63C169.132 1242.42 197.568 1075.65 265.618 914.799C333.668 753.948 441.331 599.011 528.859 488.436C616.387 377.861 683.861 311.565 794.483 246.584C905.105 181.52 1058.96 117.689 1209.27 70.945C1359.51 24.2012 1506.29 -5.37317 1697.38 1.11675C1888.46 7.60667 2123.92 50.1608 2287.8 100.519C2451.68 150.796 2543.97 208.712 2658.78 314.029C2773.6 419.265 2910.85 571.901 3009.06 719.691C3107.27 867.562 3166.45 1010.67 3182.39 1137.18L3182.31 1137.35Z" fill="#C5C6C6" stroke="#2B2A29" stroke-width="0.200307" stroke-miterlimit="22.9256"/>
<path fill-rule="evenodd" clip-rule="evenodd" d="M849.466 4678.05C761.856 4600.58 595.018 4456.24 450.125 4265.82C305.149 4075.39 182.117 3838.8 105.767 3689.77C29.4163 3540.75 -0.1706 3479.22 0.4047 3444.31C0.98 3409.39 31.7997 3401.1 85.056 3350.82C138.312 3300.54 214.005 3208.29 260.194 3104.2C306.3 3000.12 322.902 2884.2 335.312 2793.1C347.722 2701.99 356.022 2635.78 350.68 2587.88C345.338 2539.99 326.436 2510.42 301.615 2487.91C276.795 2465.4 245.976 2450.03 210.471 2445.93C174.967 2441.82 134.778 2448.88 113.492 2429.99C92.2062 2411.01 89.8228 2366.08 87.4394 2290.42C85.056 2214.67 82.6726 2108.29 102.233 2021.29C121.793 1934.37 163.132 1866.93 184.501 1809.01C205.787 1751.01 207.02 1702.54 196.335 1637.48C185.651 1572.42 163.215 1490.84 166.173 1366.63C169.132 1242.42 197.568 1075.65 265.618 914.799C333.668 753.948 441.331 599.011 528.859 488.436C616.387 377.861 683.861 311.565 794.483 246.584C905.105 181.52 1058.96 117.689 1209.27 70.945C1359.51 24.2012 1506.29 -5.37317 1697.38 1.11675C1888.46 7.60667 2123.92 50.1608 2287.8 100.519C2451.68 150.796 2543.97 208.712 2658.78 314.029C2773.6 419.265 2910.85 571.901 3009.06 719.691C3107.27 867.562 3166.45 1010.67 3182.39 1137.18C3198.33 1263.78 3171.13 1373.78 3159.95 1470.14C3148.69 1566.5 3153.46 1649.31 3167.68 1739.18C3181.9 1829.06 3205.57 1926.08 3222.66 2036.65C3239.84 2147.23 3250.44 2271.44 3239.84 2345.37C3229.15 2419.31 3197.27 2442.97 3156.99 2465.97C3116.72 2489.06 3068.23 2511.48 3038.65 2544.02C3009.06 2576.55 2998.46 2619.1 2993.69 2665.27C2988.92 2711.36 2990.16 2761.06 3005.53 2827.93C3020.9 2894.72 3050.48 2978.76 3082.45 3059.76C3114.42 3140.76 3148.69 3218.8 3184.77 3273.27C3220.85 3327.65 3258.74 3358.46 3286.52 3382.69C3314.3 3406.93 3332.05 3424.67 3314.87 3486.78C3297.7 3548.88 3245.67 3655.35 3180.01 3790.16C3114.34 3924.97 3035.03 4088.21 2924.98 4245.52C2814.94 4402.84 2674.15 4554.25 2565.83 4645.93C2457.59 4737.61 2381.82 4769.56 2315 4807.35C2248.18 4845.23 2190.16 4889.01 2126.3 4913.25C2062.36 4937.48 1992.59 4942.25 1936.37 4937.48C1880.16 4932.72 1837.58 4918.5 1800.27 4910.86C1762.96 4903.14 1731.07 4901.99 1689.65 4911.44C1648.23 4920.89 1597.36 4941.01 1535.22 4949.31C1473.09 4957.61 1399.7 4954.08 1314.55 4930.99C1229.33 4907.91 1132.35 4865.35 1070.22 4836.35C1008.08 4807.35 980.881 4791.99 963.128 4779.01C945.376 4765.95 937.076 4755.35 849.548 4677.88L849.466 4678.05ZM590.087 2622.55C584.499 2641.2 577.924 2661.9 566.418 2667.82C554.912 2673.73 538.31 2664.86 524.092 2657.79C509.874 2650.65 498.039 2645.39 491.875 2618.77C485.629 2592.16 485.054 2544.26 489.492 2508.44C493.93 2472.63 503.381 2448.97 549.241 2434.26C595.101 2419.47 677.369 2413.56 764.321 2388.42C851.274 2363.28 942.993 2318.92 1023.45 2277.27C1103.91 2235.54 1173.11 2196.52 1183.47 2183.54C1193.82 2170.56 1145.33 2183.54 1074.65 2205.72C1003.97 2227.9 911.023 2259.28 814.865 2279.08C718.708 2298.88 619.346 2307.17 532.393 2307.17C445.44 2307.17 370.816 2298.88 329.148 2289.43C287.397 2279.98 278.521 2269.3 270.549 2249.5C262.577 2229.71 255.427 2200.71 259.29 2119.38C263.152 2038.05 277.946 1904.39 295.123 1802.69C312.3 1700.98 331.778 1631.15 334.736 1574.39C337.695 1517.62 324.052 1473.84 312.546 1432.76C301.04 1391.68 291.589 1353.24 312.875 1253.84C334.161 1154.52 386.185 994.239 448.07 859.922C509.874 725.688 581.458 617.413 657.233 532.879C732.926 448.346 812.811 387.39 901.325 331.528C989.757 275.665 1086.82 224.814 1180.59 187.846C1274.37 150.878 1364.85 127.793 1457.23 116.292C1549.52 104.791 1643.63 104.791 1750.96 111.856C1858.38 118.921 1979.03 133.133 2105.67 163.036C2232.32 192.939 2364.81 238.451 2464.25 293.41C2563.61 348.369 2629.94 412.857 2695.03 480.878C2760.12 548.899 2823.98 620.452 2879.95 718.048C2935.83 815.643 2983.75 939.198 3010.38 1033.84C3037 1128.47 3042.35 1194.11 3041.11 1260.08C3039.96 1326.05 3032.24 1392.26 3025.17 1434.24C3018.1 1476.22 3011.53 1493.96 3010.7 1520C3009.8 1546.05 3014.57 1580.3 3018.68 1608.15C3022.79 1635.92 3026.4 1657.2 3034.04 1694.82C3041.77 1732.36 3053.52 1786.17 3066.84 1862.49C3080.15 1938.81 3094.94 2037.56 3100.53 2105.58C3106.12 2173.6 3102.59 2210.89 3095.85 2234.8C3089.03 2258.79 3079 2269.39 3049.66 2277.35C3020.4 2285.32 2971.83 2290.66 2903.53 2290.66C2835.16 2290.66 2747.05 2285.32 2658.62 2272.59C2570.19 2259.86 2481.43 2239.73 2412.47 2224.69C2343.52 2209.58 2294.46 2199.56 2256.9 2193.64C2219.34 2187.73 2193.28 2185.92 2188.27 2193.64C2183.26 2201.36 2199.2 2218.45 2221.72 2232.66C2244.24 2246.88 2273.17 2258.05 2355.77 2282.36C2438.28 2306.6 2574.38 2343.9 2657.22 2368.46C2740.07 2393.02 2769.65 2404.85 2794.47 2417.83C2819.29 2430.81 2839.43 2445.02 2855.7 2465.48C2871.97 2485.85 2884.38 2512.47 2883.48 2543.52C2882.58 2574.58 2868.36 2610.06 2852.09 2631.67C2835.81 2653.28 2817.49 2660.92 2801.54 2657.96C2785.6 2655 2771.95 2641.36 2764.89 2620.66C2757.82 2599.96 2757.16 2572.19 2748.94 2573.34C2740.64 2574.49 2724.7 2604.72 2711.38 2623.04C2698.07 2641.36 2687.39 2647.85 2664.62 2657.63C2641.85 2667.41 2606.93 2680.39 2581.2 2689.59C2555.48 2698.79 2538.88 2704.05 2527.37 2714.97C2515.86 2725.9 2509.29 2742.49 2503.7 2750.46C2498.11 2758.43 2493.34 2757.85 2483.32 2742.74C2473.29 2727.62 2457.84 2698.05 2449.05 2660.26C2440.17 2622.39 2437.79 2576.3 2432.45 2556.75C2427.1 2537.2 2418.8 2544.34 2409.68 2572.69C2400.47 2601.03 2390.45 2650.73 2386.01 2689.18C2381.57 2727.62 2382.72 2754.81 2369.16 2768.7C2355.52 2782.58 2327.17 2783.16 2293.39 2785.87C2259.69 2788.5 2220.65 2793.26 2190.74 2792.11C2160.82 2790.96 2140.11 2783.81 2127.45 2751.04C2114.71 2718.18 2110.03 2659.68 2107.07 2617.95C2104.11 2576.22 2102.88 2551.41 2098.2 2562.33C2093.43 2573.26 2085.13 2620 2078.96 2661.08C2072.72 2702.16 2068.61 2737.65 2064.5 2762.21C2060.39 2786.77 2056.2 2800.33 2034.01 2808.38C2011.82 2816.35 1971.63 2818.73 1935.22 2824.97C1898.81 2831.21 1866.27 2841.24 1831.67 2843.04C1797.07 2844.85 1760.33 2838.28 1742.58 2819.06C1724.83 2799.83 1726.06 2767.88 1731.65 2709.96C1737.24 2651.96 1747.34 2568 1749.97 2519.78C1752.6 2471.56 1747.92 2459.15 1740.52 2468.03C1733.13 2476.9 1723.1 2507.05 1711.51 2543.69C1700.01 2580.33 1686.94 2623.54 1677.82 2668.8C1668.61 2714.07 1663.35 2761.39 1659.49 2792.11C1655.63 2822.84 1653.24 2837.05 1644.45 2846.25C1635.57 2855.45 1620.2 2859.56 1576.97 2857.17C1533.74 2854.79 1462.82 2845.92 1414 2835.9C1365.18 2825.88 1338.55 2814.62 1321.38 2798.6C1304.2 2782.66 1296.47 2761.96 1291.21 2723.19C1285.87 2684.41 1282.91 2627.65 1280.53 2609.33C1278.15 2591.01 1276.42 2611.13 1274.28 2639.47C1272.23 2667.82 1269.85 2704.54 1265.08 2732.88C1260.31 2761.22 1253.24 2781.35 1239.03 2793.18C1224.81 2805.01 1203.52 2808.54 1170.73 2803.53C1137.94 2798.52 1093.48 2784.88 1057.72 2771C1021.89 2757.11 994.688 2742.9 980.223 2713.9C965.758 2684.9 963.95 2641.2 960.416 2608.34C956.882 2575.48 951.54 2553.63 948.006 2556.58C944.472 2559.54 942.664 2587.31 937.651 2618.36C932.638 2649.41 924.337 2683.67 912.173 2705.61C900.01 2727.46 884.066 2736.99 871.656 2739.62C859.246 2742.25 850.37 2738.14 826.125 2731.07C801.88 2723.93 762.184 2713.9 737.364 2700.92C712.544 2687.86 702.435 2671.92 686.82 2654.75C671.122 2637.59 649.836 2619.27 635.372 2605.05C620.907 2590.84 613.182 2580.82 606.935 2584.1C600.689 2587.39 596.005 2603.9 590.416 2622.55H590.087ZM2584.74 3217.73C2619.91 3208.29 2691.25 3186.68 2733.66 3169.84C2776.15 3153 2789.71 3140.84 2796.94 3126.96C2804.17 3113.07 2805.08 3097.38 2797.27 3052.04C2789.38 3006.61 2772.86 2931.52 2762.91 2883.3C2752.97 2835.08 2749.76 2813.8 2739.82 2807.64C2729.88 2801.39 2713.36 2810.27 2692.65 2822.1C2671.93 2833.93 2647.03 2848.71 2628.7 2866.62C2610.38 2884.53 2598.54 2905.48 2588.52 2933.16C2578.49 2960.85 2570.19 2995.11 2565.26 3026.16C2560.41 3057.21 2558.93 3084.98 2558.44 3110.28C2558.02 3135.58 2558.6 3158.34 2557.53 3176.49C2556.46 3194.65 2553.83 3208.29 2552.03 3216.42C2550.22 3224.55 2549.4 3227.18 2584.57 3217.73H2584.74ZM2222.54 3313.28C2245.88 3310.89 2290.26 3290.77 2338.84 3278.94C2387.32 3267.11 2440.01 3263.57 2465.48 3246.73C2490.96 3229.89 2489.15 3199.74 2486.44 3140.02C2483.81 3080.3 2480.19 2991 2475.51 2941.63C2470.74 2892.25 2464.83 2882.81 2450.03 2877.47C2435.24 2872.13 2411.57 2870.98 2390.53 2874.51C2369.49 2878.04 2351.16 2886.34 2328.73 2907.94C2306.21 2929.55 2279.58 2964.38 2260.35 2991C2241.12 3017.61 2229.28 3035.93 2220.16 3066.08C2210.95 3096.23 2204.46 3138.21 2200.6 3176.66C2196.74 3215.11 2195.59 3249.94 2196.16 3275.16C2196.74 3300.3 2199.12 3315.66 2222.46 3313.28H2222.54ZM1770.85 3387.21C1811.04 3384.25 1885.66 3378.91 1948.04 3374.48C2010.42 3370.04 2060.72 3366.51 2088 3356.41C2115.21 3346.38 2119.32 3329.79 2120.22 3284.52C2121.13 3239.26 2118.74 3165.32 2113.15 3100.01C2107.56 3034.62 2098.69 2977.85 2085.95 2948.03C2073.21 2918.13 2056.69 2915.26 2039.52 2916.98C2022.34 2918.79 2004.59 2925.28 1979.44 2935.05C1954.29 2944.83 1921.74 2957.81 1891.25 2987.05C1860.76 3016.3 1832.41 3061.89 1809.64 3105.6C1786.88 3149.39 1769.7 3191.36 1757.29 3222.66C1744.88 3254.05 1737.15 3274.67 1731.81 3298.08C1726.47 3321.41 1723.51 3347.45 1721.79 3363.47C1719.98 3379.41 1719.4 3385.32 1722.11 3388.03C1724.74 3390.66 1730.66 3390.09 1770.93 3387.13L1770.85 3387.21ZM1312.34 3363.88C1367.98 3364.78 1471.45 3362.98 1537.2 3364.78C1602.86 3366.59 1630.64 3371.85 1643.71 3362.16C1656.69 3352.38 1654.97 3327.57 1646.67 3281.16C1638.37 3234.74 1623.57 3166.72 1596.94 3113.81C1570.32 3060.91 1531.85 3023.04 1491.91 2991.66C1451.97 2960.27 1410.55 2935.46 1380.06 2921.01C1349.57 2906.55 1330.09 2902.36 1311.43 2904.16C1292.78 2905.97 1275.02 2913.61 1264.67 2932.26C1254.31 2950.91 1251.35 2980.48 1249.87 3024.84C1248.4 3069.21 1248.4 3128.35 1246.34 3183.31C1244.29 3238.27 1240.09 3289.21 1238.94 3317.3C1237.71 3345.4 1239.52 3350.74 1244.29 3355.17C1248.97 3359.61 1256.7 3363.14 1312.34 3364.04V3363.88ZM901.736 3261.27C934.857 3274.91 999.372 3293.23 1041.04 3304.73C1082.79 3316.23 1101.69 3321 1116.82 3321.9C1131.86 3322.81 1143.12 3319.85 1150.27 3304.73C1157.33 3289.62 1160.29 3262.42 1159.47 3226.94C1158.57 3191.45 1153.88 3147.66 1143.2 3103.96C1132.51 3060.17 1115.99 3016.38 1096.76 2981.8C1077.53 2947.21 1055.67 2921.75 1031.67 2900.47C1007.67 2879.19 981.702 2862.02 963.046 2854.96C944.39 2847.89 933.131 2850.85 924.583 2866.21C916.036 2881.57 910.119 2909.42 903.873 2959.37C897.626 3009.32 891.134 3081.45 884.641 3130.24C878.148 3179.04 871.656 3204.51 869.272 3221.6C866.889 3238.77 868.697 3247.64 901.818 3261.19L901.736 3261.27ZM765.636 3206.89C741.967 3207.47 698.737 3186.76 667.095 3171.98C635.454 3157.19 615.318 3148.32 601.676 3137.06C588.033 3125.81 580.965 3112.17 578.581 3060.5C576.198 3008.74 578.581 2918.87 586.882 2861.2C595.183 2803.53 609.401 2778.06 628.879 2770.42C648.439 2762.7 673.259 2772.81 698.655 2792.03C724.132 2811.25 750.103 2839.59 766.129 2865.96C782.073 2892.25 787.991 2916.49 791.607 2965.61C795.141 3014.66 796.374 3088.59 794.894 3136.57C793.415 3184.46 789.306 3206.32 765.636 3206.97V3206.89ZM2243.09 3870.75C2260.43 3866.64 2290.84 3860.07 2334.23 3837.07C2377.54 3813.99 2433.76 3774.39 2464.09 3726.74C2494.41 3679.09 2498.85 3623.56 2496.3 3555.95C2493.76 3488.42 2484.3 3408.82 2472.96 3367.74C2461.54 3326.67 2448.22 3323.96 2418.23 3327.65C2388.23 3331.35 2341.47 3341.37 2305.96 3346.71C2270.46 3352.05 2246.21 3352.63 2231.09 3365.93C2215.97 3379.24 2210.05 3405.29 2207.75 3454.82C2205.37 3504.36 2206.6 3577.39 2209.06 3645.58C2211.61 3713.76 2215.39 3777.02 2217.04 3815.05C2218.68 3853.01 2218.1 3865.74 2219.83 3871.24C2221.64 3876.75 2225.75 3874.94 2243.01 3870.83L2243.09 3870.75ZM1729.67 3980.67C1737.65 3985.11 1747.67 3989.87 1774.3 3986.34C1800.93 3982.81 1844.08 3970.98 1895.85 3942.88C1947.63 3914.78 2007.96 3870.42 2044.94 3823.43C2081.92 3776.44 2095.57 3726.74 2100 3666.11C2104.44 3605.49 2099.68 3533.93 2096.47 3488.42C2093.18 3442.91 2091.46 3423.36 2067.46 3418.92C2043.46 3414.49 1997.35 3425.08 1956.26 3431.9C1915.17 3438.72 1879.01 3441.68 1844.73 3443.16C1810.38 3444.64 1777.92 3444.64 1757.45 3453.18C1737.07 3461.72 1728.77 3478.89 1724.58 3494.58C1720.47 3510.27 1720.47 3524.49 1718.66 3595.38C1716.85 3666.36 1713.32 3794.1 1711.59 3865.66C1709.79 3937.21 1709.79 3952.57 1712.83 3962.35C1715.79 3972.13 1721.7 3976.23 1729.67 3980.67ZM1600.97 3993.98C1571.39 3991.6 1518.13 3983.3 1475.23 3966.21C1432.33 3949.04 1399.78 3923 1364.03 3878.39C1328.2 3833.7 1289.16 3770.45 1264.59 3720.17C1240.01 3669.89 1229.99 3632.6 1226.12 3585.36C1222.26 3538.04 1224.64 3480.7 1224.64 3450.22C1224.64 3419.74 1222.26 3416.21 1236.81 3415.64C1251.27 3415.06 1282.67 3417.44 1336.83 3420.07C1390.99 3422.7 1467.91 3425.74 1522.65 3429.6C1577.38 3433.46 1609.85 3438.15 1625.87 3454.08C1641.82 3470.02 1641.24 3497.21 1641.24 3585.93C1641.24 3674.66 1641.82 3824.83 1642.15 3902.38C1642.48 3979.85 1642.48 3984.61 1639.52 3988.72C1636.56 3992.83 1630.64 3996.44 1601.05 3994.06L1600.97 3993.98ZM843.302 3389.27C842.398 3432.72 839.439 3510.52 845.192 3568.44C850.945 3626.35 865.492 3664.55 894.339 3702.26C923.186 3739.97 966.334 3777.26 1003.97 3805.03C1041.53 3832.8 1073.5 3851.12 1096.43 3858.43C1119.36 3865.66 1133.25 3861.8 1143.2 3849.23C1153.06 3836.66 1158.98 3815.38 1160.62 3736.27C1162.26 3657.16 1159.55 3520.3 1156.18 3451.7C1152.81 3383.1 1148.62 3382.78 1127.66 3381.46C1106.62 3380.15 1068.74 3377.76 1022.3 3366.26C975.867 3354.76 920.803 3334.06 889.326 3326.09C857.849 3318.12 849.794 3322.81 846.425 3329.79C843.055 3336.77 844.206 3345.89 843.302 3389.35V3389.27ZM739.501 3720C719.941 3716.64 687.724 3708.34 652.549 3681.39C617.373 3654.45 579.157 3608.94 558.61 3574.76C538.064 3540.59 535.105 3517.83 532.722 3450.55C530.338 3383.27 528.53 3271.46 530.667 3217.57C532.722 3163.6 538.639 3167.46 554.912 3177.65C571.185 3187.83 597.813 3204.43 632.577 3221.84C667.342 3239.26 710.243 3257.66 739.337 3267.85C768.513 3278.03 783.881 3280.09 790.21 3289.12C796.538 3298.16 793.908 3314.1 789.881 3380.06C785.854 3446.03 780.594 3561.95 777.471 3627.01C774.348 3692.07 773.444 3706.29 769.581 3714.09C765.718 3721.89 758.897 3723.37 739.419 3720H739.501ZM2599.61 3713.19C2611.77 3717.79 2634.21 3715.08 2665.03 3695.85C2695.77 3676.63 2734.81 3640.89 2763.82 3613.54C2792.83 3586.18 2811.73 3567.2 2819.87 3513.15C2828 3459.01 2825.29 3369.71 2822.09 3311.63C2818.8 3253.55 2815.02 3226.61 2812.88 3210.34C2810.83 3194.08 2810.5 3188.49 2788.88 3197.44C2767.27 3206.48 2724.37 3230.14 2687.71 3246.82C2651.06 3263.49 2620.57 3273.27 2601.75 3284.93C2582.93 3296.6 2575.86 3310.24 2573.64 3330.45C2571.42 3350.74 2574.05 3377.6 2576.6 3437.82C2579.15 3498.03 2581.45 3591.44 2583.58 3644.1C2585.64 3696.76 2587.45 3708.59 2599.53 3713.19H2599.61ZM2827.43 3068.96C2838.36 3079.56 2864.74 3073.97 2889.07 3068.96C2913.48 3063.95 2935.91 3059.51 2945.69 3044.89C2955.48 3030.27 2952.52 3005.37 2947.17 2986.81C2941.83 2968.16 2934.11 2955.76 2932.05 2937.27C2930 2918.79 2933.53 2894.22 2932.96 2866.13C2932.38 2838.03 2927.61 2806.41 2921.45 2785.7C2915.2 2765 2907.56 2755.23 2897.53 2750.79C2887.51 2746.35 2875.02 2747.26 2860.88 2756.54C2846.66 2765.82 2830.72 2783.57 2821.43 2802.95C2812.14 2822.34 2809.43 2843.29 2811.24 2877.14C2813.05 2910.98 2819.21 2957.73 2820.12 2994.53C2821.02 3031.33 2816.58 3058.28 2827.51 3068.88L2827.43 3068.96ZM2869.1 3491.38C2875.34 3497.46 2887.18 3504.28 2897.53 3505.84C2907.89 3507.48 2916.77 3503.95 2929.75 3494.91C2942.74 3485.88 2959.91 3471.42 2970.84 3452.77C2981.77 3434.12 2986.54 3411.36 2986.21 3367.91C2985.88 3324.45 2980.62 3260.29 2976.43 3218.15C2972.32 3176 2969.36 3155.88 2963.53 3144.21C2957.78 3132.54 2949.15 3129.26 2937.23 3126.63C2925.23 3124 2909.86 3121.86 2897.62 3120.88C2885.37 3119.81 2876.17 3119.81 2868.36 3123.84C2860.55 3127.78 2853.98 3135.83 2852.25 3173.95C2850.44 3212.07 2853.4 3280.42 2855.21 3333.32C2857.02 3386.23 2857.59 3423.77 2858.5 3444.8C2859.4 3465.75 2860.55 3470.18 2861.45 3475.11C2862.36 3479.96 2862.93 3485.3 2869.18 3491.38H2869.1ZM496.067 3078.74C485.876 3077.59 466.316 3072.49 450.947 3070.19C435.578 3067.81 424.319 3068.14 414.539 3066.66C404.759 3065.18 396.458 3061.89 393.088 3049.98C389.719 3037.99 391.198 3017.29 398.677 2983.93C406.238 2950.5 419.799 2904.41 427.853 2867.28C435.825 2830.15 438.208 2802.05 442.811 2778.88C447.413 2755.64 454.234 2737.32 468.124 2730.5C482.013 2723.68 503.053 2728.44 519.572 2739.21C536.091 2749.97 548.255 2766.81 553.761 2793.75C559.268 2820.62 558.035 2857.59 555.816 2905.81C553.597 2954.03 550.309 3013.43 547.269 3045.96C544.146 3078.49 541.187 3084.08 534.694 3084.4C528.201 3084.73 518.175 3079.64 512.668 3078.49C507.162 3077.34 506.258 3079.97 496.067 3078.82V3078.74ZM488.67 3445.37C491.464 3385.32 497.957 3268.5 503.053 3204.34C508.066 3140.18 511.6 3128.6 501.08 3121.7C490.56 3114.72 465.987 3112.42 444.126 3111.19C422.264 3110.03 403.033 3110.03 395.472 3121.37C387.91 3132.79 392.102 3155.55 393.663 3207.14C395.307 3258.73 394.403 3339.15 394.65 3387.54C394.978 3435.93 396.458 3452.11 405.169 3469.44C413.881 3486.78 429.825 3505.1 444.208 3516.93C458.59 3528.76 471.247 3534.1 478.233 3532.13C485.218 3530.15 486.369 3521.04 486.533 3514.79C486.698 3508.55 485.794 3505.34 488.588 3445.29L488.67 3445.37ZM219.676 3605.65C266.111 3688.71 345.42 3853.17 429.168 3992.42C512.915 4131.66 601.018 4245.85 716.407 4363.82C831.796 4481.79 974.388 4603.62 1092.74 4684.37C1211.08 4765.13 1305.1 4804.73 1374.63 4818.61C1444.16 4832.49 1489.12 4820.66 1532.35 4806.2C1575.58 4791.75 1616.92 4774.58 1655.38 4764.8C1693.84 4755.02 1729.35 4752.64 1763.04 4762.42C1796.74 4772.19 1828.71 4794.05 1861.58 4809.41C1894.38 4824.77 1928.15 4833.64 1984.61 4825.92C2041.08 4818.2 2120.39 4793.96 2201.75 4755.52C2283.11 4717.07 2366.53 4664.41 2441.98 4602.06C2517.43 4539.62 2584.82 4467.5 2649.66 4392.66C2714.42 4317.82 2776.56 4240.35 2853.48 4130.92C2930.41 4021.5 3022.13 3880.2 3080.97 3774.64C3139.82 3669.07 3165.87 3599.33 3174.42 3544.61C3182.97 3489.9 3174.09 3450.3 3153.13 3419.58C3132.09 3388.85 3098.97 3366.92 3080.32 3351.89C3061.66 3336.77 3057.55 3328.47 3046.04 3362.48C3034.54 3396.49 3015.55 3472.81 2998.38 3525.14C2981.2 3577.47 2965.83 3605.9 2949.31 3630.71C2932.71 3655.52 2914.96 3676.88 2904.36 3707.6C2893.67 3738.32 2890.14 3778.58 2883.4 3790.98C2876.58 3803.39 2866.55 3788.03 2848.47 3773.24C2830.39 3758.45 2804.42 3744.24 2785.43 3745.14C2766.53 3746.05 2754.7 3761.98 2730.7 3781.21C2706.7 3800.43 2670.62 3822.86 2647.85 3844.22C2625.09 3865.49 2615.64 3885.62 2607.34 3914.87C2599.04 3944.11 2591.97 3982.56 2580.38 3988.47C2568.87 3994.39 2552.85 3967.77 2542.49 3946.17C2532.14 3924.56 2527.45 3908.05 2506.99 3904.43C2486.61 3900.9 2450.44 3910.35 2421.51 3921.27C2392.5 3932.2 2370.64 3944.61 2347.55 3962.1C2324.45 3979.52 2300.21 4002.03 2278.92 4038.42C2257.64 4074.81 2239.31 4125.09 2221.8 4140.78C2204.38 4156.47 2187.78 4137.5 2172.08 4105.62C2156.38 4073.66 2141.59 4028.73 2118.25 4014.27C2094.91 3999.81 2062.94 4015.75 2041.65 4021.99C2020.37 4028.23 2009.68 4024.62 1986.59 4027.33C1963.49 4029.96 1927.99 4038.83 1890.18 4053.04C1852.3 4067.26 1812.11 4086.73 1788.44 4110.71C1764.77 4134.7 1757.7 4163.04 1748.17 4199.11C1738.72 4235.17 1726.88 4278.96 1712.99 4294.32C1699.1 4309.68 1683.08 4296.7 1665.08 4265.9C1647 4235.17 1626.94 4186.62 1605.9 4154.09C1584.95 4121.56 1563 4105.05 1527.5 4096.17C1491.99 4087.3 1442.85 4086.07 1392.63 4080.15C1342.33 4074.24 1290.89 4063.64 1259.49 4057.97C1228.1 4052.39 1216.92 4051.73 1211.25 4066.52C1205.66 4081.3 1205.66 4111.45 1202.04 4135.44C1198.51 4159.43 1191.36 4177.17 1174.26 4162.06C1157.09 4146.94 1129.88 4099.05 1108.02 4061.83C1086.16 4024.54 1069.56 3997.92 1031.1 3969.25C992.633 3940.58 932.309 3909.77 897.051 3899.42C861.876 3889.07 851.767 3899.09 849.466 3925.46C847.082 3951.75 852.424 3994.39 851.274 4024.54C850.123 4054.69 842.398 4072.43 825.796 4051.73C809.195 4031.03 783.799 3971.88 765.472 3923.08C747.144 3874.28 735.885 3835.84 709.832 3804.54C683.779 3773.16 643.015 3748.92 609.812 3732.41C576.691 3715.82 551.214 3706.94 537.324 3719.68C523.435 3732.41 521.051 3766.67 511.025 3777.59C500.998 3788.52 483.246 3776.11 461.302 3744.81C439.441 3713.43 413.388 3663.16 391.198 3607.29C369.008 3551.43 350.68 3489.9 333.832 3447.35C316.984 3404.79 301.615 3381.13 288.548 3367.25C275.48 3353.37 264.878 3349.18 255.427 3355.09C245.976 3361.01 237.675 3376.94 219.594 3405.94C201.513 3434.94 173.734 3476.92 166.666 3498.77C159.516 3520.62 173.159 3522.43 219.594 3605.49L219.676 3605.65Z" fill="#2B2A29" stroke="#2B2A29" stroke-width="0.200307" stroke-miterlimit="22.9256"/>
<path fill-rule="evenodd" clip-rule="evenodd" d="M1504.99 2294.42C1517.24 2287.77 1537.95 2276.51 1570.66 2269.12C1603.37 2261.73 1648 2258.19 1686.95 2259.34C1725.83 2260.49 1758.95 2266.41 1789.11 2275.45C1819.27 2284.48 1846.48 2296.56 1867.35 2305.59C1888.23 2314.63 1902.69 2320.55 1915.76 2323.01C1928.74 2325.56 1940.33 2324.65 1946.33 2317.67C1952.41 2310.69 1952.99 2297.71 1948.71 2256.14C1944.44 2214.57 1935.24 2144.5 1908.77 2062.92C1882.31 1981.26 1838.5 1888.19 1791.49 1826.33C1744.48 1764.55 1694.18 1734.07 1663.53 1726.35C1632.87 1718.63 1621.94 1733.74 1590.06 1777.36C1558.09 1820.99 1505.16 1893.12 1468.42 1963.11C1431.77 2033.02 1411.3 2100.71 1397.41 2159.45C1383.52 2218.1 1376.13 2267.81 1378.92 2296.48C1381.71 2325.15 1394.7 2332.87 1407.44 2332.29C1420.18 2331.72 1432.59 2322.85 1445.41 2316.93C1458.31 2311.02 1471.63 2308.06 1480.17 2305.59C1488.72 2303.05 1492.58 2300.99 1504.83 2294.34L1504.99 2294.42ZM1526.44 2204.96C1580.28 2203.48 1679.06 2199.37 1742.67 2198.72C1806.29 2198.14 1834.64 2201.1 1847.21 2197.07C1859.79 2193.05 1856.5 2182.12 1842.61 2152.3C1828.72 2122.4 1804.15 2073.6 1785.25 2051.34C1766.34 2028.99 1753.03 2033.18 1719.83 2032.53C1686.71 2031.95 1633.78 2026.61 1600.66 2027.02C1567.54 2027.43 1554.22 2033.68 1545.51 2041.81C1536.8 2049.94 1532.61 2059.96 1519.79 2083.62C1506.88 2107.28 1485.35 2144.58 1473.02 2166.84C1460.78 2189.19 1457.82 2196.58 1460.78 2200.85C1463.74 2205.12 1472.61 2206.36 1526.44 2204.88V2204.96Z" fill="#2B2A29"/>
<path fill-rule="evenodd" clip-rule="evenodd" d="M2254.25 2049.44C2298.14 2067.76 2384.6 2101.77 2458.24 2110.81C2531.87 2119.85 2592.86 2103.83 2648.58 2066.2C2704.3 2028.5 2754.93 1969.02 2783.94 1930.74C2812.95 1892.45 2820.35 1875.28 2800.54 1882.35C2780.73 1889.41 2733.64 1920.8 2701.75 1945.19C2669.78 1969.59 2652.93 1987.01 2621.29 1998.1C2589.65 2009.19 2543.22 2013.87 2513.14 2016.42C2483.14 2018.97 2469.49 2019.21 2446.4 2017.9C2423.31 2016.58 2390.76 2013.63 2356.49 2010.92C2322.14 2008.29 2286.06 2005.9 2255.89 2004.43C2225.73 2002.95 2201.49 2002.37 2184.15 2000.56C2166.81 1998.76 2156.45 1995.8 2154.23 1997.44C2152.01 1999.09 2157.93 2005.25 2168.12 2010.75C2178.31 2016.26 2192.86 2020.94 2200.83 2024.63C2208.8 2028.33 2210.28 2030.96 2254.25 2049.36V2049.44Z" fill="#2B2A29"/>
<path fill-rule="evenodd" clip-rule="evenodd" d="M552.944 1962.5C568.888 1978.77 597.9 2008.02 626.583 2033.15C655.265 2058.29 683.702 2079.32 715.343 2093.21C746.985 2107.09 781.914 2113.91 826.541 2111.85C871.167 2109.8 925.657 2098.79 974.311 2078.58C1022.96 2058.29 1065.87 2028.8 1092.16 2005.72C1118.46 1982.63 1128.24 1966.12 1123.81 1963.41C1119.37 1960.78 1100.71 1971.95 1077.95 1982.96C1055.18 1993.89 1028.22 2004.56 1001.35 2013.11C974.475 2021.65 947.518 2028.14 910.863 2031.76C874.208 2035.29 827.773 2035.86 795.228 2033.07C762.682 2030.28 744.026 2024.03 718.138 2014.42C692.249 2004.81 659.128 1991.75 632.664 1977.87C606.201 1963.98 586.394 1949.2 570.285 1939.75C554.177 1930.3 541.767 1926.11 535.85 1927.01C529.932 1927.92 530.508 1933.83 532.316 1938.43C534.124 1943.03 537.082 1946.24 553.026 1962.5H552.944Z" fill="#2B2A29"/>
<path fill-rule="evenodd" clip-rule="evenodd" d="M1911.65 1239.57C1937.7 1223.64 1976.74 1188.72 2024.98 1146.17C2073.23 1103.61 2130.59 1053.34 2179.98 995.092C2229.38 936.847 2270.8 870.633 2305.98 824.218C2341.15 777.802 2370.16 751.186 2402.71 726.622C2435.25 702.059 2471.33 679.632 2501.82 665.995C2532.31 652.358 2557.13 647.675 2593.21 645.293C2629.29 642.911 2676.63 642.911 2706.55 643.239C2736.46 643.568 2748.87 644.143 2759.23 642.993C2769.58 641.76 2777.89 638.885 2778.46 635.024C2779.04 631.163 2771.97 626.48 2761.86 621.387C2751.83 616.376 2738.77 611.036 2729.07 603.642C2719.29 596.249 2712.79 586.802 2696.52 573.74C2680.25 560.76 2654.2 544.165 2621.98 529.132C2589.76 514.016 2551.3 500.461 2524.1 493.314C2496.89 486.249 2480.87 485.592 2461.06 490.356C2441.25 495.121 2417.58 505.144 2392.11 522.56C2366.63 539.975 2339.42 564.867 2314.6 591.156C2289.78 617.444 2267.27 645.293 2241.87 680.782C2216.39 716.271 2188.04 759.401 2161.99 803.516C2135.93 847.548 2112.26 892.485 2092.46 932.41C2072.65 972.336 2056.62 1007.17 2035.67 1038.55C2014.63 1069.93 1988.57 1097.7 1956.36 1129.33C1924.14 1160.95 1885.68 1196.44 1868.5 1217.15C1851.32 1237.85 1855.43 1243.76 1864.06 1248.2C1872.61 1252.63 1885.68 1255.59 1911.73 1239.65L1911.65 1239.57Z" fill="#2B2A29"/>
<path fill-rule="evenodd" clip-rule="evenodd" d="M1454.02 1229.44C1412.27 1201.67 1341.34 1150.16 1278.64 1098.49C1215.93 1046.73 1161.44 994.649 1105.88 955.053C1050.24 915.456 993.452 888.264 952.688 874.052C911.842 859.84 887.022 858.69 854.147 865.755C821.273 872.82 780.509 888.264 752.073 900.915C723.636 913.649 707.692 923.671 692.652 933.693C677.53 943.716 663.312 953.82 652.381 956.778C641.451 959.735 633.725 955.628 635.533 945.852C637.341 936.076 648.519 920.714 658.628 905.68C668.654 890.564 677.53 875.777 706.871 850.392C736.129 824.926 785.851 788.861 822.835 765.531C859.818 742.2 884.063 731.52 905.349 724.127C926.635 716.733 944.963 712.625 976.358 725.277C1007.75 738.01 1052.13 767.584 1100.87 813.425C1149.69 859.265 1202.94 921.371 1261.54 973.126C1320.14 1024.88 1384 1066.29 1430.76 1102.92C1477.53 1139.56 1507.11 1171.52 1530.78 1195.75C1554.45 1219.99 1572.2 1236.58 1569.57 1246.93C1566.94 1257.29 1543.85 1261.39 1526.1 1261.39C1508.35 1261.39 1495.94 1257.29 1454.19 1229.44H1454.02Z" fill="#2B2A29"/>
<path fill-rule="evenodd" clip-rule="evenodd" d="M699.65 1947.46C734.25 1959.87 792.849 1974.65 868.542 1970.55C944.235 1966.44 1037.19 1943.35 1108.2 1920.02C1179.2 1896.69 1228.27 1873.03 1270.92 1848.47C1313.5 1823.91 1349.57 1798.52 1381.55 1765.42C1413.52 1732.31 1441.29 1691.48 1457.57 1643.26C1473.84 1595.04 1478.52 1539.5 1469.07 1490.95C1459.62 1442.48 1435.95 1401.08 1392.15 1349.65C1348.34 1298.22 1284.48 1236.69 1204.6 1183.79C1124.71 1130.88 1028.89 1086.52 947.851 1062.86C866.816 1039.2 800.492 1036.24 747.564 1044.21C694.637 1052.18 654.941 1071.16 624.204 1105.74C593.466 1140.33 571.523 1190.61 549.086 1252.96C526.567 1315.31 503.555 1389.82 495.254 1456.12C486.953 1522.33 493.446 1580.33 503.802 1632.66C514.157 1684.99 528.375 1731.73 545.798 1770.18C563.222 1808.63 583.933 1838.78 600.781 1861.53C617.629 1884.29 630.696 1899.65 642.531 1912.38C654.366 1925.12 664.968 1935.14 699.65 1947.54V1947.46ZM712.06 1194.63C706.472 1211.23 682.145 1240.14 665.954 1298.14C649.681 1356.06 641.38 1443.06 650.832 1507.54C660.283 1572.03 687.487 1614.01 716.498 1648.84C745.51 1683.76 776.247 1711.53 809.697 1729.6C843.146 1747.67 879.226 1755.89 928.866 1751.78C978.588 1747.67 1041.87 1731.08 1096.94 1707.75C1151.92 1684.42 1198.68 1654.18 1228.84 1620.5C1259.01 1586.82 1272.65 1549.52 1281.85 1516.99C1291.06 1484.46 1295.74 1456.69 1300.18 1435.42C1304.62 1414.14 1308.73 1399.35 1317.36 1394.01C1325.91 1388.67 1338.97 1392.78 1350.81 1404.03C1362.64 1415.29 1373.24 1433.61 1382.2 1452.5C1391.08 1471.4 1398.15 1490.95 1401.11 1511.41C1404.06 1531.78 1402.91 1553.06 1388.7 1589.2C1374.48 1625.27 1347.27 1676.12 1308.56 1716.95C1269.77 1757.78 1219.56 1788.5 1164.82 1818.65C1110.09 1848.8 1050.91 1878.37 995.026 1897.27C939.139 1916.16 886.458 1924.46 841.503 1923.89C796.547 1923.31 759.235 1913.86 723.484 1890.45C687.651 1867.12 653.38 1829.82 625.601 1793.76C597.822 1757.69 576.536 1722.78 563.222 1671.6C549.908 1620.42 544.566 1553.06 549.004 1495.39C553.442 1437.72 567.66 1389.82 579.495 1350.23C591.329 1310.63 600.781 1279.25 612.287 1255.59C623.793 1231.93 637.436 1215.99 650.996 1202.93C664.639 1189.87 678.2 1179.84 691.514 1176.89C704.828 1173.93 717.813 1178.04 712.224 1194.63H712.06Z" fill="#2B2A29"/>
<path fill-rule="evenodd" clip-rule="evenodd" d="M1868.81 1661.78C1855.5 1631.06 1837.17 1591.95 1832.73 1552.11C1828.29 1512.18 1837.75 1471.36 1872.1 1427.9C1906.37 1384.44 1965.54 1338.27 2025.95 1287.75C2086.28 1237.14 2147.83 1182.18 2215.88 1138.73C2283.93 1095.27 2358.47 1063.31 2427.67 1048.85C2496.88 1034.39 2560.82 1037.35 2611.11 1052.71C2661.41 1068.08 2698.07 1095.93 2731.84 1141.44C2765.54 1186.95 2796.36 1250.29 2810.25 1331.86C2824.14 1413.44 2821.18 1513.42 2811.4 1600.66C2801.62 1687.91 2785.1 1762.42 2745.73 1820.66C2706.37 1878.91 2644.23 1920.89 2591.88 1944.54C2539.53 1968.2 2496.96 1973.54 2440.41 1971.16C2383.87 1968.78 2313.52 1958.76 2244.89 1938.96C2176.27 1919.16 2109.37 1889.59 2052 1854.34C1994.64 1819.18 1946.64 1778.35 1918.62 1746.73C1890.51 1715.1 1882.21 1692.59 1868.89 1661.86L1868.81 1661.78ZM1928.31 1610.6C1941.96 1638.12 1963.82 1686.02 2001.95 1727.42C2040.09 1768.82 2094.58 1803.74 2142.49 1832.98C2190.4 1862.23 2231.83 1885.89 2295.77 1898.62C2359.62 1911.36 2446.08 1913.08 2500.74 1902.15C2555.47 1891.23 2578.57 1867.57 2610.46 1838.57C2642.43 1809.57 2683.19 1775.31 2711.3 1720.85C2739.41 1666.46 2754.77 1591.95 2762.17 1530.09C2769.57 1468.32 2768.99 1419.19 2758.88 1371.3C2748.86 1323.4 2729.3 1276.66 2710.97 1240.02C2692.64 1203.38 2675.46 1176.76 2654.51 1163.7C2633.47 1150.72 2608.65 1151.3 2599.2 1161.89C2589.74 1172.57 2595.66 1193.27 2608.65 1218.08C2621.63 1242.89 2641.77 1271.89 2655.08 1307.96C2668.4 1344.02 2674.89 1387.23 2666.92 1444.57C2658.95 1501.92 2636.43 1573.47 2610.46 1624.07C2584.4 1674.6 2554.82 1704.17 2525.8 1721.92C2496.79 1739.66 2468.44 1745.58 2435.89 1742.95C2403.35 1740.32 2366.69 1729.06 2326.75 1715.43C2286.81 1701.79 2243.66 1685.85 2203.72 1666.05C2163.78 1646.25 2127.12 1622.6 2096.63 1599.51C2066.14 1576.43 2041.89 1554 2030.96 1530.01C2020.03 1506.02 2022.42 1480.64 2019.46 1457.55C2016.5 1434.47 2008.2 1413.77 1998.17 1405.8C1988.15 1397.83 1976.31 1402.51 1960.28 1417.63C1944.34 1432.66 1924.2 1458.13 1908.84 1479.98C1893.47 1501.83 1882.78 1520.15 1882.78 1534.37C1882.78 1548.58 1893.47 1558.6 1901.44 1567.14C1909.41 1575.69 1914.75 1582.83 1928.31 1610.35V1610.6Z" fill="#2B2A29"/>
<path fill-rule="evenodd" clip-rule="evenodd" d="M984.655 1117.9L1053.77 1331.74L1278.55 1331.33L1096.43 1463.1L1166.37 1676.69L984.655 1544.27L803.025 1676.69L872.882 1463.1L690.759 1331.33L915.619 1331.74L984.655 1117.9Z" fill="#E5097F"/>
<path fill-rule="evenodd" clip-rule="evenodd" d="M2368.67 1117.9L2437.71 1331.74L2662.57 1331.33L2480.36 1463.1L2550.3 1676.69L2368.67 1544.27L2186.96 1676.69L2256.9 1463.1L2074.69 1331.33L2299.55 1331.74L2368.67 1117.9Z" fill="#E5097F"/>
</svg>
