<svg width="141" height="210" viewBox="0 0 141 210" fill="none" xmlns="http://www.w3.org/2000/svg">
<path fill-rule="evenodd" clip-rule="evenodd" d="M134.972 48.8776C135.643 54.2077 134.498 58.8392 134.027 62.8965C133.553 66.9538 133.754 70.4404 134.353 74.2244C134.951 78.0084 135.948 82.0934 136.668 86.7491C137.391 91.4048 137.837 96.6346 137.391 99.7477C136.941 102.861 135.598 103.857 133.903 104.825C132.207 105.797 130.166 106.742 128.92 108.111C127.674 109.481 127.228 111.273 127.027 113.217C126.826 115.157 126.878 117.25 127.525 120.065C128.172 122.877 129.418 126.416 130.764 129.826C132.11 133.237 133.553 136.523 135.072 138.816C136.591 141.106 138.187 142.403 139.356 143.423C140.526 144.444 141.273 145.191 140.55 147.806C139.827 150.421 137.637 154.903 134.872 160.579C132.107 166.255 128.768 173.128 124.134 179.752C119.501 186.376 113.573 192.751 109.012 196.611C104.455 200.471 101.265 201.816 98.4513 203.407C95.638 205.002 93.195 206.846 90.5063 207.866C87.8141 208.886 84.8763 209.087 82.5094 208.886C80.1425 208.686 78.35 208.087 76.779 207.766C75.208 207.441 73.8654 207.392 72.1213 207.79C70.3773 208.188 68.2353 209.035 65.6193 209.384C63.0033 209.734 59.9132 209.585 56.3282 208.613C52.7398 207.641 48.6566 205.849 46.0405 204.628C43.4245 203.408 42.2791 202.761 41.5317 202.214C40.7842 201.664 40.4347 201.218 36.7494 197.956C33.0607 194.695 26.0361 188.617 19.9355 180.599C13.8314 172.582 8.65122 162.62 5.43654 156.346C2.22186 150.071 0.976123 147.48 1.00035 146.01C1.02457 144.54 2.32221 144.191 4.56453 142.074C6.80685 139.957 9.99385 136.073 11.9386 131.691C13.8798 127.308 14.5788 122.428 15.1014 118.592C15.6239 114.756 15.9734 111.968 15.7484 109.951C15.5235 107.935 14.7276 106.69 13.6826 105.742C12.6376 104.794 11.3399 104.147 9.84505 103.974C8.35017 103.801 6.65805 104.099 5.76182 103.303C4.86558 102.504 4.76523 100.612 4.66488 97.4267C4.56453 94.2376 4.46418 89.7583 5.28774 86.0954C6.11131 82.4358 7.85188 79.5961 8.75157 77.1576C9.64781 74.7156 9.69972 72.6748 9.24987 69.9354C8.80002 67.1959 7.85534 63.7612 7.97991 58.5314C8.10449 53.3015 9.30177 46.2799 12.167 39.5074C15.0321 32.7349 19.5652 26.2114 23.2505 21.5557C26.9358 16.9 29.7768 14.1087 34.4344 11.3727C39.0921 8.63323 45.5699 5.94566 51.8989 3.97755C58.2245 2.00943 64.4047 0.764228 72.4501 1.03748C80.4954 1.31073 90.4094 3.10245 97.3094 5.22275C104.209 7.3396 108.095 9.77813 112.929 14.2124C117.764 18.6433 123.542 25.0699 127.678 31.2925C131.813 37.5185 134.304 43.5439 134.976 48.8706L134.972 48.8776Z" fill="white" stroke="#2B2A29" stroke-width="0.200307" stroke-miterlimit="22.9256"/>
<path fill-rule="evenodd" clip-rule="evenodd" d="M36.7494 197.956C33.0607 194.695 26.0361 188.617 19.9355 180.6C13.8314 172.582 8.65122 162.62 5.43654 156.346C2.22186 150.071 0.976123 147.481 1.00035 146.01C1.02457 144.54 2.32221 144.191 4.56453 142.074C6.80685 139.957 9.99385 136.073 11.9386 131.691C13.8798 127.308 14.5788 122.428 15.1014 118.592C15.6239 114.756 15.9734 111.968 15.7484 109.951C15.5235 107.935 14.7276 106.69 13.6826 105.742C12.6376 104.794 11.3399 104.147 9.84505 103.974C8.35017 103.801 6.65805 104.099 5.76182 103.303C4.86558 102.504 4.76523 100.612 4.66488 97.4267C4.56453 94.2376 4.46418 89.7583 5.28774 86.0954C6.11131 82.4359 7.85188 79.5961 8.75157 77.1576C9.64781 74.7156 9.69972 72.6748 9.24987 69.9354C8.80002 67.1959 7.85534 63.7612 7.97991 58.5314C8.10449 53.3015 9.30177 46.2799 12.167 39.5074C15.0321 32.7349 19.5652 26.2114 23.2505 21.5557C26.9358 16.9 29.7768 14.1087 34.4344 11.3727C39.0921 8.63323 45.5699 5.94566 51.8989 3.97755C58.2245 2.00943 64.4047 0.764228 72.4501 1.03748C80.4954 1.31073 90.4094 3.10245 97.3094 5.22275C104.209 7.3396 108.095 9.77813 112.929 14.2124C117.764 18.6433 123.542 25.0699 127.678 31.2925C131.813 37.5185 134.304 43.5439 134.976 48.8707C135.647 54.2008 134.501 58.8323 134.031 62.8896C133.557 66.9469 133.757 70.4335 134.356 74.2175C134.955 78.0015 135.951 82.0865 136.671 86.7422C137.394 91.3979 137.841 96.6277 137.394 99.7407C136.944 102.854 135.602 103.85 133.906 104.818C132.211 105.79 130.169 106.735 128.923 108.104C127.678 109.474 127.231 111.266 127.03 113.21C126.83 115.15 126.882 117.243 127.529 120.058C128.176 122.87 129.422 126.409 130.768 129.819C132.114 133.23 133.557 136.516 135.076 138.809C136.595 141.099 138.19 142.396 139.36 143.416C140.529 144.437 141.277 145.184 140.554 147.799C139.83 150.414 137.64 154.896 134.875 160.572C132.11 166.249 128.771 173.121 124.138 179.745C119.504 186.369 113.577 192.744 109.016 196.604C104.458 200.464 101.268 201.81 98.4548 203.401C95.6415 204.995 93.1984 206.839 90.5097 207.859C87.8176 208.88 84.8797 209.08 82.5128 208.88C80.1459 208.679 78.3535 208.08 76.7825 207.759C75.2114 207.434 73.8688 207.385 72.1248 207.783C70.3808 208.181 68.2388 209.028 65.6228 209.378C63.0067 209.727 59.9166 209.578 56.3317 208.606C52.7433 207.634 48.66 205.843 46.044 204.622C43.4279 203.401 42.2826 202.754 41.5351 202.207C40.7877 201.657 40.4382 201.211 36.7529 197.949L36.7494 197.956ZM25.8285 111.411C25.5932 112.196 25.3164 113.068 24.8319 113.317C24.3475 113.566 23.6485 113.192 23.0498 112.895C22.4512 112.594 21.9529 112.373 21.6934 111.252C21.4304 110.131 21.4061 108.115 21.593 106.607C21.7799 105.099 22.1778 104.102 24.1087 103.483C26.0396 102.861 29.5034 102.612 33.1645 101.553C36.8256 100.495 40.6873 98.627 44.075 96.8733C47.4627 95.1162 50.3764 93.4732 50.8124 92.9267C51.2484 92.3802 49.2068 92.9267 46.2308 93.8606C43.2549 94.7945 39.3412 96.1158 35.2926 96.9494C31.244 97.783 27.0604 98.1324 23.3993 98.1324C19.7383 98.1324 16.5962 97.783 14.8418 97.3852C13.084 96.9875 12.7102 96.5378 12.3746 95.7042C12.0389 94.8706 11.7379 93.6496 11.9005 90.2253C12.0631 86.801 12.686 81.1734 13.4092 76.8912C14.1325 72.6091 14.9526 69.669 15.0771 67.2789C15.2017 64.8888 14.6273 63.0452 14.1428 61.3158C13.6584 59.5863 13.2604 57.9676 14.1567 53.7823C15.0529 49.6005 17.2433 42.8522 19.849 37.1969C22.4512 31.545 25.4652 26.9862 28.6556 23.427C31.8426 19.8678 35.2061 17.3012 38.9329 14.9492C42.6563 12.5971 46.743 10.4561 50.6913 8.89957C54.6395 7.34306 58.4494 6.37111 62.3389 5.88686C66.2249 5.40262 70.187 5.40262 74.7062 5.70008C79.2289 5.99755 84.3088 6.59594 89.6412 7.85498C94.9736 9.11402 100.552 11.0303 104.739 13.3443C108.922 15.6583 111.715 18.3735 114.456 21.2375C117.196 24.1014 119.885 27.1142 122.241 31.2233C124.594 35.3325 126.612 40.5347 127.733 44.5194C128.854 48.504 129.079 51.2677 129.027 54.0452C128.979 56.8227 128.653 59.6105 128.356 61.378C128.058 63.1455 127.781 63.8927 127.747 64.9891C127.709 66.0856 127.909 67.528 128.082 68.7005C128.255 69.8697 128.408 70.7655 128.73 72.3497C129.055 73.9304 129.55 76.196 130.11 79.4093C130.671 82.6226 131.294 86.7802 131.529 89.6442C131.764 92.5082 131.615 94.0785 131.332 95.0851C131.045 96.0951 130.622 96.5413 129.387 96.8768C128.155 97.2123 126.11 97.4371 123.234 97.4371C120.355 97.4371 116.646 97.2123 112.923 96.6762C109.199 96.14 105.462 95.2926 102.559 94.6596C99.6555 94.0232 97.5897 93.6012 96.0083 93.3521C94.4269 93.1031 93.3299 93.027 93.1189 93.3521C92.9078 93.6773 93.5791 94.3967 94.5272 94.9951C95.4754 95.5935 96.6934 96.0639 100.171 97.0878C103.645 98.1081 109.376 99.6785 112.864 100.713C116.352 101.747 117.598 102.245 118.643 102.791C119.688 103.338 120.535 103.936 121.221 104.798C121.906 105.655 122.428 106.776 122.39 108.084C122.352 109.391 121.753 110.885 121.068 111.795C120.383 112.705 119.611 113.026 118.94 112.902C118.269 112.777 117.694 112.203 117.397 111.332C117.099 110.46 117.072 109.291 116.726 109.339C116.376 109.388 115.705 110.66 115.144 111.432C114.584 112.203 114.134 112.476 113.175 112.888C112.217 113.3 110.746 113.846 109.663 114.234C108.58 114.621 107.881 114.842 107.396 115.302C106.912 115.762 106.635 116.461 106.4 116.797C106.164 117.132 105.964 117.108 105.542 116.471C105.119 115.835 104.469 114.59 104.099 112.999C103.725 111.404 103.625 109.464 103.4 108.64C103.175 107.817 102.825 108.118 102.441 109.312C102.054 110.505 101.631 112.597 101.445 114.216C101.258 115.835 101.306 116.98 100.735 117.564C100.161 118.149 98.9669 118.173 97.5447 118.287C96.1259 118.398 94.4823 118.599 93.2227 118.55C91.9631 118.502 91.0911 118.201 90.5582 116.821C90.0218 115.437 89.8246 112.975 89.7 111.217C89.5754 109.46 89.5235 108.416 89.3263 108.876C89.1256 109.336 88.7761 111.304 88.5166 113.033C88.2536 114.763 88.0806 116.257 87.9075 117.291C87.7345 118.325 87.5581 118.896 86.6237 119.235C85.6895 119.571 83.9973 119.671 82.4644 119.934C80.9314 120.197 79.5611 120.619 78.1043 120.695C76.6475 120.771 75.1007 120.494 74.3533 119.685C73.6058 118.875 73.6577 117.53 73.8931 115.091C74.1284 112.649 74.554 109.114 74.6647 107.084C74.7754 105.054 74.5782 104.531 74.2668 104.905C73.9553 105.278 73.5332 106.548 73.0453 108.091C72.5608 109.633 72.0106 111.453 71.6265 113.358C71.2389 115.264 71.0175 117.257 70.8548 118.55C70.6922 119.844 70.5919 120.442 70.2216 120.83C69.8479 121.217 69.2008 121.39 67.3806 121.29C65.5605 121.189 62.5742 120.816 60.5187 120.394C58.4633 119.972 57.3421 119.498 56.6189 118.824C55.8957 118.152 55.5704 117.281 55.3489 115.648C55.124 114.016 54.9994 111.626 54.8991 110.854C54.7987 110.083 54.7261 110.93 54.6361 112.124C54.5496 113.317 54.4492 114.863 54.2485 116.056C54.0478 117.25 53.7502 118.097 53.1516 118.595C52.5529 119.093 51.6567 119.242 50.276 119.031C48.8953 118.82 47.0233 118.246 45.518 117.661C44.0093 117.077 42.8639 116.478 42.2549 115.257C41.6459 114.036 41.5697 112.196 41.4209 110.813C41.2721 109.429 41.0472 108.509 40.8984 108.634C40.7496 108.758 40.6735 109.927 40.4624 111.235C40.2513 112.542 39.9018 113.985 39.3897 114.908C38.8776 115.828 38.2062 116.229 37.6837 116.34C37.1612 116.451 36.7875 116.278 35.7667 115.98C34.7459 115.679 33.0745 115.257 32.0295 114.711C30.9845 114.161 30.5588 113.49 29.9014 112.767C29.2404 112.044 28.3442 111.273 27.7352 110.674C27.1261 110.076 26.8009 109.654 26.5379 109.792C26.2749 109.931 26.0776 110.626 25.8423 111.411H25.8285ZM109.812 136.471C111.293 136.073 114.296 135.163 116.082 134.454C117.871 133.745 118.442 133.233 118.746 132.649C119.051 132.064 119.089 131.404 118.76 129.494C118.428 127.581 117.732 124.42 117.314 122.39C116.895 120.359 116.76 119.463 116.341 119.204C115.923 118.941 115.227 119.315 114.355 119.813C113.483 120.311 112.435 120.933 111.663 121.687C110.891 122.442 110.393 123.324 109.971 124.489C109.549 125.655 109.199 127.097 108.992 128.405C108.787 129.712 108.725 130.881 108.704 131.947C108.687 133.012 108.711 133.97 108.666 134.734C108.621 135.499 108.511 136.073 108.434 136.415C108.358 136.758 108.324 136.869 109.805 136.471H109.812ZM94.5618 140.494C95.5446 140.393 97.4132 139.546 99.4583 139.048C101.5 138.55 103.718 138.401 104.791 137.692C105.863 136.983 105.787 135.713 105.673 133.199C105.562 130.684 105.41 126.924 105.213 124.845C105.012 122.767 104.763 122.369 104.14 122.144C103.517 121.919 102.521 121.871 101.635 122.02C100.749 122.168 99.9773 122.518 99.0326 123.427C98.0845 124.337 96.9633 125.804 96.1536 126.924C95.3439 128.045 94.8456 128.816 94.4615 130.086C94.0739 131.355 93.8006 133.123 93.6379 134.741C93.4753 136.36 93.4268 137.827 93.4511 138.889C93.4753 139.947 93.5756 140.594 94.5584 140.494H94.5618ZM75.5436 143.607C77.2358 143.482 80.3778 143.257 83.0042 143.07C85.6306 142.884 87.7484 142.735 88.8972 142.309C90.0426 141.887 90.2156 141.189 90.2537 139.283C90.2917 137.377 90.1914 134.264 89.9561 131.514C89.7208 128.761 89.3471 126.371 88.8107 125.115C88.2743 123.856 87.5788 123.735 86.8556 123.808C86.1324 123.884 85.3849 124.157 84.3261 124.569C83.2672 124.98 81.8969 125.527 80.6131 126.758C79.3293 127.99 78.1355 129.909 77.1769 131.749C76.2184 133.593 75.4952 135.361 74.9727 136.678C74.4502 138 74.1249 138.868 73.9 139.854C73.675 140.836 73.5505 141.932 73.4778 142.607C73.4017 143.278 73.3775 143.527 73.4916 143.641C73.6024 143.752 73.8515 143.728 75.5471 143.603L75.5436 143.607ZM56.2382 142.624C58.5809 142.662 62.9375 142.586 65.7058 142.662C68.4706 142.738 69.6403 142.96 70.1905 142.552C70.7372 142.14 70.6645 141.095 70.315 139.141C69.9655 137.187 69.3427 134.323 68.2215 132.095C67.1003 129.868 65.4809 128.273 63.7991 126.952C62.1174 125.631 60.3734 124.586 59.0896 123.977C57.8058 123.369 56.9857 123.192 56.2002 123.268C55.4147 123.344 54.6672 123.666 54.2312 124.451C53.7952 125.236 53.6706 126.482 53.6084 128.349C53.5461 130.217 53.5461 132.708 53.4596 135.022C53.3731 137.336 53.1966 139.48 53.1481 140.663C53.0962 141.846 53.1724 142.071 53.3731 142.258C53.5703 142.444 53.8956 142.593 56.2382 142.631V142.624ZM38.9502 138.304C40.3448 138.878 43.0611 139.65 44.8156 140.134C46.5734 140.618 47.3693 140.819 48.006 140.857C48.6393 140.895 49.1133 140.77 49.4144 140.134C49.712 139.497 49.8366 138.352 49.8019 136.858C49.7639 135.364 49.5666 133.52 49.1168 131.68C48.667 129.837 47.9714 127.993 47.1617 126.537C46.352 125.081 45.4315 124.008 44.4211 123.113C43.4106 122.217 42.3172 121.494 41.5317 121.196C40.7462 120.899 40.2721 121.023 39.9122 121.67C39.5523 122.317 39.3032 123.49 39.0402 125.593C38.7772 127.696 38.5038 130.733 38.2305 132.787C37.9571 134.842 37.6837 135.914 37.5834 136.633C37.483 137.356 37.5592 137.73 38.9537 138.301L38.9502 138.304ZM33.2199 136.014C32.2233 136.038 30.4031 135.167 29.0709 134.544C27.7386 133.922 26.8908 133.548 26.3164 133.074C25.742 132.6 25.4444 132.026 25.344 129.85C25.2437 127.671 25.3441 123.887 25.6935 121.459C26.043 119.031 26.6417 117.959 27.4618 117.637C28.2854 117.312 29.3304 117.737 30.3997 118.547C31.4724 119.356 32.5658 120.549 33.2406 121.66C33.9119 122.767 34.1611 123.787 34.3133 125.855C34.4621 127.92 34.514 131.033 34.4517 133.053C34.3895 135.07 34.2164 135.99 33.2199 136.018V136.014ZM95.4269 163.966C96.1571 163.793 97.4374 163.516 99.2645 162.548C101.088 161.576 103.455 159.908 104.732 157.902C106.009 155.896 106.196 153.558 106.088 150.711C105.981 147.868 105.583 144.516 105.106 142.787C104.625 141.057 104.064 140.943 102.801 141.099C101.538 141.255 99.569 141.676 98.0741 141.901C96.5792 142.126 95.5584 142.15 94.9217 142.711C94.285 143.271 94.0359 144.368 93.939 146.453C93.8386 148.539 93.8905 151.614 93.9943 154.485C94.1016 157.356 94.2608 160.019 94.33 161.621C94.3992 163.219 94.375 163.755 94.4476 163.986C94.5238 164.218 94.6968 164.142 95.4235 163.969L95.4269 163.966ZM73.81 168.594C74.1457 168.78 74.5678 168.981 75.689 168.832C76.8101 168.684 78.6268 168.186 80.8069 167.003C82.9869 165.82 85.5268 163.952 87.084 161.973C88.6411 159.995 89.2156 157.902 89.4024 155.35C89.5893 152.797 89.3886 149.784 89.2536 147.868C89.1152 145.952 89.0425 145.128 88.0321 144.942C87.0217 144.755 85.0804 145.201 83.3502 145.488C81.6201 145.775 80.0975 145.9 78.6545 145.962C77.2081 146.024 75.8412 146.024 74.9796 146.384C74.1214 146.744 73.7719 147.467 73.5955 148.127C73.4224 148.788 73.4224 149.386 73.3463 152.371C73.2702 155.36 73.1214 160.738 73.0487 163.751C72.9726 166.764 72.9726 167.411 73.1006 167.822C73.2252 168.234 73.4743 168.407 73.81 168.594ZM68.3911 169.154C67.1453 169.054 64.903 168.704 63.0967 167.985C61.2904 167.262 59.9201 166.165 58.4148 164.287C56.9061 162.406 55.2624 159.742 54.2278 157.625C53.1931 155.509 52.7709 153.938 52.6083 151.949C52.4457 149.957 52.546 147.543 52.546 146.26C52.546 144.976 52.4457 144.828 53.0582 144.803C53.6672 144.779 54.989 144.879 57.2694 144.99C59.5498 145.101 62.7887 145.229 65.0933 145.391C67.3979 145.554 68.7648 145.751 69.4396 146.422C70.1109 147.093 70.0866 148.238 70.0866 151.974C70.0866 155.709 70.1109 162.032 70.1247 165.297C70.1385 168.559 70.1385 168.76 70.014 168.933C69.8894 169.106 69.6403 169.258 68.3945 169.157L68.3911 169.154ZM36.4899 143.693C36.4518 145.523 36.3273 148.798 36.5695 151.237C36.8117 153.675 37.4242 155.284 38.6388 156.871C39.8534 158.459 41.6701 160.029 43.2549 161.199C44.8363 162.368 46.1824 163.139 47.1478 163.447C48.1133 163.751 48.6981 163.589 49.1168 163.059C49.532 162.53 49.7812 161.634 49.8504 158.303C49.9196 154.973 49.8054 149.21 49.6635 146.322C49.5217 143.434 49.3452 143.42 48.4628 143.364C47.5769 143.309 45.9817 143.209 44.0266 142.725C42.0715 142.24 39.753 141.369 38.4277 141.033C37.1024 140.698 36.7633 140.895 36.6214 141.189C36.4795 141.483 36.528 141.867 36.4899 143.696V143.693ZM32.1195 157.619C31.2959 157.477 29.9394 157.127 28.4584 155.993C26.9773 154.858 25.3683 152.942 24.5032 151.503C23.6381 150.064 23.5135 149.106 23.4132 146.273C23.3128 143.441 23.2367 138.733 23.3267 136.464C23.4132 134.191 23.6623 134.354 24.3475 134.783C25.0326 135.212 26.1538 135.91 27.6175 136.644C29.0812 137.377 30.8876 138.152 32.1125 138.581C33.341 139.01 33.9881 139.096 34.2545 139.477C34.521 139.857 34.4102 140.528 34.2407 143.306C34.0711 146.083 33.8496 150.964 33.7181 153.703C33.5867 156.443 33.5486 157.041 33.386 157.37C33.2233 157.698 32.9361 157.76 32.116 157.619H32.1195ZM110.438 157.331C110.95 157.525 111.895 157.411 113.192 156.602C114.487 155.792 116.13 154.288 117.352 153.136C118.573 151.984 119.369 151.185 119.712 148.909C120.054 146.63 119.94 142.87 119.805 140.424C119.667 137.979 119.508 136.844 119.418 136.16C119.331 135.475 119.317 135.239 118.407 135.616C117.497 135.997 115.691 136.993 114.148 137.695C112.604 138.397 111.32 138.809 110.528 139.3C109.736 139.791 109.438 140.366 109.345 141.216C109.251 142.071 109.362 143.202 109.469 145.737C109.576 148.273 109.673 152.205 109.763 154.423C109.85 156.64 109.926 157.138 110.435 157.331H110.438ZM120.03 130.207C120.49 130.653 121.601 130.418 122.625 130.207C123.653 129.996 124.598 129.809 125.01 129.193C125.421 128.578 125.297 127.53 125.072 126.748C124.847 125.963 124.522 125.44 124.435 124.662C124.349 123.884 124.498 122.85 124.473 121.667C124.449 120.484 124.248 119.152 123.989 118.28C123.726 117.409 123.404 116.997 122.982 116.81C122.56 116.624 122.034 116.662 121.439 117.053C120.84 117.443 120.169 118.191 119.778 119.007C119.387 119.823 119.272 120.705 119.348 122.13C119.425 123.555 119.684 125.523 119.722 127.073C119.76 128.623 119.573 129.757 120.034 130.203L120.03 130.207ZM121.785 147.992C122.048 148.248 122.546 148.535 122.982 148.601C123.418 148.67 123.792 148.522 124.338 148.141C124.885 147.761 125.608 147.152 126.069 146.367C126.529 145.582 126.729 144.623 126.716 142.794C126.702 140.964 126.48 138.263 126.304 136.488C126.131 134.714 126.006 133.866 125.761 133.375C125.518 132.884 125.155 132.746 124.653 132.635C124.148 132.524 123.501 132.434 122.985 132.393C122.47 132.348 122.082 132.348 121.753 132.517C121.425 132.683 121.148 133.022 121.075 134.627C120.999 136.232 121.124 139.11 121.2 141.338C121.276 143.565 121.3 145.146 121.338 146.031C121.376 146.913 121.425 147.1 121.463 147.308C121.501 147.512 121.525 147.736 121.788 147.992H121.785ZM21.8698 130.618C21.4408 130.57 20.6172 130.355 19.9701 130.259C19.323 130.158 18.8489 130.172 18.4372 130.11C18.0254 130.048 17.6759 129.909 17.534 129.408C17.3921 128.903 17.4544 128.031 17.7693 126.627C18.0877 125.219 18.6586 123.279 18.9977 121.715C19.3334 120.152 19.4337 118.969 19.6275 117.993C19.8213 117.015 20.1085 116.243 20.6933 115.956C21.2781 115.669 22.164 115.87 22.8595 116.323C23.555 116.776 24.0672 117.485 24.299 118.619C24.5309 119.75 24.479 121.307 24.3855 123.337C24.2921 125.368 24.1537 127.869 24.0257 129.238C23.8942 130.608 23.7696 130.843 23.4962 130.857C23.2228 130.871 22.8007 130.656 22.5688 130.608C22.337 130.56 22.2989 130.67 21.8698 130.622V130.618ZM21.5584 146.055C21.6761 143.527 21.9494 138.608 22.164 135.907C22.3751 133.206 22.5238 132.718 22.0809 132.427C21.638 132.133 20.6033 132.037 19.6829 131.985C18.7624 131.936 17.9527 131.936 17.6343 132.414C17.316 132.894 17.4925 133.852 17.5582 136.025C17.6274 138.197 17.5894 141.583 17.5997 143.62C17.6136 145.658 17.6759 146.339 18.0427 147.069C18.4095 147.799 19.0808 148.57 19.6863 149.068C20.2919 149.566 20.8248 149.791 21.1189 149.708C21.4131 149.625 21.4615 149.241 21.4684 148.978C21.4754 148.715 21.4373 148.58 21.5549 146.052L21.5584 146.055ZM10.2326 152.804C12.1877 156.301 15.527 163.225 19.0531 169.088C22.5792 174.951 26.2887 179.759 31.1471 184.726C36.0055 189.693 42.0092 194.823 46.9921 198.223C51.9751 201.623 55.9337 203.29 58.8612 203.874C61.7887 204.459 63.6815 203.961 65.5016 203.352C67.3218 202.743 69.0624 202.02 70.6818 201.609C72.3013 201.197 73.7962 201.097 75.2149 201.509C76.6337 201.92 77.9797 202.84 79.3639 203.487C80.7446 204.134 82.1668 204.507 84.5441 204.182C86.9213 203.857 90.2606 202.837 93.6864 201.218C97.1121 199.599 100.624 197.382 103.801 194.757C106.978 192.128 109.815 189.091 112.545 185.94C115.272 182.789 117.888 179.527 121.127 174.92C124.366 170.313 128.228 164.363 130.705 159.919C133.183 155.474 134.28 152.537 134.64 150.234C135 147.93 134.626 146.263 133.744 144.969C132.858 143.676 131.463 142.752 130.678 142.119C129.892 141.483 129.719 141.133 129.235 142.565C128.75 143.997 127.951 147.211 127.228 149.414C126.505 151.617 125.857 152.814 125.162 153.859C124.463 154.903 123.715 155.803 123.269 157.096C122.819 158.39 122.67 160.085 122.387 160.607C122.099 161.129 121.677 160.483 120.916 159.86C120.155 159.237 119.061 158.639 118.262 158.677C117.466 158.715 116.968 159.386 115.957 160.195C114.947 161.005 113.428 161.949 112.469 162.848C111.511 163.744 111.113 164.592 110.763 165.823C110.414 167.054 110.116 168.673 109.628 168.922C109.144 169.171 108.469 168.051 108.033 167.141C107.597 166.231 107.4 165.536 106.538 165.384C105.68 165.235 104.157 165.633 102.939 166.093C101.718 166.553 100.797 167.075 99.8251 167.812C98.8527 168.545 97.8319 169.493 96.9357 171.025C96.0394 172.558 95.2678 174.674 94.5307 175.335C93.7971 175.996 93.0981 175.197 92.4372 173.855C91.7762 172.509 91.1534 170.617 90.1706 170.008C89.1879 169.4 87.8418 170.071 86.9456 170.333C86.0493 170.596 85.5995 170.444 84.6271 170.558C83.6548 170.669 82.1599 171.043 80.5681 171.641C78.9729 172.239 77.2807 173.059 76.2842 174.069C75.2876 175.079 74.99 176.272 74.5886 177.791C74.1906 179.309 73.6923 181.153 73.1075 181.8C72.5227 182.447 71.848 181.9 71.0901 180.603C70.3289 179.309 69.4845 177.265 68.5987 175.895C67.7163 174.526 66.7924 173.83 65.2975 173.457C63.8026 173.083 61.7333 173.031 59.619 172.782C57.5013 172.533 55.3351 172.087 54.0132 171.848C52.6914 171.613 52.2207 171.586 51.982 172.208C51.7467 172.831 51.7467 174.1 51.5944 175.11C51.4456 176.12 51.1446 176.867 50.4248 176.231C49.7016 175.594 48.5562 173.578 47.6358 172.011C46.7153 170.441 46.0163 169.32 44.3969 168.113C42.7774 166.906 40.2375 165.609 38.753 165.173C37.2719 164.737 36.8463 165.159 36.7494 166.269C36.6491 167.376 36.874 169.171 36.8256 170.441C36.7771 171.71 36.4518 172.457 35.7528 171.586C35.0538 170.714 33.9846 168.224 33.2129 166.169C32.4413 164.114 31.9672 162.496 30.8703 161.178C29.7733 159.856 28.057 158.836 26.659 158.141C25.2645 157.442 24.1917 157.069 23.6069 157.605C23.0221 158.141 22.9218 159.583 22.4996 160.043C22.0775 160.503 21.33 159.981 20.4061 158.663C19.4856 157.342 18.3887 155.225 17.4544 152.873C16.5201 150.521 15.7484 147.93 15.0391 146.138C14.3297 144.347 13.6826 143.351 13.1324 142.766C12.5822 142.181 12.1358 142.005 11.7379 142.254C11.3399 142.503 10.9904 143.174 10.2292 144.395C9.46787 145.616 8.29827 147.384 8.00067 148.304C7.69962 149.224 8.27404 149.3 10.2292 152.797L10.2326 152.804Z" fill="#2B2A29" stroke="#2B2A29" stroke-width="0.200307" stroke-miterlimit="22.9256"/>
<path fill-rule="evenodd" clip-rule="evenodd" d="M64.3504 97.5953C64.866 97.3152 65.738 96.8413 67.1152 96.53C68.4925 96.2187 70.3714 96.07 72.0117 96.1184C73.6484 96.1668 75.0429 96.4159 76.3129 96.7963C77.5828 97.1768 78.7282 97.6853 79.6072 98.0658C80.4861 98.4462 81.0951 98.6953 81.6453 98.799C82.1921 98.9063 82.68 98.8682 82.9326 98.5742C83.1887 98.2802 83.2129 97.7337 83.0329 95.9835C82.853 94.2333 82.4654 91.2829 81.3512 87.8482C80.237 84.41 78.3926 80.4911 76.4132 77.8865C74.4339 75.2854 72.3162 74.0022 71.0255 73.677C69.7347 73.3519 69.2745 73.9883 67.9319 75.825C66.5858 77.6617 64.3573 80.6986 62.8105 83.6456C61.2672 86.5891 60.4056 89.4393 59.8208 91.9124C59.236 94.382 58.9245 96.4747 59.0422 97.6818C59.1598 98.889 59.7066 99.2141 60.2429 99.1899C60.7793 99.1657 61.3018 98.7921 61.8416 98.5431C62.3849 98.294 62.9455 98.1695 63.3054 98.0658C63.6652 97.9585 63.8279 97.8721 64.3435 97.5919L64.3504 97.5953ZM65.2536 93.8286C67.5201 93.7663 71.6795 93.5934 74.3578 93.5657C77.0361 93.5415 78.2299 93.666 78.7594 93.4966C79.2888 93.3271 79.1504 92.867 78.5656 91.6114C77.9808 90.3524 76.9461 88.2978 76.1503 87.3605C75.3544 86.4196 74.7938 86.596 73.3958 86.5684C72.0013 86.5442 69.7728 86.3193 68.3783 86.3366C66.9837 86.3539 66.4232 86.6168 66.0564 86.9592C65.6896 87.3017 65.5131 87.7236 64.9733 88.7198C64.43 89.716 63.5234 91.2863 63.0043 92.2237C62.4887 93.1645 62.3641 93.4758 62.4887 93.6557C62.6133 93.8355 62.987 93.8874 65.2536 93.8251V93.8286Z" fill="#2B2A29"/>
<path fill-rule="evenodd" clip-rule="evenodd" d="M95.8968 87.2808C97.7447 88.0521 101.385 89.4841 104.485 89.8646C107.586 90.2451 110.154 89.5706 112.5 87.9864C114.846 86.3988 116.977 83.8945 118.199 82.2827C119.42 80.6708 119.732 79.9479 118.898 80.2454C118.064 80.5428 116.081 81.8641 114.739 82.8914C113.392 83.9187 112.683 84.652 111.351 85.119C110.019 85.5859 108.063 85.7831 106.797 85.8903C105.534 85.9975 104.96 86.0079 103.987 85.9526C103.015 85.8972 101.644 85.7727 100.202 85.6586C98.7551 85.5479 97.236 85.4476 95.966 85.3853C94.6961 85.323 93.6753 85.2988 92.9451 85.2227C92.215 85.1466 91.779 85.0221 91.6856 85.0913C91.5921 85.1605 91.8413 85.4199 92.2704 85.6516C92.6994 85.8834 93.3119 86.0805 93.6476 86.2362C93.9832 86.3918 94.0455 86.5025 95.8968 87.2773V87.2808Z" fill="#2B2A29"/>
<path fill-rule="evenodd" clip-rule="evenodd" d="M24.2651 83.6203C24.9364 84.3051 26.1579 85.5365 27.3656 86.5949C28.5732 87.6533 29.7705 88.5388 31.1028 89.1234C32.435 89.7079 33.9057 89.995 35.7846 89.9085C37.6636 89.8221 39.9578 89.3586 42.0064 88.5077C44.0549 87.6533 45.8612 86.4116 46.9686 85.4397C48.0759 84.4677 48.4877 83.7725 48.3008 83.6583C48.1139 83.5476 47.3284 84.018 46.3699 84.4815C45.4114 84.9416 44.2764 85.3912 43.1448 85.751C42.0133 86.1107 40.8783 86.3839 39.335 86.5361C37.7916 86.6849 35.8365 86.7091 34.4662 86.5915C33.0959 86.4739 32.3104 86.211 31.2204 85.8063C30.1304 85.4016 28.7359 84.8516 27.6216 84.2671C26.5074 83.6825 25.6734 83.0599 24.9952 82.6622C24.317 82.2644 23.7945 82.088 23.5453 82.126C23.2962 82.1641 23.3204 82.4131 23.3965 82.6068C23.4726 82.8005 23.5972 82.9354 24.2685 83.6203H24.2651Z" fill="#2B2A29"/>
<path fill-rule="evenodd" clip-rule="evenodd" d="M81.4719 53.1818C82.5688 52.5108 84.2125 51.0407 86.2438 49.249C88.275 47.4573 90.6903 45.3405 92.77 42.8881C94.8497 40.4357 96.5937 37.6479 98.0748 35.6936C99.5558 33.7393 100.777 32.6186 102.148 31.5844C103.518 30.5502 105.037 29.6059 106.321 29.0317C107.605 28.4575 108.65 28.2604 110.169 28.1601C111.688 28.0598 113.681 28.0598 114.941 28.0736C116.2 28.0874 116.723 28.1117 117.159 28.0632C117.595 28.0113 117.944 27.8903 117.968 27.7277C117.993 27.5652 117.695 27.368 117.269 27.1535C116.847 26.9425 116.297 26.7177 115.889 26.4064C115.477 26.0951 115.204 25.6973 114.518 25.1474C113.833 24.6009 112.736 23.9022 111.38 23.2692C110.023 22.6328 108.404 22.062 107.259 21.7611C106.113 21.4636 105.438 21.436 104.604 21.6366C103.771 21.8372 102.774 22.2592 101.701 22.9925C100.629 23.7258 99.4831 24.7738 98.4381 25.8807C97.3931 26.9875 96.4449 28.1601 95.3757 29.6543C94.3029 31.1486 93.1091 32.9645 92.0122 34.8219C90.9152 36.6759 89.9187 38.5679 89.0847 40.2489C88.2508 41.93 87.576 43.3966 86.6936 44.7179C85.8077 46.0392 84.7108 47.2083 83.3543 48.5399C81.9979 49.8716 80.3784 51.3659 79.6552 52.2375C78.932 53.1092 79.105 53.3582 79.4683 53.545C79.8282 53.7318 80.3784 53.8563 81.4754 53.1852L81.4719 53.1818Z" fill="#2B2A29"/>
<path fill-rule="evenodd" clip-rule="evenodd" d="M62.2039 52.755C60.446 51.5859 57.4597 49.4172 54.8194 47.2415C52.1792 45.0624 49.8849 42.8694 47.5457 41.2023C45.2031 39.5351 42.8119 38.3902 41.0956 37.7918C39.3758 37.1934 38.3308 37.145 36.9466 37.4424C35.5625 37.7399 33.8461 38.3902 32.6488 38.9228C31.4515 39.459 30.7802 39.881 30.147 40.3029C29.5103 40.7249 28.9116 41.1504 28.4514 41.2749C27.9912 41.3994 27.6659 41.2265 27.742 40.8149C27.8182 40.4032 28.2888 39.7564 28.7144 39.1235C29.1366 38.487 29.5103 37.8644 30.7456 36.7956C31.9775 35.7233 34.071 34.2049 35.6282 33.2226C37.1854 32.2402 38.2062 31.7906 39.1024 31.4793C39.9987 31.168 40.7703 30.995 42.0922 31.5277C43.414 32.0638 45.2826 33.309 47.3346 35.2391C49.3901 37.1692 51.6324 39.7841 54.0997 41.9632C56.5669 44.1423 59.2556 45.8856 61.2246 47.4283C63.1935 48.9709 64.4393 50.3165 65.4358 51.3368C66.4324 52.3572 67.1799 53.0559 67.0691 53.4917C66.9584 53.9276 65.986 54.1005 65.2386 54.1005C64.4912 54.1005 63.9686 53.9276 62.2108 52.755H62.2039Z" fill="#2B2A29"/>
<path fill-rule="evenodd" clip-rule="evenodd" d="M30.4415 82.987C31.8983 83.5093 34.3655 84.1319 37.5525 83.9589C40.7395 83.786 44.6532 82.814 47.643 81.8317C50.6327 80.8494 52.6986 79.8532 54.4945 78.819C56.287 77.7848 57.8061 76.716 59.1522 75.3221C60.4982 73.9281 61.6678 72.209 62.353 70.1787C63.0381 68.1483 63.2354 65.8101 62.8374 63.7659C62.4395 61.7251 61.4429 59.9818 59.5985 57.8166C57.7542 55.6513 55.0655 53.0606 51.702 50.833C48.3385 48.6055 44.3037 46.7377 40.8918 45.7415C37.4799 44.7454 34.6873 44.6208 32.4589 44.9563C30.2304 45.2919 28.559 46.0909 27.2649 47.5471C25.9707 49.0033 25.0468 51.1201 24.1021 53.7454C23.1539 56.3707 22.185 59.508 21.8355 62.2993C21.486 65.0872 21.7594 67.5292 22.1954 69.7325C22.6314 71.9358 23.2301 73.9039 23.9637 75.5227C24.6973 77.1414 25.5693 78.4109 26.2786 79.369C26.988 80.3271 27.5382 80.9739 28.0365 81.51C28.5348 82.0462 28.9812 82.4682 30.4415 82.9904V82.987ZM30.964 51.2896C30.7287 51.9883 29.7044 53.2058 29.0227 55.6478C28.3376 58.0863 27.9881 61.7493 28.386 64.4646C28.784 67.1798 29.9293 68.9473 31.1508 70.4139C32.3724 71.8839 33.6665 73.053 35.0749 73.814C36.4833 74.5749 38.0024 74.9208 40.0924 74.7479C42.186 74.5749 44.8504 73.8762 47.1689 72.8939C49.4839 71.9116 51.4528 70.6387 52.7228 69.2206C53.9927 67.8024 54.5672 66.2321 54.9547 64.8623C55.3423 63.4926 55.5395 62.3235 55.7264 61.4276C55.9132 60.5318 56.0863 59.9092 56.4496 59.6844C56.8095 59.4595 57.3597 59.6325 57.858 60.1063C58.3563 60.5802 58.8027 61.3516 59.1798 62.1471C59.5536 62.9426 59.8511 63.7659 59.9757 64.6271C60.1003 65.4849 60.0518 66.3808 59.4532 67.9027C58.8546 69.4212 57.7092 71.5622 56.0793 73.2813C54.446 75.0004 52.3318 76.294 50.0272 77.5634C47.7225 78.8329 45.2311 80.0781 42.878 80.8736C40.525 81.6692 38.3069 82.0185 36.4141 81.9943C34.5212 81.9701 32.9502 81.5723 31.445 80.5865C29.9363 79.6042 28.4933 78.0338 27.3237 76.5154C26.1541 74.9969 25.2578 73.5269 24.6973 71.372C24.1367 69.2171 23.9118 66.3808 24.0986 63.9526C24.2855 61.5245 24.8841 59.508 25.3824 57.8408C25.8807 56.1736 26.2786 54.8523 26.7631 53.8561C27.2475 52.8599 27.822 52.1889 28.3929 51.6389C28.9674 51.089 29.5383 50.667 30.0989 50.5425C30.6595 50.418 31.2062 50.5909 30.9709 51.2896H30.964Z" fill="#2B2A29"/>
<path fill-rule="evenodd" clip-rule="evenodd" d="M79.6686 70.9585C79.108 69.6649 78.3364 68.0185 78.1495 66.3409C77.9626 64.6599 78.3606 62.9408 79.807 61.111C81.25 59.2813 83.7415 57.3374 86.2848 55.2101C88.8247 53.0795 91.4165 50.7655 94.2817 48.9357C97.1469 47.1059 100.285 45.7604 103.199 45.1517C106.113 44.5429 108.805 44.6674 110.923 45.3142C113.04 45.961 114.584 47.1336 116.006 49.0498C117.425 50.9661 118.722 53.6329 119.307 57.0676C119.892 60.5023 119.767 64.7118 119.356 68.3851C118.944 72.0585 118.248 75.1957 116.591 77.6481C114.933 80.1004 112.317 81.8679 110.113 82.8641C107.909 83.8602 106.116 84.0851 103.735 83.9848C101.355 83.8844 98.3927 83.4625 95.5032 82.6289C92.6138 81.7953 89.7971 80.5501 87.3818 79.0662C84.9664 77.5858 82.9456 75.8667 81.7656 74.535C80.5821 73.2034 80.2326 72.2556 79.6721 70.962L79.6686 70.9585ZM82.1739 68.8036C82.7483 69.9624 83.6688 71.9789 85.2744 73.7222C86.88 75.4655 89.1742 76.9355 91.1916 78.1669C93.209 79.3983 94.953 80.3944 97.6452 80.9305C100.334 81.4667 103.974 81.5393 106.275 81.0793C108.58 80.6192 109.552 79.6231 110.895 78.4021C112.241 77.1811 113.957 75.7387 115.141 73.4455C116.324 71.1557 116.971 68.0185 117.283 65.4139C117.594 62.8128 117.57 60.7444 117.144 58.7278C116.722 56.7113 115.899 54.7432 115.127 53.2005C114.355 51.6579 113.632 50.5372 112.75 49.9872C111.864 49.4407 110.819 49.4649 110.421 49.9111C110.023 50.3608 110.272 51.2324 110.819 52.277C111.366 53.3216 112.213 54.5426 112.774 56.061C113.335 57.5795 113.608 59.3989 113.272 61.8132C112.937 64.2275 111.988 67.2402 110.895 69.3709C109.798 71.4981 108.552 72.7433 107.331 73.4905C106.109 74.2376 104.915 74.4866 103.545 74.3759C102.175 74.2652 100.632 73.7914 98.9498 73.2172C97.268 72.643 95.4513 71.972 93.7696 71.1384C92.0879 70.3048 90.5445 69.3086 89.2607 68.3367C87.9769 67.3647 86.9561 66.4204 86.4959 65.4104C86.0357 64.4004 86.136 63.3316 86.0115 62.3597C85.8869 61.3877 85.5374 60.5161 85.1152 60.1806C84.693 59.8451 84.1948 60.0422 83.52 60.6787C82.8487 61.3117 82.0009 62.3839 81.3538 63.304C80.7067 64.224 80.2569 64.9954 80.2569 65.5938C80.2569 66.1922 80.7067 66.6141 81.0424 66.9739C81.378 67.3336 81.6029 67.6345 82.1739 68.7933V68.8036Z" fill="#2B2A29"/>
<path fill-rule="evenodd" clip-rule="evenodd" d="M42.4407 48.059L45.3509 57.0625L54.815 57.0452L47.1468 62.5933L50.0916 71.5864L42.4407 66.0107L34.7933 71.5864L37.7346 62.5933L30.0664 57.0452L39.534 57.0625L42.4407 48.059Z" fill="#E5097F"/>
<path fill-rule="evenodd" clip-rule="evenodd" d="M100.715 48.059L103.621 57.0625L113.089 57.0452L105.417 62.5933L108.362 71.5864L100.715 66.0107L93.0638 71.5864L96.0086 62.5933L88.3369 57.0452L97.8045 57.0625L100.715 48.059Z" fill="#E5097F"/>
</svg>
