<svg width="3250" height="5663" viewBox="0 0 3250 5663" fill="none" xmlns="http://www.w3.org/2000/svg">
<path fill-rule="evenodd" clip-rule="evenodd" d="M3112.65 1112.87C3128.31 1236.72 3101.68 1344.36 3090.63 1438.72C3079.66 1533.08 3084.27 1614.09 3098.18 1702.09C3112.09 1790.09 3135.22 1885.01 3152 1993.21C3168.77 2101.4 3179.18 2222.95 3168.77 2295.29C3158.36 2367.63 3127.11 2390.76 3087.77 2413.34C3048.42 2435.92 3000.96 2457.94 2972.03 2489.74C2943.09 2521.53 2932.68 2563.27 2928.07 2608.34C2923.46 2653.5 2924.57 2702.07 2939.67 2767.49C2954.7 2832.92 2983.63 2915.12 3014.95 2994.37C3046.19 3073.63 3079.74 3150.03 3115.03 3203.29C3150.33 3256.55 3187.37 3286.6 3214.56 3310.37C3241.74 3334.06 3259.15 3351.47 3242.3 3412.28C3225.53 3473.02 3174.57 3577.24 3110.34 3709.2C3046.11 3841.16 2968.53 4000.87 2860.9 4154.85C2753.26 4308.83 2615.5 4456.94 2509.62 4546.69C2403.74 4636.36 2329.65 4667.68 2264.23 4704.72C2198.8 4741.77 2142.13 4784.62 2079.65 4808.31C2017.17 4832 1948.88 4836.69 1893.87 4832C1838.86 4827.39 1797.21 4813.47 1760.72 4805.92C1724.24 4798.37 1693 4797.26 1652.53 4806.48C1611.99 4815.7 1562.23 4835.41 1501.5 4843.52C1440.77 4851.63 1368.99 4848.13 1285.6 4825.56C1202.29 4802.98 1107.38 4761.32 1046.57 4732.94C985.833 4704.56 959.203 4689.54 941.794 4676.82C924.465 4664.1 916.357 4653.69 830.664 4577.85C744.972 4502.01 581.774 4360.82 440.039 4174.49C298.225 3988.15 177.874 3756.58 103.231 3610.78C28.5877 3464.91 -0.347413 3404.73 0.209033 3370.63C0.765478 3336.44 30.893 3328.34 82.9604 3279.21C135.028 3230 209.115 3139.69 254.266 3037.86C299.418 2936.02 315.634 2822.58 327.717 2733.47C339.879 2644.35 347.987 2579.49 342.741 2532.66C337.495 2485.76 319.052 2456.82 294.728 2434.88C270.403 2412.86 240.355 2397.84 205.617 2393.78C170.879 2389.73 131.53 2396.65 110.703 2378.2C89.8762 2359.68 87.571 2315.72 85.2657 2241.63C82.9604 2167.54 80.6552 2063.32 99.7333 1978.26C118.811 1893.2 159.352 1827.22 180.179 1770.46C201.006 1713.7 202.199 1666.24 191.785 1602.64C181.372 1538.97 159.352 1459.07 162.294 1337.52C165.155 1215.98 192.978 1052.77 259.513 895.37C326.048 737.969 431.375 586.291 517.067 478.097C602.681 369.824 668.659 305.035 776.927 241.359C885.116 177.683 1035.6 115.199 1182.66 69.4893C1329.64 23.7793 1473.2 -5.15709 1660.09 1.20256C1847.05 7.56222 2077.34 49.218 2237.68 98.4258C2398.01 147.634 2488.32 204.314 2600.56 307.34C2712.8 410.367 2847.06 559.66 2943.17 704.342C3039.28 849.024 3097.07 989.095 3112.73 1112.95L3112.65 1112.87Z" fill="#C5C6C6" stroke="#2B2A29" stroke-width="0.199878" stroke-miterlimit="22.9256"/>
<path fill-rule="evenodd" clip-rule="evenodd" d="M830.664 4577.97C744.972 4502.13 581.774 4360.95 440.039 4174.61C298.225 3988.27 177.874 3756.7 103.231 3610.91C28.5877 3465.03 -0.347413 3404.86 0.209033 3370.75C0.765478 3336.57 30.893 3328.46 82.9604 3279.33C135.028 3230.12 209.115 3139.82 254.266 3037.98C299.418 2936.15 315.634 2822.71 327.717 2733.59C339.879 2644.48 347.987 2579.61 342.741 2532.79C337.495 2485.89 319.052 2456.95 294.728 2435.01C270.403 2412.99 240.355 2397.96 205.617 2393.91C170.879 2389.86 131.53 2396.77 110.703 2378.33C89.8763 2359.81 87.571 2315.84 85.2657 2241.75C82.9604 2167.66 80.6552 2063.45 99.7333 1978.39C118.811 1893.33 159.352 1827.34 180.179 1770.58C201.006 1713.82 202.199 1666.37 191.785 1602.77C181.372 1539.09 159.352 1459.2 162.294 1337.65C165.155 1216.1 192.978 1052.9 259.513 895.496C326.048 738.094 431.375 586.417 517.068 478.223C602.681 369.95 668.659 305.161 776.928 241.485C885.116 177.809 1035.6 115.325 1182.66 69.6153C1329.64 23.9053 1473.2 -5.03112 1660.09 1.32854C1847.05 7.68819 2077.34 49.3439 2237.68 98.5517C2398.01 147.76 2488.32 204.44 2600.56 307.466C2712.8 410.493 2847.06 559.786 2943.17 704.468C3039.28 849.15 3097.07 989.221 3112.73 1113.08C3128.39 1236.93 3101.76 1344.57 3090.71 1438.93C3079.74 1533.29 3084.35 1614.3 3098.26 1702.3C3112.17 1790.3 3135.3 1885.22 3152.08 1993.41C3168.85 2101.6 3179.26 2223.15 3168.85 2295.49C3158.44 2367.83 3127.19 2390.97 3087.85 2413.54C3048.5 2436.12 3001.04 2458.14 2972.11 2489.94C2943.17 2521.74 2932.76 2563.47 2928.15 2608.55C2923.54 2653.7 2924.65 2702.27 2939.75 2767.7C2954.78 2833.12 2983.71 2915.32 3015.03 2994.58C3046.27 3073.84 3079.82 3150.23 3115.11 3203.49C3150.41 3256.76 3187.45 3286.8 3214.64 3310.57C3241.82 3334.26 3259.23 3351.67 3242.38 3412.49C3225.61 3473.22 3174.65 3577.44 3110.42 3709.4C3046.19 3841.37 2968.61 4001.07 2860.98 4155.06C2753.34 4309.04 2615.58 4457.14 2509.7 4546.89C2403.82 4636.56 2329.73 4667.88 2264.31 4704.93C2198.88 4741.97 2142.21 4784.82 2079.73 4808.51C2017.24 4832.2 1948.96 4836.89 1893.95 4832.2C1838.94 4827.59 1797.29 4813.68 1760.8 4806.13C1724.32 4798.57 1693.08 4797.46 1652.61 4806.68C1612.07 4815.9 1562.31 4835.62 1501.58 4843.73C1440.85 4851.84 1369.07 4848.34 1285.68 4825.76C1202.37 4803.18 1107.46 4761.53 1046.64 4733.15C985.913 4704.77 959.283 4689.74 941.874 4677.02C924.545 4664.31 916.436 4653.89 830.744 4578.05L830.664 4577.97ZM576.925 2566.34C571.44 2584.54 565.081 2604.81 553.793 2610.61C542.505 2616.42 526.289 2607.75 512.457 2600.76C498.546 2593.76 487.019 2588.59 480.898 2562.6C474.857 2536.52 474.221 2489.7 478.593 2454.64C482.965 2419.67 492.186 2396.45 537.02 2381.99C581.854 2367.52 662.3 2361.71 747.436 2337.15C832.493 2312.59 922.239 2269.1 1000.94 2228.32C1079.63 2187.54 1147.36 2149.3 1157.46 2136.58C1167.55 2123.86 1120.1 2136.58 1051.02 2158.28C981.859 2179.99 890.999 2210.67 796.96 2230.07C702.92 2249.47 605.701 2257.57 520.645 2257.57C435.588 2257.57 362.614 2249.47 321.835 2240.24C281.055 2230.94 272.311 2220.61 264.521 2201.21C256.73 2181.82 249.735 2153.44 253.551 2073.86C257.287 1994.28 271.754 1863.43 288.527 1763.91C305.3 1664.38 324.378 1596.09 327.32 1540.52C330.181 1484.96 316.906 1442.11 305.618 1401.88C294.33 1361.66 285.109 1324.06 305.936 1226.83C326.763 1129.61 377.718 972.766 438.211 841.359C498.705 709.953 568.737 604.065 642.824 521.31C716.911 438.555 795.052 378.933 881.539 324.24C968.027 269.547 1062.94 219.783 1154.67 183.612C1246.41 147.442 1334.96 124.865 1425.27 113.576C1515.57 102.288 1607.54 102.288 1712.63 109.204C1817.64 116.12 1935.77 130.032 2059.61 159.286C2183.46 188.541 2313.11 233.058 2410.33 286.877C2507.55 340.696 2572.34 403.815 2636.01 470.353C2699.69 536.891 2762.17 606.927 2816.86 702.401C2871.55 797.875 2918.45 918.867 2944.44 1011.48C2970.52 1104.09 2975.68 1168.32 2974.49 1232.88C2973.3 1297.43 2965.83 1362.21 2958.91 1403.31C2951.99 1444.41 2945.55 1461.74 2944.76 1487.26C2943.89 1512.7 2948.5 1546.25 2952.55 1573.51C2956.6 1600.7 2960.1 1621.53 2967.57 1658.34C2975.13 1695.06 2986.65 1747.77 2999.69 1822.42C3012.73 1897.06 3027.19 1993.73 3032.68 2060.27C3038.16 2126.8 3034.75 2163.29 3028.07 2186.74C3021.39 2210.2 3011.53 2220.61 2982.92 2228.4C2954.3 2236.19 2906.84 2241.44 2839.99 2241.44C2773.14 2241.44 2686.89 2236.19 2600.4 2223.79C2513.91 2211.31 2427.11 2191.67 2359.62 2176.89C2292.21 2162.1 2244.12 2152.32 2207.39 2146.52C2170.66 2140.72 2145.15 2138.97 2140.3 2146.52C2135.37 2154.07 2151.03 2170.84 2172.97 2184.76C2194.99 2198.67 2223.29 2209.64 2304.05 2233.33C2384.82 2257.02 2517.89 2293.51 2598.89 2317.51C2679.89 2341.52 2708.83 2353.13 2733.15 2365.85C2757.48 2378.57 2777.11 2392.48 2793.09 2412.43C2808.99 2432.39 2821.15 2458.46 2820.28 2488.83C2819.4 2519.19 2805.49 2553.93 2789.59 2575.08C2773.69 2596.23 2755.73 2603.7 2740.15 2600.84C2724.49 2597.97 2711.21 2584.62 2704.3 2564.35C2697.38 2544.08 2696.74 2516.89 2688.64 2518.08C2680.53 2519.27 2664.95 2548.77 2651.91 2566.73C2638.87 2584.7 2628.46 2591.06 2606.2 2600.6C2583.94 2610.14 2549.76 2622.86 2524.64 2631.84C2499.44 2640.82 2483.23 2645.99 2471.94 2656.72C2460.65 2667.45 2454.29 2683.59 2448.81 2691.46C2443.32 2699.25 2438.71 2698.7 2428.86 2683.91C2419 2669.12 2403.97 2640.19 2395.31 2603.14C2386.65 2566.1 2384.26 2520.94 2379.09 2501.86C2373.85 2482.79 2365.74 2489.7 2356.84 2517.53C2347.85 2545.27 2338 2593.92 2333.7 2631.52C2329.33 2669.12 2330.52 2695.75 2317.25 2709.35C2303.89 2722.94 2276.15 2723.5 2243.16 2726.12C2210.17 2728.75 2172.02 2733.36 2142.76 2732.16C2113.51 2730.97 2093.24 2724.05 2080.84 2691.94C2068.36 2659.82 2063.75 2602.51 2060.89 2561.72C2058.02 2520.94 2056.83 2496.62 2052.22 2507.35C2047.61 2518.08 2039.5 2563.79 2033.38 2604.02C2027.34 2644.24 2023.29 2678.98 2019.23 2702.99C2015.18 2727 2011.12 2740.35 1989.42 2748.14C1967.72 2755.93 1928.37 2758.24 1892.76 2764.36C1857.15 2770.4 1825.35 2780.26 1791.49 2782.01C1757.62 2783.76 1721.69 2777.4 1704.36 2758.56C1687.03 2739.72 1688.15 2708.47 1693.63 2651.79C1699.12 2595.03 1708.97 2512.91 1711.6 2465.69C1714.22 2418.55 1709.61 2406.39 1702.38 2415.06C1695.14 2423.72 1685.29 2453.21 1674 2489.15C1662.71 2525 1649.99 2567.29 1641.01 2611.57C1632.03 2655.85 1626.86 2702.11 1623.04 2732.24C1619.31 2762.37 1617 2776.2 1608.26 2785.19C1599.59 2794.17 1584.49 2798.22 1542.28 2795.92C1500.07 2793.61 1430.59 2784.95 1382.82 2775.09C1335.04 2765.23 1309.05 2754.26 1292.28 2738.6C1275.5 2722.94 1267.95 2702.75 1262.78 2664.83C1257.54 2626.91 1254.68 2571.34 1252.37 2553.38C1250.07 2535.41 1248.32 2555.13 1246.33 2582.87C1244.34 2610.61 1241.96 2646.55 1237.35 2674.29C1232.74 2702.03 1225.74 2721.75 1211.91 2733.36C1198 2744.96 1177.17 2748.38 1145.06 2743.45C1112.94 2738.52 1069.54 2725.25 1034.48 2711.57C999.506 2697.98 972.876 2684.07 958.647 2655.77C944.497 2627.39 942.748 2584.62 939.251 2552.5C935.753 2520.39 930.586 2499 927.088 2501.86C923.591 2504.73 921.842 2531.91 916.993 2562.36C912.064 2592.73 903.956 2626.28 892.112 2647.74C880.267 2669.12 864.608 2678.42 852.445 2681.05C840.283 2683.67 831.618 2679.62 807.85 2672.7C784.161 2665.71 745.369 2655.93 721.044 2643.21C696.72 2630.49 686.942 2614.83 671.6 2598.05C656.258 2581.28 635.431 2563.31 621.282 2549.4C607.132 2535.49 599.58 2525.71 593.459 2528.89C587.418 2532.07 582.728 2548.29 577.243 2566.49L576.925 2566.34ZM2528.06 3148.8C2562.48 3139.5 2632.28 3118.43 2673.77 3101.9C2715.27 3085.36 2728.62 3073.52 2735.7 3059.92C2742.77 3046.33 2743.64 3030.99 2736.01 2986.55C2728.3 2942.11 2712.17 2868.58 2702.47 2821.44C2692.77 2774.3 2689.59 2753.47 2679.89 2747.35C2670.19 2741.31 2653.98 2749.97 2633.79 2761.5C2613.52 2773.1 2589.19 2787.57 2571.23 2805.06C2553.26 2822.55 2541.73 2843.14 2531.88 2870.17C2522.02 2897.2 2513.91 2930.82 2509.14 2961.19C2504.37 2991.56 2502.94 3018.75 2502.47 3043.55C2502.07 3068.27 2502.62 3090.53 2501.59 3108.34C2500.56 3126.14 2497.93 3139.42 2496.26 3147.45C2494.52 3155.4 2493.64 3158.02 2528.06 3148.72V3148.8ZM2173.76 3242.29C2196.58 3239.98 2240.06 3220.27 2287.52 3208.74C2334.98 3197.13 2386.49 3193.72 2411.37 3177.18C2436.25 3160.65 2434.5 3131.15 2431.88 3072.72C2429.25 3014.29 2425.83 2926.85 2421.14 2878.59C2416.53 2830.26 2410.73 2821.04 2396.26 2815.79C2381.8 2810.55 2358.66 2809.43 2338.08 2812.93C2317.49 2816.43 2299.6 2824.54 2277.58 2845.6C2255.56 2866.75 2229.57 2900.85 2210.73 2926.93C2191.89 2953 2180.36 2970.89 2171.38 3000.46C2162.4 3029.95 2156.04 3071.05 2152.3 3108.73C2148.57 3146.34 2147.37 3180.52 2147.93 3205.08C2148.49 3229.65 2150.79 3244.75 2173.69 3242.45L2173.76 3242.29ZM1731.87 3314.63C1771.22 3311.77 1844.11 3306.52 1905.16 3302.15C1966.21 3297.78 2015.42 3294.36 2042.05 3284.5C2068.68 3274.64 2072.73 3258.43 2073.6 3214.23C2074.48 3169.95 2072.17 3097.61 2066.69 3033.61C2061.2 2969.62 2052.54 2914.05 2040.06 2884.87C2027.58 2855.62 2011.44 2852.76 1994.67 2854.51C1977.9 2856.26 1960.49 2862.62 1935.92 2872.16C1911.36 2881.69 1879.48 2894.41 1849.68 2923.11C1819.87 2951.73 1792.12 2996.33 1769.79 3039.18C1747.53 3082.02 1730.68 3123.04 1718.59 3153.73C1706.43 3184.41 1698.88 3204.69 1693.71 3227.5C1688.46 3250.4 1685.6 3275.83 1683.85 3291.5C1682.11 3307.08 1681.55 3312.88 1684.17 3315.5C1686.8 3318.13 1692.52 3317.49 1731.87 3314.63ZM1283.37 3291.73C1337.75 3292.61 1439.02 3290.86 1503.33 3292.61C1567.56 3294.36 1594.74 3299.52 1607.54 3289.98C1620.26 3280.45 1618.51 3256.12 1610.4 3210.73C1602.3 3165.26 1587.83 3098.72 1561.75 3046.97C1535.68 2995.14 1498.08 2958.09 1459.05 2927.4C1419.94 2896.72 1379.48 2872.39 1349.67 2858.24C1319.86 2844.09 1300.78 2840.04 1282.5 2841.71C1264.29 2843.46 1246.89 2851.01 1236.79 2869.21C1226.69 2887.42 1223.75 2916.35 1222.32 2959.84C1220.89 3003.24 1220.89 3061.12 1218.82 3114.94C1216.76 3168.75 1212.78 3218.52 1211.59 3246.02C1210.4 3273.53 1212.15 3278.7 1216.84 3283.07C1221.45 3287.36 1229 3290.86 1283.37 3291.73ZM881.698 3191.33C914.131 3204.61 977.169 3222.57 1017.95 3233.86C1058.73 3245.15 1077.25 3249.76 1092.03 3250.63C1106.82 3251.51 1117.79 3248.65 1124.71 3233.86C1131.62 3219.07 1134.56 3192.44 1133.69 3157.78C1132.81 3123.04 1128.2 3080.2 1117.79 3037.43C1107.38 2994.58 1091.16 2951.73 1072.32 2917.95C1053.48 2884.08 1032.1 2859.2 1008.65 2838.37C985.197 2817.54 959.76 2800.77 941.477 2793.77C923.273 2786.86 912.223 2789.72 903.877 2804.74C895.45 2819.77 889.727 2846.96 883.606 2895.92C877.565 2944.81 871.126 3015.41 864.766 3063.18C858.407 3110.96 852.048 3135.84 849.742 3152.62C847.437 3169.39 849.186 3178.05 881.619 3191.41L881.698 3191.33ZM748.549 3138.07C725.417 3138.62 683.127 3118.43 652.204 3103.96C621.282 3089.5 601.568 3080.83 588.213 3069.78C574.938 3058.81 567.943 3045.46 565.637 2994.82C563.332 2944.18 565.637 2856.18 573.745 2799.81C581.854 2743.37 595.765 2718.49 614.843 2710.94C633.921 2703.39 658.246 2713.24 683.127 2732.08C708.008 2750.92 733.445 2778.67 749.105 2804.43C764.686 2830.18 770.489 2853.87 773.986 2901.97C777.484 2949.98 778.597 3022.32 777.166 3069.23C775.735 3116.13 771.681 3137.51 748.549 3138.07ZM2193.72 3787.71C2210.65 3783.65 2240.46 3777.29 2282.83 3754.72C2325.2 3732.14 2380.21 3693.35 2409.86 3646.76C2439.51 3600.18 2443.88 3545.72 2441.42 3479.66C2438.95 3413.52 2429.73 3335.69 2418.52 3295.47C2407.39 3255.24 2394.36 3252.62 2365.02 3256.28C2335.69 3259.94 2289.9 3269.71 2255.17 3274.96C2220.43 3280.21 2196.74 3280.76 2181.95 3293.8C2167.17 3306.84 2161.36 3332.28 2159.06 3380.77C2156.75 3429.26 2157.87 3500.73 2160.41 3567.42C2162.87 3634.12 2166.61 3696.05 2168.2 3733.25C2169.79 3770.46 2169.23 3782.86 2170.98 3788.26C2172.73 3793.59 2176.79 3791.84 2193.72 3787.87V3787.71ZM1691.49 3895.34C1699.28 3899.72 1709.13 3904.33 1735.21 3900.83C1761.28 3897.33 1803.49 3885.8 1854.13 3858.3C1904.76 3830.79 1963.83 3787.39 1999.99 3741.36C2036.16 3695.33 2049.52 3646.68 2053.81 3587.38C2058.1 3528.07 2053.49 3458.04 2050.31 3413.44C2047.13 3368.84 2045.39 3349.77 2021.93 3345.39C1998.48 3341.02 1953.33 3351.43 1913.11 3358.11C1872.89 3364.79 1837.59 3367.65 1804.05 3369.08C1770.5 3370.51 1738.62 3370.51 1718.67 3378.94C1698.72 3387.29 1690.61 3404.06 1686.56 3419.4C1682.5 3434.75 1682.5 3448.66 1680.75 3518.06C1679.01 3587.54 1675.51 3712.5 1673.84 3782.54C1672.09 3852.58 1672.09 3867.6 1675.03 3877.14C1677.89 3886.68 1683.7 3890.73 1691.57 3895.11L1691.49 3895.34ZM1565.57 3908.38C1536.63 3906.08 1484.57 3897.97 1442.6 3881.19C1400.62 3864.42 1368.83 3838.9 1333.77 3795.26C1298.79 3751.54 1260.56 3689.61 1236.55 3640.4C1212.54 3591.19 1202.69 3554.71 1198.95 3508.44C1195.22 3462.17 1197.52 3405.97 1197.52 3376.16C1197.52 3346.35 1195.22 3342.85 1209.37 3342.29C1223.51 3341.74 1254.2 3344.04 1307.14 3346.67C1360.08 3349.29 1435.36 3352.23 1488.94 3355.97C1542.44 3359.7 1574.23 3364.31 1589.89 3379.97C1605.48 3395.55 1604.92 3422.19 1604.92 3509C1604.92 3595.8 1605.48 3742.79 1605.79 3818.63C1606.11 3894.47 1606.11 3899.08 1603.17 3903.13C1600.31 3907.19 1594.51 3910.69 1565.57 3908.38ZM824.464 3316.62C823.59 3359.15 820.728 3435.22 826.372 3491.98C832.016 3548.66 846.165 3586.03 874.385 3622.91C902.605 3659.8 944.815 3696.29 981.62 3723.47C1018.35 3750.66 1049.67 3768.63 1072.08 3775.7C1094.5 3782.78 1108.09 3779.04 1117.79 3766.72C1127.49 3754.4 1133.21 3733.57 1134.88 3656.14C1136.47 3578.71 1133.85 3444.76 1130.51 3377.59C1127.17 3310.42 1123.12 3310.18 1102.61 3308.83C1082.02 3307.55 1044.98 3305.17 999.585 3293.88C954.116 3282.59 900.299 3262.32 869.536 3254.53C838.693 3246.74 830.903 3251.35 827.564 3258.11C824.225 3264.94 825.418 3273.85 824.543 3316.46L824.464 3316.62ZM722.873 3640.32C703.795 3636.98 672.236 3628.87 637.816 3602.56C603.396 3576.25 566.035 3531.65 545.923 3498.26C525.812 3464.8 522.95 3442.54 520.645 3376.71C518.339 3310.89 516.591 3201.51 518.578 3148.64C520.565 3095.86 526.368 3099.59 542.266 3109.53C558.165 3119.55 584.238 3135.68 618.261 3152.78C652.284 3169.87 694.256 3187.75 722.714 3197.77C751.252 3207.71 766.276 3209.77 772.476 3218.6C778.676 3227.42 776.133 3243 772.158 3307.55C768.263 3372.1 763.016 3485.54 759.996 3549.22C756.975 3612.9 756.101 3626.81 752.285 3634.44C748.549 3642.07 741.871 3643.58 722.793 3640.24L722.873 3640.32ZM2542.45 3633.64C2554.29 3638.1 2576.31 3635.55 2606.44 3616.71C2636.57 3597.87 2674.72 3562.89 2703.1 3536.1C2731.48 3509.31 2750 3490.79 2757.95 3437.85C2765.9 3384.9 2763.28 3297.54 2760.1 3240.62C2756.92 3183.78 2753.18 3157.39 2751.12 3141.49C2749.05 3125.59 2748.81 3120.1 2727.67 3128.93C2706.52 3137.75 2664.55 3160.88 2628.7 3177.26C2592.85 3193.64 2563.04 3203.18 2544.68 3214.62C2526.31 3226.07 2519.4 3239.35 2517.17 3259.22C2515.02 3279.01 2517.57 3305.41 2520.03 3364.23C2522.5 3423.14 2524.8 3514.56 2526.87 3566.07C2528.86 3617.59 2530.61 3629.19 2542.53 3633.64H2542.45ZM2765.27 3003.24C2776 3013.66 2801.75 3008.17 2825.6 3003.24C2849.45 2998.32 2871.47 2993.94 2881.01 2979.63C2890.55 2965.32 2887.68 2941 2882.44 2922.79C2877.19 2904.59 2869.72 2892.43 2867.65 2874.3C2865.67 2856.18 2869.08 2832.17 2868.53 2804.74C2867.97 2777.24 2863.28 2746.23 2857.24 2726.04C2851.2 2705.77 2843.65 2696.23 2833.79 2691.86C2823.93 2687.49 2811.77 2688.36 2797.86 2697.5C2783.95 2706.65 2768.37 2723.98 2759.23 2742.98C2750.08 2761.9 2747.46 2782.48 2749.21 2815.63C2750.96 2848.78 2757 2894.49 2757.87 2930.51C2758.75 2966.52 2754.38 2992.91 2765.11 3003.32L2765.27 3003.24ZM2806.05 3416.62C2812.09 3422.58 2823.69 3429.18 2833.87 3430.77C2843.96 3432.36 2852.71 3428.86 2865.43 3420.04C2878.15 3411.22 2894.92 3396.99 2905.65 3378.78C2916.38 3360.58 2920.99 3338.32 2920.67 3295.71C2920.36 3253.18 2915.19 3190.38 2911.13 3149.12C2907.08 3107.86 2904.22 3088.22 2898.57 3076.78C2892.93 3065.33 2884.5 3062.15 2872.82 3059.61C2861.13 3056.98 2846.03 3055 2834.03 3053.96C2822.02 3052.93 2813.04 3052.93 2805.41 3056.82C2797.78 3060.72 2791.34 3068.51 2789.67 3105.87C2787.92 3143.24 2790.86 3210.09 2792.53 3261.84C2794.28 3313.59 2794.84 3350.4 2795.71 3370.91C2796.59 3391.42 2797.78 3395.79 2798.57 3400.56C2799.45 3405.33 2800 3410.58 2806.13 3416.46L2806.05 3416.62ZM484.794 3012.78C474.778 3011.59 455.699 3006.74 440.675 3004.44C425.651 3002.13 414.602 3002.37 405.063 3000.94C395.524 2999.51 387.416 2996.33 384.077 2984.56C380.738 2972.88 382.169 2952.6 389.562 2919.85C396.955 2887.18 410.23 2842.03 418.1 2805.7C425.89 2769.37 428.195 2741.86 432.726 2719.21C437.178 2696.47 443.855 2678.58 457.448 2671.91C471.041 2665.23 491.63 2669.92 507.767 2680.41C523.983 2690.98 535.828 2707.44 541.154 2733.83C546.48 2760.15 545.367 2796.32 543.22 2843.54C541.074 2890.68 537.894 2948.87 534.874 2980.75C531.853 3012.54 528.912 3018.11 522.552 3018.35C516.193 3018.67 506.336 3013.74 501.01 3012.54C495.684 3011.35 494.81 3013.98 484.794 3012.86V3012.78ZM477.56 3371.63C480.342 3312.88 486.701 3198.56 491.63 3135.76C496.559 3072.96 499.977 3061.67 489.722 3054.84C479.468 3048 455.461 3045.69 433.998 3044.58C412.615 3043.39 393.775 3043.39 386.382 3054.6C378.989 3065.73 383.044 3087.99 384.633 3138.55C386.223 3189.03 385.349 3267.73 385.667 3315.11C385.985 3362.41 387.416 3378.3 395.921 3395.24C404.427 3412.17 420.087 3430.14 434.078 3441.66C448.068 3453.27 460.549 3458.44 467.385 3456.61C474.221 3454.7 475.334 3445.72 475.493 3439.68C475.652 3433.63 474.778 3430.37 477.48 3371.71L477.56 3371.63ZM214.361 3528.47C259.751 3609.8 337.336 3770.7 419.213 3906.95C501.09 4043.29 587.339 4154.98 700.218 4270.4C813.096 4385.83 952.526 4505.08 1068.35 4584.09C1184.09 4663.11 1276.14 4701.83 1344.1 4715.5C1412.07 4729.09 1456.11 4717.49 1498.32 4703.34C1540.53 4689.19 1581.07 4672.41 1618.67 4662.88C1656.27 4653.34 1691.01 4651.03 1724 4660.57C1756.99 4670.11 1788.23 4691.49 1820.34 4706.6C1852.46 4721.62 1885.45 4730.29 1940.69 4722.81C1995.94 4715.26 2073.53 4691.57 2153.1 4653.97C2232.67 4616.37 2314.23 4564.86 2388.08 4503.8C2461.84 4442.75 2527.82 4372.16 2591.18 4298.94C2654.53 4225.73 2715.35 4149.89 2790.54 4042.81C2865.74 3935.73 2955.49 3797.41 3013.04 3694.06C3070.6 3590.8 3096.11 3522.43 3104.46 3468.93C3112.81 3415.43 3104.14 3376.64 3083.63 3346.51C3063.04 3316.38 3030.69 3294.99 3012.41 3280.21C2994.2 3265.42 2990.15 3257.31 2978.86 3290.62C2967.57 3323.93 2949.05 3398.58 2932.28 3449.77C2915.51 3500.97 2900.4 3528.79 2884.27 3553.04C2868.05 3577.36 2850.72 3598.19 2840.31 3628.32C2829.89 3658.45 2826.4 3697.8 2819.8 3709.96C2813.12 3722.12 2803.26 3707.1 2785.62 3692.63C2767.97 3678.16 2742.45 3664.25 2724.01 3665.12C2705.49 3666 2693.88 3681.58 2670.51 3700.42C2647.06 3719.26 2611.77 3741.2 2589.51 3762.03C2567.25 3782.86 2557.95 3802.57 2549.84 3831.19C2541.73 3859.81 2534.82 3897.49 2523.53 3903.21C2512.24 3909.02 2496.66 3882.94 2486.49 3861.8C2476.39 3840.65 2471.7 3824.43 2451.75 3821.02C2431.8 3817.52 2396.5 3826.82 2368.12 3837.47C2339.74 3848.2 2318.36 3860.37 2295.79 3877.38C2273.21 3894.47 2249.52 3916.41 2228.69 3952.02C2207.87 3987.64 2189.9 4036.85 2172.81 4052.19C2155.72 4067.53 2139.5 4049.01 2124.16 4017.77C2108.82 3986.53 2094.35 3942.49 2071.46 3928.33C2048.56 3914.18 2017.32 3929.77 1996.5 3935.89C1975.67 3941.93 1965.26 3938.51 1942.68 3941.13C1920.11 3943.76 1885.37 3952.42 1848.32 3966.33C1811.28 3980.25 1771.93 3999.32 1748.8 4022.78C1725.67 4046.23 1718.67 4073.97 1709.45 4109.27C1700.15 4144.56 1688.62 4187.41 1675.03 4202.44C1661.44 4217.46 1645.78 4204.74 1628.13 4174.61C1610.48 4144.48 1590.77 4097.02 1570.26 4065.23C1549.75 4033.35 1528.29 4017.21 1493.55 4008.55C1458.81 3999.88 1410.8 3998.69 1361.59 3992.89C1312.39 3987.08 1262.07 3976.67 1231.38 3971.18C1200.7 3965.7 1189.73 3965.14 1184.25 3979.61C1178.76 3994.08 1178.76 4023.57 1175.26 4047.02C1171.77 4070.47 1164.85 4087.8 1148.08 4073.1C1131.3 4058.31 1104.67 4011.49 1083.29 3975C1061.91 3938.51 1045.69 3912.52 1008.09 3884.45C970.491 3856.39 911.428 3826.26 877.008 3816.17C842.588 3806.07 832.731 3815.85 830.426 3841.61C828.121 3867.36 833.288 3909.02 832.175 3938.59C830.982 3968.08 823.51 3985.49 807.294 3965.22C791.077 3944.95 766.196 3887.08 748.231 3839.38C730.266 3791.6 719.296 3754 693.858 3723.32C668.421 3692.63 628.436 3668.94 596.083 3652.72C563.65 3636.51 538.769 3627.84 525.176 3640.24C511.582 3652.72 509.277 3686.27 499.42 3696.92C489.563 3707.65 472.234 3695.49 450.85 3664.81C429.467 3634.12 403.95 3584.91 382.249 3530.22C360.547 3475.53 342.582 3415.35 326.127 3373.69C309.593 3332.04 294.569 3308.9 281.85 3295.31C269.131 3281.72 258.718 3277.66 249.417 3283.47C240.117 3289.27 232.008 3304.85 214.361 3333.23C196.714 3361.61 169.527 3402.71 162.612 3424.09C155.616 3445.48 168.971 3447.23 214.361 3528.55V3528.47Z" fill="#2B2A29" stroke="#2B2A29" stroke-width="0.199878" stroke-miterlimit="22.9256"/>
<path d="M1636.01 5058.75C2225.27 5058.75 2702.96 4972.48 2702.96 4866.05C2702.96 4759.63 2225.27 4673.36 1636.01 4673.36C1046.76 4673.36 569.068 4759.63 569.068 4866.05C569.068 4972.48 1046.76 5058.75 1636.01 5058.75Z" fill="#FEFEFE" stroke="#2B2A29" stroke-width="0.199878" stroke-miterlimit="22.9256"/>
<path fill-rule="evenodd" clip-rule="evenodd" d="M1471.85 2245.1C1483.86 2238.58 1504.13 2227.61 1536.08 2220.38C1568.04 2213.14 1611.76 2209.65 1649.84 2210.84C1687.91 2212.03 1720.27 2217.76 1749.84 2226.58C1779.33 2235.4 1805.96 2247.25 1826.39 2256.07C1846.82 2264.9 1860.97 2270.7 1873.69 2273.16C1886.4 2275.63 1897.69 2274.75 1903.65 2267.92C1909.62 2261.08 1910.17 2248.36 1905.96 2207.74C1901.75 2167.12 1892.76 2098.51 1866.93 2018.62C1841.01 1938.73 1798.17 1847.62 1752.22 1787.13C1706.2 1726.63 1656.99 1696.82 1627.02 1689.35C1597.05 1681.8 1586.4 1696.58 1555.16 1739.27C1523.92 1781.96 1472.09 1852.55 1436.24 1921C1400.39 1989.44 1380.36 2055.66 1366.76 2113.14C1353.17 2170.54 1345.94 2219.19 1348.72 2247.25C1351.5 2275.31 1364.22 2282.86 1376.62 2282.23C1389.1 2281.67 1401.18 2272.93 1413.82 2267.2C1426.38 2261.4 1439.42 2258.54 1447.85 2256.07C1456.19 2253.61 1460.01 2251.54 1472.01 2245.02L1471.85 2245.1ZM1492.84 2157.58C1545.54 2156.15 1642.12 2152.09 1704.37 2151.54C1766.61 2150.98 1794.35 2153.84 1806.67 2149.95C1818.99 2146.05 1815.81 2135.32 1802.22 2106.14C1788.63 2076.89 1764.62 2029.19 1746.1 2007.33C1727.58 1985.47 1714.54 1989.52 1682.11 1988.97C1649.68 1988.41 1597.93 1983.16 1565.49 1983.64C1533.06 1984.04 1520.02 1990.16 1511.52 1998.11C1503.01 2006.06 1498.96 2015.92 1486.32 2039.05C1473.76 2062.18 1452.62 2098.67 1440.61 2120.53C1428.61 2142.39 1425.67 2149.63 1428.61 2153.84C1431.47 2158.05 1440.21 2159.17 1492.84 2157.74V2157.58Z" fill="#2B2A29"/>
<path fill-rule="evenodd" clip-rule="evenodd" d="M2204.86 2005.44C2247.86 2023.41 2332.36 2056.64 2404.38 2065.46C2476.4 2074.29 2536.02 2058.63 2590.63 2021.74C2645.17 1984.86 2694.69 1926.66 2723.07 1889.22C2751.45 1851.7 2758.68 1834.93 2739.28 1841.92C2719.89 1848.84 2673.86 1879.52 2642.62 1903.45C2611.38 1927.3 2594.85 1944.39 2563.92 1955.28C2532.92 1966.17 2487.53 1970.78 2458.12 1973.25C2428.79 1975.71 2415.43 1976.03 2392.86 1974.68C2370.28 1973.41 2338.41 1970.47 2304.86 1967.84C2271.31 1965.22 2236.02 1962.91 2206.45 1961.48C2176.96 1960.05 2153.19 1959.42 2136.26 1957.75C2119.32 1956 2109.23 1953.14 2107 1954.73C2104.86 1956.32 2110.58 1962.36 2120.6 1967.76C2130.61 1973.09 2144.76 1977.7 2152.55 1981.36C2160.34 1985.01 2161.77 1987.56 2204.78 2005.52L2204.86 2005.44Z" fill="#2B2A29"/>
<path fill-rule="evenodd" clip-rule="evenodd" d="M540.614 1920.35C556.194 1936.25 584.573 1964.95 612.634 1989.52C640.694 2014.08 668.437 2034.67 699.439 2048.26C730.362 2061.86 764.543 2068.53 808.264 2066.47C851.985 2064.4 905.165 2053.75 952.781 2033.87C1000.4 2014.08 1042.37 1985.14 1068.12 1962.57C1093.88 1939.99 1103.42 1923.77 1099.05 1921.15C1094.67 1918.53 1076.47 1929.5 1054.21 1940.23C1031.96 1950.96 1005.56 1961.37 979.252 1969.72C952.94 1978.07 926.549 1984.51 890.698 1987.93C854.847 1991.42 809.377 1991.98 777.58 1989.28C745.704 1986.49 727.5 1980.45 702.221 1971.07C676.943 1961.69 644.51 1948.89 618.596 1935.3C592.681 1921.71 573.285 1907.24 557.546 1897.94C541.806 1888.64 529.644 1884.66 523.841 1885.46C518.038 1886.33 518.594 1892.13 520.343 1896.59C522.092 1901.04 524.954 1904.22 540.614 1920.2V1920.35Z" fill="#2B2A29"/>
<path fill-rule="evenodd" clip-rule="evenodd" d="M1869.7 1212.75C1895.14 1197.09 1933.38 1162.98 1980.52 1121.33C2027.66 1079.67 2083.78 1030.46 2132.11 973.465C2180.44 916.467 2220.98 851.598 2255.4 806.206C2289.82 760.735 2318.2 734.739 2350 710.732C2381.79 686.724 2417.09 664.704 2446.9 651.428C2476.71 638.073 2501.03 633.462 2536.33 631.157C2571.62 628.851 2617.97 628.851 2647.14 629.09C2676.39 629.408 2688.55 629.964 2698.65 628.851C2708.75 627.659 2716.85 624.797 2717.49 621.061C2718.05 617.324 2711.13 612.714 2701.27 607.785C2691.42 602.856 2678.7 597.689 2669.16 590.455C2659.62 583.221 2653.26 573.92 2637.36 561.2C2621.46 548.481 2595.95 532.264 2564.47 517.478C2532.91 502.692 2495.31 489.416 2468.68 482.5C2442.05 475.584 2426.47 474.948 2407.07 479.638C2387.68 484.249 2364.54 494.106 2339.66 511.198C2314.78 528.289 2288.15 552.615 2263.83 578.371C2239.5 604.128 2217.56 631.316 2192.68 666.055C2167.8 700.795 2139.98 743.007 2114.54 786.173C2089.1 829.26 2065.89 873.301 2046.5 912.333C2027.1 951.365 2011.52 985.548 1990.93 1016.23C1970.34 1046.92 1944.9 1074.11 1913.35 1105.11C1881.79 1136.03 1844.19 1170.77 1827.41 1191.04C1810.64 1211.32 1814.7 1217.04 1823.04 1221.41C1831.39 1225.78 1844.19 1228.65 1869.63 1213.06L1869.7 1212.75Z" fill="#2B2A29"/>
<path fill-rule="evenodd" clip-rule="evenodd" d="M1422.01 1202.89C1381.23 1175.7 1311.76 1125.3 1250.39 1074.66C1189.02 1024.02 1135.76 973.067 1081.39 934.273C1027.02 895.479 971.452 868.848 931.467 855.016C891.562 841.104 867.237 839.991 835.122 846.907C803.008 853.823 763.102 868.928 735.28 881.329C707.458 893.81 691.877 903.588 677.092 913.445C662.306 923.303 648.395 933.081 637.743 936.022C627.012 938.884 619.54 934.829 621.209 925.29C622.958 915.751 633.928 900.726 643.785 885.94C653.642 871.153 662.306 856.685 690.924 831.803C719.541 806.921 768.19 771.625 804.359 748.73C840.528 725.835 864.296 715.421 885.123 708.267C905.95 701.033 923.915 696.978 954.599 709.459C985.283 721.94 1028.69 750.877 1076.46 795.712C1124.24 840.548 1176.3 901.362 1233.62 952.001C1290.93 1002.64 1353.41 1043.18 1399.12 1079.03C1444.83 1114.89 1473.76 1146.21 1496.9 1169.9C1520.03 1193.59 1537.44 1209.8 1534.81 1219.98C1532.19 1230.08 1509.61 1234.13 1492.28 1234.13C1474.96 1234.13 1462.79 1230.08 1421.93 1202.89H1422.01Z" fill="#2B2A29"/>
<path fill-rule="evenodd" clip-rule="evenodd" d="M684.184 1905.55C718.047 1917.71 775.361 1932.18 849.448 1928.13C923.535 1924.07 1014.39 1901.5 1083.87 1878.68C1153.35 1855.79 1201.36 1832.65 1243.01 1808.65C1284.67 1784.64 1319.96 1759.76 1351.28 1727.32C1382.52 1694.89 1409.71 1654.98 1425.61 1607.84C1441.51 1560.7 1446.12 1506.24 1436.9 1458.78C1427.59 1411.33 1404.46 1370.78 1361.7 1320.46C1318.85 1270.14 1256.37 1209.88 1178.23 1158.13C1100.09 1106.3 1006.37 1062.9 927.032 1039.76C847.699 1016.63 782.913 1013.69 731.084 1021.56C679.255 1029.35 640.542 1047.87 610.415 1081.74C580.287 1115.6 558.904 1164.81 536.884 1225.86C514.865 1286.92 492.289 1359.81 484.261 1424.68C476.152 1489.47 482.512 1546.23 492.607 1597.43C502.703 1648.62 516.614 1694.33 533.705 1732.01C550.796 1769.61 571.066 1799.11 587.521 1821.44C603.976 1843.7 616.774 1858.81 628.301 1871.21C639.906 1883.69 650.32 1893.47 684.104 1905.63L684.184 1905.55ZM696.346 1168.78C690.861 1185 667.093 1213.38 651.194 1270.06C635.296 1326.74 627.188 1411.88 636.409 1474.92C645.709 1537.96 672.26 1579.06 700.638 1613.24C729.017 1647.43 759.065 1674.62 791.816 1692.26C824.487 1709.91 859.782 1718.02 908.431 1713.97C957.08 1709.91 1019 1693.69 1072.82 1670.88C1126.64 1647.98 1172.35 1618.49 1201.84 1585.5C1231.33 1552.51 1244.68 1516.02 1253.67 1484.22C1262.65 1452.42 1267.26 1425.16 1271.63 1404.33C1276 1383.5 1279.98 1369.03 1288.4 1363.79C1296.75 1358.54 1309.55 1362.59 1321.08 1373.64C1332.68 1384.62 1343.09 1402.58 1351.76 1421.1C1360.42 1439.63 1367.34 1458.71 1370.28 1478.74C1373.14 1498.69 1372.03 1519.52 1358.12 1554.82C1344.21 1590.11 1317.58 1639.88 1279.74 1679.86C1241.82 1719.77 1192.62 1749.9 1139.12 1779.39C1085.62 1808.88 1027.67 1837.82 973.058 1856.34C918.368 1874.87 866.857 1882.97 822.897 1882.42C778.938 1881.86 742.451 1872.56 707.395 1849.74C672.419 1826.85 638.794 1790.44 611.607 1755.14C584.421 1719.85 563.594 1685.67 550.557 1635.66C537.52 1585.58 532.353 1519.6 536.646 1463.16C540.939 1406.71 554.85 1359.81 566.456 1321.1C577.982 1282.3 587.283 1251.62 598.57 1228.49C609.858 1205.35 623.133 1189.69 636.488 1176.97C649.763 1164.25 663.118 1154.4 676.155 1151.53C689.192 1148.67 701.91 1152.65 696.425 1168.86L696.346 1168.78Z" fill="#2B2A29"/>
<path fill-rule="evenodd" clip-rule="evenodd" d="M1827.76 1626.15C1814.72 1596.03 1796.84 1557.87 1792.46 1518.76C1788.09 1479.64 1797.39 1439.74 1830.94 1397.21C1864.49 1354.68 1922.36 1309.52 1981.42 1260.08C2040.48 1210.55 2100.66 1156.73 2167.19 1114.2C2233.73 1071.67 2306.7 1040.43 2374.43 1026.2C2442.16 1012.05 2504.64 1014.91 2553.84 1029.94C2603.05 1044.96 2638.9 1072.15 2671.89 1116.75C2704.88 1161.34 2734.93 1223.27 2748.6 1303.08C2762.19 1382.98 2759.33 1480.76 2749.79 1566.14C2740.25 1651.51 2724.03 1724.41 2685.56 1781.41C2647.09 1838.41 2586.27 1879.51 2535.08 1902.64C2483.89 1925.77 2442.16 1931.02 2386.91 1928.72C2331.66 1926.41 2262.74 1916.55 2195.65 1897.16C2128.48 1877.76 2063.14 1848.82 2007.01 1814.4C1950.89 1779.98 1903.99 1740.07 1876.49 1709.07C1848.98 1678.07 1840.88 1656.12 1827.84 1626L1827.76 1626.15ZM1885.95 1576.07C1899.22 1602.94 1920.69 1649.84 1957.97 1690.39C1995.33 1730.93 2048.51 1765.03 2095.41 1793.65C2142.31 1822.27 2182.77 1845.48 2245.33 1857.88C2307.81 1870.37 2392.31 1872.03 2445.89 1861.38C2499.39 1850.65 2521.97 1827.52 2553.29 1799.14C2584.53 1770.76 2624.43 1737.21 2651.94 1683.95C2679.44 1630.69 2694.46 1557.79 2701.7 1497.29C2708.93 1436.8 2708.37 1388.78 2698.52 1341.88C2688.66 1294.98 2669.58 1249.27 2651.62 1213.41C2633.65 1177.56 2616.88 1151.49 2596.37 1138.77C2575.78 1126.05 2551.54 1126.6 2542.24 1137.02C2532.94 1147.43 2538.74 1167.7 2551.46 1192.03C2564.18 1216.35 2583.89 1244.65 2596.93 1279.95C2609.96 1315.25 2616.32 1357.54 2608.53 1413.66C2600.74 1469.79 2578.72 1539.82 2553.29 1589.35C2527.85 1638.79 2498.83 1667.73 2470.53 1685.14C2442.16 1702.47 2414.41 1708.27 2382.62 1705.73C2350.74 1703.11 2314.89 1692.14 2275.86 1678.78C2236.75 1665.43 2194.54 1649.84 2155.51 1630.45C2116.4 1611.05 2080.54 1587.92 2050.74 1565.34C2020.93 1542.76 1997.16 1520.74 1986.51 1497.37C1975.77 1473.92 1978.08 1449.04 1975.22 1426.46C1972.36 1403.88 1964.25 1383.61 1954.39 1375.82C1944.53 1368.03 1933.01 1372.64 1917.35 1387.43C1901.69 1402.22 1882.05 1427.1 1867.03 1448.48C1852 1469.87 1841.59 1487.83 1841.59 1501.74C1841.59 1515.66 1852 1525.43 1859.79 1533.86C1867.59 1542.21 1872.83 1549.2 1886.11 1576.15L1885.95 1576.07Z" fill="#2B2A29"/>
<path fill-rule="evenodd" clip-rule="evenodd" d="M69.0273 4829.42C69.0273 4938.25 73.7969 5013.06 92.0006 5118.71C118.392 5271.9 176.58 5441.78 261.16 5584.87C272.527 5604.11 285.167 5631.61 307.266 5644.25C331.113 5657.85 352.179 5663.01 383.737 5663.01C430.24 5663.01 658.939 5569.53 701.626 5551.24C823.886 5498.94 942.25 5443.45 1052.74 5379.77L1150.2 5321.82C1156.24 5318.24 1158.87 5315.46 1165.23 5312.04C1187.56 5299.88 1205.45 5283.9 1226.43 5270.7L1270.63 5239.22C1280.49 5231.67 1290.66 5225.63 1300.52 5218.08C1338.52 5188.82 1375.88 5157.82 1409.43 5125.86L1452.67 5083.49C1455.77 5080.15 1455.61 5078.01 1461.41 5078.01H1759.59C1766.74 5078.01 1780.81 5096.05 1785.42 5100.58C1814.2 5128.88 1842.42 5158.38 1876.28 5183.66C1902.44 5203.21 1917.06 5216.81 1948.3 5239.22C1954.11 5243.36 1955.78 5246.06 1961.58 5250.27C1979.38 5263.07 2020.32 5291.85 2037.49 5301.55L2068.5 5321.9C2103.63 5346.94 2196.16 5397.18 2233.12 5416.9C2341.47 5474.69 2456.34 5525.57 2573.83 5573.9L2632.25 5596.71C2685.2 5615.79 2736.71 5636.54 2791.32 5653.24C2809.28 5658.72 2825.34 5662.14 2840.6 5663.01H2856.18C2875.42 5661.82 2893.94 5656.1 2914.45 5644.89C2937.66 5632.09 2949.59 5604.9 2961.11 5585.98C2965.72 5578.27 2969.06 5571.83 2973.44 5564.04C3016.6 5487.49 3048.4 5408.55 3076.93 5327.54C3100.86 5259.57 3118.83 5189.62 3130.83 5118.71C3161.35 4938.97 3161.35 4778.31 3130.83 4598.57C3110.32 4477.65 3071.21 4359.52 3019.94 4244.57C3016.76 4237.42 3013.18 4229.31 3009.05 4221.6C2992.83 4191.79 2979.08 4161.02 2961.11 4131.37C2946.57 4107.36 2939.41 4090.99 2912.78 4072.15C2881.38 4049.89 2833.77 4050.84 2795.45 4062.61C2754.51 4075.17 2715.96 4090.83 2676.05 4104.98L2598.55 4134.71C2586.15 4139.24 2573.35 4144.89 2560.71 4150.21C2553.72 4153.15 2549.26 4154.74 2542.43 4157.68C2437.66 4202.28 2335.59 4249.03 2238.13 4301.09L2115.63 4370.41C2111.5 4372.8 2110.79 4372.88 2106.57 4375.66L2011.98 4435.68C1991.15 4448.72 1971.99 4464.06 1952.36 4478.05C1917.78 4502.62 1884.63 4528.69 1853.87 4555.72L1813.64 4591.49C1808.87 4595.71 1768.49 4639.27 1761.58 4639.27H1461.33C1454.74 4639.27 1440.19 4620.83 1435.82 4616.45C1406.8 4588.07 1377.31 4559.69 1344.64 4533.62L1317.93 4511.68C1294.4 4492.68 1267.29 4476.86 1244.32 4457.3C1232.63 4447.29 1198.85 4426.22 1184.3 4416.68L1113.63 4371.93C1110.46 4370.1 1109.18 4368.98 1106 4367.16C951.55 4278.2 803.695 4203.55 629.289 4135.82C602.818 4125.57 579.049 4115.79 551.784 4106.09L472.291 4077.79C433.976 4064.2 412.513 4054.42 369.428 4054.42C335.406 4054.42 304.086 4071.11 289.3 4089.56C284.531 4095.44 278.648 4104.03 275.151 4110.23C249.793 4154.74 223.64 4198.78 203.131 4244.73C120.459 4429.96 69.1863 4635.37 69.1863 4829.5L69.0273 4829.42ZM1304.26 4926.17C1304.5 4926.01 1304.5 4925.69 1304.42 4901.13C1304.34 4876.56 1304.26 4827.75 1304.18 4803.11C1304.1 4778.39 1304.1 4777.83 1303.94 4777.83C1303.78 4777.83 1303.3 4778.39 1226.2 4778.86C1149.09 4779.26 995.271 4779.58 906.24 4780.06C817.208 4780.45 792.963 4781.09 775.475 4782.68C757.987 4784.27 747.335 4786.89 736.842 4791.34C726.349 4795.72 716.094 4801.84 708.224 4809.47C700.434 4817.1 695.029 4826.16 691.531 4835.23C688.033 4844.29 686.364 4853.35 688.272 4863.76C690.1 4874.18 695.506 4885.86 706.555 4896.68C717.684 4907.49 734.536 4917.42 757.589 4922.43C780.642 4927.44 809.815 4927.44 857.511 4927.28C905.206 4927.12 971.423 4926.88 1042.41 4926.73C1113.4 4926.57 1188.99 4926.57 1233.27 4926.57C1277.55 4926.57 1290.35 4926.57 1296.94 4926.57C1303.54 4926.57 1304.02 4926.57 1304.26 4926.41V4926.17ZM1509.27 4779.18H1715.95V4927.04H1509.27V4779.18ZM1918.57 4926.17C1918.33 4926.01 1918.33 4925.69 1918.41 4901.13C1918.49 4876.56 1918.57 4827.75 1918.65 4803.11C1918.73 4778.39 1918.73 4777.83 1918.89 4777.83C1919.05 4777.83 1919.53 4778.39 1996.63 4778.86C2073.74 4779.26 2227.56 4779.58 2316.59 4780.06C2405.62 4780.45 2429.87 4781.09 2447.36 4782.68C2464.84 4784.27 2475.5 4786.89 2485.99 4791.34C2496.48 4795.72 2506.74 4801.84 2514.61 4809.47C2522.4 4817.1 2527.8 4826.16 2531.3 4835.23C2534.8 4844.29 2536.47 4853.35 2534.56 4863.76C2532.73 4874.18 2527.32 4885.86 2516.28 4896.68C2505.15 4907.49 2488.29 4917.42 2465.24 4922.43C2442.19 4927.44 2413.01 4927.44 2365.32 4927.28C2317.62 4927.12 2251.41 4926.88 2180.42 4926.73C2109.43 4926.57 2033.84 4926.57 1989.56 4926.57C1945.28 4926.57 1932.48 4926.57 1925.89 4926.57C1919.29 4926.57 1918.81 4926.57 1918.57 4926.41V4926.17Z" fill="#5CA595"/>
</svg>
