<svg width="3363" height="5016" viewBox="0 0 3363 5016" fill="none" xmlns="http://www.w3.org/2000/svg">
<path fill-rule="evenodd" clip-rule="evenodd" d="M3221.59 1151.32C3237.77 1279.48 3210.22 1390.87 3198.85 1488.48C3187.47 1586.1 3192.25 1669.93 3206.63 1760.96C3221 1851.99 3244.95 1950.2 3262.32 2062.2C3279.69 2174.19 3290.46 2299.94 3279.69 2374.81C3268.91 2449.67 3236.56 2473.61 3195.85 2496.97C3155.12 2520.33 3106.01 2543.09 3076.07 2576.04C3046.12 2608.97 3035.36 2652.09 3030.56 2698.81C3025.77 2745.51 3026.96 2795.81 3042.54 2863.48C3058.1 2931.16 3088.05 3016.2 3120.39 3098.25C3152.73 3180.29 3187.45 3259.33 3223.98 3314.42C3260.51 3369.52 3298.84 3400.66 3327 3425.21C3355.14 3449.77 3373.1 3467.74 3355.73 3530.62C3338.36 3593.5 3285.67 3701.29 3219.2 3837.84C3152.73 3974.38 3072.48 4139.67 2961.1 4298.97C2849.72 4458.27 2707.18 4611.57 2597.61 4704.39C2488.02 4797.21 2411.36 4829.56 2343.69 4867.89C2276.02 4906.21 2217.34 4950.54 2152.66 4975.09C2087.98 4999.65 2017.32 5004.43 1960.43 4999.65C1903.53 4994.85 1860.42 4980.47 1822.69 4972.69C1784.97 4964.91 1752.62 4963.71 1710.71 4973.3C1668.79 4982.87 1617.28 5003.24 1554.4 5011.62C1491.53 5020 1417.27 5016.42 1331.04 4993.06C1244.81 4969.7 1146.6 4926.58 1083.72 4897.24C1020.85 4867.89 993.297 4852.33 975.331 4839.15C957.365 4825.97 948.986 4815.2 860.362 4736.74C771.727 4658.29 602.847 4512.17 456.141 4319.34C309.423 4126.5 184.855 3886.96 107.611 3736.05C30.3542 3585.13 0.409428 3522.83 1.00881 3487.51C1.60517 3452.17 32.7577 3443.78 86.6565 3392.88C140.54 3341.98 217.2 3248.55 263.915 3143.15C310.616 3037.75 327.374 2920.37 339.949 2828.15C352.524 2735.92 360.915 2668.85 355.524 2620.34C350.132 2571.83 330.97 2541.9 305.821 2519.14C280.671 2496.37 249.53 2480.81 213.598 2476.62C177.665 2472.42 136.953 2479.62 115.402 2460.46C93.837 2441.28 91.4334 2395.77 89.045 2319.12C86.6535 2242.46 84.2499 2134.66 104.023 2046.63C123.782 1958.6 165.69 1890.32 187.255 1831.64C208.806 1772.94 210.017 1723.84 199.234 1657.97C188.451 1592.09 165.693 1509.44 168.693 1383.68C171.681 1257.93 200.43 1089.04 269.307 926.157C338.172 763.258 447.15 606.362 535.786 494.379C624.409 382.381 692.675 315.306 804.656 249.441C916.637 183.561 1072.34 118.876 1224.45 71.5777C1376.55 24.264 1525.07 -5.682 1718.5 0.905407C1911.92 7.49281 2150.25 50.6106 2316.13 101.524C2482.01 152.425 2575.44 211.106 2691.61 317.712C2807.79 424.306 2946.71 578.811 3046.13 728.535C3145.54 878.247 3205.41 1023.16 3221.58 1151.32L3221.59 1151.32Z" fill="#C5C6C6" stroke="#2B2A29" stroke-width="0.199991" stroke-miterlimit="22.9256"/>
<path fill-rule="evenodd" clip-rule="evenodd" d="M860.37 4736.74C771.735 4658.29 602.855 4512.17 456.149 4319.34C309.431 4126.5 184.863 3886.96 107.619 3736.05C30.3625 3585.13 0.417729 3522.83 1.01711 3487.51C1.61347 3452.17 32.766 3443.78 86.6648 3392.88C140.548 3341.98 217.208 3248.55 263.924 3143.15C310.624 3037.75 327.382 2920.37 339.957 2828.15C352.532 2735.92 360.923 2668.85 355.532 2620.34C350.141 2571.83 330.979 2541.9 305.829 2519.14C280.679 2496.37 249.539 2480.81 213.606 2476.62C177.674 2472.42 136.961 2479.62 115.411 2460.46C93.8453 2441.28 91.4417 2395.77 89.0532 2319.12C86.6618 2242.46 84.2582 2134.66 104.032 2046.63C123.79 1958.6 165.698 1890.32 187.264 1831.64C208.814 1772.94 210.025 1723.84 199.242 1657.97C188.459 1592.09 165.701 1509.44 168.701 1383.68C171.689 1257.93 200.438 1089.04 269.315 926.157C338.18 763.258 447.158 606.362 535.794 494.379C624.417 382.381 692.683 315.306 804.664 249.441C916.645 183.56 1072.35 118.876 1224.46 71.5777C1376.55 24.264 1525.08 -5.682 1718.51 0.905407C1911.93 7.49281 2150.26 50.6106 2316.14 101.524C2482.02 152.425 2575.44 211.106 2691.62 317.712C2807.8 424.306 2946.72 578.811 3046.14 728.535C3145.54 878.247 3205.42 1023.16 3221.59 1151.32C3237.76 1279.49 3210.21 1390.87 3198.84 1488.49C3187.47 1586.1 3192.25 1669.94 3206.62 1760.96C3220.99 1852 3244.95 1950.21 3262.32 2062.21C3279.69 2174.19 3290.45 2299.95 3279.69 2374.82C3268.9 2449.68 3236.55 2473.62 3195.84 2496.98C3155.11 2520.34 3106.01 2543.1 3076.07 2576.04C3046.12 2608.98 3035.35 2652.1 3030.56 2698.81C3025.76 2745.51 3026.96 2795.82 3042.54 2863.49C3058.1 2931.16 3088.04 3016.2 3120.39 3098.26C3152.72 3180.3 3187.45 3259.34 3223.98 3314.43C3260.51 3369.53 3298.84 3400.66 3326.99 3425.22C3355.13 3449.77 3373.1 3467.74 3355.73 3530.63C3338.36 3593.51 3285.67 3701.3 3219.2 3837.85C3152.72 3974.39 3072.48 4139.68 2961.1 4298.98C2849.71 4458.28 2707.18 4611.57 2597.6 4704.4C2488.01 4797.22 2411.35 4829.57 2343.68 4867.89C2276.01 4906.22 2217.34 4950.54 2152.65 4975.1C2087.97 4999.65 2017.32 5004.43 1960.43 4999.65C1903.53 4994.86 1860.41 4980.48 1822.69 4972.69C1784.96 4964.91 1752.61 4963.72 1710.71 4973.3C1668.79 4982.88 1617.28 5003.25 1554.4 5011.63C1491.53 5020.01 1417.27 5016.43 1331.04 4993.07C1244.81 4969.71 1146.6 4926.59 1083.72 4897.24C1020.85 4867.9 993.293 4852.33 975.327 4839.16C957.361 4825.97 948.982 4815.2 860.358 4736.75L860.37 4736.74ZM597.855 2655.26C592.166 2674.12 585.578 2695.07 573.901 2701.07C562.224 2707.05 545.465 2698.08 531.098 2690.89C516.716 2683.7 504.741 2678.32 498.452 2651.38C492.163 2624.42 491.555 2575.91 496.048 2539.68C500.542 2503.44 510.117 2479.49 556.534 2464.52C602.951 2449.54 686.18 2443.55 774.22 2418.1C862.244 2392.65 955.063 2347.73 1036.51 2305.52C1117.95 2263.3 1188.01 2223.77 1198.5 2210.59C1208.98 2197.42 1159.88 2210.59 1088.32 2233.05C1016.76 2255.5 922.73 2287.25 825.417 2307.31C728.104 2327.37 627.502 2335.76 539.478 2335.76C451.438 2335.76 375.974 2327.37 333.768 2317.8C291.546 2308.21 282.559 2297.44 274.478 2277.38C266.397 2257.31 259.201 2227.96 263.098 2145.62C266.996 2063.27 281.962 1927.93 299.329 1824.92C316.699 1721.91 336.457 1651.25 339.457 1593.77C342.445 1536.27 328.675 1491.94 316.997 1450.33C305.32 1408.71 295.745 1369.77 317.31 1269.17C338.861 1168.56 391.552 1006.26 454.143 870.319C516.719 734.378 589.169 624.784 665.826 539.145C742.471 453.505 823.326 391.824 912.859 335.233C1002.38 278.631 1100.59 227.133 1195.51 189.705C1290.42 152.265 1382.05 128.918 1475.48 117.241C1568.89 105.563 1664.1 105.563 1772.79 112.747C1881.49 119.93 2003.65 134.313 2131.81 164.557C2259.96 194.802 2394.09 240.907 2494.7 296.616C2595.3 352.309 2662.37 417.577 2728.25 486.458C2794.13 555.326 2858.79 627.775 2915.39 726.601C2971.98 825.412 3020.49 950.57 3047.45 1046.4C3074.39 1142.22 3079.77 1208.68 3078.57 1275.46C3077.38 1342.23 3069.6 1409.31 3062.41 1451.83C3055.23 1494.35 3048.63 1512.32 3047.73 1538.67C3046.83 1565.02 3051.63 1599.75 3055.83 1627.9C3060.02 1656.05 3063.6 1677.6 3071.4 1715.64C3079.18 1753.67 3091.15 1808.15 3104.63 1885.41C3118.1 1962.66 3133.07 2062.68 3138.76 2131.55C3144.45 2200.41 3140.86 2238.15 3133.98 2262.41C3127.08 2286.67 3116.91 2297.43 3087.26 2305.53C3057.62 2313.61 3008.51 2319 2939.35 2319C2870.17 2319 2780.95 2313.61 2691.42 2300.73C2601.89 2287.86 2512.07 2267.49 2442.31 2252.22C2372.54 2236.95 2322.84 2226.78 2284.81 2220.78C2246.79 2214.8 2220.43 2212.99 2215.35 2220.78C2210.25 2228.56 2226.42 2245.94 2249.18 2260.32C2271.94 2274.69 2301.27 2286.05 2384.81 2310.61C2468.35 2335.16 2606.08 2372.9 2689.93 2397.75C2773.77 2422.61 2803.7 2434.58 2828.85 2447.76C2854 2460.93 2874.37 2475.31 2890.84 2495.97C2907.3 2516.62 2919.88 2543.58 2918.98 2575.02C2918.08 2606.46 2903.7 2642.39 2887.24 2664.26C2870.77 2686.11 2852.21 2693.89 2836.04 2690.9C2819.87 2687.9 2806.1 2674.13 2798.92 2653.18C2791.73 2632.21 2791.12 2604.07 2782.74 2605.26C2774.35 2606.46 2758.19 2637 2744.72 2655.57C2731.23 2674.13 2720.46 2680.72 2697.41 2690.6C2674.35 2700.48 2639.03 2713.66 2612.98 2722.95C2586.92 2732.23 2570.16 2737.61 2558.48 2748.69C2546.81 2759.77 2540.2 2776.53 2534.51 2784.62C2528.83 2792.7 2524.05 2792.1 2513.86 2776.84C2503.67 2761.56 2488.11 2731.62 2479.13 2693.29C2470.14 2654.96 2467.74 2608.25 2462.36 2588.49C2456.97 2568.72 2448.58 2575.92 2439.3 2604.67C2430.02 2633.4 2419.84 2683.72 2415.35 2722.64C2410.86 2761.56 2412.06 2789.12 2398.29 2803.19C2384.51 2817.26 2355.77 2817.85 2321.63 2820.56C2287.49 2823.25 2247.98 2828.04 2217.73 2826.85C2187.49 2825.65 2166.52 2818.46 2153.65 2785.22C2140.78 2751.98 2136 2692.7 2133.01 2650.48C2130.01 2608.25 2128.8 2583.1 2124.02 2594.19C2119.22 2605.27 2110.83 2652.57 2104.54 2694.19C2098.26 2735.82 2094.07 2771.75 2089.88 2796.6C2085.68 2821.46 2081.5 2835.23 2059.04 2843.32C2036.58 2851.4 1995.87 2853.79 1959.04 2860.09C1922.21 2866.38 1889.26 2876.55 1854.24 2878.36C1819.2 2880.15 1782.06 2873.55 1764.1 2854.09C1746.13 2834.63 1747.34 2802.29 1753.03 2743.61C1758.72 2684.92 1768.89 2599.88 1771.59 2551.07C1774.28 2502.26 1769.5 2489.68 1762.01 2498.67C1754.52 2507.65 1744.35 2538.19 1732.67 2575.32C1720.99 2612.45 1707.81 2656.16 1698.53 2701.99C1689.24 2747.8 1683.86 2795.71 1679.97 2826.85C1676.07 2857.99 1673.68 2872.37 1664.7 2881.66C1655.71 2890.93 1640.14 2895.12 1596.42 2892.73C1552.71 2890.32 1480.84 2881.35 1431.44 2871.16C1382.03 2860.97 1355.08 2849.61 1337.72 2833.43C1320.35 2817.26 1312.56 2796.3 1307.18 2757.08C1301.79 2717.85 1298.79 2660.35 1296.4 2641.79C1294.01 2623.22 1292.2 2643.59 1290.11 2672.34C1288.02 2701.08 1285.62 2738.21 1280.84 2766.96C1276.04 2795.69 1268.85 2816.06 1254.48 2828.04C1240.11 2840.02 1218.55 2843.61 1185.32 2838.53C1152.09 2833.43 1107.16 2819.65 1070.93 2805.58C1034.7 2791.51 1007.16 2777.13 992.495 2747.8C977.815 2718.45 976.008 2674.14 972.424 2640.91C968.824 2607.66 963.448 2585.51 959.861 2588.51C956.262 2591.5 954.457 2619.64 949.376 2651.09C944.283 2682.53 935.892 2717.25 923.615 2739.42C911.338 2761.57 895.179 2771.16 882.604 2773.85C870.015 2776.54 861.039 2772.35 836.486 2765.17C811.932 2757.97 771.804 2747.8 746.654 2734.63C721.505 2721.44 711.333 2705.28 695.457 2687.91C679.581 2670.54 658.031 2651.98 643.366 2637.61C628.685 2623.22 620.89 2613.05 614.604 2616.35C608.316 2619.64 603.536 2636.4 597.846 2655.28L597.855 2655.26ZM2616.76 3257.97C2652.39 3248.39 2724.55 3226.53 2767.52 3209.46C2810.48 3192.4 2824.25 3180.12 2831.59 3166.05C2838.92 3151.96 2839.83 3136.1 2831.9 3090.15C2823.96 3044.18 2807.2 2968.11 2797.17 2919.31C2787.13 2870.5 2783.84 2848.94 2773.81 2842.66C2763.77 2836.37 2747.01 2845.35 2726.06 2857.32C2705.09 2869.3 2679.93 2884.28 2661.37 2902.4C2642.8 2920.51 2630.82 2941.77 2620.65 2969.77C2610.47 2997.77 2602.08 3032.5 2597.15 3063.95C2592.2 3095.39 2590.71 3123.53 2590.26 3149.14C2589.81 3174.74 2590.41 3197.79 2589.36 3216.2C2588.32 3234.62 2585.62 3248.4 2583.82 3256.63C2582.03 3264.86 2581.12 3267.56 2616.75 3257.97H2616.76ZM2250.19 3354.68C2273.84 3352.29 2318.76 3331.92 2367.86 3319.94C2416.97 3307.96 2470.26 3304.38 2496.02 3287.31C2521.77 3270.24 2519.96 3239.7 2517.27 3179.21C2514.58 3118.72 2510.98 3028.3 2506.2 2978.3C2501.41 2928.28 2495.42 2918.71 2480.46 2913.31C2465.48 2907.92 2441.52 2906.72 2420.27 2910.31C2399 2913.91 2380.44 2922.29 2357.69 2944.16C2334.93 2966.02 2307.98 3001.35 2288.52 3028.3C2269.06 3055.25 2257.08 3073.81 2247.8 3104.36C2238.52 3134.9 2231.93 3177.42 2228.05 3216.35C2224.15 3255.28 2222.94 3290.6 2223.54 3316.06C2224.13 3341.51 2226.54 3357.07 2250.2 3354.69L2250.19 3354.68ZM1792.97 3429.54C1833.68 3426.54 1909.15 3421.16 1972.32 3416.66C2035.49 3412.17 2086.41 3408.58 2113.96 3398.4C2141.5 3388.21 2145.68 3371.45 2146.59 3325.65C2147.49 3279.83 2145.09 3204.96 2139.41 3138.79C2133.72 3072.61 2124.73 3015.11 2111.85 2984.87C2098.98 2954.63 2082.22 2951.64 2064.85 2953.43C2047.48 2955.22 2029.52 2961.82 2004.07 2971.71C1978.62 2981.58 1945.68 2994.75 1914.83 3024.4C1883.99 3054.05 1855.26 3100.15 1832.2 3144.48C1809.14 3188.8 1791.78 3231.3 1779.2 3263.05C1766.63 3294.79 1758.83 3315.75 1753.45 3339.4C1748.06 3363.06 1745.06 3389.42 1743.27 3405.59C1741.48 3421.75 1740.88 3427.73 1743.58 3430.43C1746.27 3433.12 1752.25 3432.52 1792.97 3429.53V3429.54ZM1328.88 3405.88C1385.17 3406.78 1489.96 3404.97 1556.43 3406.78C1622.91 3408.57 1651.04 3413.96 1664.23 3404.09C1677.4 3394.2 1675.6 3369.05 1667.22 3322.05C1658.83 3275.03 1643.86 3206.15 1616.92 3152.56C1589.96 3098.96 1551.03 3060.62 1510.62 3028.89C1470.19 2997.15 1428.28 2972 1397.44 2957.33C1366.6 2942.65 1346.83 2938.47 1327.97 2940.26C1309.1 2942.05 1291.14 2949.85 1280.67 2968.71C1270.18 2987.58 1267.18 3017.52 1265.69 3062.45C1264.2 3107.36 1264.2 3167.23 1262.11 3222.93C1260 3278.62 1255.82 3330.13 1254.62 3358.58C1253.42 3387.02 1255.22 3392.41 1260.02 3396.91C1264.8 3401.39 1272.59 3404.99 1328.88 3405.88L1328.88 3405.88ZM913.29 3301.97C946.819 3315.75 1012.08 3334.31 1054.3 3345.99C1096.52 3357.67 1115.68 3362.46 1130.96 3363.36C1146.23 3364.26 1157.6 3361.27 1164.79 3346C1171.97 3330.73 1174.96 3303.17 1174.06 3267.25C1173.17 3231.32 1168.39 3186.99 1157.6 3142.68C1146.82 3098.36 1130.05 3054.04 1110.59 3019.01C1091.13 2983.98 1068.97 2958.23 1044.73 2936.68C1020.47 2915.11 994.116 2897.74 975.255 2890.56C956.391 2883.37 945.012 2886.36 936.334 2901.94C927.642 2917.51 921.654 2945.65 915.368 2996.26C909.079 3046.86 902.495 3119.92 895.908 3169.32C889.321 3218.73 882.737 3244.49 880.345 3261.86C877.942 3279.21 879.749 3288.2 913.29 3301.97ZM775.548 3246.88C751.594 3247.47 707.866 3226.52 675.831 3211.55C643.796 3196.58 623.427 3187.58 609.656 3176.22C595.885 3164.84 588.702 3151.05 586.313 3098.66C583.91 3046.25 586.313 2955.24 594.693 2896.85C603.072 2838.46 617.454 2812.7 637.212 2804.91C656.971 2797.13 682.12 2807.3 707.869 2826.78C733.616 2846.24 759.976 2874.97 776.15 2901.63C792.309 2928.28 798.3 2952.83 801.896 3002.54C805.481 3052.24 806.691 3127.11 805.197 3175.62C803.691 3224.13 799.508 3246.28 775.554 3246.88H775.548ZM2270.94 3919.1C2288.46 3914.9 2319.3 3908.3 2363.17 3884.96C2407.03 3861.6 2463.93 3821.47 2494.62 3773.27C2525.31 3725.06 2529.79 3668.76 2527.25 3600.34C2524.7 3531.92 2515.12 3451.36 2503.59 3409.75C2492.06 3368.13 2478.6 3365.42 2448.2 3369.17C2417.81 3372.92 2370.5 3383.09 2334.56 3388.48C2298.63 3393.87 2274.08 3394.47 2258.82 3407.94C2243.54 3421.42 2237.55 3447.77 2235.16 3497.93C2232.76 3548.08 2233.96 3622.05 2236.52 3691.07C2239.06 3760.09 2242.94 3824.17 2244.6 3862.65C2246.24 3901.12 2245.65 3914.01 2247.45 3919.55C2249.24 3925.09 2253.43 3923.28 2270.95 3919.1H2270.94ZM1751.25 4030.45C1759.33 4034.94 1769.5 4039.74 1796.46 4036.15C1823.4 4032.55 1867.12 4020.58 1919.52 3992.14C1971.91 3963.68 2033 3918.76 2070.42 3871.16C2107.85 3823.55 2121.63 3773.23 2126.13 3711.85C2130.61 3650.47 2125.81 3578.02 2122.53 3531.91C2119.23 3485.79 2117.42 3466.02 2093.18 3461.54C2068.93 3457.04 2022.22 3467.81 1980.61 3474.71C1938.98 3481.59 1902.45 3484.58 1867.72 3486.09C1832.98 3487.58 1800.05 3487.58 1779.39 3496.27C1758.72 3504.95 1750.33 3522.31 1746.15 3538.18C1741.95 3554.05 1741.95 3568.43 1740.16 3640.3C1738.37 3712.15 1734.77 3841.52 1732.98 3913.99C1731.18 3986.44 1731.18 4002.01 1734.18 4011.9C1737.17 4021.78 1743.16 4025.96 1751.25 4030.45V4030.45ZM1620.99 4043.93C1591.05 4041.54 1537.15 4033.15 1493.74 4015.79C1450.32 3998.42 1417.38 3972.06 1381.16 3926.86C1344.93 3881.63 1305.4 3817.56 1280.55 3766.66C1255.69 3715.75 1245.52 3678.02 1241.63 3630.11C1237.73 3582.19 1240.13 3524.11 1240.13 3493.27C1240.13 3462.41 1237.73 3458.83 1252.41 3458.23C1267.07 3457.64 1298.81 3460.02 1353.62 3462.73C1408.43 3465.43 1486.31 3468.44 1541.7 3472.34C1597.09 3476.22 1630 3480.99 1646.16 3497.17C1662.3 3513.33 1661.7 3540.87 1661.7 3630.7C1661.7 3720.54 1662.3 3872.65 1662.6 3951.11C1662.9 4029.56 1662.9 4034.34 1659.91 4038.54C1656.91 4042.74 1650.94 4046.32 1620.99 4043.93H1620.99ZM854.151 3431.57C853.253 3475.59 850.253 3554.34 856.093 3613.04C861.933 3671.72 876.614 3710.35 905.808 3748.53C934.991 3786.7 978.719 3824.45 1016.74 3852.6C1054.76 3880.74 1087.11 3899.3 1110.32 3906.63C1133.51 3913.97 1147.6 3910.08 1157.63 3897.36C1167.65 3884.62 1173.63 3863.07 1175.28 3782.97C1176.93 3702.86 1174.22 3564.23 1170.79 3494.77C1167.34 3425.29 1163.16 3424.99 1141.91 3423.64C1120.64 3422.3 1082.3 3419.9 1035.3 3408.22C988.291 3396.54 932.6 3375.58 900.712 3367.5C868.828 3359.41 860.732 3364.2 857.298 3371.24C853.849 3378.27 855.045 3387.56 854.148 3431.57H854.151ZM749.055 3766.51C729.296 3763.06 696.65 3754.67 661.031 3727.43C625.396 3700.17 586.762 3654.06 565.959 3619.47C545.14 3584.88 542.152 3561.84 539.764 3493.72C537.36 3425.59 535.553 3312.41 537.658 3257.76C539.749 3203.11 545.739 3206.99 562.212 3217.33C578.684 3227.66 605.626 3244.42 640.811 3262.09C675.997 3279.76 719.411 3298.32 748.907 3308.66C778.403 3318.98 793.966 3321.08 800.402 3330.22C806.839 3339.35 804.149 3355.51 800.104 3422.29C796.056 3489.06 790.68 3606.45 787.541 3672.33C784.391 3738.19 783.481 3752.58 779.596 3760.51C775.698 3768.44 768.813 3769.95 749.055 3766.51ZM2631.79 3759.6C2644.07 3764.23 2666.81 3761.54 2697.96 3742.08C2729.1 3722.61 2768.62 3686.39 2797.97 3658.7C2827.31 3630.99 2846.47 3611.82 2854.72 3557.02C2862.95 3502.22 2860.24 3411.8 2856.96 3352.96C2853.66 3294.11 2849.78 3266.87 2847.68 3250.4C2845.58 3233.92 2845.28 3228.23 2823.43 3237.37C2801.57 3246.5 2758.14 3270.45 2721.01 3287.37C2683.88 3304.3 2653.04 3314.17 2634.03 3326C2615.02 3337.83 2607.83 3351.61 2605.59 3372.12C2603.34 3392.63 2606.04 3419.88 2608.58 3480.82C2611.12 3541.75 2613.52 3636.37 2615.62 3689.67C2617.71 3742.98 2619.51 3754.95 2631.79 3759.6H2631.79ZM2862.33 3107.27C2873.4 3118.04 2900.06 3112.37 2924.76 3107.27C2949.46 3102.18 2972.21 3097.69 2982.1 3082.87C2991.98 3068.04 2988.98 3042.89 2983.6 3024.03C2978.21 3005.16 2970.42 2992.59 2968.33 2973.87C2966.24 2955.16 2969.82 2930.31 2969.22 2901.87C2968.63 2873.42 2963.83 2841.37 2957.55 2820.41C2951.26 2799.45 2943.48 2789.57 2933.31 2785.08C2923.12 2780.58 2910.53 2781.48 2896.17 2790.92C2881.78 2800.34 2865.62 2818.31 2856.2 2837.93C2846.76 2857.54 2844.06 2878.8 2845.87 2913.09C2847.66 2947.38 2853.95 2994.68 2854.84 3031.96C2855.74 3069.23 2851.26 3096.49 2862.34 3107.27H2862.33ZM2904.51 3535.01C2910.8 3541.15 2922.78 3548.03 2933.26 3549.67C2943.73 3551.32 2952.72 3547.73 2965.89 3538.6C2979.07 3529.46 2996.44 3514.78 3007.52 3495.92C3018.6 3477.05 3023.38 3454.01 3023.08 3410C3022.78 3365.97 3017.4 3301 3013.21 3258.33C3009.01 3215.66 3006.02 3195.29 3000.18 3183.46C2994.34 3171.63 2985.65 3168.35 2973.52 3165.66C2961.4 3162.96 2945.83 3160.85 2933.41 3159.8C2920.98 3158.76 2911.69 3158.76 2903.76 3162.8C2895.83 3166.84 2889.23 3174.93 2887.44 3213.55C2885.65 3252.18 2888.64 3321.36 2890.44 3374.96C2892.23 3428.55 2892.83 3466.59 2893.73 3487.86C2894.63 3509.11 2895.83 3513.59 2896.73 3518.53C2897.63 3523.48 2898.22 3528.87 2904.51 3535.01H2904.51ZM502.672 3117.14C492.338 3115.94 472.579 3110.85 457.017 3108.46C441.442 3106.05 430.06 3106.35 420.186 3104.86C410.301 3103.36 401.907 3100.06 398.473 3087.94C395.025 3075.81 396.531 3054.85 404.163 3021.01C411.795 2987.17 425.566 2940.47 433.659 2902.89C441.74 2865.3 444.128 2836.86 448.773 2813.35C453.417 2789.84 460.303 2771.28 474.371 2764.39C488.44 2757.51 509.708 2762.3 526.478 2773.23C543.237 2784.16 555.513 2801.22 561.052 2828.48C566.594 2855.72 565.398 2893.15 563.157 2941.96C560.905 2990.76 557.616 3050.95 554.48 3083.9C551.33 3116.83 548.33 3122.52 541.743 3122.82C535.155 3123.12 524.984 3118.03 519.445 3116.83C513.903 3115.64 512.994 3118.33 502.675 3117.13L502.672 3117.14ZM495.175 3488.44C498.012 3427.65 504.614 3309.37 509.704 3244.4C514.783 3179.42 518.382 3167.74 507.75 3160.7C497.118 3153.67 472.266 3151.26 450.116 3150.07C427.954 3148.87 408.494 3148.87 400.862 3160.4C393.23 3171.93 397.413 3194.98 399.07 3247.24C400.714 3299.48 399.802 3380.94 400.103 3429.9C400.401 3478.86 401.91 3495.31 410.75 3512.83C419.578 3530.35 435.737 3548.92 450.267 3560.9C464.784 3572.87 477.657 3578.27 484.693 3576.32C491.729 3574.37 492.937 3565.09 493.085 3558.8C493.235 3552.52 492.326 3549.22 495.175 3488.44V3488.44ZM222.871 3650.71C269.872 3734.84 350.129 3901.33 434.867 4042.36C519.605 4183.39 608.825 4298.98 725.601 4418.46C842.374 4537.93 986.703 4661.29 1106.48 4743.05C1226.24 4824.79 1321.45 4864.9 1391.82 4878.99C1462.18 4893.06 1507.7 4881.08 1551.41 4866.41C1595.12 4851.73 1637.05 4834.38 1675.98 4824.5C1714.9 4814.62 1750.83 4812.21 1784.97 4822.1C1819.1 4831.97 1851.43 4854.13 1884.68 4869.71C1917.91 4885.27 1952.03 4894.25 2009.23 4886.47C2066.42 4878.69 2146.67 4854.13 2229.02 4815.21C2311.36 4776.28 2395.78 4722.99 2472.14 4659.81C2548.49 4596.62 2616.76 4523.56 2682.33 4447.81C2747.9 4372.04 2810.79 4293.58 2888.64 4182.79C2966.48 4072 3059.31 3928.86 3118.9 3821.98C3178.48 3715.08 3204.84 3644.41 3213.51 3589.02C3222.19 3533.62 3213.21 3493.5 3191.96 3462.36C3170.69 3431.21 3137.15 3409.06 3118.29 3393.8C3099.43 3378.52 3095.25 3370.13 3083.57 3404.57C3071.89 3439.01 3052.71 3516.25 3035.36 3569.26C3017.99 3622.26 3002.41 3651 2985.65 3676.15C2968.88 3701.3 2950.92 3722.87 2940.13 3754.01C2929.35 3785.14 2925.77 3825.86 2918.88 3838.45C2911.98 3851.02 2901.81 3835.45 2883.54 3820.48C2865.28 3805.51 2838.92 3791.14 2819.76 3792.04C2800.6 3792.94 2788.62 3809.1 2764.37 3828.58C2740.11 3848.04 2703.58 3870.78 2680.54 3892.35C2657.48 3913.9 2647.89 3934.27 2639.51 3963.92C2631.14 3993.55 2623.94 4032.49 2612.26 4038.48C2600.58 4044.47 2584.42 4017.51 2573.94 3995.66C2563.45 3973.79 2558.67 3957.02 2538.02 3953.43C2517.35 3949.84 2480.82 3959.41 2451.47 3970.49C2422.13 3981.57 2399.98 3994.15 2376.62 4011.82C2353.26 4029.49 2328.71 4052.23 2307.16 4089.06C2285.59 4125.89 2267.03 4176.81 2249.36 4192.68C2231.69 4208.54 2214.94 4189.38 2199.06 4157.04C2183.19 4124.71 2168.22 4079.19 2144.57 4064.52C2120.91 4049.85 2088.58 4066.01 2067.02 4072.3C2045.46 4078.59 2034.68 4075 2011.32 4077.69C1987.96 4080.38 1952.04 4089.37 1913.72 4103.74C1875.38 4118.11 1834.67 4137.88 1810.72 4162.14C1786.76 4186.39 1779.56 4215.13 1769.99 4251.66C1760.4 4288.19 1748.42 4332.52 1734.36 4348.09C1720.27 4363.65 1704.11 4350.47 1685.85 4319.33C1667.58 4288.19 1647.21 4239.08 1625.96 4206.15C1604.71 4173.2 1582.55 4156.45 1546.63 4147.47C1510.69 4138.48 1460.98 4137.27 1410.08 4131.28C1359.18 4125.29 1307.08 4114.52 1275.34 4108.83C1243.6 4103.14 1232.22 4102.54 1226.54 4117.53C1220.85 4132.49 1220.85 4163.04 1217.26 4187.29C1213.66 4211.55 1206.48 4229.51 1189.11 4214.25C1171.74 4198.97 1144.2 4150.46 1122.04 4112.73C1099.88 4075.01 1083.12 4048.05 1044.2 4019.02C1005.27 3989.97 944.181 3958.81 908.549 3948.34C872.915 3937.86 862.744 3948.03 860.355 3974.69C857.952 4001.34 863.343 4044.47 862.147 4075.01C860.952 4105.55 853.157 4123.51 836.401 4102.55C819.631 4081.59 793.87 4021.71 775.304 3972.3C756.741 3922.9 745.359 3883.96 719.014 3852.22C692.656 3820.48 651.344 3795.93 617.815 3779.16C584.274 3762.39 558.525 3753.41 544.456 3766.29C530.372 3779.16 527.984 3813.89 517.798 3824.97C507.611 3836.05 489.66 3823.47 467.51 3791.73C445.348 3760 418.988 3709.08 396.543 3652.49C374.083 3595.9 355.517 3533.62 338.448 3490.5C321.38 3447.39 305.817 3423.43 292.643 3409.36C279.456 3395.28 268.689 3391.1 259.114 3397.08C249.527 3403.07 241.132 3419.23 222.868 3448.58C204.604 3477.93 176.466 3520.45 169.282 3542.61C162.084 3564.76 175.855 3566.57 222.868 3650.71H222.871Z" fill="#2B2A29" stroke="#2B2A29" stroke-width="0.199991" stroke-miterlimit="22.9256"/>
<path fill-rule="evenodd" clip-rule="evenodd" d="M1523.84 2322.98C1536.27 2316.25 1557.24 2304.86 1590.32 2297.38C1623.4 2289.9 1668.62 2286.3 1708 2287.51C1747.37 2288.7 1780.9 2294.69 1811.44 2303.83C1841.98 2312.96 1869.53 2325.23 1890.65 2334.37C1911.76 2343.5 1926.42 2349.49 1939.61 2352.04C1952.78 2354.58 1964.44 2353.67 1970.58 2346.64C1976.72 2339.6 1977.33 2326.43 1972.99 2284.36C1968.64 2242.28 1959.37 2171.33 1932.57 2088.67C1905.76 2006.02 1861.44 1911.71 1813.84 1849.13C1766.23 1786.53 1715.32 1755.69 1684.33 1747.91C1653.34 1740.13 1642.28 1755.39 1609.94 1799.57C1577.59 1843.74 1523.99 1916.8 1486.87 1987.62C1449.74 2058.43 1429.07 2127 1415 2186.44C1400.93 2245.87 1393.45 2296.18 1396.3 2325.23C1399.14 2354.27 1412.32 2362.07 1425.19 2361.47C1438.06 2360.87 1450.64 2351.88 1463.66 2345.89C1476.68 2339.9 1490.17 2336.91 1498.86 2334.38C1507.54 2331.82 1511.42 2329.72 1523.85 2322.98H1523.84ZM1545.56 2232.41C1600.05 2230.91 1700.06 2226.72 1764.44 2226.12C1828.82 2225.51 1857.56 2228.52 1870.28 2224.47C1883.01 2220.42 1879.72 2209.35 1865.65 2179.11C1851.57 2148.86 1826.72 2099.45 1807.56 2076.85C1788.4 2054.24 1774.91 2058.43 1741.38 2057.84C1707.84 2057.24 1654.25 2051.85 1620.72 2052.29C1587.18 2052.74 1573.7 2059.03 1564.87 2067.27C1556.03 2075.5 1551.85 2085.67 1538.82 2109.63C1525.79 2133.59 1503.94 2171.33 1491.51 2193.94C1479.09 2216.54 1476.08 2224.02 1479.09 2228.37C1482.07 2232.7 1491.07 2233.91 1545.56 2232.42L1545.56 2232.41Z" fill="#2B2A29"/>
<path fill-rule="evenodd" clip-rule="evenodd" d="M2282.27 2074.97C2326.73 2093.54 2414.17 2127.96 2488.73 2137.1C2563.28 2146.23 2624.97 2130.07 2681.41 2091.89C2737.85 2053.71 2789.06 1993.52 2818.41 1954.75C2847.74 1915.96 2855.24 1898.59 2835.18 1905.78C2815.11 1912.96 2767.5 1944.71 2735.16 1969.41C2702.81 1994.12 2685.75 2011.79 2653.72 2023.02C2621.67 2034.25 2574.67 2039.03 2544.28 2041.58C2513.89 2044.12 2500.1 2044.42 2476.76 2043.07C2453.4 2041.73 2420.46 2038.73 2385.73 2036.04C2350.99 2033.35 2314.46 2030.95 2283.92 2029.45C2253.38 2027.96 2228.83 2027.35 2211.31 2025.55C2193.79 2023.76 2183.31 2020.76 2181.07 2022.42C2178.81 2024.06 2184.8 2030.35 2195.14 2035.89C2205.47 2041.43 2220.13 2046.21 2228.23 2049.96C2236.31 2053.7 2237.81 2056.39 2282.27 2074.97H2282.27Z" fill="#2B2A29"/>
<path fill-rule="evenodd" clip-rule="evenodd" d="M560.212 1986.93C576.371 2003.39 605.72 2033.03 634.767 2058.48C663.814 2083.93 692.548 2105.2 724.598 2119.27C756.633 2133.34 791.954 2140.23 837.176 2138.14C882.382 2136.04 937.476 2124.96 986.731 2104.45C1035.99 2083.93 1079.4 2054 1106.06 2030.64C1132.7 2007.28 1142.57 1990.51 1138.09 1987.82C1133.6 1985.12 1114.72 1996.5 1091.68 2007.58C1068.62 2018.66 1041.36 2029.43 1014.12 2038.12C986.881 2046.8 959.626 2053.39 922.498 2056.99C885.37 2060.57 838.371 2061.18 805.439 2058.34C772.494 2055.49 753.63 2049.21 727.435 2039.48C701.24 2029.74 667.696 2016.56 640.905 2002.49C614.111 1988.42 594.042 1973.44 577.733 1963.86C561.411 1954.27 548.836 1950.09 542.845 1950.99C536.858 1951.89 537.454 1957.87 539.246 1962.52C541.038 1967.15 544.041 1970.45 560.212 1986.92V1986.93Z" fill="#2B2A29"/>
<path fill-rule="evenodd" clip-rule="evenodd" d="M1935.49 1254.82C1961.84 1238.64 2001.37 1203.32 2050.18 1160.2C2098.97 1117.09 2157.07 1066.17 2207.07 1007.19C2257.07 948.198 2298.99 881.125 2334.62 834.122C2370.26 787.106 2399.59 760.148 2432.54 735.296C2465.47 710.443 2502 687.696 2532.84 673.925C2563.68 660.141 2588.82 655.346 2625.36 652.958C2661.89 650.554 2709.8 650.554 2740.04 650.852C2770.28 651.15 2782.86 651.762 2793.34 650.566C2803.81 649.358 2812.21 646.37 2812.8 642.473C2813.4 638.575 2806.2 633.795 2796.03 628.701C2785.85 623.608 2772.67 618.216 2762.8 610.734C2752.92 603.252 2746.33 593.665 2729.87 580.49C2713.4 567.318 2687.04 550.544 2654.4 535.282C2621.77 520.005 2582.84 506.234 2555.3 499.05C2527.75 491.866 2511.59 491.255 2491.53 496.05C2471.46 500.845 2447.5 511.017 2421.75 528.683C2396.01 546.351 2368.45 571.514 2343.3 598.159C2318.15 624.804 2295.4 652.958 2269.66 688.892C2243.89 724.811 2215.16 768.54 2188.81 813.155C2162.46 857.767 2138.5 903.288 2118.44 943.719C2098.37 984.135 2082.21 1019.46 2060.96 1051.21C2039.69 1082.95 2013.34 1111.08 1980.7 1143.13C1948.07 1175.17 1909.14 1211.1 1891.78 1232.07C1874.41 1253.03 1878.6 1259 1887.29 1263.5C1895.97 1267.99 1909.15 1270.98 1935.5 1254.82H1935.49Z" fill="#2B2A29"/>
<path fill-rule="evenodd" clip-rule="evenodd" d="M1472.27 1244.52C1430.05 1216.36 1358.2 1164.27 1294.72 1111.88C1231.24 1059.47 1176.14 1006.76 1119.86 966.647C1063.57 926.517 1006.07 898.974 964.76 884.607C923.436 870.224 898.271 869.031 865.044 876.215C831.801 883.399 790.489 898.977 761.74 911.851C732.991 924.725 716.832 934.896 701.567 945.083C686.291 955.27 671.909 965.442 660.84 968.442C649.759 971.43 641.964 967.246 643.771 957.361C645.563 947.475 656.942 931.911 667.129 916.646C677.3 901.369 686.291 886.39 715.934 860.64C745.566 834.893 795.88 798.359 833.307 774.702C870.733 751.046 895.287 740.274 916.849 732.792C938.4 725.295 956.965 721.115 988.699 733.988C1020.44 746.862 1065.36 776.808 1114.76 823.227C1164.17 869.631 1218.06 932.508 1277.35 984.915C1336.63 1037.31 1401.31 1079.23 1448.63 1116.36C1495.93 1153.49 1525.87 1185.84 1549.82 1210.39C1573.78 1234.95 1591.74 1251.7 1589.06 1262.19C1586.36 1272.67 1563 1276.85 1545.03 1276.85C1527.07 1276.85 1514.49 1272.67 1472.27 1244.52V1244.52Z" fill="#2B2A29"/>
<path fill-rule="evenodd" clip-rule="evenodd" d="M708.762 1971.56C743.797 1984.13 803.075 1999.11 879.732 1994.92C956.377 1990.72 1050.4 1967.37 1122.27 1943.72C1194.12 1920.06 1243.82 1896.11 1286.94 1871.25C1330.05 1846.4 1366.58 1820.64 1398.93 1787.11C1431.26 1753.56 1459.4 1712.25 1475.87 1663.44C1492.35 1614.64 1497.13 1558.34 1487.55 1509.24C1477.96 1460.13 1454.02 1418.21 1409.71 1366.11C1365.39 1314 1300.72 1251.72 1219.88 1198.14C1139.02 1144.53 1042.02 1099.61 959.985 1075.65C877.934 1051.7 810.864 1048.71 757.263 1056.79C703.663 1064.87 663.549 1084.04 632.409 1119.08C601.256 1154.11 579.107 1205.02 556.348 1268.19C533.587 1331.37 510.244 1406.82 501.865 1473.9C493.474 1540.97 500.058 1599.65 510.543 1652.66C521.012 1705.66 535.394 1752.96 553.062 1791.9C570.715 1830.82 591.684 1861.36 608.753 1884.42C625.81 1907.48 638.996 1923.05 650.975 1935.93C662.953 1948.81 673.721 1958.98 708.756 1971.55L708.762 1971.56ZM721.337 1209.2C715.647 1225.97 691.094 1255.31 674.636 1314C658.164 1372.69 649.773 1460.73 659.36 1526.01C668.947 1591.28 696.488 1633.8 725.834 1669.13C755.179 1704.47 786.319 1732.61 820.159 1750.88C853.986 1769.14 890.518 1777.53 940.817 1773.34C991.117 1769.14 1055.2 1752.38 1110.89 1728.72C1166.58 1705.07 1213.88 1674.53 1244.42 1640.4C1274.97 1606.25 1288.75 1568.51 1298.04 1535.58C1307.31 1502.65 1312.09 1474.5 1316.59 1452.94C1321.08 1431.38 1325.27 1416.41 1333.96 1411.02C1342.63 1405.63 1355.82 1409.82 1367.8 1421.19C1379.78 1432.57 1390.55 1451.14 1399.54 1470.3C1408.51 1489.46 1415.7 1509.23 1418.7 1529.91C1421.69 1550.56 1420.49 1572.11 1406.12 1608.65C1391.74 1645.18 1364.2 1696.69 1324.98 1738.01C1285.75 1779.32 1234.86 1810.47 1179.46 1841.01C1124.07 1871.55 1064.18 1901.5 1007.6 1920.66C950.995 1939.82 897.707 1948.21 852.2 1947.61C806.68 1947 768.956 1937.43 732.725 1913.77C696.494 1890.11 661.769 1852.39 633.62 1815.85C605.467 1779.32 583.917 1743.99 570.447 1692.19C556.963 1640.38 551.583 1572.11 556.08 1513.73C560.562 1455.33 574.944 1406.82 586.92 1366.71C598.883 1326.58 608.47 1294.84 620.15 1270.88C631.816 1246.93 645.598 1230.77 659.369 1217.59C673.14 1204.41 686.922 1194.24 700.395 1191.25C713.867 1188.25 727.038 1192.43 721.349 1209.2L721.337 1209.2Z" fill="#2B2A29"/>
<path fill-rule="evenodd" clip-rule="evenodd" d="M1892.09 1682.36C1878.62 1651.23 1860.06 1611.69 1855.57 1571.28C1851.07 1530.85 1860.66 1489.52 1895.4 1445.51C1930.12 1401.48 1990.01 1354.77 2051.09 1303.58C2112.17 1252.37 2174.45 1196.67 2243.31 1152.66C2312.18 1108.64 2387.64 1076.3 2457.71 1061.63C2527.77 1046.96 2592.44 1049.95 2643.35 1065.53C2694.25 1081.1 2731.38 1109.24 2765.52 1155.36C2799.64 1201.47 2830.78 1265.55 2844.86 1348.2C2858.93 1430.84 2855.93 1532.04 2846.06 1620.38C2836.17 1708.71 2819.42 1784.18 2779.6 1843.17C2739.77 1902.15 2676.88 1944.66 2623.89 1968.61C2570.89 1992.57 2527.77 1997.96 2470.58 1995.57C2413.38 1993.17 2342.13 1983 2272.67 1962.94C2203.2 1942.87 2135.53 1912.92 2077.44 1877.29C2019.35 1841.65 1970.84 1800.34 1942.41 1768.3C1913.96 1736.25 1905.56 1713.51 1892.09 1682.37L1892.09 1682.36ZM1952.28 1630.57C1966.05 1658.41 1988.2 1706.92 2026.84 1748.84C2065.46 1790.76 2120.55 1826.09 2169.06 1855.73C2217.57 1885.38 2259.49 1909.34 2324.17 1922.21C2388.84 1935.08 2476.28 1936.89 2531.67 1925.81C2587.06 1914.73 2610.41 1890.77 2642.76 1861.42C2675.09 1832.08 2716.4 1797.35 2744.85 1742.25C2773.3 1687.16 2788.86 1611.69 2796.36 1549.11C2803.84 1486.53 2803.24 1436.81 2793.07 1388.3C2782.88 1339.8 2763.11 1292.49 2744.55 1255.36C2725.98 1218.23 2708.61 1191.28 2687.36 1178.1C2666.1 1164.93 2640.95 1165.53 2631.37 1176.31C2621.79 1187.1 2627.77 1208.05 2640.95 1233.21C2654.12 1258.36 2674.49 1287.7 2687.96 1324.23C2701.43 1360.76 2708.02 1404.48 2699.94 1462.57C2691.85 1520.66 2669.1 1593.12 2642.76 1644.33C2616.4 1695.53 2586.45 1725.48 2557.11 1743.44C2527.76 1761.41 2499.03 1767.4 2466.1 1764.71C2433.15 1762.01 2396.02 1750.63 2355.61 1736.86C2315.18 1723.08 2271.47 1706.91 2231.05 1686.86C2190.63 1666.78 2153.5 1642.83 2122.66 1619.47C2091.82 1596.11 2067.25 1573.36 2056.19 1549.11C2045.1 1524.85 2047.49 1499.09 2044.51 1475.75C2041.52 1452.39 2033.13 1431.42 2022.96 1423.34C2012.77 1415.26 2000.8 1420.05 1984.63 1435.33C1968.46 1450.59 1948.09 1476.34 1932.53 1498.5C1916.95 1520.66 1906.17 1539.22 1906.17 1553.6C1906.17 1567.97 1916.95 1578.14 1925.05 1586.83C1933.13 1595.51 1938.5 1602.71 1952.29 1630.56L1952.28 1630.57Z" fill="#2B2A29"/>
</svg>
