<svg width="345" height="345" viewBox="0 0 345 345" fill="none" xmlns="http://www.w3.org/2000/svg">
<path d="M188.772 9.86654C188.367 10.6281 187.79 11.2849 187.087 11.785C186.368 12.3031 185.553 12.6712 184.689 12.8676C183.742 13.0901 182.768 13.1732 181.797 13.1143L178.755 12.9498L178.454 18.4312L174.453 18.212L175.398 0L182.825 0.397402C183.821 0.443692 184.802 0.651977 185.73 1.01406C186.521 1.32024 187.239 1.78682 187.84 2.38441C188.413 2.96616 188.848 3.66843 189.115 4.43994C189.399 5.27226 189.515 6.15245 189.457 7.02991C189.455 8.01615 189.22 8.98796 188.772 9.86654ZM185.442 6.93398C185.486 6.54685 185.44 6.15482 185.307 5.78867C185.173 5.42252 184.957 5.0922 184.675 4.82364C184.016 4.28978 183.194 3.99939 182.346 4.00143L179.249 3.82328L178.947 9.38692L182.113 9.59247C182.535 9.64425 182.963 9.61155 183.372 9.49628C183.782 9.381 184.164 9.18544 184.497 8.921C184.783 8.68759 185.015 8.3955 185.178 8.06451C185.341 7.73352 185.431 7.37135 185.442 7.0025V6.93398Z" fill="white"/>
<path d="M207.682 22.3093L205.038 15.8001L201.954 15.1697L200.776 20.8704L196.843 20.0619L200.543 2.24731L208.765 3.93285C210.573 4.19152 212.223 5.10896 213.396 6.50911C213.883 7.17812 214.214 7.94715 214.366 8.76025C214.517 9.57334 214.486 10.41 214.273 11.2094C214.075 12.4857 213.447 13.6559 212.492 14.5257C211.582 15.2721 210.48 15.7471 209.313 15.896L212.273 23.2959L207.682 22.3093ZM210.19 10.5654C210.292 10.2096 210.306 9.83451 210.232 9.47192C210.158 9.10933 209.998 8.76991 209.765 8.48242C209.198 7.88415 208.444 7.49738 207.628 7.38614L203.736 6.57763L202.667 11.7027L206.641 12.525C207.433 12.7534 208.28 12.6851 209.025 12.3331C209.33 12.1578 209.591 11.9167 209.79 11.6275C209.989 11.3382 210.121 11.0081 210.176 10.6613L210.19 10.5654Z" fill="white"/>
<path d="M238.638 26.9001C237.787 27.7696 236.778 28.4675 235.664 28.9556C234.532 29.4542 233.311 29.7198 232.074 29.7367C229.387 29.7627 226.793 28.7572 224.825 26.9275C223.934 26.0755 223.213 25.0617 222.701 23.9401C222.202 22.8459 221.932 21.6616 221.906 20.4595C221.883 19.204 222.106 17.9562 222.564 16.7869C223.471 14.4637 225.259 12.5925 227.538 11.5796C228.679 11.0938 229.902 10.8287 231.142 10.7985C232.474 10.7811 233.797 11.0279 235.034 11.5248C237.454 12.4328 239.421 14.253 240.515 16.5951C241.009 17.695 241.275 18.8838 241.296 20.0895C241.333 21.3459 241.109 22.5964 240.638 23.762C240.193 24.9338 239.512 26.0019 238.638 26.9001ZM236.733 22.2272C237.014 21.5257 237.158 20.7768 237.158 20.0209C237.161 19.2973 237.022 18.58 236.747 17.9106C236.47 17.2401 236.065 16.6302 235.554 16.1154C235.01 15.5872 234.367 15.1722 233.661 14.8947C232.955 14.6171 232.202 14.4824 231.443 14.4984C230.734 14.5283 230.039 14.7056 229.402 15.0192C228.756 15.3332 228.179 15.7708 227.703 16.3073C227.188 16.8585 226.788 17.5058 226.524 18.2121C226.244 18.9138 226.099 19.6626 226.099 20.4183C226.084 21.1462 226.219 21.8694 226.497 22.5424C226.777 23.2035 227.176 23.8074 227.675 24.3238C228.218 24.8533 228.862 25.2691 229.568 25.5468C230.273 25.8244 231.028 25.9584 231.786 25.9409C232.501 25.9175 233.202 25.7398 233.841 25.4201C234.483 25.1067 235.06 24.6742 235.541 24.1457C236.045 23.5866 236.444 22.9414 236.719 22.2409L236.733 22.2272Z" fill="white"/>
<path d="M257.438 40.0966C256.814 40.5265 256.103 40.8121 255.355 40.9325C254.569 41.0402 253.769 40.9983 252.998 40.8092C252.105 40.5943 251.25 40.243 250.463 39.7677C249.256 39.046 248.185 38.1184 247.298 37.027C246.391 35.9426 245.706 34.69 245.283 33.3408L248.764 32.0938C249.094 33.0653 249.555 33.9873 250.134 34.8345C250.703 35.6479 251.448 36.3224 252.313 36.8078C252.877 37.185 253.539 37.3898 254.218 37.397C254.472 37.4001 254.722 37.3325 254.939 37.2018C255.157 37.0712 255.334 36.8826 255.451 36.657C255.571 36.4514 255.646 36.2224 255.67 35.9856C255.683 35.7165 255.616 35.4495 255.478 35.2182C255.286 34.8538 255.052 34.5134 254.78 34.2041C254.346 33.7245 253.889 33.2672 253.409 32.8337C252.783 32.2299 252.192 31.5893 251.642 30.9153C251.17 30.3605 250.786 29.7365 250.504 29.0653C250.269 28.4499 250.176 27.7895 250.23 27.1331C250.32 26.3607 250.587 25.6196 251.011 24.9679C251.397 24.2954 251.926 23.7154 252.56 23.2687C253.159 22.849 253.841 22.5639 254.56 22.4328C255.32 22.2828 256.102 22.2828 256.862 22.4328C257.713 22.6271 258.527 22.9555 259.274 23.4057C261.431 24.6227 263.087 26.5648 263.947 28.8871L260.617 30.4493C260.237 29.6217 259.778 28.8324 259.247 28.0923C258.763 27.4505 258.158 26.9103 257.465 26.5027C256.958 26.1461 256.344 25.9721 255.725 26.0094C255.504 26.0253 255.29 26.0947 255.101 26.2117C254.913 26.3286 254.755 26.4897 254.643 26.6809C254.495 26.8999 254.414 27.1569 254.41 27.4209C254.403 27.7121 254.484 27.9986 254.643 28.2431C254.864 28.6213 255.131 28.971 255.437 29.2845C255.794 29.6682 256.26 30.1616 256.808 30.7371C257.422 31.3459 257.995 31.996 258.521 32.683C258.953 33.2549 259.3 33.8875 259.548 34.5604C259.757 35.1532 259.828 35.7861 259.754 36.4104C259.662 37.112 259.419 37.7854 259.041 38.3837C258.633 39.0609 258.087 39.6445 257.438 40.0966Z" fill="white"/>
<path d="M278.911 41.5766L269.949 52.9505L266.811 50.4565L275.841 39.0825L271.429 35.6292L273.731 32.7378L285.556 42.1247L283.254 45.0299L278.911 41.5766Z" fill="white"/>
<path d="M296.313 71.3543C295.164 71.7485 293.952 71.9296 292.737 71.8887C291.487 71.8308 290.262 71.5233 289.133 70.9843C287.363 70.1663 285.871 68.8482 284.841 67.1923C283.811 65.5365 283.288 63.6154 283.337 61.6659C283.378 60.4612 283.662 59.2773 284.173 58.1852C284.702 57.0372 285.457 56.0074 286.392 55.1567C287.299 54.3191 288.363 53.6698 289.523 53.2464C290.683 52.823 291.915 52.6339 293.148 52.6901C294.386 52.753 295.601 53.0555 296.724 53.5808C297.928 54.1568 299.008 54.9621 299.904 55.9515C300.812 56.9252 301.516 58.0716 301.973 59.3226C302.401 60.4744 302.601 61.6984 302.562 62.9266C302.524 64.1318 302.24 65.3164 301.726 66.4073C301.194 67.546 300.439 68.5665 299.506 69.4084C298.586 70.2679 297.499 70.9301 296.313 71.3543ZM296.67 66.3251C297.234 65.8172 297.699 65.2084 298.04 64.5299C298.362 63.8834 298.558 63.1809 298.615 62.4607C298.661 61.7372 298.568 61.0117 298.341 60.3229C298.083 59.6074 297.687 58.9498 297.174 58.3878C296.661 57.8258 296.043 57.3704 295.354 57.0478C294.692 56.7449 293.972 56.5905 293.244 56.5956C292.531 56.6001 291.825 56.7348 291.161 56.993C290.456 57.2654 289.809 57.6701 289.256 58.1852C288.692 58.6879 288.227 59.2922 287.886 59.9666C287.39 60.9591 287.208 62.0786 287.362 63.1772C287.516 64.2758 288 65.3018 288.749 66.1195C289.254 66.699 289.875 67.1659 290.572 67.4899C291.222 67.7858 291.927 67.94 292.641 67.9421C293.358 67.939 294.069 67.8043 294.737 67.5447C295.436 67.2736 296.077 66.8739 296.629 66.3662L296.67 66.3251Z" fill="white"/>
<path d="M303.932 91.8136L306.673 85.3592L304.96 82.7145L300.095 85.8663L297.903 82.5089L313.168 72.6287L317.717 79.6175C318.787 81.0947 319.275 82.9145 319.088 84.7289C318.952 85.5451 318.635 86.3207 318.161 86.9988C317.687 87.677 317.067 88.2405 316.347 88.6481C315.298 89.3929 314.029 89.7644 312.743 89.7033C311.558 89.6019 310.427 89.1646 309.482 88.4425L306.454 95.7328L303.932 91.8136ZM314.031 85.3318C314.345 85.1521 314.611 84.9008 314.809 84.5983C315.007 84.2958 315.13 83.9508 315.169 83.5915C315.2 82.7653 314.949 81.9532 314.456 81.2893L312.291 77.9456L307.892 80.796L310.112 84.2081C310.512 84.927 311.168 85.4698 311.948 85.7292C312.287 85.8219 312.643 85.838 312.989 85.7763C313.335 85.7147 313.663 85.5769 313.949 85.3729L314.031 85.3318Z" fill="white"/>
<path d="M310.29 103.27L326.734 95.2944L328.488 98.8985L312.044 106.874L310.29 103.27Z" fill="white"/>
<path d="M322.623 124.236C321.802 124.23 320.993 124.043 320.252 123.688C319.531 123.329 318.903 122.809 318.416 122.167C317.871 121.465 317.445 120.678 317.155 119.837C316.695 118.681 316.544 117.425 316.717 116.192C316.871 115.173 317.215 114.193 317.731 113.301L321.225 114.671C320.883 115.279 320.634 115.935 320.485 116.617C320.367 117.221 320.414 117.846 320.622 118.426C320.717 118.748 320.882 119.045 321.105 119.296C321.327 119.547 321.602 119.746 321.91 119.878C322.699 120.117 323.547 120.058 324.295 119.714L335.353 115.781L336.723 119.646L325.487 123.661C324.576 124.028 323.605 124.224 322.623 124.236Z" fill="white"/>
<path d="M324.761 147.902L328.447 145.477L326.967 137.912L322.637 137.063L321.842 133.061L341.355 137.172L342.068 140.804L325.624 152.013L324.761 147.902ZM336.984 139.872L330.708 138.639L331.653 143.394L336.984 139.872Z" fill="white"/>
<path d="M335.244 187.3C334.482 186.901 333.821 186.334 333.311 185.642C332.793 184.92 332.416 184.106 332.201 183.244C331.976 182.297 331.884 181.324 331.927 180.352L332.064 177.31L326.583 177.063L326.761 173.048L344.973 173.87L344.63 181.311C344.606 182.307 344.406 183.29 344.041 184.216C343.738 185.017 343.271 185.745 342.671 186.354C342.086 186.926 341.385 187.366 340.615 187.642C339.787 187.925 338.913 188.045 338.039 187.999C337.065 187.989 336.107 187.749 335.244 187.3ZM338.162 183.942C338.546 183.984 338.935 183.936 339.297 183.8C339.659 183.664 339.983 183.446 340.245 183.161C340.778 182.498 341.064 181.669 341.054 180.818L341.204 177.721L335.627 177.474L335.49 180.64C335.4 181.494 335.646 182.349 336.175 183.024C336.416 183.303 336.712 183.528 337.045 183.686C337.378 183.844 337.739 183.932 338.107 183.942H338.162Z" fill="white"/>
<path d="M322.979 206.32L329.461 203.58L330.064 200.496L324.35 199.359L325.131 195.426L342.944 198.962L341.328 207.184C341.087 208.997 340.184 210.656 338.792 211.843C338.127 212.331 337.361 212.665 336.551 212.822C335.74 212.978 334.905 212.953 334.106 212.747C332.827 212.554 331.653 211.93 330.776 210.98C329.997 210.087 329.492 208.987 329.324 207.814L322.02 210.925L322.979 206.32ZM334.736 208.732C335.094 208.826 335.468 208.836 335.83 208.76C336.191 208.684 336.53 208.524 336.819 208.294C337.411 207.718 337.792 206.96 337.902 206.142L338.683 202.237L333.544 201.223L332.749 205.21C332.535 206.005 332.628 206.852 333.01 207.581C333.189 207.881 333.431 208.138 333.72 208.335C334.009 208.531 334.337 208.662 334.682 208.718L334.736 208.732Z" fill="white"/>
<path d="M318.663 237.318C317.774 236.472 317.062 235.459 316.566 234.338C316.069 233.216 315.8 232.007 315.771 230.781C315.735 228.097 316.714 225.498 318.512 223.504C319.359 222.613 320.363 221.884 321.472 221.353C322.569 220.846 323.758 220.566 324.966 220.531C326.22 220.491 327.469 220.706 328.639 221.161C329.815 221.6 330.892 222.271 331.804 223.134C332.701 223.979 333.427 224.989 333.942 226.108C334.443 227.241 334.718 228.46 334.75 229.698C334.781 231.033 334.548 232.36 334.065 233.604C333.607 234.854 332.904 236.001 331.996 236.975C331.156 237.875 330.151 238.606 329.036 239.126C327.944 239.635 326.76 239.915 325.555 239.949C324.303 239.985 323.055 239.775 321.883 239.332C320.68 238.895 319.582 238.208 318.663 237.318ZM323.322 235.372C324.026 235.641 324.774 235.781 325.528 235.783C326.252 235.782 326.969 235.637 327.637 235.357C328.305 235.077 328.911 234.668 329.42 234.152C329.951 233.604 330.362 232.95 330.626 232.234C330.905 231.524 331.031 230.762 330.995 230C330.959 229.29 330.777 228.595 330.461 227.958C330.137 227.319 329.695 226.747 329.159 226.273C328.605 225.77 327.958 225.379 327.255 225.121C326.551 224.85 325.802 224.715 325.048 224.724C324.323 224.716 323.604 224.861 322.938 225.149C322.27 225.422 321.664 225.828 321.157 226.341C320.62 226.885 320.209 227.54 319.951 228.26C319.67 228.969 319.544 229.731 319.581 230.493C319.604 231.205 319.786 231.903 320.115 232.535C320.434 233.173 320.871 233.745 321.403 234.221C321.961 234.73 322.613 235.126 323.322 235.385V235.372Z" fill="white"/>
<path d="M305.645 256.256C305.211 255.638 304.921 254.931 304.795 254.187C304.671 253.398 304.704 252.592 304.891 251.816C305.105 250.926 305.446 250.072 305.905 249.281C306.601 248.076 307.501 247 308.564 246.102C309.653 245.166 310.921 244.462 312.291 244.032L313.565 247.499C312.594 247.829 311.672 248.29 310.825 248.87C310.019 249.445 309.354 250.194 308.879 251.062C308.507 251.628 308.307 252.29 308.303 252.967C308.312 253.22 308.386 253.467 308.518 253.683C308.65 253.899 308.836 254.078 309.057 254.2C309.265 254.314 309.493 254.389 309.728 254.42C309.998 254.421 310.263 254.35 310.496 254.214C310.852 254.011 311.188 253.772 311.496 253.502C311.976 253.068 312.433 252.611 312.866 252.131C313.462 251.492 314.093 250.889 314.757 250.322C315.312 249.851 315.936 249.467 316.607 249.185C317.215 248.937 317.872 248.839 318.526 248.897C319.299 248.984 320.043 249.241 320.705 249.651C321.378 250.036 321.961 250.559 322.417 251.186C322.841 251.779 323.131 252.457 323.267 253.173C323.424 253.932 323.424 254.716 323.267 255.475C323.096 256.33 322.781 257.151 322.335 257.9C321.719 258.995 320.922 259.977 319.978 260.806C319.075 261.571 318.052 262.182 316.95 262.614L315.374 259.312C316.193 258.931 316.973 258.472 317.704 257.942C318.342 257.453 318.877 256.843 319.279 256.146C319.634 255.633 319.803 255.015 319.759 254.392C319.74 254.172 319.667 253.96 319.548 253.774C319.428 253.588 319.266 253.433 319.074 253.323C318.843 253.192 318.585 253.113 318.32 253.09C318.028 253.09 317.742 253.176 317.498 253.337C317.127 253.568 316.782 253.84 316.47 254.146C316.087 254.502 315.593 254.982 315.032 255.516C314.43 256.142 313.779 256.719 313.086 257.243C312.529 257.687 311.904 258.038 311.236 258.284C310.641 258.505 310.003 258.584 309.372 258.517C308.674 258.42 308.002 258.183 307.399 257.818C306.711 257.427 306.113 256.894 305.645 256.256Z" fill="white"/>
<path d="M304.357 277.729L292.901 268.795L295.368 265.629L306.824 274.564L310.236 270.192L313.141 272.467L303.864 284.376L300.945 282.101L304.357 277.729Z" fill="white"/>
<path d="M274.745 295.393C274.323 294.25 274.128 293.035 274.169 291.817C274.231 290.581 274.524 289.368 275.033 288.24C276.19 285.817 278.221 283.922 280.719 282.937C281.872 282.508 283.094 282.299 284.323 282.32C285.531 282.35 286.719 282.625 287.817 283.129C288.962 283.645 289.988 284.392 290.832 285.321C292.107 286.679 292.946 288.388 293.241 290.227C293.537 292.066 293.275 293.951 292.49 295.64C291.93 296.854 291.133 297.944 290.147 298.847C288.284 300.642 285.786 301.627 283.2 301.587C281.997 301.562 280.813 301.291 279.719 300.792C278.573 300.271 277.543 299.526 276.691 298.6C275.825 297.679 275.162 296.586 274.745 295.393ZM279.774 295.708C280.282 296.273 280.89 296.738 281.569 297.079C282.218 297.398 282.924 297.585 283.646 297.63C284.368 297.674 285.092 297.576 285.776 297.339C286.498 297.092 287.157 296.689 287.708 296.161C288.29 295.648 288.757 295.017 289.078 294.311C289.359 293.662 289.503 292.962 289.503 292.255C289.488 291.538 289.349 290.828 289.092 290.159C288.814 289.461 288.404 288.824 287.886 288.281C287.374 287.715 286.761 287.25 286.077 286.911C285.432 286.589 284.728 286.402 284.008 286.363C283.258 286.3 282.503 286.399 281.794 286.652C281.085 286.905 280.439 287.306 279.897 287.829C279.316 288.338 278.849 288.963 278.527 289.665C278.238 290.316 278.093 291.022 278.102 291.734C278.102 292.449 278.242 293.156 278.513 293.817C278.794 294.517 279.203 295.158 279.719 295.708H279.774Z" fill="white"/>
<path d="M254.382 303.191L260.85 305.931L263.481 304.191L260.261 299.326L263.604 297.106L273.676 312.303L266.728 316.908C265.266 318.004 263.454 318.53 261.631 318.388C260.81 318.251 260.029 317.935 259.344 317.461C258.659 316.987 258.088 316.368 257.671 315.647C256.911 314.603 256.53 313.332 256.588 312.043C256.677 310.862 257.1 309.731 257.808 308.782L250.504 305.822L254.382 303.191ZM260.946 313.235C261.127 313.556 261.381 313.829 261.689 314.031C261.996 314.234 262.347 314.36 262.714 314.4C263.542 314.418 264.353 314.158 265.016 313.66L268.332 311.467L265.44 307.096L262.056 309.343C261.341 309.752 260.804 310.411 260.548 311.193C260.455 311.533 260.439 311.89 260.503 312.236C260.568 312.583 260.709 312.91 260.918 313.194L260.946 313.235Z" fill="white"/>
<path d="M242.968 309.7L251.094 326.007L247.503 327.802L239.377 311.481L242.968 309.7Z" fill="white"/>
<path d="M222.112 322.17C222.113 321.35 222.296 320.541 222.646 319.799C222.995 319.076 223.506 318.443 224.14 317.949C224.84 317.395 225.627 316.959 226.469 316.661C227.624 316.195 228.878 316.03 230.114 316.181C231.133 316.337 232.116 316.671 233.019 317.168L231.58 320.662C230.975 320.327 230.324 320.082 229.648 319.936C229.038 319.822 228.409 319.874 227.826 320.087C227.501 320.197 227.203 320.376 226.955 320.613C226.706 320.85 226.513 321.138 226.387 321.457C226.154 322.247 226.218 323.095 226.565 323.842L230.676 334.805L226.812 336.175L222.701 324.979C222.344 324.084 222.144 323.133 222.112 322.17Z" fill="white"/>
<path d="M198.447 324.582L200.899 328.241L208.45 326.692L209.258 322.348L213.26 321.526L209.313 341.081L205.695 341.821L194.336 325.377L198.447 324.582ZM206.586 336.723L207.765 330.447L203.023 331.42L206.586 336.723Z" fill="white"/>
<path d="M159.146 335.366C159.54 334.601 160.102 333.936 160.791 333.42C161.505 332.895 162.315 332.513 163.175 332.297C164.118 332.05 165.093 331.948 166.066 331.995L169.122 332.105L169.314 326.624L173.315 326.774L172.657 345L165.217 344.726C164.223 344.709 163.24 344.518 162.312 344.164C161.508 343.867 160.779 343.4 160.174 342.794C159.573 342.227 159.105 341.535 158.804 340.766C158.511 339.935 158.38 339.056 158.42 338.176C158.443 337.196 158.692 336.235 159.146 335.366ZM162.531 338.244C162.492 338.632 162.545 339.024 162.686 339.389C162.826 339.753 163.05 340.079 163.339 340.341C164.01 340.859 164.836 341.134 165.683 341.122L168.78 341.231L168.985 335.668L165.806 335.558C164.955 335.471 164.103 335.722 163.435 336.257C163.161 336.5 162.94 336.797 162.787 337.13C162.634 337.462 162.551 337.823 162.545 338.189L162.531 338.244Z" fill="white"/>
<path d="M140.017 323.266L142.758 329.721L145.855 330.31L146.937 324.582L150.87 325.322L147.499 343.232L139.277 341.684C137.46 341.461 135.791 340.572 134.591 339.19C134.092 338.529 133.748 337.766 133.582 336.955C133.416 336.144 133.433 335.307 133.632 334.503C133.817 333.227 134.425 332.05 135.358 331.16C136.249 330.38 137.341 329.867 138.51 329.68L135.344 322.458L140.017 323.266ZM137.715 335.051C137.619 335.407 137.61 335.781 137.689 336.141C137.768 336.501 137.932 336.837 138.167 337.121C138.747 337.712 139.51 338.089 140.332 338.189L144.238 338.929L145.211 333.791L141.223 333.037C140.426 332.831 139.581 332.929 138.852 333.311C138.55 333.489 138.292 333.733 138.098 334.025C137.903 334.317 137.777 334.649 137.729 334.996L137.715 335.051Z" fill="white"/>
<path d="M108.98 319.292C109.813 318.407 110.809 317.691 111.912 317.182C113.036 316.664 114.252 316.379 115.489 316.346C116.825 316.295 118.158 316.514 119.408 316.99C120.659 317.437 121.809 318.126 122.793 319.018C123.698 319.854 124.437 320.854 124.971 321.964C125.481 323.052 125.77 324.231 125.821 325.431C125.875 326.687 125.674 327.941 125.232 329.118C124.817 330.295 124.169 331.376 123.327 332.297C122.472 333.171 121.458 333.873 120.34 334.366C119.209 334.879 117.99 335.167 116.75 335.216C114.794 335.303 112.855 334.817 111.173 333.816C109.49 332.815 108.137 331.344 107.281 329.584C106.763 328.498 106.474 327.318 106.431 326.117C106.377 324.861 106.578 323.607 107.02 322.43C107.455 321.263 108.122 320.195 108.98 319.292ZM110.994 323.869C110.711 324.594 110.572 325.366 110.583 326.144C110.588 326.849 110.728 327.547 110.994 328.199C111.276 328.866 111.691 329.467 112.214 329.967C112.765 330.492 113.418 330.898 114.132 331.159C114.844 331.43 115.605 331.547 116.366 331.502C117.077 331.463 117.772 331.276 118.408 330.954C119.688 330.25 120.664 329.099 121.148 327.72C121.409 327.009 121.539 326.257 121.532 325.5C121.521 324.778 121.367 324.066 121.08 323.403C120.796 322.741 120.387 322.141 119.874 321.635C119.327 321.099 118.667 320.691 117.942 320.443C117.229 320.173 116.469 320.052 115.708 320.087C114.997 320.126 114.302 320.313 113.666 320.635C113.027 320.982 112.46 321.447 111.995 322.005C111.491 322.57 111.101 323.226 110.844 323.938L110.994 323.869Z" fill="white"/>
<path d="M89.9737 306.397C90.5826 305.954 91.2863 305.658 92.0292 305.534C92.8117 305.378 93.6173 305.378 94.3998 305.534C95.2917 305.733 96.147 306.071 96.9348 306.534C98.1543 307.21 99.2445 308.096 100.155 309.152C101.094 310.233 101.807 311.491 102.252 312.852L98.7984 314.222C98.4099 313.28 97.9034 312.391 97.2911 311.577C96.7169 310.804 95.9832 310.164 95.1398 309.7C94.5678 309.333 93.9007 309.142 93.2213 309.152C92.9668 309.154 92.718 309.226 92.5025 309.362C92.2871 309.498 92.1137 309.69 92.0018 309.919C91.8841 310.125 91.8138 310.354 91.7962 310.59C91.7946 310.856 91.8657 311.116 92.0018 311.344C92.2016 311.703 92.4406 312.038 92.7143 312.345C93.0569 312.728 93.5091 313.194 94.0846 313.715C94.7293 314.313 95.3422 314.944 95.9208 315.606C96.3999 316.155 96.7926 316.775 97.0856 317.442C97.3338 318.05 97.4415 318.706 97.4007 319.361C97.3129 320.136 97.0606 320.883 96.6608 321.553C96.2904 322.236 95.7761 322.83 95.1535 323.294C94.5582 323.716 93.8815 324.01 93.1665 324.157C92.4066 324.308 91.6244 324.308 90.8644 324.157C90.0121 323.983 89.1932 323.673 88.439 323.239C87.3415 322.633 86.3546 321.845 85.5203 320.909C84.713 320.029 84.0599 319.019 83.5881 317.922L86.8769 316.319C87.2789 317.139 87.7658 317.915 88.3294 318.634C88.8219 319.266 89.4313 319.796 90.1245 320.197C90.6482 320.538 91.2681 320.702 91.8921 320.663C92.1112 320.639 92.3215 320.564 92.5052 320.442C92.6889 320.321 92.8405 320.156 92.9473 319.964C93.083 319.734 93.1628 319.476 93.1802 319.21C93.1679 318.92 93.0831 318.637 92.9336 318.388C92.6951 318.022 92.4196 317.683 92.1114 317.374C91.7414 316.976 91.2618 316.51 90.7411 315.935C90.1113 315.338 89.5252 314.697 88.9871 314.016C88.5392 313.46 88.183 312.835 87.932 312.166C87.7163 311.575 87.6321 310.944 87.6853 310.316C87.7754 309.616 88.0036 308.941 88.3568 308.329C88.7491 307.576 89.3008 306.916 89.9737 306.397Z" fill="white"/>
<path d="M68.515 305.287L77.3397 293.762L80.5188 296.202L71.6941 307.726L76.0379 311.07L73.7906 314.016L61.8005 304.835L64.0478 301.889L68.515 305.287Z" fill="white"/>
<path d="M50.5092 275.811C52.8269 274.946 55.392 275.03 57.6484 276.044C60.0973 277.171 62.0235 279.19 63.0337 281.69C63.4801 282.838 63.6989 284.062 63.6777 285.294C63.659 286.498 63.3981 287.687 62.9104 288.788C62.4007 289.96 61.6543 291.015 60.7179 291.885C59.8147 292.757 58.7419 293.433 57.5662 293.872C56.4181 294.31 55.1944 294.514 53.9663 294.474C52.7383 294.434 51.5305 294.15 50.4133 293.639C49.2004 293.089 48.1101 292.302 47.2068 291.323C45.4377 289.482 44.4548 287.025 44.4662 284.471C44.4968 283.241 44.7731 282.028 45.2791 280.906C45.785 279.783 46.5103 278.773 47.4123 277.935C48.2915 277.026 49.3447 276.304 50.5092 275.811ZM50.2351 280.84C49.6681 281.356 49.2032 281.975 48.8648 282.663C48.5549 283.316 48.3735 284.023 48.3304 284.746C48.2944 285.467 48.4015 286.189 48.6456 286.87C48.9021 287.587 49.3085 288.241 49.8377 288.788C50.3529 289.368 50.9828 289.835 51.6876 290.158C52.343 290.431 53.0472 290.566 53.7568 290.556C54.4712 290.543 55.1773 290.399 55.8396 290.131C56.5374 289.848 57.1746 289.434 57.7169 288.911C58.2794 288.396 58.7437 287.783 59.0872 287.103C59.3973 286.444 59.5787 285.732 59.6217 285.006C59.6537 284.289 59.5467 283.572 59.3065 282.896C59.0577 282.171 58.6504 281.511 58.1143 280.963C57.6017 280.381 56.9711 279.914 56.2644 279.593C55.6119 279.31 54.9064 279.17 54.1953 279.182C53.4764 279.195 52.7659 279.339 52.0987 279.607C51.4063 279.898 50.7742 280.317 50.2351 280.84Z" fill="white"/>
<path d="M42.5476 255.543L39.903 262.053L41.6707 264.656L46.4941 261.395L48.7414 264.711L33.6681 274.92L29.0091 268.068C27.8518 266.621 27.2797 264.792 27.4059 262.943C27.5406 262.123 27.8565 261.343 28.3306 260.661C28.8047 259.978 29.425 259.409 30.1464 258.997C31.181 258.226 32.4471 257.829 33.7366 257.873C34.906 257.943 36.0339 258.331 36.9979 258.997L39.8893 251.665L42.5476 255.543ZM32.5582 262.203C32.2412 262.39 31.9721 262.649 31.7723 262.958C31.5725 263.267 31.4475 263.619 31.4071 263.985C31.3988 264.812 31.6691 265.618 32.1745 266.273L34.3944 269.576L38.7382 266.643L36.4635 263.286C36.047 262.573 35.3842 262.037 34.5999 261.778C34.2575 261.696 33.9014 261.689 33.5561 261.758C33.2107 261.827 32.8843 261.969 32.5993 262.176L32.5582 262.203Z" fill="white"/>
<path d="M35.9841 244.197L19.7461 252.419L17.9236 248.842L34.1616 240.62L35.9841 244.197Z" fill="white"/>
<path d="M23.2951 223.367C24.1167 223.367 24.9292 223.54 25.6795 223.874C26.4015 224.225 27.0377 224.731 27.5431 225.354C28.105 226.052 28.5451 226.84 28.8448 227.684C29.3259 228.83 29.5006 230.082 29.3519 231.315C29.2117 232.334 28.8867 233.319 28.3926 234.221L24.871 232.85C25.1991 232.24 25.4346 231.584 25.5698 230.904C25.6794 230.298 25.6226 229.673 25.4054 229.095C25.2955 228.77 25.116 228.473 24.8793 228.225C24.6426 227.976 24.3545 227.782 24.0351 227.657C23.237 227.435 22.3859 227.508 21.6371 227.862L10.6747 231.973L9.22217 228.123L20.3764 223.916C21.3072 223.554 22.2968 223.369 23.2951 223.367Z" fill="white"/>
<path d="M20.6503 199.798L17.0053 202.292L18.636 209.815L22.9798 210.582L23.8431 214.584L4.24787 210.815L3.4668 207.211L19.7596 195.7L20.6503 199.798ZM8.57801 208.02L14.8677 209.143L13.84 204.402L8.57801 208.02Z" fill="white"/>
<path d="M9.50987 160.605C10.278 160.993 10.948 161.551 11.4694 162.236C12.0045 162.948 12.3954 163.758 12.6204 164.62C12.8718 165.558 12.9827 166.528 12.9493 167.498L12.8671 170.554L18.3483 170.691L18.225 174.706L0 174.213L0.205545 166.758C0.215469 165.766 0.396253 164.783 0.739961 163.853C1.04569 163.05 1.51196 162.318 2.11026 161.702C2.66944 161.105 3.35222 160.637 4.1109 160.331C4.93346 160.023 5.80948 159.883 6.68706 159.92C7.66789 159.93 8.63338 160.165 9.50987 160.605ZM6.65965 164.017C6.2726 163.985 5.88324 164.042 5.52194 164.185C5.16065 164.327 4.83719 164.551 4.5768 164.84C4.06061 165.51 3.78977 166.337 3.80943 167.183L3.72721 170.28L9.29062 170.431L9.38654 167.265C9.46369 166.408 9.19756 165.555 8.64658 164.894C8.40429 164.62 8.10728 164.398 7.77457 164.245C7.44186 164.092 7.08078 164.009 6.71446 164.004L6.65965 164.017Z" fill="white"/>
<path d="M21.4314 141.352L15.0732 144.175L14.5114 147.272L20.2529 148.3L19.5541 152.246L1.54834 149.04L3.01456 140.817C3.23169 139.005 4.10995 137.336 5.4811 136.131C6.13764 135.629 6.89723 135.279 7.7052 135.106C8.51316 134.933 9.34943 134.942 10.1538 135.131C11.4336 135.298 12.6179 135.898 13.511 136.83C14.3228 137.709 14.865 138.803 15.0732 139.982L22.2535 136.748L21.4314 141.352ZM9.59199 139.173C9.23501 139.079 8.86068 139.072 8.50056 139.154C8.14045 139.235 7.80512 139.401 7.52284 139.639C6.94292 140.225 6.57212 140.986 6.46771 141.804L5.76886 145.723L10.9623 146.628L11.6748 142.626C11.8766 141.828 11.7741 140.983 11.3871 140.256C11.2037 139.956 10.9561 139.702 10.6623 139.51C10.3684 139.318 10.0356 139.193 9.68791 139.146L9.59199 139.173Z" fill="white"/>
<path d="M25.186 110.286C27.0109 111.967 28.095 114.303 28.2006 116.781C28.3246 118.741 27.8714 120.694 26.8973 122.399C25.9231 124.104 24.4706 125.486 22.7194 126.374C21.6359 126.9 20.456 127.199 19.2526 127.251C17.9995 127.319 16.7456 127.133 15.5665 126.703C14.3595 126.271 13.2574 125.59 12.3326 124.702C11.44 123.88 10.7142 122.894 10.1949 121.797C9.66369 120.676 9.36535 119.46 9.31793 118.22C9.21351 115.535 10.1513 112.913 11.9352 110.903C12.7586 109.994 13.7437 109.246 14.8402 108.696C15.9301 108.172 17.1131 107.869 18.3208 107.806C19.5744 107.75 20.8268 107.941 22.0069 108.367C23.1842 108.788 24.2653 109.44 25.186 110.286ZM20.5544 112.369C19.8441 112.109 19.0905 111.988 18.3345 112.013C17.6109 112.02 16.8968 112.179 16.2379 112.478C15.5582 112.777 14.9471 113.212 14.4427 113.756C13.9382 114.301 13.5511 114.943 13.3055 115.644C13.0505 116.35 12.9432 117.101 12.9903 117.85C13.0342 118.56 13.2305 119.252 13.5659 119.878C14.2678 121.171 15.433 122.15 16.8272 122.619C17.5372 122.881 18.2904 123.007 19.047 122.989C19.7744 122.975 20.4918 122.817 21.1573 122.523C21.8095 122.231 22.4001 121.817 22.8976 121.304C23.9246 120.187 24.4667 118.708 24.4049 117.192C24.3882 116.468 24.2103 115.757 23.8842 115.11C23.5377 114.47 23.0726 113.903 22.5139 113.438C21.954 112.969 21.3131 112.607 20.6229 112.369H20.5544Z" fill="white"/>
<path d="M37.8613 91.1422C38.3073 91.7526 38.6116 92.4548 38.752 93.1977C38.9019 93.9808 38.9019 94.7853 38.752 95.5684C38.5566 96.4618 38.2287 97.3209 37.7791 98.1173C37.0982 99.3608 36.2029 100.474 35.1344 101.406C34.0731 102.326 32.845 103.033 31.5168 103.489L30.1465 100.036C31.0911 99.6614 31.9843 99.1687 32.8049 98.5695C33.5937 97.9713 34.2435 97.2093 34.7096 96.3358C35.0777 95.7651 35.264 95.0962 35.244 94.4173C35.242 94.1628 35.1691 93.9139 35.0336 93.6985C34.8981 93.4831 34.7052 93.3097 34.4767 93.1977C34.2661 93.0797 34.0322 93.0096 33.7915 92.9922C33.4772 92.9559 33.1597 93.0233 32.8871 93.184C32.5356 93.399 32.2053 93.6467 31.9005 93.924C31.5168 94.2666 31.0509 94.7188 30.5302 95.2944C29.9794 95.9379 29.3938 96.5509 28.7762 97.1306C28.2314 97.6092 27.6169 98.002 26.9537 98.2954C26.3521 98.5654 25.6932 98.6831 25.0353 98.638C24.2594 98.5626 23.5103 98.3145 22.8428 97.9117C22.1639 97.5421 21.5708 97.0331 21.1026 96.418C20.6664 95.8274 20.3626 95.1497 20.2119 94.431C20.0609 93.6757 20.0609 92.8979 20.2119 92.1425C20.3806 91.2819 20.6859 90.4538 21.1163 89.6896C21.6647 88.5877 22.4021 87.5905 23.295 86.7433C24.1836 85.9545 25.1979 85.3199 26.296 84.866L27.9403 88.1411C27.1214 88.5512 26.3455 89.0425 25.6245 89.6074C24.9964 90.11 24.4707 90.7288 24.0761 91.43C23.7362 91.9498 23.5684 92.5635 23.5965 93.184C23.6189 93.4068 23.6956 93.6208 23.8198 93.8071C23.944 93.9935 24.112 94.1465 24.3091 94.2529C24.5405 94.382 24.7982 94.4569 25.0627 94.4721C25.3508 94.4603 25.6303 94.3703 25.8712 94.2118C26.2366 93.9733 26.5764 93.6978 26.8852 93.3896C27.2689 93.0196 27.7485 92.5399 28.2555 92.0192C28.8487 91.3817 29.4901 90.7907 30.1739 90.2515C30.7451 89.7499 31.3988 89.3512 32.1061 89.0729C32.696 88.8508 33.3277 88.7619 33.956 88.8126C34.6565 88.8928 35.3329 89.1167 35.9429 89.4704C36.6975 89.8798 37.3525 90.4506 37.8613 91.1422Z" fill="white"/>
<path d="M38.7794 69.614L50.3995 78.3432L47.9604 81.5498L36.3402 72.8206L33.0104 77.2469L30.1465 75.0269L39.2316 62.9541L42.1777 65.1878L38.7794 69.614Z" fill="white"/>
<path d="M68.0764 51.4295C68.5201 52.5741 68.734 53.7951 68.7058 55.0224C68.6776 56.2498 68.4078 57.4596 67.912 58.5827C67.3743 59.8036 66.596 60.9035 65.6236 61.8167C64.6766 62.7496 63.5542 63.4855 62.3211 63.9819C61.1771 64.4288 59.9592 64.6566 58.731 64.6534C57.523 64.6525 56.3284 64.4005 55.223 63.9134C54.0675 63.4198 53.027 62.6918 52.1672 61.7756C51.2909 60.8762 50.6057 59.8088 50.1529 58.6375C49.7206 57.5001 49.5067 56.2913 49.5225 55.0746C49.5518 53.8361 49.8266 52.6157 50.331 51.4843C50.8685 50.2667 51.6415 49.1676 52.6057 48.2502C53.5539 47.3124 54.6818 46.5759 55.9218 46.0851C57.0647 45.6326 58.2828 45.4001 59.512 45.3999C60.7185 45.4143 61.9104 45.6658 63.02 46.1399C64.1686 46.6457 65.2068 47.372 66.0758 48.2776C66.9517 49.1799 67.6327 50.2527 68.0764 51.4295ZM63.0337 51.1965C62.5232 50.6233 61.9036 50.1574 61.2112 49.8261C60.557 49.5236 59.8487 49.3559 59.1283 49.3328C58.4059 49.3064 57.685 49.4181 57.0044 49.6617C56.2928 49.9273 55.6442 50.338 55.0997 50.8676C54.5436 51.3963 54.1048 52.0359 53.8116 52.745C53.541 53.4001 53.4148 54.1059 53.4416 54.8142C53.4719 55.5293 53.6249 56.2339 53.8938 56.8972C54.1907 57.5901 54.6135 58.222 55.1408 58.7608C55.6612 59.3291 56.2842 59.794 56.977 60.1312C57.6309 60.4389 58.3392 60.6143 59.0612 60.6473C59.7832 60.6802 60.5046 60.57 61.1838 60.323C61.8805 60.0599 62.5117 59.6484 63.0337 59.1171C63.6214 58.6092 64.0894 57.9774 64.404 57.2672C64.6818 56.6086 64.8172 55.8988 64.8014 55.1842C64.7856 54.4673 64.6321 53.7602 64.3492 53.1013C64.0607 52.4071 63.6421 51.7745 63.1159 51.2376L63.0337 51.1965Z" fill="white"/>
<path d="M88.2746 43.2894L81.7383 40.6995L79.1485 42.4809L82.4646 47.2772L79.1622 49.5519L68.8164 34.4781L75.6679 29.7504C77.1049 28.6173 78.9125 28.0603 80.738 28.1882C81.5576 28.2996 82.342 28.5923 83.0341 29.0451C83.7263 29.4978 84.3088 30.0992 84.7393 30.8055C85.5151 31.8339 85.9207 33.0943 85.8903 34.3821C85.8222 35.5668 85.4182 36.7075 84.7256 37.671L92.0841 40.5076L88.2746 43.2894ZM81.5191 33.3681C81.3341 33.0475 81.0742 32.7765 80.7616 32.5784C80.4489 32.3803 80.0929 32.261 79.724 32.2307C78.8996 32.2283 78.0984 32.5035 77.4493 33.0118L74.1743 35.2729L77.1341 39.5758L80.4776 37.2736C81.189 36.8556 81.7172 36.1855 81.9576 35.3962C82.0454 35.0556 82.054 34.6994 81.9827 34.355C81.9115 34.0105 81.7622 33.687 81.5465 33.4092L81.5191 33.3681Z" fill="white"/>
<path d="M99.5797 36.6158L91.1523 20.4457L94.7151 18.5957L103.129 34.7522L99.5797 36.6158Z" fill="white"/>
<path d="M120.189 23.7207C120.202 24.5186 120.038 25.3096 119.709 26.0366C119.366 26.7673 118.865 27.413 118.243 27.9277C117.556 28.5073 116.778 28.9702 115.941 29.298C114.798 29.79 113.547 29.9788 112.31 29.8462C111.288 29.7171 110.298 29.4013 109.391 28.9143L110.761 25.3788C111.372 25.6994 112.028 25.9258 112.707 26.0503C113.319 26.1624 113.951 26.1007 114.529 25.8722C114.844 25.7579 115.13 25.576 115.367 25.3392C115.604 25.1024 115.786 24.8166 115.9 24.5018C116.117 23.7053 116.034 22.8569 115.667 22.1174L111.433 11.1546L115.269 9.66089L119.572 20.7882C119.96 21.7182 120.169 22.7131 120.189 23.7207Z" fill="white"/>
<path d="M143.881 20.8843L141.36 17.2665L133.851 18.9521L133.056 23.2961L129.068 24.1868L132.659 4.57706L136.276 3.76855L147.992 19.9661L143.881 20.8843ZM135.481 8.89367L134.413 15.1836L139.14 14.1147L135.481 8.89367Z" fill="white"/>
</svg>
