<svg width="182" height="180" viewBox="0 0 182 180" fill="none" xmlns="http://www.w3.org/2000/svg">
<path d="M180.815 139.827C179.601 134.663 175.355 131.919 169.455 132.387C159.314 133.195 150.501 130.458 143.209 123.106C132.149 111.966 120.975 100.936 109.812 89.9062C107.813 87.9327 105.644 86.1215 103.482 84.1922C103.056 83.8464 102.661 83.4637 102.302 83.0487C101.906 82.6018 101.536 82.1339 101.191 81.6469L101.106 81.5215L99.6737 80.3853C98.1133 79.1722 96.6149 77.8819 95.184 76.5194C93.6996 75.1243 92.3919 73.5535 91.2902 71.8419C90.8415 71.5784 90.4178 71.2746 90.0243 70.9345L89.8874 71.0378C89.5802 70.6689 89.2803 70.2705 88.9842 69.8795C88.0478 69.0679 87.6777 67.5924 86.5043 66.8952C84.8535 65.2352 83.2015 63.5777 81.5482 61.9226C73.2868 53.6399 65.0032 45.3806 56.6974 37.1446C50.3237 30.8219 47.6624 23.0938 47.7253 14.2922C47.7253 12.4477 48.0029 10.6033 47.8586 8.75889C47.3811 2.91944 41.459 -1.17518 35.9069 0.304047C34.3265 0.739331 32.6572 0.779909 31.0286 0.909018C29.8034 1.00493 28.5598 0.883196 27.3272 0.986484C23.0596 1.35537 20.2058 4.35441 20.0504 8.60765C20.0002 9.40663 20.0299 10.2086 20.1392 11.0017C20.7944 14.9303 18.6513 17.708 16.2195 20.2902C15.8753 20.6591 14.998 20.7329 14.4132 20.6591C11.3929 20.198 8.39855 19.9988 5.47078 21.0944C1.62508 22.5368 -0.366241 25.6612 0.0557121 29.7226C0.211169 31.2498 0.721954 32.7549 0.744162 34.2747C0.79228 39.4391 3.62751 43.0357 7.27334 46.1491C13.1067 51.1327 23.3853 49.2367 24.0737 40.4609C24.207 38.7271 25.3063 38.0484 26.8424 38.2476C28.2822 38.4505 29.8515 38.705 31.0508 39.4391C33.6417 41.0437 36.3363 42.6926 38.5127 44.8137C51.386 57.3558 64.1223 70.0418 76.903 82.6872C77.0947 82.9185 77.2668 83.1652 77.4175 83.4249C79.1646 85.2694 80.6451 87.1138 82.5698 88.7553C83.1657 89.1058 83.7616 89.4525 84.3316 89.8435C87.2927 91.8835 89.2137 94.0304 91.3013 96.9335L91.3605 97.0073C91.4641 97.0921 91.5752 97.1954 91.6936 97.3135C95.8058 101.471 99.9846 105.565 104.123 109.697C114.746 120.321 125.45 130.86 135.914 141.653C138.434 144.236 140.485 147.467 142.113 150.713C143.827 154.133 142.854 155.509 139.171 156.383C134.885 157.383 132.849 159.581 132.212 163.912C131.231 170.552 138.086 178.667 145.071 179.191C146.662 179.309 148.254 179.512 149.827 179.785C155.808 180.825 160.191 177.531 160.646 171.485C160.776 169.667 160.424 167.818 160.428 165.981C160.428 165.203 160.509 164.163 160.994 163.691C163.585 161.175 166.465 159.264 170.377 159.969C171.236 160.081 172.105 160.094 172.968 160.009C176.491 159.806 179.312 157.457 179.971 154C180.267 152.447 180.171 150.824 180.315 149.238C180.478 147.5 180.785 145.774 180.896 144.036C181 142.624 181.126 141.159 180.815 139.827ZM175.681 152.108L177.646 148.293L178.19 148.482C178.453 150.761 178.583 153.052 177.476 155.203C176.892 156.301 175.953 157.172 174.811 157.674C173.67 158.176 172.392 158.28 171.184 157.969C169.403 157.486 167.708 156.711 165.946 156.165C164.658 155.746 163.301 155.578 161.949 155.671L165.957 157.932C161.83 158.593 159.369 162.54 155.016 161.426C155.853 163.355 156.697 164.985 157.267 166.708C158.111 169.268 158.377 171.898 157.126 174.436C156.067 176.598 154.868 177.236 152.525 176.716C150.182 176.196 147.899 175.502 145.123 174.757L147.765 177.199C146.929 177.243 146.414 177.314 145.915 177.291C140.048 177.052 133.7 170.46 134.044 164.985C134.292 161.057 136.18 158.995 140.018 158.098C141.617 157.729 143.12 156.947 144.723 156.328C144.327 157.999 143.165 159.393 141.392 160.337C141.109 160.461 140.817 160.559 140.518 160.633C135.977 162.038 134.936 164.657 137.357 168.811C138.063 169.932 138.884 170.977 139.807 171.928C138.179 166.262 138.242 165.255 140.414 163.842C140.414 168.084 140.414 168.084 141.292 169.228C141.466 168.545 141.573 167.907 141.791 167.306C143.05 163.79 146.855 162.377 150.075 164.296C151.278 165.011 152.348 165.952 153.921 167.114C153.38 165.922 153.18 165.067 152.684 164.447C148.953 159.795 146.485 154.446 143.868 149.157C141.492 144.361 137.842 140.477 134.078 136.736C108.605 111.418 83.1213 86.1166 57.6264 60.8307C51.8153 55.0614 45.9758 49.3203 40.108 43.6075C36.3548 39.9703 31.8836 37.4028 27.1977 35.1231C24.0108 33.5627 20.9979 31.6408 17.9443 29.8517C16.4638 28.9959 15.0499 28.0737 13.6026 27.181C13.5101 27.3064 13.4139 27.4319 13.3213 27.5499C18.7919 33.1754 17.3706 37.8787 11.1005 39.7932L11.0561 40.3392L16.1307 40.6748C15.0203 42.748 13.3028 42.866 7.91737 40.8335C10.2455 43.305 12.5848 44.8027 15.6569 44.7363C17.626 44.692 18.6513 43.6296 19.3138 40.9736C19.5089 40.0721 19.9036 39.2253 20.4691 38.4952C21.0345 37.7651 21.7564 37.1701 22.5821 36.7536C22.9728 36.5855 23.3813 36.4618 23.7998 36.3847C23.2113 37.7606 22.4377 39.1034 22.0824 40.5789C20.7314 46.1971 15.3201 48.7313 10.2936 45.7691C5.72247 43.0763 2.73919 39.2067 3.00198 33.3894L5.30792 36.0158C4.57506 33.275 3.8681 30.9141 3.3351 28.5164C2.7651 26.0264 3.49426 24.787 5.89273 23.7688C9.03888 22.4298 12.0666 23.1749 15.0425 24.348C16.1751 24.7943 17.2374 25.4067 18.6957 26.1223C17.552 21.6994 21.4717 19.2647 22.212 15.0152L24.5364 19.357L24.9769 19.2315C24.6067 17.7376 24.3106 16.2214 23.8665 14.7533C23.4334 13.3441 22.782 12.0051 22.3452 10.5996C21.2348 7.02513 23.067 3.84166 26.7646 3.09651C28.3562 2.77927 30.0255 2.84935 31.6615 2.72762L31.9095 3.33259L28.73 5.31351C28.8041 5.47951 28.8744 5.6455 28.9484 5.80781C30.6436 5.07004 32.5165 4.59418 33.9897 3.55024C36.6916 1.63203 39.3418 1.51399 42.1326 3.05224C44.9234 4.59049 46.0486 7.17638 46.0782 10.2824C46.1227 14.6168 46.1597 18.9475 46.1967 23.0458C45.0632 20.5933 44.3788 17.9586 44.1758 15.266C43.9841 13.0192 43.5776 10.7958 42.9617 8.62609C42.7211 7.71864 41.8513 6.98087 41.0037 5.79675C41.322 15.3878 39.3122 20.0025 34.208 21.36C38.1241 24.7501 43.8722 25.7866 45.7821 31.3679C43.6576 30.1432 41.6403 28.9738 39.6194 27.8044L39.3529 28.1475C39.6934 28.5164 40.0302 28.8853 40.3782 29.2542C45.9302 35.0125 51.4119 40.8335 57.0601 46.4958C58.9404 48.3772 61.2464 49.8158 63.3524 51.509C64.4628 52.3943 65.4918 53.3534 66.5689 54.2535C67.8798 55.4078 69.2864 56.4493 70.7736 57.3669C70.5166 56.9754 70.2282 56.6053 69.9112 56.2602C66.7169 53.287 63.5634 50.2622 60.2877 47.3849C55.6995 43.3513 51.9051 38.5014 49.0985 33.0832C48.7813 32.4731 48.6379 31.7879 48.684 31.1023C48.8858 31.2709 49.0694 31.4601 49.2318 31.6667C55.1947 40.0736 63.1081 46.625 70.3554 53.7998C85.2274 68.5404 100.061 83.3155 114.857 98.125C122.778 106.045 130.539 114.127 138.545 121.973C141.695 125.065 145.293 127.71 148.687 130.554C149.178 130.904 149.573 131.372 149.834 131.915C149.077 131.701 148.335 131.434 147.614 131.118C141.94 128.228 136.905 124.233 132.808 119.369C130.365 116.451 127.626 113.792 124.987 111.029C124.83 110.858 124.631 110.729 124.411 110.655C124.19 110.581 123.954 110.564 123.725 110.604C125.028 112.098 126.316 113.6 127.634 115.086C128.041 115.547 128.689 115.891 128.896 116.418C130.828 121.261 135.236 123.796 138.76 127.193C143.246 131.494 147.625 135.91 152.051 140.274C152.2 140.447 152.381 140.588 152.585 140.689C152.79 140.79 153.012 140.85 153.24 140.864L149.49 134.335C152.214 135.648 154.102 137.286 155.483 139.477C156.815 141.594 158.025 143.789 159.554 145.966C160.013 142.539 162.556 141.428 165.139 140.396C167.723 139.363 170.266 138.599 173.075 139.071C173.597 139.16 174.119 139.237 174.644 139.318L174.915 138.71C173.434 137.972 172.028 137.013 170.473 136.581C168.837 136.128 167.038 136.305 165.354 135.998C162.726 135.519 160.135 134.859 157.526 134.276C157.566 134.047 157.611 133.815 157.652 133.582C158.125 133.649 158.599 133.756 159.073 133.774C162.693 133.936 166.32 134.298 169.929 134.176C174.741 134.014 178.401 136.389 178.982 140.923C179.171 142.399 178.642 144.221 177.872 145.553C176.247 148.352 175.588 149.739 175.681 152.108Z" fill="white"/>
<path d="M13.3028 27.5536C18.7733 33.1791 17.352 37.8824 11.0819 39.7969L11.0375 40.3429L16.1121 40.6785C15.0017 42.7517 13.2842 42.8697 7.89879 40.8372C10.2269 43.3087 12.5662 44.8064 15.6383 44.74C17.6074 44.6957 18.6327 43.6333 19.2952 40.9773C19.4919 40.0734 19.8892 39.2248 20.4579 38.4939C21.0267 37.763 21.7525 37.1684 22.582 36.7536C22.9728 36.5855 23.3813 36.4618 23.7998 36.3847C23.2113 37.7607 22.4377 39.1034 22.0823 40.5789C20.7314 46.1971 15.32 48.7313 10.2936 45.7692C5.7224 43.0763 2.73911 39.2067 3.00191 33.3894L5.30785 36.0158C4.57498 33.275 3.86802 30.9142 3.33503 28.5164C2.76502 26.0264 3.49419 24.787 5.89266 23.7689C9.0388 22.4298 12.0665 23.1749 15.0424 24.348C16.175 24.7944 17.2373 25.4067 18.6956 26.1223C17.5519 21.6994 21.4716 19.2648 22.2119 15.0152L24.5363 19.357L24.9768 19.2316C24.6067 17.7376 24.3106 16.2215 23.8664 14.7533C23.4333 13.3442 22.7819 12.0051 22.3451 10.5997C21.2347 7.02515 23.0669 3.84167 26.7645 3.09653C28.3561 2.77929 30.0254 2.84937 31.6614 2.72764L31.9094 3.33261L28.73 5.31353L28.9483 5.80783C30.6436 5.07006 32.5164 4.5942 33.9896 3.55026C36.6916 1.63205 39.3417 1.51401 42.1325 3.05226C44.9233 4.59051 46.0486 7.1764 46.0782 10.2824C46.1226 14.6168 46.1596 18.9475 46.1966 23.0458C45.0631 20.5933 44.3787 17.9586 44.1757 15.266C43.984 13.0193 43.5775 10.7959 42.9616 8.62611C42.721 7.71866 41.8512 6.98089 41.0036 5.79677C41.3219 15.3878 39.3121 20.0025 34.208 21.36C38.124 24.7501 43.8722 25.7867 45.7821 31.3679C43.6575 30.1432 41.6402 28.9738 39.6193 27.8045L39.3528 28.1475C39.6933 28.5164 40.0302 28.8853 40.3781 29.2542C45.9301 35.0125 51.4118 40.8335 57.06 46.4959C58.9403 48.3772 61.2463 49.8158 63.3523 51.509C64.4627 52.3943 65.488 53.3535 66.5688 54.2535C67.8797 55.4078 69.2863 56.4493 70.7735 57.3669C70.5165 56.9754 70.2281 56.6053 69.9111 56.2603C66.7169 53.287 63.5633 50.2622 60.2876 47.3849C55.6994 43.3513 51.905 38.5014 49.0985 33.0832C48.7812 32.4731 48.6378 31.7879 48.6839 31.1023C48.8857 31.2709 49.0693 31.4601 49.2317 31.6667C55.1946 40.0736 63.1081 46.625 70.3553 53.7998C85.2273 68.5405 100.061 83.3155 114.857 98.125C122.777 106.045 130.539 114.127 138.545 121.973C141.695 125.065 145.293 127.71 148.687 130.554C149.178 130.904 149.573 131.372 149.834 131.915C149.076 131.701 148.334 131.434 147.613 131.118C141.94 128.228 136.905 124.233 132.808 119.369C130.365 116.451 127.626 113.792 124.987 111.029C124.83 110.858 124.631 110.729 124.411 110.655C124.19 110.581 123.954 110.564 123.725 110.604C125.028 112.098 126.316 113.6 127.634 115.086C128.041 115.547 128.688 115.891 128.896 116.418C130.828 121.262 135.236 123.796 138.76 127.193C143.246 131.494 147.625 135.91 152.051 140.274C152.2 140.447 152.381 140.588 152.585 140.689C152.789 140.791 153.012 140.85 153.24 140.864L149.49 134.335C152.214 135.648 154.102 137.286 155.483 139.477C156.815 141.594 158.025 143.789 159.554 145.966C160.013 142.539 162.556 141.428 165.139 140.396C167.723 139.363 170.266 138.599 173.075 139.071C173.597 139.16 174.119 139.237 174.644 139.318L174.915 138.71C173.434 137.972 172.028 137.013 170.473 136.581C168.837 136.128 167.038 136.305 165.354 135.998C162.726 135.519 160.135 134.859 157.526 134.276C157.566 134.047 157.611 133.815 157.652 133.582C158.125 133.649 158.599 133.756 159.073 133.774C162.693 133.936 166.32 134.298 169.929 134.176C174.741 134.014 178.401 136.389 178.982 140.923C179.171 142.399 178.642 144.221 177.872 145.553C176.251 148.345 175.592 149.732 175.684 152.1L177.646 148.293L178.19 148.482C178.453 150.761 178.583 153.052 177.476 155.203C176.892 156.301 175.953 157.172 174.811 157.674C173.67 158.176 172.392 158.28 171.184 157.969C169.403 157.486 167.708 156.711 165.946 156.165C164.658 155.746 163.301 155.578 161.949 155.671L165.957 157.932C161.83 158.593 159.369 162.54 155.016 161.426C155.853 163.355 156.697 164.985 157.267 166.708C158.11 169.268 158.377 171.898 157.126 174.436C156.067 176.598 154.868 177.236 152.525 176.716C150.182 176.196 147.898 175.502 145.122 174.757L147.765 177.199C146.929 177.244 146.414 177.314 145.915 177.291C140.048 177.052 133.7 170.46 134.044 164.985C134.292 161.057 136.18 158.995 140.018 158.098C141.617 157.73 143.12 156.947 144.723 156.328C144.327 157.999 143.164 159.393 141.391 160.338C141.109 160.461 140.817 160.559 140.518 160.633C135.976 162.038 134.936 164.657 137.357 168.811C138.063 169.932 138.884 170.977 139.807 171.928C138.179 166.262 138.242 165.255 140.414 163.842C140.414 168.084 140.414 168.084 141.292 169.228C141.466 168.545 141.573 167.907 141.791 167.306C143.05 163.79 146.855 162.377 150.075 164.296C151.278 165.011 152.347 165.952 153.921 167.114C153.38 165.922 153.18 165.067 152.684 164.447C148.953 159.795 146.485 154.446 143.868 149.157C141.491 144.361 137.842 140.477 134.078 136.736C108.605 111.418 83.1212 86.1166 57.6264 60.8307C51.8152 55.0614 45.9758 49.3203 40.1079 43.6075C36.3547 39.9703 31.8835 37.4028 27.1976 35.1231C24.0107 33.5628 20.9978 31.6409 17.9442 29.8518C16.4637 28.996 15.0498 28.0737 13.6026 27.181L13.3028 27.5536ZM136.502 132.04L136.772 131.775C133.489 128.233 130.387 124.497 126.882 121.184C119.927 114.585 112.495 108.454 105.662 101.703C96.942 93.1082 88.6621 84.0742 80.1231 75.3169C76.3515 71.4583 72.3503 67.8138 68.4713 64.0732L68.1012 64.4052L79.8307 77.0986L79.4976 77.4158L55.0687 53.6449L54.5431 54.1576C57.1156 57.0202 59.5807 59.986 62.2752 62.7268C74.1047 74.7451 85.9725 86.7277 97.8785 98.6747C101.654 102.467 105.518 106.174 109.353 109.907C114.5 114.924 119.66 119.931 124.832 124.928C126.201 126.245 127.7 127.426 129.144 128.672L129.573 128.226L120.201 117.835L120.675 117.355L136.502 132.04ZM41.8512 41.6118L42.0659 41.3794C41.8407 41.0175 41.5736 40.6833 41.2701 40.3834C35.9254 36.2187 30.5806 32.0466 25.173 27.9741C24.7695 27.6717 23.4852 27.893 23.1594 28.3061C22.8337 28.7193 22.7449 30.0067 23.1113 30.3977C24.0441 31.4011 25.1656 32.4967 26.4203 32.884C30.8974 34.2582 35.0566 36.5037 38.657 39.4907C39.6267 40.3023 40.7778 40.9109 41.8512 41.6118ZM139.937 138.116L139.371 138.555C140.052 139.679 140.793 140.767 141.591 141.812C144.502 145.242 146.679 149.227 147.991 153.524C148.335 154.631 149.146 155.682 149.927 156.597C150.708 157.512 151.826 157.907 152.84 156.925C153.854 155.944 153.314 154.871 152.507 154.188C149.546 151.706 148.084 148.183 145.866 145.187C144.053 142.72 141.939 140.466 139.952 138.116H139.937ZM27.1939 15.8636L27.4826 15.8932C27.4826 13.7647 27.5344 11.6325 27.4419 9.50775C27.4419 9.09829 26.7793 8.34945 26.5499 8.4011C26.0465 8.50069 25.3802 8.92122 25.2248 9.36757C25.0527 10.0053 25.089 10.6811 25.3284 11.2968C25.8799 12.8388 26.5647 14.3438 27.1939 15.8636ZM165.343 152.654L165.365 152.993C166.772 153.58 168.163 154.199 169.588 154.738C170.147 154.948 170.836 155.173 171.358 155.026C171.879 154.878 172.353 154.288 172.838 153.871C172.39 153.465 171.965 152.738 171.498 152.709C169.459 152.58 167.397 152.654 165.343 152.654ZM66.5503 61.2734L67.1055 60.7016C65.2647 58.8572 63.4239 57.0128 61.5831 55.1684L60.7799 55.9652L66.5503 61.2734ZM79.0757 66.1206L76.1146 62.3838C75.5668 64.4384 76.7697 65.9251 79.0757 66.1206ZM114.657 101.445L114.113 102.065C115.023 103.503 116.026 104.82 117.892 105.016L118.38 104.403L114.657 101.445ZM33.9044 26.6646L33.3677 27.2032L37.7316 31.1023C36.6953 29.3095 35.7292 27.6016 33.9044 26.6646ZM30.2919 23.7135L29.6738 24.514L31.7317 26.0928L32.287 25.4067L30.2919 23.7135Z" fill="white"/>
<path d="M136.502 132.04L120.694 117.362L120.22 117.842L129.592 128.233L129.181 128.68C127.737 127.433 126.238 126.253 124.869 124.936C119.687 119.953 114.527 114.946 109.39 109.915C105.555 106.181 101.691 102.474 97.9154 98.682C86.0218 86.7228 74.154 74.7402 62.3122 62.7342C59.6176 59.9934 57.1525 57.0275 54.5801 54.165L55.1057 53.6522L79.5345 77.4232L79.8677 77.1059L68.1085 64.4052L68.4786 64.0732C72.3687 67.8137 76.3588 71.4509 80.1305 75.3168C88.688 84.0742 96.9679 93.1082 105.67 101.703C112.495 108.454 119.927 114.585 126.882 121.184C130.387 124.504 133.489 128.233 136.772 131.775L136.502 132.04Z" fill="white"/>
<path d="M41.8513 41.6118C40.7779 40.9109 39.6305 40.3023 38.6459 39.4907C35.0455 36.5037 30.8864 34.2581 26.4093 32.884C25.1545 32.5151 24.033 31.4084 23.1003 30.3977C22.7301 30.0067 22.7857 28.7635 23.1484 28.3061C23.5111 27.8487 24.7585 27.6679 25.173 27.9741C30.5918 32.0319 35.9365 36.2187 41.2813 40.3834C41.5847 40.6832 41.8518 41.0175 42.0771 41.3794L41.8513 41.6118Z" fill="white"/>
<path d="M139.952 138.116C141.94 140.466 144.053 142.72 145.874 145.187C148.095 148.183 149.576 151.706 152.514 154.188C153.321 154.871 153.854 155.959 152.848 156.925C151.841 157.892 150.716 157.508 149.935 156.597C149.154 155.686 148.343 154.646 147.999 153.524C146.687 149.227 144.51 145.242 141.599 141.812C140.801 140.767 140.06 139.679 139.378 138.555L139.952 138.116Z" fill="white"/>
<path d="M27.1941 15.8636C26.5649 14.3438 25.8801 12.8388 25.3434 11.2894C25.104 10.6737 25.0677 9.99789 25.2398 9.36017C25.3953 8.91382 26.0615 8.49329 26.5649 8.39369C26.7944 8.34943 27.4384 9.09826 27.4569 9.50035C27.5494 11.6251 27.4976 13.7573 27.4976 15.8858L27.1941 15.8636Z" fill="white"/>
<path d="M165.343 152.654C167.398 152.654 169.459 152.58 171.506 152.709C171.972 152.739 172.398 153.447 172.846 153.871C172.354 154.273 171.917 154.867 171.365 155.026C170.814 155.184 170.155 154.948 169.596 154.738C168.171 154.199 166.779 153.58 165.373 152.993L165.343 152.654Z" fill="white"/>
<path d="M66.5502 61.2734L60.7798 55.9725L61.583 55.1758C63.4213 57.0177 65.2621 58.8621 67.1054 60.709L66.5502 61.2734Z" fill="white"/>
<path d="M79.0761 66.1205C76.7702 65.925 75.5672 64.4384 76.115 62.3837L79.0761 66.1205Z" fill="white"/>
<path d="M114.657 101.445L118.38 104.396L117.892 105.008C116.041 104.824 115.023 103.507 114.113 102.057L114.657 101.445Z" fill="white"/>
<path d="M33.9044 26.6646C35.7291 27.6015 36.6952 29.3095 37.7316 31.0912L33.3677 27.2032L33.9044 26.6646Z" fill="white"/>
<path d="M30.292 23.7283L32.287 25.4215L31.7318 26.1076L29.6738 24.5288L30.292 23.7283Z" fill="white"/>
<path d="M176.823 137.625C175.663 132.689 171.605 130.065 165.966 130.513C156.272 131.285 147.849 128.669 140.88 121.642C130.309 110.994 119.628 100.452 108.958 89.9099C107.048 88.0235 104.975 86.2924 102.909 84.4484C102.501 84.1178 102.124 83.752 101.78 83.3554C101.402 82.9282 101.048 82.481 100.719 82.0155L100.638 81.8957L99.2685 80.8097C97.7771 79.6502 96.3449 78.417 94.9772 77.1147C93.5584 75.7812 92.3085 74.2798 91.2555 72.6439C90.8266 72.392 90.4216 72.1017 90.0456 71.7766L89.9147 71.8753C89.6211 71.5227 89.3345 71.1419 89.0515 70.7682C88.1564 69.9925 87.8027 68.5822 86.6812 67.9158C85.1033 66.3292 83.5243 64.7449 81.9441 63.163C74.0478 55.2464 66.1303 47.3521 58.1916 39.4801C52.0996 33.4368 49.5559 26.0502 49.6161 17.6376C49.6161 15.8747 49.8814 14.1118 49.7434 12.3489C49.287 6.76753 43.6266 2.85387 38.32 4.26772C36.8094 4.68377 35.2138 4.72255 33.6572 4.84596C32.4862 4.93763 31.2975 4.82127 30.1195 4.92C26.0404 5.27258 23.3128 8.13907 23.1642 12.2043C23.1163 12.968 23.1447 13.7345 23.2491 14.4926C23.8753 18.2476 21.827 20.9025 19.5026 23.3706C19.1736 23.7232 18.3352 23.7937 17.7762 23.7232C14.8894 23.2825 12.0274 23.0921 9.22899 24.1392C5.55326 25.5178 3.64995 28.5042 4.05325 32.3861C4.20184 33.8458 4.69005 35.2843 4.71127 36.737C4.75726 41.6731 7.46719 45.1108 10.9519 48.0866C16.5274 52.85 26.3518 51.0377 27.0098 42.6498C27.1371 40.9926 28.1879 40.3439 29.656 40.5343C31.0322 40.7282 32.5322 40.9715 33.6785 41.6731C36.1549 43.2069 38.7304 44.7829 40.8106 46.8102C53.1149 58.798 65.2883 70.9233 77.5042 83.0098C77.6875 83.2309 77.8519 83.4668 77.996 83.715C79.6658 85.4779 81.0809 87.2408 82.9205 88.8098C83.4901 89.1448 84.0597 89.4762 84.6045 89.8499C87.4347 91.7997 89.2708 93.8517 91.2661 96.6265L91.3227 96.6971C91.4218 96.7782 91.5279 96.8769 91.6411 96.9897C95.5716 100.963 99.5657 104.877 103.521 108.826C113.674 118.98 123.906 129.053 133.907 139.37C136.316 141.838 138.276 144.927 139.833 148.029C141.47 151.298 140.54 152.613 137.02 153.449C132.923 154.404 130.977 156.506 130.369 160.645C129.431 166.991 135.983 174.748 142.659 175.249C144.18 175.362 145.702 175.556 147.205 175.816C152.922 176.811 157.111 173.662 157.546 167.883C157.67 166.145 157.334 164.379 157.337 162.623C157.337 161.879 157.415 160.885 157.879 160.433C160.355 158.029 163.107 156.202 166.847 156.876C167.668 156.983 168.499 156.996 169.323 156.915C172.691 156.721 175.387 154.475 176.017 151.171C176.3 149.687 176.208 148.135 176.346 146.619C176.501 144.958 176.795 143.308 176.901 141.648C177 140.297 177.12 138.898 176.823 137.625ZM171.916 149.362L173.795 145.717L174.315 145.896C174.566 148.075 174.69 150.265 173.632 152.32C173.074 153.371 172.177 154.203 171.085 154.682C169.994 155.162 168.773 155.262 167.618 154.965C165.916 154.503 164.296 153.762 162.612 153.241C161.381 152.84 160.084 152.679 158.791 152.768L162.623 154.929C158.678 155.561 156.326 159.333 152.165 158.268C152.965 160.112 153.771 161.671 154.316 163.317C155.123 165.764 155.377 168.278 154.182 170.704C153.17 172.77 152.024 173.38 149.784 172.883C147.545 172.386 145.362 171.723 142.709 171.011L145.235 173.345C144.435 173.387 143.943 173.454 143.466 173.433C137.858 173.204 131.791 166.903 132.12 161.671C132.357 157.916 134.161 155.945 137.83 155.088C139.358 154.736 140.795 153.988 142.327 153.396C141.948 154.993 140.837 156.326 139.143 157.228C138.873 157.346 138.594 157.44 138.308 157.51C133.967 158.854 132.973 161.357 135.286 165.327C135.961 166.399 136.746 167.397 137.628 168.306C136.072 162.891 136.132 161.928 138.209 160.578C138.209 164.633 138.209 164.633 139.047 165.726C139.213 165.073 139.316 164.463 139.525 163.889C140.728 160.528 144.364 159.178 147.442 161.012C148.592 161.696 149.614 162.595 151.118 163.705C150.601 162.566 150.41 161.748 149.936 161.156C146.37 156.71 144.011 151.598 141.509 146.542C139.238 141.958 135.75 138.245 132.152 134.67C107.805 110.471 83.4477 86.2877 59.0796 62.1193C53.5253 56.605 47.9439 51.1176 42.3354 45.6573C38.7481 42.1808 34.4745 39.7269 29.9956 37.5479C26.9496 36.0565 24.0699 34.2195 21.1512 32.5095C19.7361 31.6915 18.3847 30.8101 17.0015 29.9568C16.913 30.0767 16.821 30.1966 16.7326 30.3094C21.9614 35.6863 20.6029 40.1817 14.6099 42.0116L14.5675 42.5334L19.4177 42.8543C18.3564 44.8358 16.7149 44.9486 11.5675 43.0059C13.7927 45.3682 16.0286 46.7997 18.9649 46.7362C20.847 46.6939 21.827 45.6785 22.4602 43.1399C22.6467 42.2782 23.024 41.4688 23.5644 40.771C24.1049 40.0732 24.7949 39.5044 25.5841 39.1063C25.9575 38.9457 26.348 38.8274 26.748 38.7538C26.1855 40.0689 25.4461 41.3523 25.1065 42.7626C23.8152 48.1324 18.643 50.5547 13.8387 47.7234C9.46956 45.1496 6.61813 41.451 6.86931 35.8908L9.07333 38.4012C8.37286 35.7815 7.69714 33.525 7.18771 31.2332C6.64289 28.8533 7.33983 27.6686 9.6323 26.6955C12.6394 25.4156 15.5333 26.1278 18.3776 27.249C19.4602 27.6756 20.4755 28.2609 21.8694 28.9449C20.7762 24.7175 24.5227 22.3904 25.2303 18.3287L27.452 22.4786L27.873 22.3587C27.5192 20.9307 27.2362 19.4816 26.8117 18.0784C26.3977 16.7315 25.7751 15.4516 25.3576 14.1083C24.2963 10.6918 26.0475 7.64898 29.5817 6.93677C31.103 6.63355 32.6985 6.70054 34.2622 6.58418L34.4992 7.16242L31.4603 9.05578C31.531 9.21444 31.5983 9.37311 31.669 9.52824C33.2893 8.82308 35.0794 8.36825 36.4874 7.37044C39.07 5.53702 41.603 5.42419 44.2705 6.89446C46.938 8.36472 48.0135 10.8363 48.0418 13.8051C48.0842 17.9479 48.1196 22.0872 48.155 26.0044C47.0716 23.6603 46.4174 21.142 46.2234 18.5684C46.0402 16.421 45.6516 14.2958 45.063 12.222C44.833 11.3546 44.0016 10.6495 43.1915 9.51766C43.4957 18.6848 41.5747 23.0956 36.6962 24.3931C40.4391 27.6333 45.9333 28.6241 47.7587 33.9586C45.7281 32.7881 43.8 31.6704 41.8684 30.5527L41.6137 30.8806C41.9391 31.2332 42.2611 31.5858 42.5936 31.9383C47.9003 37.4422 53.1397 43.0059 58.5383 48.418C60.3355 50.2162 62.5395 51.5913 64.5525 53.2096C65.6138 54.0558 66.5973 54.9725 67.6268 55.8328C68.8797 56.9361 70.2242 57.9315 71.6457 58.8086C71.4001 58.4344 71.1244 58.0807 70.8214 57.7509C67.7683 54.909 64.7541 52.0179 61.6232 49.2677C57.2378 45.4124 53.611 40.7769 50.9286 35.5981C50.6253 35.015 50.4883 34.3601 50.5323 33.7048C50.7252 33.866 50.9007 34.0468 51.0559 34.2442C56.7553 42.2796 64.319 48.5414 71.2459 55.3991C85.4607 69.4883 99.6388 83.6104 113.78 97.7654C121.351 105.335 128.77 113.06 136.422 120.56C139.433 123.514 142.871 126.042 146.116 128.761C146.585 129.096 146.962 129.543 147.212 130.062C146.488 129.857 145.779 129.603 145.09 129.3C139.666 126.538 134.854 122.719 130.939 118.071C128.604 115.282 125.986 112.74 123.463 110.099C123.313 109.935 123.123 109.813 122.912 109.742C122.701 109.671 122.476 109.654 122.257 109.693C123.502 111.121 124.733 112.556 125.993 113.977C126.382 114.418 127.001 114.746 127.199 115.25C129.046 119.879 133.259 122.302 136.627 125.549C140.915 129.66 145.1 133.88 149.331 138.051C149.473 138.216 149.647 138.351 149.842 138.448C150.037 138.545 150.249 138.602 150.467 138.616L146.883 132.375C149.487 133.63 151.291 135.195 152.611 137.29C153.884 139.314 155.041 141.411 156.502 143.492C156.941 140.216 159.372 139.155 161.841 138.168C164.31 137.181 166.741 136.451 169.426 136.902C169.925 136.987 170.424 137.061 170.926 137.138L171.184 136.556C169.769 135.851 168.425 134.935 166.939 134.522C165.375 134.088 163.656 134.258 162.046 133.965C159.534 133.507 157.058 132.875 154.564 132.318C154.603 132.1 154.645 131.878 154.684 131.656C155.137 131.719 155.59 131.821 156.043 131.839C159.502 131.994 162.969 132.34 166.419 132.223C171.018 132.068 174.517 134.339 175.072 138.672C175.253 140.082 174.747 141.824 174.011 143.097C172.458 145.773 171.828 147.099 171.916 149.362Z" fill="black"/>
<path d="M16.7149 30.313C21.9438 35.6898 20.5853 40.1852 14.5923 42.0152L14.5498 42.537L19.4001 42.8578C18.3388 44.8393 16.6973 44.9522 11.5498 43.0094C13.7751 45.3717 16.0109 46.8032 18.9473 46.7397C20.8294 46.6974 21.8093 45.682 22.4426 43.1434C22.6305 42.2794 23.0103 41.4683 23.5539 40.7697C24.0975 40.0712 24.7912 39.5028 25.5841 39.1063C25.9576 38.9457 26.348 38.8274 26.748 38.7538C26.1855 40.0689 25.4461 41.3523 25.1065 42.7626C23.8152 48.1324 18.643 50.5547 13.8387 47.7235C9.46961 45.1496 6.61818 41.451 6.86936 35.8908L9.07339 38.4012C8.37291 35.7815 7.6972 33.525 7.18776 31.2332C6.64295 28.8533 7.33988 27.6686 9.63235 26.6955C12.6394 25.4156 15.5333 26.1278 18.3777 27.249C19.4602 27.6756 20.4756 28.2609 21.8695 28.9449C20.7763 24.7175 24.5228 22.3904 25.2303 18.3287L27.452 22.4786L27.873 22.3587C27.5193 20.9308 27.2362 19.4816 26.8117 18.0784C26.3978 16.7315 25.7752 15.4516 25.3577 14.1083C24.2964 10.6918 26.0476 7.649 29.5818 6.93678C31.103 6.63356 32.6985 6.70055 34.2622 6.5842L34.4993 7.16243L31.4603 9.0558L31.6691 9.52826C33.2894 8.82309 35.0795 8.36826 36.4875 7.37046C39.0701 5.53703 41.6031 5.4242 44.2706 6.89447C46.938 8.36474 48.0135 10.8363 48.0418 13.8051C48.0843 17.9479 48.1196 22.0872 48.155 26.0044C47.0716 23.6603 46.4175 21.142 46.2234 18.5685C46.0402 16.421 45.6517 14.2958 45.063 12.222C44.8331 11.3546 44.0017 10.6495 43.1915 9.51768C43.4958 18.6848 41.5748 23.0956 36.6962 24.3931C40.4392 27.6333 45.9333 28.6241 47.7588 33.9587C45.7281 32.7881 43.8 31.6704 41.8684 30.5527L41.6137 30.8806C41.9392 31.2332 42.2611 31.5858 42.5937 31.9384C47.9003 37.4422 53.1397 43.0059 58.5383 48.418C60.3355 50.2162 62.5395 51.5913 64.5525 53.2096C65.6139 54.0558 66.5938 54.9725 67.6268 55.8328C68.8798 56.9361 70.2242 57.9316 71.6457 58.8086C71.4001 58.4344 71.1244 58.0807 70.8214 57.7509C67.7684 54.9091 64.7542 52.0179 61.6233 49.2678C57.2378 45.4124 53.6111 40.7769 50.9286 35.5982C50.6254 35.015 50.4883 34.3601 50.5324 33.7048C50.7253 33.866 50.9007 34.0468 51.056 34.2442C56.7553 42.2796 64.319 48.5414 71.246 55.3992C85.4607 69.4883 99.6389 83.6104 113.78 97.7654C121.351 105.335 128.77 113.06 136.422 120.56C139.433 123.514 142.871 126.042 146.116 128.761C146.585 129.096 146.962 129.543 147.212 130.062C146.488 129.857 145.779 129.603 145.09 129.3C139.666 126.538 134.855 122.719 130.939 118.071C128.604 115.282 125.986 112.74 123.463 110.099C123.313 109.935 123.123 109.813 122.912 109.742C122.701 109.671 122.476 109.654 122.257 109.693C123.502 111.121 124.733 112.556 125.993 113.977C126.382 114.418 127.001 114.746 127.199 115.25C129.046 119.879 133.259 122.302 136.627 125.549C140.915 129.66 145.1 133.88 149.331 138.051C149.473 138.216 149.647 138.351 149.842 138.448C150.037 138.545 150.249 138.602 150.467 138.616L146.883 132.375C149.487 133.63 151.291 135.195 152.611 137.29C153.885 139.314 155.041 141.412 156.502 143.492C156.941 140.216 159.372 139.155 161.841 138.168C164.31 137.181 166.741 136.451 169.426 136.902C169.925 136.987 170.424 137.061 170.926 137.138L171.184 136.556C169.769 135.851 168.425 134.935 166.939 134.522C165.375 134.088 163.656 134.258 162.046 133.965C159.534 133.507 157.058 132.876 154.564 132.318C154.603 132.1 154.645 131.878 154.684 131.656C155.137 131.719 155.59 131.821 156.043 131.839C159.502 131.994 162.969 132.34 166.419 132.223C171.018 132.068 174.517 134.339 175.072 138.672C175.253 140.082 174.747 141.824 174.011 143.097C172.461 145.766 171.832 147.092 171.92 149.355L173.795 145.717L174.315 145.896C174.566 148.075 174.69 150.265 173.632 152.32C173.074 153.371 172.177 154.203 171.085 154.682C169.994 155.162 168.773 155.262 167.618 154.965C165.916 154.503 164.296 153.762 162.612 153.241C161.381 152.84 160.084 152.679 158.791 152.768L162.623 154.93C158.678 155.561 156.326 159.333 152.165 158.268C152.965 160.112 153.771 161.671 154.316 163.317C155.123 165.764 155.377 168.278 154.182 170.704C153.17 172.77 152.024 173.38 149.784 172.883C147.545 172.386 145.362 171.723 142.709 171.011L145.235 173.345C144.435 173.387 143.943 173.454 143.466 173.433C137.858 173.204 131.791 166.903 132.12 161.671C132.357 157.916 134.161 155.945 137.83 155.088C139.358 154.736 140.795 153.988 142.327 153.396C141.948 154.993 140.837 156.326 139.143 157.228C138.873 157.346 138.594 157.44 138.308 157.51C133.967 158.854 132.973 161.357 135.286 165.327C135.961 166.399 136.746 167.397 137.628 168.306C136.072 162.891 136.132 161.928 138.209 160.578C138.209 164.633 138.209 164.633 139.047 165.726C139.213 165.073 139.316 164.463 139.525 163.889C140.728 160.529 144.364 159.178 147.442 161.012C148.592 161.696 149.614 162.595 151.118 163.705C150.601 162.566 150.41 161.748 149.936 161.156C146.37 156.71 144.011 151.598 141.509 146.542C139.238 141.958 135.75 138.245 132.152 134.67C107.805 110.471 83.4477 86.2877 59.0796 62.1194C53.5253 56.605 47.9439 51.1176 42.3354 45.6573C38.7481 42.1809 34.4745 39.7269 29.9957 37.5479C26.9497 36.0565 24.07 34.2196 21.1513 32.5095C19.7362 31.6916 18.3848 30.8101 17.0015 29.9569L16.7149 30.313ZM134.469 130.182L134.728 129.928C131.59 126.543 128.625 122.971 125.275 119.805C118.627 113.498 111.523 107.638 104.993 101.185C96.6577 92.9703 88.7437 84.3356 80.5821 75.9653C76.9771 72.2773 73.1528 68.7938 69.4453 65.2186L69.0915 65.5359L80.3026 77.6682L79.9842 77.9715L56.635 55.2511L56.1327 55.7412C58.5914 58.4772 60.9476 61.312 63.523 63.9316C74.8297 75.4188 86.173 86.8718 97.5528 98.2907C101.161 101.915 104.855 105.459 108.52 109.027C113.44 113.822 118.371 118.608 123.315 123.384C124.624 124.643 126.056 125.771 127.436 126.963L127.847 126.536L118.889 116.604L119.342 116.145L134.469 130.182ZM44.0017 43.7499L44.2069 43.5277C43.9916 43.1818 43.7363 42.8623 43.4463 42.5758C38.3377 38.5951 33.2292 34.6074 28.0605 30.7149C27.6749 30.4258 26.4473 30.6373 26.136 31.0322C25.8247 31.4271 25.7398 32.6576 26.09 33.0314C26.9815 33.9904 28.0535 35.0376 29.2528 35.4078C33.532 36.7212 37.5073 38.8675 40.9486 41.7225C41.8755 42.4982 42.9757 43.08 44.0017 43.7499ZM137.752 135.989L137.211 136.408C137.862 137.483 138.571 138.522 139.334 139.522C142.115 142.8 144.197 146.609 145.451 150.716C145.78 151.774 146.554 152.779 147.301 153.653C148.047 154.528 149.116 154.905 150.085 153.967C151.054 153.029 150.538 152.003 149.767 151.351C146.936 148.978 145.539 145.611 143.42 142.748C141.686 140.389 139.666 138.235 137.766 135.989H137.752ZM29.9922 19.1396L30.2681 19.1678C30.2681 17.1334 30.3176 15.0955 30.2292 13.0647C30.2292 12.6733 29.5959 11.9575 29.3766 12.0069C28.8955 12.1021 28.2587 12.504 28.1101 12.9307C27.9456 13.5402 27.9803 14.1861 28.2091 14.7747C28.7363 16.2485 29.3907 17.687 29.9922 19.1396ZM162.036 149.884L162.057 150.208C163.401 150.769 164.731 151.361 166.093 151.876C166.628 152.077 167.286 152.292 167.784 152.151C168.283 152.01 168.736 151.446 169.199 151.048C168.771 150.66 168.365 149.965 167.919 149.937C165.969 149.814 163.999 149.884 162.036 149.884ZM67.6092 62.5425L68.1398 61.996C66.3804 60.2331 64.6209 58.4702 62.8615 56.7072L62.0938 57.4688L67.6092 62.5425ZM79.5809 67.1754L76.7507 63.6037C76.2271 65.5676 77.3769 66.9885 79.5809 67.1754ZM113.589 100.939L113.069 101.531C113.94 102.906 114.898 104.165 116.681 104.352L117.148 103.766L113.589 100.939ZM36.4061 29.4632L35.8931 29.978L40.0642 33.7048C39.0736 31.9912 38.1502 30.3588 36.4061 29.4632ZM32.9533 26.6426L32.3625 27.4077L34.3295 28.9167L34.8601 28.2609L32.9533 26.6426Z" fill="white"/>
<path d="M134.469 130.182L119.359 116.153L118.907 116.611L127.864 126.543L127.472 126.97C126.092 125.778 124.659 124.65 123.35 123.391C118.397 118.629 113.466 113.843 108.555 109.034C104.89 105.466 101.197 101.922 97.5881 98.2978C86.2201 86.8671 74.8768 75.414 63.5584 63.9387C60.9829 61.319 58.6267 58.4842 56.168 55.7482L56.6703 55.2581L80.0195 77.9785L80.3379 77.6753L69.0985 65.5359L69.4523 65.2186C73.1704 68.7937 76.9841 72.2702 80.5891 75.9652C88.7684 84.3355 96.6824 92.9703 105 101.185C111.523 107.638 118.627 113.498 125.275 119.805C128.625 122.979 131.589 126.543 134.727 129.928L134.469 130.182Z" fill="black"/>
<path d="M44.0017 43.7498C42.9757 43.0799 41.879 42.4982 40.938 41.7225C37.4967 38.8675 33.5214 36.7212 29.2421 35.4077C28.0428 35.0552 26.9709 33.9974 26.0794 33.0313C25.7256 32.6576 25.7787 31.4694 26.1254 31.0322C26.4721 30.595 27.6643 30.4222 28.0605 30.7149C33.2398 34.5933 38.3483 38.5951 43.4568 42.5757C43.7469 42.8623 44.0022 43.1818 44.2175 43.5277L44.0017 43.7498Z" fill="black"/>
<path d="M137.767 135.989C139.666 138.235 141.686 140.389 143.427 142.748C145.55 145.611 146.965 148.978 149.774 151.351C150.545 152.003 151.054 153.043 150.092 153.967C149.13 154.891 148.054 154.524 147.308 153.653C146.561 152.782 145.787 151.788 145.458 150.716C144.204 146.609 142.123 142.8 139.341 139.522C138.578 138.522 137.87 137.483 137.218 136.408L137.767 135.989Z" fill="black"/>
<path d="M29.9922 19.1396C29.3907 17.687 28.7363 16.2485 28.2233 14.7676C27.9944 14.1791 27.9597 13.5331 28.1242 12.9236C28.2728 12.497 28.9096 12.095 29.3907 11.9998C29.6101 11.9575 30.2257 12.6733 30.2433 13.0576C30.3318 15.0885 30.2823 17.1264 30.2823 19.1608L29.9922 19.1396Z" fill="black"/>
<path d="M162.036 149.884C163.999 149.884 165.97 149.814 167.926 149.937C168.372 149.965 168.779 150.642 169.207 151.048C168.736 151.432 168.319 152 167.792 152.151C167.264 152.303 166.635 152.077 166.101 151.876C164.738 151.361 163.408 150.769 162.064 150.208L162.036 149.884Z" fill="black"/>
<path d="M67.6091 62.5425L62.0938 57.4759L62.8614 56.7143C64.6185 58.4748 66.378 60.2378 68.1398 62.003L67.6091 62.5425Z" fill="black"/>
<path d="M79.581 67.1754C77.377 66.9885 76.2273 65.5676 76.7508 63.6037L79.581 67.1754Z" fill="black"/>
<path d="M113.589 100.939L117.148 103.759L116.681 104.345C114.912 104.168 113.94 102.91 113.069 101.524L113.589 100.939Z" fill="black"/>
<path d="M36.406 29.4632C38.1502 30.3588 39.0735 31.9912 40.0641 33.6942L35.8931 29.978L36.406 29.4632Z" fill="black"/>
<path d="M32.9531 26.6567L34.86 28.275L34.3293 28.9308L32.3623 27.4218L32.9531 26.6567Z" fill="black"/>
</svg>
