<svg width="146" height="254" viewBox="0 0 146 254" fill="none" xmlns="http://www.w3.org/2000/svg">
<path fill-rule="evenodd" clip-rule="evenodd" d="M139.747 50.595C140.445 56.1162 139.258 60.9145 138.765 65.1209C138.276 69.3274 138.482 72.9385 139.102 76.8614C139.722 80.7844 140.753 85.0156 141.501 89.8387C142.249 94.6618 142.713 100.08 142.249 103.305C141.785 106.53 140.392 107.561 138.638 108.567C136.884 109.574 134.768 110.556 133.478 111.973C132.188 113.391 131.724 115.251 131.519 117.26C131.313 119.273 131.363 121.438 132.036 124.355C132.706 127.272 133.996 130.936 135.392 134.469C136.785 138.002 138.28 141.408 139.853 143.782C141.427 146.156 143.078 147.496 144.29 148.555C145.502 149.611 146.278 150.388 145.527 153.098C144.779 155.806 142.507 160.452 139.644 166.334C136.781 172.217 133.322 179.337 128.524 186.201C123.726 193.065 117.585 199.667 112.865 203.668C108.145 207.665 104.842 209.062 101.926 210.713C99.0096 212.364 96.483 214.275 93.6978 215.331C90.9125 216.387 87.8685 216.596 85.4163 216.387C82.9641 216.181 81.1073 215.561 79.4808 215.224C77.8543 214.888 76.4616 214.838 74.6579 215.249C72.8507 215.66 70.6324 216.539 67.925 216.9C65.2177 217.262 62.0178 217.106 58.3006 216.1C54.5869 215.093 50.3558 213.236 47.6449 211.971C44.9376 210.706 43.7505 210.036 42.9745 209.469C42.202 208.902 41.8405 208.438 38.0205 205.057C34.2005 201.676 26.9254 195.383 20.6072 187.076C14.2854 178.77 8.92033 168.447 5.59287 161.947C2.26542 155.444 0.975545 152.762 1.00035 151.242C1.02516 149.718 2.36819 149.356 4.68925 147.166C7.01032 144.973 10.313 140.947 12.3257 136.407C14.3385 131.868 15.0614 126.811 15.6 122.838C16.1422 118.866 16.5037 115.974 16.2698 113.887C16.0359 111.796 15.2138 110.506 14.1294 109.528C13.0451 108.546 11.7056 107.876 10.157 107.696C8.60849 107.515 6.8544 107.823 5.92597 107.001C4.99755 106.175 4.89478 104.216 4.79202 100.913C4.68925 97.6102 4.58649 92.9643 5.43695 89.1725C6.28742 85.3806 8.09467 82.4393 9.02309 79.909C9.95152 77.3788 10.0047 75.2632 9.54046 72.4282C9.07625 69.5896 8.09467 66.0281 8.22578 60.6097C8.35335 55.1913 9.59361 47.9159 12.5596 40.8992C15.5256 33.8826 20.2209 27.1211 24.0409 22.298C27.8574 17.4714 30.7986 14.5832 35.625 11.7447C40.4479 8.9061 47.1559 6.1207 53.7116 4.08303C60.2638 2.04537 66.6635 0.755436 74.9946 1.03894C83.3291 1.32244 93.595 3.17937 100.742 5.37297C107.89 7.56656 111.915 10.0933 116.919 14.686C121.923 19.2787 127.908 25.9339 132.192 32.3836C136.476 38.8332 139.052 45.0774 139.751 50.5985L139.747 50.595Z" fill="white" stroke="#2B2A29" stroke-width="0.199878" stroke-miterlimit="22.9256"/>
<path fill-rule="evenodd" clip-rule="evenodd" d="M38.0205 205.063C34.2005 201.682 26.9254 195.388 20.6072 187.082C14.2854 178.775 8.92033 168.452 5.59288 161.953C2.26542 155.45 0.975545 152.767 1.00035 151.247C1.02516 149.723 2.36819 149.362 4.68925 147.172C7.01032 144.978 10.313 140.953 12.3257 136.413C14.3385 131.873 15.0614 126.816 15.6 122.844C16.1422 118.871 16.5037 115.98 16.2698 113.892C16.0359 111.801 15.2138 110.512 14.1294 109.533C13.0451 108.552 11.7056 107.882 10.1571 107.701C8.60849 107.521 6.8544 107.829 5.92597 107.007C4.99755 106.181 4.89478 104.221 4.79202 100.919C4.68925 97.6158 4.58649 92.9699 5.43696 89.178C6.28742 85.3862 8.09467 82.4449 9.02309 79.9146C9.95152 77.3844 10.0047 75.2688 9.54046 72.4337C9.07625 69.5952 8.09467 66.0337 8.22578 60.6153C8.35335 55.1969 9.59362 47.9215 12.5596 40.9048C15.5256 33.8882 20.2209 27.1267 24.0409 22.3036C27.8574 17.477 30.7986 14.5888 35.625 11.7503C40.4479 8.91171 47.1559 6.12631 53.7116 4.08864C60.2638 2.05097 66.6635 0.761043 74.9946 1.04454C83.3292 1.32805 93.595 3.18498 100.742 5.37857C107.89 7.57217 111.916 10.0989 116.919 14.6916C121.923 19.2843 127.908 25.9395 132.192 32.3892C136.476 38.8388 139.053 45.0829 139.751 50.6041C140.449 56.1253 139.262 60.9236 138.769 65.13C138.28 69.3365 138.486 72.9476 139.106 76.8705C139.726 80.7935 140.757 85.0247 141.505 89.8478C142.252 94.6709 142.717 100.089 142.252 103.314C141.788 106.539 140.396 107.57 138.641 108.577C136.887 109.583 134.772 110.565 133.482 111.982C132.192 113.4 131.728 115.26 131.522 117.27C131.317 119.282 131.366 121.448 132.04 124.364C132.709 127.281 133.999 130.945 135.395 134.478C136.788 138.011 138.284 141.417 139.857 143.791C141.43 146.165 143.082 147.505 144.294 148.565C145.505 149.621 146.281 150.397 145.53 153.108C144.783 155.815 142.511 160.461 139.648 166.344C136.785 172.226 133.326 179.346 128.528 186.21C123.73 193.074 117.589 199.676 112.869 203.677C108.149 207.675 104.846 209.071 101.93 210.722C99.0132 212.374 96.4866 214.284 93.7013 215.34C90.916 216.396 87.8721 216.605 85.4199 216.396C82.9677 216.19 81.1109 215.57 79.4843 215.233C77.8578 214.897 76.4652 214.847 74.6615 215.258C72.8542 215.669 70.6359 216.548 67.9286 216.91C65.2213 217.271 62.0214 217.115 58.3041 216.109C54.5904 215.102 50.3594 213.245 47.6485 211.98C44.9412 210.715 43.7541 210.045 42.978 209.478C42.2055 208.911 41.8441 208.447 38.024 205.066L38.0205 205.063ZM26.7093 115.388C26.4648 116.199 26.1813 117.103 25.6781 117.362C25.1749 117.62 24.452 117.234 23.8354 116.922C23.2153 116.61 22.7014 116.38 22.4286 115.221C22.1593 114.059 22.1309 111.972 22.3258 110.409C22.5207 108.85 22.9318 107.815 24.9304 107.17C26.929 106.525 30.5151 106.266 34.3103 105.171C38.102 104.076 42.1027 102.138 45.6109 100.32C49.1191 98.5017 52.1383 96.7972 52.5883 96.2301C53.0383 95.6631 50.9228 96.2301 47.8434 97.1976C44.7605 98.165 40.7101 99.5329 36.518 100.398C32.3259 101.262 27.9921 101.624 24.2004 101.624C20.4087 101.624 17.1557 101.262 15.3378 100.851C13.5199 100.437 13.1301 99.9759 12.7829 99.1112C12.4356 98.2466 12.1238 96.9814 12.2939 93.4341C12.4604 89.8868 13.1053 84.0538 13.853 79.617C14.6007 75.1802 15.4512 72.1361 15.5823 69.659C15.7099 67.1819 15.1181 65.2718 14.6149 63.4786C14.1117 61.6855 13.7007 60.0093 14.6291 55.6753C15.5575 51.3412 17.829 44.3494 20.5257 38.4915C23.2224 32.6337 26.3443 27.9134 29.6469 24.2243C32.9496 20.5353 36.433 17.8774 40.2884 15.4393C44.1439 13.0012 48.3749 10.7828 52.4643 9.1704C56.5536 7.55799 60.5012 6.55156 64.5267 6.04834C68.5523 5.54513 72.6522 5.54513 77.3369 5.85344C82.018 6.16175 87.2838 6.7819 92.8048 8.08601C98.3257 9.39012 104.105 11.3746 108.439 13.7738C112.773 16.1729 115.661 18.9866 118.5 21.9528C121.338 24.9189 124.123 28.041 126.561 32.297C128.999 36.5531 131.09 41.9467 132.249 46.0752C133.411 50.2037 133.641 53.0671 133.588 55.9446C133.535 58.8221 133.202 61.7103 132.894 63.5424C132.585 65.3746 132.298 66.1471 132.263 67.2847C132.224 68.4187 132.429 69.9141 132.61 71.1296C132.791 72.3416 132.947 73.2701 133.28 74.9108C133.617 76.5481 134.13 78.8976 134.712 82.2252C135.293 85.5528 135.938 89.862 136.182 92.8281C136.427 95.7943 136.274 97.4209 135.977 98.4663C135.679 99.5117 135.24 99.9759 133.964 100.323C132.688 100.67 130.573 100.904 127.592 100.904C124.612 100.904 120.767 100.67 116.912 100.118C113.057 99.5613 109.187 98.686 106.178 98.0268C103.173 97.3677 101.03 96.9318 99.3924 96.6731C97.7552 96.4144 96.6177 96.3365 96.4016 96.6731C96.1819 97.0098 96.8799 97.7575 97.858 98.3777C98.8396 98.9978 100.101 99.4869 103.701 100.543C107.302 101.599 113.234 103.226 116.845 104.296C120.456 105.366 121.745 105.883 122.83 106.45C123.914 107.017 124.789 107.638 125.502 108.527C126.21 109.417 126.753 110.579 126.714 111.933C126.675 113.286 126.055 114.835 125.346 115.778C124.637 116.72 123.836 117.053 123.142 116.926C122.444 116.798 121.852 116.203 121.543 115.299C121.235 114.396 121.207 113.184 120.845 113.237C120.484 113.29 119.789 114.605 119.208 115.405C118.627 116.206 118.163 116.49 117.171 116.915C116.178 117.34 114.655 117.907 113.535 118.308C112.412 118.708 111.689 118.939 111.186 119.417C110.682 119.895 110.399 120.615 110.154 120.966C109.91 121.313 109.704 121.288 109.265 120.629C108.825 119.97 108.156 118.68 107.769 117.029C107.383 115.377 107.277 113.364 107.047 112.514C106.813 111.663 106.451 111.972 106.054 113.212C105.654 114.449 105.215 116.617 105.023 118.294C104.828 119.97 104.881 121.157 104.29 121.763C103.694 122.369 102.458 122.394 100.987 122.511C99.5164 122.628 97.8155 122.833 96.5114 122.78C95.2074 122.727 94.3037 122.419 93.7509 120.987C93.1946 119.555 92.9891 117 92.8615 115.182C92.7339 113.364 92.6808 112.28 92.4752 112.758C92.2697 113.237 91.9082 115.274 91.6354 117.067C91.3661 118.861 91.1853 120.409 91.0046 121.479C90.8239 122.55 90.6432 123.145 89.6758 123.492C88.7084 123.84 86.9543 123.942 85.3667 124.215C83.7792 124.485 82.3617 124.924 80.8522 125.002C79.3426 125.08 77.7409 124.796 76.9684 123.957C76.1959 123.117 76.2455 121.724 76.49 119.197C76.7345 116.667 77.1739 113.006 77.2908 110.901C77.4078 108.8 77.2022 108.258 76.8798 108.644C76.5573 109.03 76.1179 110.345 75.6147 111.947C75.1115 113.545 74.5445 115.43 74.1441 117.404C73.7437 119.378 73.5133 121.441 73.3432 122.784C73.1767 124.127 73.0739 124.743 72.6841 125.144C72.2979 125.544 71.6246 125.725 69.7429 125.622C67.8613 125.519 64.7642 125.133 62.6344 124.694C60.5047 124.254 59.346 123.765 58.5983 123.067C57.8506 122.369 57.5139 121.469 57.2836 119.778C57.0497 118.088 56.9221 115.611 56.8194 114.81C56.7166 114.009 56.6386 114.888 56.5501 116.125C56.4615 117.362 56.3552 118.963 56.1496 120.2C55.9441 121.437 55.6323 122.316 55.0157 122.833C54.3955 123.351 53.4671 123.503 52.0355 123.283C50.6039 123.064 48.6691 122.472 47.1063 121.862C45.5471 121.256 44.36 120.636 43.7257 119.374C43.095 118.109 43.017 116.203 42.8611 114.771C42.7052 113.339 42.4748 112.386 42.3189 112.514C42.163 112.641 42.085 113.853 41.8689 115.211C41.6492 116.564 41.2877 118.06 40.7597 119.017C40.2317 119.97 39.5336 120.384 38.9914 120.501C38.4493 120.618 38.063 120.438 37.0035 120.129C35.9475 119.817 34.2182 119.382 33.1339 118.815C32.0495 118.248 31.6136 117.549 30.9297 116.802C30.2458 116.054 29.3174 115.253 28.6866 114.633C28.0559 114.013 27.7192 113.577 27.4463 113.719C27.177 113.86 26.968 114.583 26.7235 115.395L26.7093 115.388ZM113.687 141.353C115.222 140.938 118.333 139.999 120.183 139.262C122.033 138.525 122.628 137.997 122.943 137.391C123.259 136.785 123.298 136.101 122.957 134.12C122.614 132.139 121.894 128.861 121.462 126.76C121.03 124.658 120.888 123.73 120.456 123.457C120.023 123.188 119.3 123.574 118.4 124.088C117.497 124.605 116.412 125.25 115.611 126.03C114.811 126.809 114.297 127.727 113.857 128.932C113.418 130.137 113.057 131.636 112.844 132.99C112.631 134.343 112.568 135.555 112.546 136.661C112.529 137.763 112.553 138.755 112.507 139.549C112.461 140.343 112.344 140.935 112.27 141.293C112.192 141.647 112.153 141.764 113.687 141.349V141.353ZM97.8934 145.52C98.9104 145.418 100.849 144.539 102.964 144.025C105.08 143.508 107.376 143.355 108.485 142.618C109.594 141.881 109.516 140.566 109.4 137.962C109.283 135.357 109.13 131.459 108.921 129.308C108.716 127.153 108.457 126.742 107.812 126.508C107.167 126.274 106.136 126.225 105.218 126.381C104.3 126.536 103.503 126.898 102.521 127.837C101.54 128.78 100.381 130.3 99.5412 131.462C98.7014 132.625 98.1875 133.422 97.7871 134.74C97.3867 136.055 97.1032 137.887 96.9366 139.567C96.7701 141.243 96.7169 142.767 96.7417 143.862C96.7665 144.957 96.8693 145.63 97.8899 145.527L97.8934 145.52ZM78.1945 148.745C79.9485 148.618 83.198 148.384 85.9195 148.189C88.641 147.994 90.8345 147.842 92.0216 147.402C93.2088 146.963 93.3895 146.24 93.4285 144.269C93.4674 142.296 93.3647 139.071 93.1202 136.218C92.8757 133.365 92.4894 130.888 91.9331 129.588C91.3767 128.284 90.6573 128.156 89.9096 128.234C89.1619 128.312 88.3859 128.595 87.2909 129.021C86.1959 129.446 84.7749 130.013 83.4461 131.292C82.1172 132.568 80.8805 134.556 79.8848 136.466C78.8926 138.376 78.1413 140.205 77.6027 141.573C77.0605 142.941 76.7239 143.844 76.4935 144.861C76.2596 145.882 76.1321 147.016 76.0541 147.714C75.9762 148.409 75.9513 148.667 76.0683 148.784C76.1852 148.901 76.4404 148.873 78.1945 148.745ZM58.2014 147.725C60.6252 147.764 65.1398 147.686 68.0066 147.764C70.8698 147.842 72.0817 148.072 72.6522 147.647C73.2192 147.221 73.1413 146.137 72.7798 144.114C72.4184 142.087 71.7734 139.12 70.6111 136.813C69.4488 134.503 67.7727 132.851 66.0328 131.484C64.2893 130.116 62.4856 129.031 61.1568 128.4C59.8279 127.77 58.9774 127.589 58.1624 127.663C57.3509 127.741 56.5749 128.078 56.1248 128.89C55.6748 129.701 55.5437 130.991 55.4799 132.929C55.4161 134.864 55.4161 137.444 55.324 139.843C55.2318 142.242 55.0547 144.461 55.0015 145.687C54.9483 146.913 55.0263 147.143 55.2354 147.338C55.4409 147.53 55.7775 147.686 58.2014 147.725ZM40.2955 143.249C41.7413 143.841 44.5514 144.642 46.3693 145.145C48.1871 145.648 49.0128 145.854 49.6719 145.893C50.331 145.931 50.82 145.804 51.1283 145.145C51.4366 144.486 51.5677 143.298 51.5288 141.753C51.4898 140.205 51.2842 138.295 50.82 136.388C50.3558 134.478 49.6329 132.568 48.7931 131.062C47.9533 129.552 47 128.443 45.9547 127.515C44.9093 126.586 43.7753 125.838 42.9603 125.526C42.1488 125.218 41.6562 125.346 41.2842 126.016C40.9085 126.685 40.6534 127.897 40.3805 130.08C40.1112 132.26 39.8242 135.407 39.5407 137.536C39.2572 139.666 38.9737 140.775 38.871 141.523C38.7682 142.271 38.8462 142.657 40.292 143.252L40.2955 143.249ZM34.3599 140.875C33.3288 140.899 31.4435 139.999 30.0651 139.354C28.6866 138.709 27.8078 138.323 27.2125 137.83C26.6207 137.341 26.3088 136.746 26.2061 134.489C26.1033 132.231 26.2061 128.308 26.5675 125.796C26.929 123.28 27.5491 122.171 28.3996 121.834C29.25 121.497 30.3344 121.937 31.4435 122.777C32.5527 123.616 33.6867 124.853 34.3847 126.001C35.0793 127.15 35.338 128.206 35.4939 130.35C35.6498 132.49 35.6994 135.715 35.6356 137.806C35.5719 139.896 35.3911 140.85 34.3599 140.875ZM98.7829 169.834C99.5377 169.653 100.867 169.37 102.755 168.364C104.644 167.357 107.096 165.628 108.418 163.551C109.74 161.474 109.935 159.047 109.825 156.102C109.715 153.154 109.304 149.684 108.804 147.891C108.308 146.098 107.727 145.981 106.419 146.144C105.112 146.307 103.071 146.743 101.522 146.977C99.9735 147.211 98.9175 147.236 98.2584 147.817C97.5993 148.398 97.3406 149.532 97.2378 151.694C97.1351 153.855 97.1847 157.041 97.2981 160.014C97.4079 162.988 97.5745 165.748 97.6454 167.407C97.7162 169.065 97.6914 169.618 97.7694 169.859C97.8474 170.096 98.0281 170.018 98.7829 169.841V169.834ZM76.3943 174.632C76.7416 174.827 77.181 175.033 78.3433 174.877C79.5056 174.721 81.3873 174.207 83.6445 172.981C85.9018 171.755 88.5347 169.82 90.1471 167.768C91.7594 165.716 92.3547 163.548 92.5461 160.904C92.7374 158.26 92.5319 155.138 92.3902 153.15C92.2484 151.162 92.1705 150.312 91.1251 150.117C90.0797 149.922 88.067 150.386 86.2739 150.684C84.4808 150.981 82.9075 151.109 81.4121 151.173C79.9167 151.237 78.4957 151.237 77.6062 151.612C76.7168 151.984 76.3553 152.732 76.1746 153.416C75.9939 154.1 75.9939 154.72 75.9159 157.814C75.838 160.911 75.682 166.482 75.6076 169.604C75.5297 172.726 75.5297 173.396 75.6608 173.821C75.7883 174.246 76.047 174.427 76.3978 174.622L76.3943 174.632ZM70.7812 175.214C69.4913 175.111 67.1703 174.749 65.2992 174.002C63.4282 173.254 62.0108 172.116 60.448 170.171C58.8888 168.222 57.1844 165.461 56.1142 163.268C55.044 161.074 54.6046 159.447 54.4381 157.385C54.2715 155.322 54.3743 152.817 54.3743 151.488C54.3743 150.159 54.2715 150.003 54.9023 149.978C55.533 149.954 56.9009 150.056 59.2609 150.173C61.621 150.29 64.9768 150.421 67.3652 150.588C69.75 150.755 71.1675 150.96 71.8656 151.658C72.5601 152.353 72.5353 153.54 72.5353 157.41C72.5353 161.28 72.5601 167.832 72.5743 171.213C72.5885 174.593 72.5885 174.799 72.4573 174.98C72.3298 175.16 72.0711 175.316 70.7812 175.214ZM37.7441 148.834C37.7051 150.73 37.5775 154.121 37.8291 156.651C38.0807 159.178 38.7115 160.844 39.9695 162.488C41.2275 164.132 43.1091 165.759 44.7498 166.971C46.387 168.183 47.7832 168.984 48.7825 169.299C49.7818 169.614 50.3877 169.448 50.82 168.899C51.2524 168.349 51.5075 167.421 51.5819 163.969C51.6528 160.518 51.5358 154.546 51.387 151.552C51.2382 148.557 51.0575 148.547 50.1432 148.487C49.2254 148.43 47.5741 148.324 45.5507 147.82C43.5237 147.317 41.1247 146.413 39.7533 146.066C38.3784 145.719 38.0311 145.924 37.8823 146.226C37.7335 146.53 37.7866 146.927 37.7476 148.827L37.7441 148.834ZM33.2154 163.264C32.3649 163.115 30.9581 162.754 29.4237 161.581C27.8893 160.408 26.2238 158.42 25.3273 156.931C24.4307 155.439 24.3032 154.447 24.2004 151.513C24.0976 148.579 24.0197 143.702 24.1083 141.346C24.1969 138.993 24.4555 139.159 25.1643 139.602C25.873 140.049 27.0353 140.768 28.552 141.53C30.0686 142.292 31.9397 143.089 33.2083 143.536C34.4804 143.979 35.1502 144.071 35.4266 144.464C35.703 144.858 35.5896 145.552 35.4124 148.43C35.2388 151.307 35.0049 156.364 34.8702 159.203C34.7356 162.041 34.6966 162.662 34.5265 163.002C34.3599 163.342 34.0623 163.409 33.2118 163.261L33.2154 163.264ZM114.329 162.966C114.857 163.165 115.838 163.051 117.181 162.212C118.524 161.372 120.225 159.812 121.49 158.618C122.755 157.424 123.581 156.598 123.935 154.238C124.29 151.878 124.173 147.983 124.031 145.446C123.889 142.912 123.723 141.736 123.631 141.027C123.539 140.318 123.528 140.074 122.585 140.467C121.643 140.86 119.772 141.892 118.174 142.622C116.575 143.352 115.246 143.777 114.428 144.287C113.609 144.797 113.301 145.389 113.202 146.275C113.106 147.158 113.22 148.334 113.329 150.957C113.439 153.582 113.542 157.658 113.634 159.954C113.723 162.251 113.801 162.768 114.332 162.966H114.329ZM124.261 134.864C124.74 135.329 125.888 135.084 126.951 134.864C128.014 134.645 128.996 134.45 129.421 133.812C129.846 133.174 129.719 132.09 129.485 131.278C129.251 130.466 128.918 129.924 128.826 129.116C128.737 128.308 128.889 127.238 128.865 126.016C128.84 124.789 128.631 123.407 128.361 122.507C128.092 121.604 127.755 121.178 127.316 120.983C126.877 120.788 126.334 120.827 125.714 121.235C125.094 121.643 124.4 122.415 123.992 123.262C123.585 124.105 123.468 125.023 123.546 126.501C123.624 127.979 123.893 130.016 123.932 131.622C123.971 133.227 123.776 134.404 124.254 134.868L124.261 134.864ZM126.079 153.292C126.349 153.558 126.866 153.852 127.32 153.923C127.77 153.994 128.159 153.838 128.726 153.444C129.293 153.051 130.041 152.417 130.519 151.605C130.998 150.794 131.203 149.801 131.189 147.902C131.175 146.006 130.945 143.206 130.764 141.367C130.583 139.528 130.456 138.653 130.204 138.142C129.952 137.632 129.577 137.49 129.056 137.377C128.535 137.26 127.862 137.171 127.327 137.125C126.792 137.079 126.391 137.079 126.051 137.253C125.711 137.426 125.424 137.774 125.349 139.439C125.271 141.105 125.402 144.085 125.477 146.392C125.555 148.699 125.58 150.34 125.619 151.254C125.658 152.169 125.711 152.363 125.746 152.576C125.785 152.789 125.81 153.023 126.083 153.285L126.079 153.292ZM22.6022 135.29C22.1557 135.236 21.3053 135.02 20.6355 134.917C19.9658 134.815 19.4732 134.825 19.048 134.762C18.6227 134.698 18.2613 134.556 18.1125 134.032C17.9636 133.511 18.0274 132.607 18.357 131.147C18.6865 129.69 19.2783 127.678 19.6291 126.058C19.9764 124.439 20.0792 123.212 20.2812 122.202C20.4796 121.189 20.7773 120.392 21.3832 120.094C21.9892 119.796 22.907 120.005 23.6263 120.473C24.3492 120.944 24.8772 121.678 25.1146 122.854C25.3521 124.027 25.3025 125.64 25.2068 127.745C25.1111 129.846 24.9694 132.44 24.8347 133.861C24.7 135.279 24.5689 135.527 24.2854 135.538C24.002 135.552 23.5625 135.332 23.3251 135.279C23.0877 135.226 23.0487 135.343 22.6022 135.293V135.29ZM22.2798 151.286C22.4038 148.667 22.6873 143.571 22.907 140.772C23.1267 137.972 23.2791 137.469 22.8219 137.164C22.3648 136.859 21.2946 136.757 20.3379 136.707C19.3846 136.654 18.5448 136.654 18.2152 137.154C17.8857 137.65 18.0664 138.642 18.1373 140.896C18.2081 143.146 18.1692 146.654 18.1833 148.767C18.1975 150.875 18.2613 151.584 18.6405 152.339C19.0196 153.093 19.7177 153.894 20.3414 154.408C20.9651 154.926 21.5214 155.156 21.8262 155.074C22.1309 154.989 22.1805 154.589 22.1876 154.32C22.1947 154.05 22.1557 153.905 22.2762 151.29L22.2798 151.286ZM10.5468 158.278C12.5703 161.903 16.0288 169.076 19.6787 175.15C23.3287 181.227 27.1735 186.206 32.2054 191.352C37.2374 196.498 43.4529 201.813 48.6159 205.336C53.7754 208.858 57.8789 210.584 60.9087 211.194C63.9385 211.8 65.9017 211.282 67.7833 210.651C69.665 210.021 71.4722 209.273 73.1483 208.848C74.8245 208.422 76.373 208.32 77.8436 208.745C79.3142 209.17 80.7069 210.123 82.1385 210.797C83.5701 211.466 85.0407 211.853 87.5035 211.52C89.9663 211.183 93.4249 210.127 96.9721 208.451C100.519 206.774 104.155 204.478 107.447 201.756C110.735 199.035 113.677 195.888 116.501 192.624C119.325 189.36 122.036 185.98 125.388 181.206C128.741 176.433 132.741 170.267 135.307 165.66C137.872 161.056 139.01 158.009 139.382 155.624C139.754 153.239 139.368 151.509 138.454 150.166C137.536 148.823 136.094 147.87 135.279 147.211C134.467 146.552 134.286 146.19 133.783 147.675C133.28 149.16 132.454 152.487 131.707 154.77C130.959 157.052 130.286 158.292 129.566 159.373C128.843 160.457 128.071 161.386 127.607 162.729C127.142 164.072 126.986 165.826 126.692 166.368C126.395 166.911 125.955 166.241 125.169 165.596C124.382 164.951 123.244 164.331 122.422 164.37C121.597 164.409 121.079 165.103 120.037 165.943C118.992 166.783 117.419 167.761 116.427 168.69C115.434 169.618 115.02 170.497 114.658 171.773C114.297 173.048 113.989 174.728 113.485 174.983C112.982 175.242 112.288 174.08 111.834 173.137C111.384 172.194 111.175 171.471 110.285 171.319C109.396 171.163 107.823 171.578 106.558 172.053C105.292 172.531 104.339 173.073 103.333 173.832C102.326 174.593 101.27 175.572 100.342 177.159C99.4136 178.747 98.6128 180.94 97.8509 181.624C97.089 182.308 96.3661 181.483 95.6822 180.09C94.9983 178.697 94.3533 176.734 93.3328 176.103C92.3122 175.472 90.9196 176.167 89.9911 176.44C89.0627 176.709 88.5985 176.557 87.5921 176.674C86.5857 176.791 85.0372 177.177 83.3859 177.797C81.7345 178.417 79.9804 179.268 78.9492 180.313C77.9181 181.359 77.6062 182.595 77.1952 184.169C76.7806 185.742 76.2667 187.652 75.6608 188.322C75.0548 188.992 74.3567 188.425 73.57 187.082C72.7834 185.739 71.9045 183.623 70.9903 182.205C70.076 180.784 69.1193 180.065 67.5707 179.679C66.0221 179.293 63.8818 179.239 61.6883 178.981C59.4948 178.722 57.2517 178.258 55.8839 178.013C54.516 177.769 54.027 177.744 53.7825 178.389C53.538 179.034 53.538 180.349 53.3821 181.394C53.2261 182.439 52.9179 183.212 52.1702 182.556C51.4224 181.897 50.2353 179.81 49.2821 178.183C48.3289 176.557 47.606 175.398 45.9298 174.147C44.2537 172.896 41.6208 171.553 40.0864 171.103C38.552 170.653 38.1126 171.089 38.0099 172.237C37.9071 173.385 38.1374 175.242 38.0878 176.56C38.0347 177.875 37.7016 178.651 36.9787 177.747C36.2558 176.844 35.1466 174.264 34.3458 172.138C33.5449 170.008 33.0559 168.332 31.9219 166.964C30.788 165.596 29.0055 164.54 27.5633 163.817C26.1175 163.094 25.0083 162.708 24.4024 163.261C23.7964 163.817 23.6937 165.312 23.2543 165.787C22.8148 166.266 22.0423 165.723 21.0891 164.356C20.1359 162.988 18.9984 160.794 18.031 158.356C17.0636 155.918 16.2627 153.235 15.5292 151.378C14.7921 149.521 14.1224 148.49 13.5554 147.884C12.9884 147.278 12.5242 147.097 12.1096 147.356C11.695 147.615 11.3335 148.309 10.5468 149.574C9.76017 150.84 8.54825 152.672 8.23996 153.625C7.92812 154.578 8.52345 154.656 10.5468 158.282V158.278Z" fill="#2B2A29" stroke="#2B2A29" stroke-width="0.199878" stroke-miterlimit="22.9256"/>
<path d="M73.9218 226.495C100.19 226.495 121.484 222.649 121.484 217.905C121.484 213.161 100.19 209.315 73.9218 209.315C47.6538 209.315 26.3594 213.161 26.3594 217.905C26.3594 222.649 47.6538 226.495 73.9218 226.495Z" fill="#FEFEFE" stroke="#2B2A29" stroke-width="0.199878" stroke-miterlimit="22.9256"/>
<path fill-rule="evenodd" clip-rule="evenodd" d="M66.6032 101.068C67.1383 100.777 68.0419 100.288 69.4665 99.9657C70.891 99.6432 72.84 99.4873 74.5374 99.5404C76.2348 99.5936 77.677 99.8487 78.9953 100.242C80.3099 100.635 81.4971 101.163 82.4078 101.557C83.3185 101.95 83.9492 102.209 84.5162 102.319C85.0832 102.429 85.5864 102.39 85.8521 102.085C86.1179 101.78 86.1427 101.213 85.9549 99.4022C85.7671 97.5913 85.3667 94.5331 84.215 90.9716C83.0598 87.4101 81.1498 83.3489 79.1016 80.6521C77.0498 77.9553 74.8563 76.6264 73.5204 76.2933C72.1844 75.9566 71.7096 76.6158 70.3169 78.5188C68.9243 80.4218 66.6139 83.5686 65.0157 86.6198C63.4175 89.671 62.5245 92.623 61.9186 95.1851C61.3126 97.7437 60.9902 99.9125 61.1142 101.163C61.2382 102.414 61.8052 102.751 62.358 102.723C62.9143 102.698 63.453 102.308 64.0164 102.053C64.5763 101.794 65.1574 101.667 65.5331 101.557C65.9051 101.447 66.0752 101.355 66.6103 101.064L66.6032 101.068ZM67.5388 97.1661C69.8882 97.1023 74.1937 96.9216 76.9683 96.8968C79.743 96.872 80.9797 96.9995 81.5289 96.8259C82.0782 96.6522 81.9365 96.1738 81.3305 94.8733C80.7245 93.5692 79.6544 91.4429 78.8287 90.4684C78.003 89.4938 77.4219 89.6746 75.9761 89.6498C74.5303 89.6249 72.2234 89.3911 70.7776 89.4123C69.3318 89.43 68.7507 89.7029 68.3715 90.0573C67.9923 90.4117 67.8116 90.8511 67.2482 91.8823C66.6883 92.9136 65.7457 94.5402 65.2106 95.5147C64.6755 96.4892 64.5444 96.8117 64.6755 96.9995C64.8031 97.1873 65.1929 97.237 67.5388 97.1732V97.1661Z" fill="#2B2A29"/>
<path fill-rule="evenodd" clip-rule="evenodd" d="M99.2796 90.3843C101.197 91.1852 104.964 92.6665 108.174 93.0598C111.385 93.4532 114.042 92.7551 116.477 91.1108C118.908 89.4665 121.115 86.8724 122.38 85.2033C123.646 83.5306 123.968 82.7829 123.103 83.0948C122.239 83.4031 120.187 84.771 118.794 85.8376C117.402 86.9008 116.665 87.6627 115.286 88.1482C113.904 88.6337 111.881 88.8392 110.57 88.9491C109.262 89.0589 108.667 89.0731 107.66 89.0128C106.654 88.9561 105.233 88.825 103.738 88.7081C102.242 88.5911 100.669 88.4884 99.3505 88.4246C98.0358 88.3608 96.9763 88.3324 96.2215 88.258C95.4667 88.1801 95.0167 88.0525 94.9175 88.1234C94.8218 88.1942 95.0769 88.4636 95.5234 88.7045C95.9699 88.942 96.6007 89.1475 96.9479 89.3105C97.2952 89.4735 97.359 89.5869 99.2761 90.3878L99.2796 90.3843Z" fill="#2B2A29"/>
<path fill-rule="evenodd" clip-rule="evenodd" d="M25.0902 86.5911C25.7848 87.2999 27.0498 88.5792 28.3007 89.6742C29.5516 90.7692 30.7884 91.6871 32.1704 92.2931C33.5488 92.899 35.0726 93.1967 37.0216 93.1046C38.9706 93.0124 41.3412 92.5376 43.4639 91.6516C45.5865 90.7692 47.4575 89.4793 48.6057 88.4729C49.7538 87.4664 50.179 86.7435 49.9841 86.6266C49.7892 86.5096 48.9777 86.9987 47.9855 87.4771C46.9933 87.9555 45.8168 88.4197 44.6439 88.7918C43.471 89.1639 42.2945 89.4509 40.6963 89.6033C39.0981 89.7593 37.0712 89.7841 35.6537 89.6636C34.2328 89.5395 33.4213 89.2702 32.2944 88.852C31.1675 88.4339 29.7217 87.8633 28.5665 87.2573C27.4113 86.6514 26.5467 86.0064 25.845 85.5918C25.1434 85.1772 24.6012 85 24.3425 85.0354C24.0838 85.0744 24.1086 85.3331 24.1866 85.5315C24.2646 85.73 24.3921 85.8717 25.0902 86.584V86.5911Z" fill="#2B2A29"/>
<path fill-rule="evenodd" clip-rule="evenodd" d="M84.3391 55.0473C85.4731 54.3492 87.1775 52.8289 89.2789 50.972C91.3803 49.1151 93.8821 46.9215 96.0366 44.3806C98.1911 41.8397 99.9983 38.948 101.533 36.9245C103.067 34.8975 104.332 33.7387 105.75 32.6684C107.167 31.5982 108.74 30.6166 110.069 30.0248C111.398 29.4294 112.483 29.2239 114.056 29.1211C115.629 29.0184 117.695 29.0184 118.996 29.029C120.3 29.0432 120.842 29.068 121.292 29.0184C121.742 28.9652 122.103 28.8376 122.132 28.6711C122.157 28.5045 121.848 28.299 121.409 28.0793C120.969 27.8595 120.402 27.6292 119.977 27.3067C119.552 26.9842 119.269 26.5696 118.56 26.0026C117.851 25.4356 116.714 24.7127 115.31 24.0535C113.903 23.3944 112.227 22.8026 111.04 22.4943C109.853 22.186 109.159 22.1576 108.294 22.3667C107.429 22.5722 106.398 23.0117 105.289 23.7736C104.18 24.5355 102.993 25.6199 101.908 26.7681C100.824 27.9162 99.846 29.1282 98.7368 30.6768C97.6277 32.2255 96.3874 34.1072 95.2534 36.0315C94.1195 37.9522 93.0848 39.9154 92.2201 41.6554C91.3555 43.3954 90.6609 44.9192 89.7431 46.2871C88.8253 47.655 87.6914 48.867 86.2846 50.2491C84.8777 51.6276 83.2016 53.1762 82.4539 54.0799C81.7062 54.9836 81.8869 55.2387 82.259 55.4336C82.6311 55.6285 83.2016 55.7561 84.3356 55.0615L84.3391 55.0473Z" fill="#2B2A29"/>
<path fill-rule="evenodd" clip-rule="evenodd" d="M64.3816 54.6079C62.5638 53.3959 59.4666 51.1491 56.731 48.8918C53.9953 46.6344 51.6211 44.3628 49.1972 42.6335C46.7734 40.9041 44.2964 39.7169 42.514 39.1003C40.7351 38.4802 39.6507 38.4306 38.2191 38.7389C36.7875 39.0472 35.0086 39.7205 33.7683 40.2733C32.5281 40.8297 31.8335 41.2656 31.1744 41.705C30.5153 42.1444 29.8952 42.5803 29.4203 42.7114C28.9419 42.839 28.6088 42.6583 28.6833 42.233C28.7612 41.8078 29.2502 41.138 29.6896 40.4789C30.129 39.8197 30.5153 39.1748 31.791 38.0656C33.0667 36.9564 35.2354 35.3829 36.8477 34.3623C38.4601 33.3417 39.5196 32.8775 40.4481 32.5585C41.3765 32.2361 42.1773 32.0553 43.5452 32.6117C44.913 33.1681 46.8478 34.458 48.9775 36.4567C51.1072 38.4554 53.4283 41.1663 55.9833 43.4237C58.5382 45.6811 61.3235 47.4884 63.3611 49.0867C65.3986 50.6849 66.6885 52.0812 67.7197 53.1372C68.7509 54.1932 69.527 54.9162 69.41 55.3698C69.2931 55.8198 68.2867 56.0006 67.5142 56.0006C66.7417 56.0006 66.1995 55.8198 64.3781 54.6079H64.3816Z" fill="#2B2A29"/>
<path fill-rule="evenodd" clip-rule="evenodd" d="M31.4903 85.9312C32.9999 86.4734 35.5548 87.1183 38.8575 86.9376C42.1601 86.7569 46.2105 85.7504 49.3076 84.7334C52.4047 83.7128 54.5451 82.6815 56.4019 81.6113C58.2588 80.5411 59.8321 79.4319 61.2283 77.986C62.621 76.5402 63.8329 74.7612 64.5416 72.6598C65.2503 70.5583 65.4559 68.1308 65.0448 66.0152C64.6302 63.8996 63.599 62.0922 61.6925 59.849C59.7825 57.6058 56.9972 54.9197 53.5139 52.6127C50.0305 50.3021 45.8526 48.3672 42.3161 47.336C38.7795 46.3048 35.8915 46.1736 33.581 46.5245C31.2706 46.8718 29.5449 47.6975 28.2018 49.2071C26.8588 50.7167 25.9056 52.9103 24.924 55.632C23.9424 58.3536 22.936 61.6032 22.5781 64.4949C22.2167 67.3831 22.5002 69.9133 22.9502 72.1955C23.4002 74.4777 24.0204 76.5154 24.7823 78.1951C25.5441 79.8713 26.4478 81.1861 27.1813 82.1819C27.9148 83.1741 28.4853 83.8474 28.9992 84.4003C29.5165 84.9566 29.9807 85.3925 31.4868 85.9347L31.4903 85.9312ZM32.0325 53.0875C31.788 53.8105 30.7284 55.0756 30.0197 57.6023C29.311 60.129 28.9495 63.9244 29.3606 66.7346C29.7752 69.5448 30.9588 71.3769 32.2238 72.9007C33.4889 74.4246 34.8284 75.6365 36.2884 76.4232C37.7448 77.21 39.3182 77.5714 41.4869 77.3907C43.6555 77.21 46.416 76.487 48.815 75.47C51.2141 74.4494 53.2517 73.1346 54.5663 71.664C55.881 70.1933 56.4763 68.5667 56.8768 67.1492C57.2772 65.7317 57.4827 64.5162 57.6776 63.5877C57.8725 62.6592 58.0497 62.0143 58.4253 61.7804C58.7974 61.5465 59.3679 61.7272 59.8818 62.2198C60.3991 62.7089 60.8633 63.5097 61.2496 64.3354C61.6358 65.1611 61.9441 66.0116 62.0753 66.9047C62.2028 67.7942 62.1532 68.7226 61.5331 70.2961C60.9129 71.8695 59.7258 74.0879 58.0391 75.8704C56.3488 77.6494 54.1553 78.9925 51.7704 80.3072C49.3856 81.6219 46.8023 82.9119 44.3678 83.7376C41.9298 84.5633 39.6335 84.9247 37.6739 84.8999C35.7143 84.8751 34.0878 84.4605 32.525 83.4434C30.9659 82.4228 29.4669 80.7998 28.255 79.2264C27.0431 77.6529 26.1147 76.1291 25.5335 73.9001C24.9523 71.6675 24.722 68.7262 24.9134 66.2101C25.1047 63.694 25.7249 61.6032 26.2422 59.8774C26.756 58.148 27.1706 56.7801 27.6738 55.7489C28.177 54.7177 28.7688 54.0195 29.3641 53.4525C29.9559 52.8855 30.5513 52.4461 31.1324 52.3185C31.7136 52.191 32.2805 52.3681 32.036 53.0911L32.0325 53.0875Z" fill="#2B2A29"/>
<path fill-rule="evenodd" clip-rule="evenodd" d="M82.4689 73.4762C81.8878 72.1331 81.0905 70.4321 80.8956 68.6886C80.7007 66.9451 81.1153 65.1661 82.6107 63.2702C84.1061 61.3743 86.6858 59.3614 89.3187 57.1572C91.9516 54.9494 94.6342 52.5503 97.6002 50.6544C100.566 48.7584 103.819 47.3658 106.838 46.7314C109.858 46.1006 112.643 46.2282 114.836 46.898C117.03 47.5677 118.628 48.7797 120.099 50.7678C121.569 52.7558 122.909 55.5164 123.518 59.0744C124.124 62.6358 123.997 66.9947 123.571 70.8007C123.146 74.6067 122.423 77.8563 120.708 80.3972C118.993 82.9381 116.282 84.7702 114 85.8015C111.718 86.8327 109.858 87.0666 107.395 86.9638C104.932 86.861 101.86 86.4216 98.8688 85.5569C95.8744 84.6923 92.9616 83.4023 90.4598 81.8679C87.958 80.3334 85.8673 78.5545 84.6412 77.1724C83.4151 75.7903 83.0536 74.8122 82.4725 73.4691L82.4689 73.4762ZM85.0629 71.2437C85.6546 72.4415 86.6114 74.5323 88.2734 76.3396C89.9389 78.1469 92.3095 79.6672 94.4003 80.943C96.491 82.2187 98.2947 83.2535 101.084 83.8063C103.869 84.3627 107.636 84.4371 110.024 83.9622C112.409 83.4838 113.415 82.4526 114.812 81.1875C116.204 79.9224 117.983 78.4269 119.209 76.0526C120.435 73.6782 121.105 70.4286 121.427 67.7318C121.75 65.035 121.725 62.8945 121.286 60.8037C120.846 58.7129 119.996 56.6752 119.195 55.077C118.394 53.4788 117.646 52.3164 116.732 51.7494C115.814 51.1824 114.734 51.2072 114.319 51.6714C113.904 52.1357 114.163 53.0393 114.73 54.1237C115.297 55.2081 116.176 56.4697 116.757 58.0431C117.338 59.6166 117.622 61.5018 117.274 64.0037C116.927 66.5056 115.945 69.6277 114.812 71.8355C113.678 74.0397 112.384 75.3296 111.123 76.1057C109.858 76.8783 108.621 77.1369 107.203 77.0235C105.782 76.9066 104.184 76.4176 102.444 75.8222C100.701 75.2269 98.8192 74.5323 97.0793 73.6676C95.3358 72.8029 93.7376 71.7717 92.4088 70.7653C91.0799 69.7588 90.0204 68.7772 89.5455 67.7353C89.0671 66.6899 89.1699 65.5807 89.0423 64.5743C88.9148 63.5679 88.5533 62.6642 88.1139 62.3169C87.6745 61.9696 87.1607 62.1752 86.4626 62.8343C85.7645 63.4934 84.8892 64.6026 84.2195 65.5559C83.5497 66.5092 83.0855 67.3101 83.0855 67.9302C83.0855 68.5504 83.5497 68.9863 83.897 69.3619C84.2443 69.734 84.4782 70.0459 85.0699 71.2472L85.0629 71.2437Z" fill="#2B2A29"/>
<path fill-rule="evenodd" clip-rule="evenodd" d="M4.06836 216.272C4.06836 221.123 4.28098 224.458 5.09246 229.168C6.26894 235.997 8.86287 243.57 12.6333 249.948C13.14 250.806 13.7034 252.032 14.6886 252.596C15.7517 253.202 16.6907 253.432 18.0975 253.432C20.1705 253.432 30.3655 249.264 32.2684 248.449C37.7185 246.118 42.995 243.644 47.9206 240.805L52.2651 238.222C52.5344 238.063 52.6513 237.939 52.9348 237.786C53.9306 237.244 54.7279 236.532 55.6634 235.943L57.6336 234.54C58.073 234.203 58.5266 233.934 58.966 233.597C60.6599 232.293 62.3254 230.911 63.8208 229.487L65.7485 227.598C65.8867 227.449 65.8796 227.353 66.1383 227.353H79.4304C79.7493 227.353 80.3766 228.158 80.5821 228.36C81.8649 229.621 83.1229 230.936 84.6324 232.063C85.7983 232.935 86.4503 233.541 87.8429 234.54C88.1016 234.724 88.176 234.845 88.4347 235.033C89.2285 235.603 91.0535 236.886 91.8189 237.318L93.2009 238.226C94.7672 239.342 98.8919 241.582 100.54 242.46C105.37 245.037 110.49 247.305 115.728 249.459L118.332 250.476C120.692 251.327 122.989 252.252 125.423 252.996C126.224 253.241 126.94 253.393 127.62 253.432H128.315C129.172 253.379 129.998 253.124 130.912 252.624C131.947 252.053 132.478 250.841 132.992 249.998C133.198 249.654 133.347 249.367 133.541 249.02C135.466 245.607 136.883 242.088 138.155 238.477C139.222 235.447 140.023 232.329 140.558 229.168C141.919 221.155 141.919 213.993 140.558 205.981C139.644 200.591 137.9 195.325 135.614 190.2C135.473 189.881 135.313 189.52 135.129 189.176C134.406 187.847 133.793 186.476 132.992 185.154C132.344 184.084 132.025 183.354 130.838 182.514C129.438 181.522 127.315 181.564 125.607 182.089C123.782 182.649 122.064 183.347 120.285 183.978L116.83 185.303C116.277 185.505 115.706 185.757 115.143 185.994C114.831 186.125 114.633 186.196 114.328 186.327C109.657 188.315 105.107 190.399 100.763 192.72L95.3023 195.81C95.118 195.917 95.0861 195.92 94.8983 196.044L90.6814 198.72C89.753 199.301 88.8989 199.985 88.0237 200.608C86.4822 201.704 85.0045 202.866 83.6331 204.071L81.8401 205.665C81.6274 205.853 79.8273 207.795 79.519 207.795H66.1348C65.8406 207.795 65.1922 206.973 64.9973 206.778C63.7038 205.513 62.3892 204.248 60.9327 203.086L59.7421 202.107C58.6932 201.261 57.4848 200.555 56.4607 199.684C55.9398 199.237 54.4338 198.298 53.7853 197.873L50.635 195.878C50.4933 195.796 50.4366 195.746 50.2948 195.665C43.4096 191.699 36.8184 188.372 29.0438 185.353C27.8637 184.895 26.8042 184.46 25.5887 184.027L22.0451 182.766C20.3371 182.16 19.3803 181.724 17.4597 181.724C15.943 181.724 14.5468 182.468 13.8877 183.29C13.6751 183.552 13.4129 183.935 13.257 184.211C12.1265 186.196 10.9607 188.159 10.0464 190.208C6.36108 198.465 4.07545 207.622 4.07545 216.275L4.06836 216.272ZM59.1326 220.585C59.1432 220.578 59.1432 220.563 59.1397 219.468C59.1361 218.373 59.1326 216.198 59.129 215.099C59.1255 213.997 59.1255 213.972 59.1184 213.972C59.1113 213.972 59.0901 213.997 55.6528 214.018C52.2155 214.036 45.3586 214.05 41.3897 214.071C37.4209 214.089 36.3401 214.117 35.5605 214.188C34.7809 214.259 34.306 214.376 33.8383 214.574C33.3705 214.769 32.9134 215.042 32.5626 215.382C32.2153 215.723 31.9743 216.127 31.8184 216.531C31.6625 216.935 31.5881 217.339 31.6731 217.803C31.7546 218.267 31.9956 218.788 32.4881 219.27C32.9843 219.752 33.7355 220.195 34.7631 220.418C35.7908 220.641 37.0913 220.641 39.2175 220.634C41.3436 220.627 44.2955 220.617 47.4599 220.609C50.6244 220.602 53.9943 220.602 55.9681 220.602C57.9419 220.602 58.5125 220.602 58.8066 220.602C59.1007 220.602 59.122 220.602 59.1326 220.595V220.585ZM68.2716 214.032H77.485V220.624H68.2716V214.032ZM86.5176 220.585C86.507 220.578 86.507 220.563 86.5106 219.468C86.5141 218.373 86.5176 216.198 86.5212 215.099C86.5247 213.997 86.5247 213.972 86.5318 213.972C86.5389 213.972 86.5602 213.997 89.9975 214.018C93.4348 214.036 100.292 214.05 104.261 214.071C108.229 214.089 109.31 214.117 110.09 214.188C110.869 214.259 111.344 214.376 111.812 214.574C112.28 214.769 112.737 215.042 113.088 215.382C113.435 215.723 113.676 216.127 113.832 216.531C113.988 216.935 114.062 217.339 113.977 217.803C113.896 218.267 113.655 218.788 113.162 219.27C112.666 219.752 111.915 220.195 110.887 220.418C109.859 220.641 108.559 220.641 106.433 220.634C104.307 220.627 101.355 220.617 98.1903 220.609C95.0259 220.602 91.6559 220.602 89.6821 220.602C87.7083 220.602 87.1378 220.602 86.8437 220.602C86.5495 220.602 86.5283 220.602 86.5176 220.595V220.585Z" fill="#5CA595"/>
</svg>
