<svg width="168" height="293" viewBox="0 0 168 293" fill="none" xmlns="http://www.w3.org/2000/svg">
<path d="M40 224.338L55 243.838C58.3333 254.838 65 276.138 65 273.338C65 269.838 70.5 258.338 73.5 252.338C76.5 246.338 103 243.838 112.5 236.338C122 228.838 130.5 216.338 134.5 207.838C138.5 199.338 143 186.838 147 175.338C151 163.838 156 154.838 164 138.338C172 121.838 162 117.838 159.5 106.338C157 94.8376 148 75.8376 142 66.8376C136 57.8376 131 57.3376 130.5 48.8376C130 40.3376 116.5 21.3376 110 15.8376C103.5 10.3376 91 8.33756 86.5 3.33756C82 -1.66244 69 2.83756 65 3.33756C61 3.83756 55 13.3376 46.5 21.3376C38 29.3376 25.5 37.3376 19.5 40.8376C14.7 43.6376 5.16667 71.0042 1 84.3376V114.338L5.5 154.838L19.5 196.338L40 224.338Z" fill="#2B2A29" stroke="#2B2A29"/>
<path fill-rule="evenodd" clip-rule="evenodd" d="M133.701 88.9709C134.271 93.4946 133.299 97.4253 132.899 100.869C132.497 104.312 132.667 107.271 133.175 110.483C133.683 113.694 134.529 117.161 135.14 121.112C135.754 125.063 136.133 129.502 135.754 132.144C135.372 134.786 134.233 135.631 132.794 136.453C131.355 137.278 129.622 138.08 128.565 139.242C127.507 140.405 127.128 141.925 126.958 143.575C126.788 145.222 126.832 146.998 127.381 149.387C127.93 151.774 128.987 154.777 130.13 157.671C131.272 160.566 132.497 163.355 133.786 165.301C135.075 167.244 136.429 168.345 137.422 169.211C138.415 170.077 139.049 170.711 138.435 172.93C137.821 175.15 135.962 178.954 133.616 183.771C131.269 188.589 128.435 194.421 124.503 200.043C120.571 205.665 115.54 211.075 111.669 214.351C107.801 217.627 105.094 218.769 102.706 220.119C100.319 221.473 98.2452 223.037 95.9633 223.903C93.6784 224.769 91.1851 224.939 89.1763 224.769C87.1676 224.599 85.6463 224.091 84.313 223.818C82.9797 223.542 81.8403 223.501 80.3601 223.839C78.88 224.176 77.0621 224.895 74.8419 225.192C72.6217 225.488 69.9991 225.362 66.9566 224.537C63.9112 223.712 60.4457 222.192 58.2255 221.155C56.0053 220.119 55.0332 219.57 54.3989 219.106C53.7646 218.64 53.4679 218.261 50.3403 215.493C47.2096 212.725 41.248 207.567 36.0704 200.762C30.8899 193.958 26.4935 185.503 23.7653 180.178C21.037 174.853 19.9797 172.654 20.0003 171.407C20.0209 170.159 21.1221 169.863 23.0252 168.066C24.9282 166.27 27.633 162.973 29.2835 159.254C30.931 155.534 31.5243 151.392 31.9677 148.137C32.4112 144.881 32.7078 142.515 32.5169 140.804C32.326 139.092 31.6505 138.036 30.7636 137.231C29.8767 136.427 28.7754 135.878 27.5067 135.731C26.238 135.584 24.8019 135.837 24.0413 135.162C23.2807 134.484 23.1955 132.878 23.1104 130.174C23.0252 127.468 22.94 123.666 23.639 120.557C24.3379 117.452 25.8151 115.041 26.5787 112.972C27.3393 110.899 27.3834 109.167 27.0016 106.842C26.6198 104.518 25.8181 101.603 25.9238 97.164C26.0295 92.7255 27.0456 86.7663 29.4773 81.0185C31.909 75.2707 35.7562 69.7343 38.8838 65.783C42.0115 61.8318 44.4226 59.4628 48.3755 57.1408C52.3285 54.8158 57.8261 52.5349 63.1975 50.8646C68.566 49.1943 73.8111 48.1375 80.6391 48.3694C87.4671 48.6013 95.881 50.1219 101.737 51.9214C107.593 53.718 110.891 55.7875 114.994 59.5509C119.096 63.3113 124.001 68.7656 127.51 74.0466C131.02 79.3306 133.134 84.4443 133.704 88.965L133.701 88.9709Z" fill="white" stroke="#0C0B08" stroke-width="0.200307" stroke-miterlimit="22.9256"/>
<path fill-rule="evenodd" clip-rule="evenodd" d="M50.3403 215.493C47.2096 212.725 41.248 207.567 36.0704 200.762C30.8899 193.958 26.4935 185.503 23.7653 180.178C21.037 174.853 19.9797 172.654 20.0003 171.407C20.0209 170.159 21.1221 169.863 23.0252 168.066C24.9282 166.27 27.633 162.973 29.2835 159.254C30.931 155.534 31.5243 151.392 31.9677 148.137C32.4112 144.881 32.7078 142.515 32.5169 140.804C32.326 139.092 31.6505 138.036 30.7636 137.231C29.8767 136.427 28.7754 135.878 27.5067 135.731C26.238 135.584 24.8019 135.837 24.0413 135.162C23.2807 134.484 23.1955 132.878 23.1104 130.174C23.0252 127.468 22.94 123.666 23.639 120.557C24.3379 117.452 25.8151 115.041 26.5787 112.972C27.3393 110.899 27.3834 109.167 27.0016 106.842C26.6198 104.518 25.8181 101.603 25.9238 97.164C26.0295 92.7255 27.0456 86.7663 29.4773 81.0185C31.909 75.2707 35.7562 69.7343 38.8838 65.783C42.0115 61.8318 44.4226 59.4628 48.3755 57.1408C52.3285 54.8158 57.8261 52.5349 63.1975 50.8646C68.566 49.1943 73.8111 48.1375 80.6391 48.3694C87.4671 48.6013 95.881 50.1219 101.737 51.9214C107.593 53.718 110.891 55.7875 114.994 59.5509C119.096 63.3113 124.001 68.7656 127.51 74.0466C131.02 79.3306 133.134 84.4443 133.704 88.965C134.274 93.4887 133.302 97.4194 132.902 100.863C132.5 104.306 132.67 107.265 133.178 110.477C133.686 113.688 134.532 117.155 135.143 121.106C135.757 125.058 136.136 129.496 135.757 132.138C135.375 134.78 134.236 135.625 132.796 136.447C131.357 137.272 129.625 138.074 128.567 139.236C127.51 140.399 127.131 141.919 126.961 143.569C126.791 145.216 126.835 146.992 127.384 149.381C127.933 151.768 128.99 154.771 130.133 157.666C131.275 160.56 132.5 163.349 133.789 165.295C135.078 167.238 136.432 168.339 137.425 169.205C138.417 170.071 139.052 170.705 138.438 172.924C137.824 175.144 135.965 178.948 133.619 183.765C131.272 188.583 128.438 194.416 124.506 200.037C120.574 205.659 115.543 211.069 111.672 214.345C107.804 217.621 105.097 218.763 102.709 220.113C100.321 221.467 98.2481 223.031 95.9662 223.897C93.6814 224.763 91.1881 224.934 89.1793 224.763C87.1705 224.593 85.6493 224.085 84.316 223.812C82.9827 223.536 81.8432 223.495 80.3631 223.833C78.8829 224.17 77.065 224.889 74.8448 225.186C72.6246 225.482 70.0021 225.356 66.9595 224.531C63.9141 223.706 60.4487 222.186 58.2285 221.15C56.0083 220.113 55.0362 219.564 54.4018 219.101C53.7675 218.634 53.4709 218.255 50.3432 215.487L50.3403 215.493ZM41.0718 142.043C40.8721 142.709 40.6371 143.449 40.226 143.66C39.8148 143.871 39.2216 143.554 38.7135 143.302C38.2054 143.047 37.7825 142.859 37.5623 141.908C37.3391 140.956 37.3185 139.245 37.4771 137.965C37.6357 136.685 37.9734 135.84 39.6122 135.314C41.2509 134.786 44.1906 134.575 47.2977 133.676C50.4049 132.778 53.6823 131.193 56.5574 129.704C59.4326 128.213 61.9053 126.819 62.2754 126.355C62.6454 125.891 60.9127 126.355 58.3871 127.148C55.8614 127.94 52.5399 129.062 49.1039 129.769C45.6678 130.477 42.1173 130.773 39.0101 130.773C35.903 130.773 33.2364 130.477 31.7474 130.139C30.2556 129.801 29.9384 129.42 29.6535 128.712C29.3686 128.005 29.1131 126.969 29.2512 124.062C29.3892 121.156 29.9178 116.38 30.5316 112.746C31.1454 109.112 31.8414 106.616 31.9472 104.588C32.0529 102.56 31.5654 100.995 31.1542 99.5271C30.7431 98.0593 30.4053 96.6855 31.166 93.1335C31.9266 89.5844 33.7856 83.8572 35.997 79.0576C38.2054 74.2609 40.7634 70.3918 43.4711 67.3712C46.1759 64.3505 49.0305 62.1723 52.1934 60.1762C55.3534 58.18 58.8217 56.3629 62.1726 55.0419C65.5235 53.7209 68.7569 52.896 72.0578 52.485C75.3558 52.0741 78.7185 52.0741 82.5539 52.3265C86.3923 52.579 90.7035 53.0868 95.2291 54.1554C99.7547 55.2239 104.489 56.8502 108.042 58.8141C111.593 60.7779 113.963 63.0823 116.289 65.513C118.615 67.9436 120.897 70.5005 122.897 73.9879C124.894 77.4753 126.606 81.8904 127.557 85.2721C128.509 88.6539 128.7 90.9994 128.656 93.3566C128.614 95.7138 128.338 98.0799 128.086 99.58C127.833 101.08 127.598 101.714 127.569 102.645C127.537 103.575 127.707 104.799 127.854 105.794C128.001 106.787 128.13 107.547 128.403 108.891C128.679 110.233 129.099 112.156 129.575 114.883C130.051 117.61 130.579 121.139 130.779 123.569C130.979 126 130.852 127.333 130.612 128.187C130.368 129.044 130.009 129.423 128.961 129.707C127.916 129.992 126.18 130.183 123.739 130.183C121.296 130.183 118.148 129.992 114.988 129.537C111.828 129.082 108.656 128.363 106.192 127.826C103.728 127.286 101.975 126.927 100.633 126.716C99.2906 126.505 98.3597 126.44 98.1805 126.716C98.0014 126.992 98.5711 127.603 99.3758 128.11C100.181 128.618 101.214 129.018 104.166 129.887C107.114 130.752 111.978 132.085 114.938 132.963C117.898 133.841 118.955 134.263 119.842 134.727C120.729 135.191 121.449 135.699 122.03 136.43C122.612 137.158 123.055 138.109 123.023 139.219C122.991 140.328 122.482 141.596 121.901 142.368C121.32 143.14 120.665 143.413 120.095 143.308C119.525 143.202 119.038 142.715 118.785 141.975C118.533 141.235 118.509 140.243 118.215 140.284C117.919 140.325 117.349 141.406 116.873 142.06C116.397 142.715 116.016 142.947 115.202 143.296C114.389 143.645 113.141 144.109 112.221 144.438C111.302 144.767 110.709 144.955 110.298 145.345C109.887 145.735 109.652 146.328 109.452 146.613C109.252 146.898 109.082 146.877 108.724 146.337C108.365 145.797 107.813 144.74 107.499 143.39C107.182 142.037 107.097 140.39 106.906 139.691C106.715 138.993 106.418 139.248 106.092 140.261C105.763 141.273 105.405 143.049 105.246 144.423C105.088 145.797 105.129 146.769 104.644 147.265C104.157 147.761 103.144 147.782 101.937 147.878C100.733 147.972 99.3376 148.143 98.2687 148.102C97.1997 148.06 96.4596 147.805 96.0073 146.634C95.5521 145.46 95.3847 143.369 95.279 141.878C95.1733 140.387 95.1292 139.5 94.9618 139.891C94.7915 140.281 94.4949 141.952 94.2746 143.419C94.0514 144.887 93.9046 146.155 93.7577 147.033C93.6109 147.911 93.4611 148.395 92.6682 148.683C91.8753 148.968 90.4392 149.053 89.1382 149.276C87.8372 149.499 86.6742 149.857 85.4378 149.922C84.2014 149.986 82.8887 149.751 82.2543 149.064C81.62 148.377 81.6641 147.236 81.8638 145.166C82.0635 143.094 82.4247 140.093 82.5187 138.37C82.6126 136.647 82.4452 136.204 82.1809 136.521C81.9166 136.838 81.5583 137.915 81.1442 139.224C80.7331 140.534 80.2661 142.078 79.9402 143.695C79.6112 145.313 79.4233 147.004 79.2853 148.102C79.1472 149.199 79.0621 149.707 78.7478 150.036C78.4306 150.365 77.8815 150.512 76.3367 150.426C74.792 150.341 72.2575 150.024 70.5131 149.666C68.7686 149.308 67.8171 148.906 67.2033 148.333C66.5895 147.764 66.3135 147.024 66.1255 145.639C65.9346 144.253 65.8289 142.225 65.7437 141.57C65.6586 140.915 65.5969 141.635 65.5205 142.647C65.4471 143.66 65.3619 144.972 65.1916 145.985C65.0213 146.998 64.7687 147.717 64.2606 148.14C63.7526 148.562 62.9919 148.689 61.8202 148.51C60.6484 148.331 59.0596 147.843 57.7821 147.347C56.5016 146.851 55.5296 146.343 55.0127 145.307C54.4958 144.271 54.4312 142.709 54.3049 141.535C54.1786 140.361 53.9878 139.58 53.8615 139.685C53.7352 139.791 53.6706 140.783 53.4914 141.893C53.3123 143.003 53.0157 144.227 52.581 145.01C52.1464 145.791 51.5766 146.132 51.1332 146.226C50.6897 146.32 50.3726 146.173 49.5062 145.92C48.6399 145.665 47.2214 145.307 46.3345 144.843C45.4476 144.376 45.0863 143.807 44.5284 143.193C43.9674 142.58 43.2068 141.925 42.6899 141.417C42.173 140.909 41.897 140.551 41.6738 140.669C41.4506 140.786 41.2832 141.376 41.0835 142.043H41.0718ZM112.348 163.311C113.605 162.973 116.154 162.201 117.669 161.599C119.187 160.997 119.672 160.563 119.93 160.067C120.189 159.571 120.221 159.01 119.942 157.39C119.66 155.766 119.07 153.083 118.715 151.36C118.359 149.637 118.245 148.877 117.889 148.656C117.534 148.433 116.944 148.75 116.204 149.173C115.464 149.596 114.574 150.124 113.919 150.764C113.264 151.404 112.841 152.153 112.483 153.142C112.124 154.131 111.828 155.355 111.652 156.465C111.478 157.575 111.425 158.567 111.408 159.471C111.393 160.375 111.414 161.188 111.376 161.837C111.337 162.486 111.243 162.973 111.179 163.264C111.114 163.554 111.085 163.648 112.342 163.311H112.348ZM99.4052 166.725C100.239 166.639 101.825 165.92 103.561 165.498C105.293 165.075 107.176 164.949 108.086 164.347C108.997 163.745 108.932 162.668 108.835 160.534C108.741 158.399 108.612 155.209 108.445 153.444C108.274 151.68 108.063 151.342 107.534 151.152C107.006 150.961 106.16 150.92 105.408 151.046C104.656 151.172 104.001 151.469 103.2 152.241C102.395 153.013 101.443 154.257 100.756 155.208C100.069 156.16 99.646 156.814 99.32 157.892C98.9911 158.969 98.7591 160.469 98.6211 161.843C98.483 163.217 98.4419 164.461 98.4625 165.363C98.483 166.261 98.5682 166.81 99.4023 166.725H99.4052ZM83.2646 169.367C84.7007 169.261 87.3673 169.07 89.5963 168.912C91.8253 168.753 93.6227 168.627 94.5977 168.266C95.5697 167.908 95.7166 167.315 95.7489 165.697C95.7812 164.08 95.696 161.438 95.4963 159.104C95.2966 156.767 94.9794 154.739 94.5242 153.673C94.069 152.605 93.4788 152.502 92.865 152.564C92.2512 152.628 91.6168 152.86 90.7182 153.209C89.8195 153.559 88.6565 154.023 87.567 155.068C86.4774 156.113 85.4643 157.742 84.6508 159.304C83.8373 160.868 83.2235 162.368 82.78 163.487C82.3366 164.608 82.0605 165.345 81.8696 166.182C81.6787 167.015 81.573 167.946 81.5113 168.518C81.4467 169.088 81.4262 169.299 81.5231 169.396C81.6171 169.49 81.8285 169.469 83.2675 169.364L83.2646 169.367ZM66.8803 168.533C68.8685 168.565 72.5659 168.501 74.9153 168.565C77.2618 168.63 78.2544 168.818 78.7214 168.471C79.1854 168.122 79.1237 167.235 78.8271 165.577C78.5305 163.918 78.0019 161.488 77.0504 159.597C76.0988 157.707 74.7244 156.353 73.2971 155.232C71.8699 154.111 70.3897 153.224 69.3002 152.707C68.2106 152.191 67.5146 152.041 66.8479 152.106C66.1813 152.17 65.547 152.443 65.1769 153.11C64.8069 153.776 64.7012 154.833 64.6483 156.418C64.5954 158.003 64.5954 160.117 64.522 162.081C64.4486 164.044 64.2988 165.865 64.2577 166.868C64.2136 167.872 64.2783 168.063 64.4486 168.222C64.616 168.38 64.892 168.507 66.8803 168.539V168.533ZM52.2081 164.866C53.3916 165.354 55.697 166.008 57.1859 166.419C58.6778 166.83 59.3533 167.001 59.8936 167.033C60.4311 167.065 60.8334 166.959 61.0889 166.419C61.3415 165.879 61.4472 164.908 61.4178 163.639C61.3855 162.371 61.2181 160.807 60.8363 159.245C60.4546 157.68 59.8643 156.116 59.1771 154.88C58.4898 153.644 57.7087 152.734 56.8511 151.974C55.9936 151.213 55.0656 150.6 54.3989 150.347C53.7323 150.095 53.3299 150.2 53.0245 150.749C52.7191 151.298 52.5076 152.294 52.2844 154.078C52.0612 155.863 51.8292 158.441 51.5972 160.184C51.3652 161.928 51.1332 162.838 51.048 163.449C50.9629 164.062 51.0275 164.379 52.211 164.864L52.2081 164.866ZM47.3447 162.923C46.4989 162.944 44.9542 162.204 43.8235 161.676C42.6929 161.147 41.9733 160.83 41.4858 160.428C40.9983 160.026 40.7458 159.538 40.6606 157.692C40.5754 155.843 40.6606 152.631 40.9572 150.57C41.2538 148.51 41.7619 147.6 42.4579 147.327C43.1569 147.051 44.0438 147.412 44.9513 148.099C45.8617 148.786 46.7897 149.798 47.3624 150.741C47.9321 151.68 48.1435 152.546 48.2728 154.301C48.399 156.054 48.4431 158.696 48.3902 160.41C48.3374 162.122 48.1905 162.903 47.3447 162.926V162.923ZM100.139 186.645C100.759 186.498 101.846 186.264 103.396 185.442C104.944 184.617 106.953 183.202 108.036 181.499C109.12 179.797 109.279 177.812 109.188 175.396C109.097 172.983 108.759 170.139 108.354 168.671C107.945 167.203 107.47 167.106 106.398 167.238C105.326 167.37 103.655 167.729 102.386 167.919C101.117 168.11 100.251 168.131 99.7106 168.606C99.1702 169.082 98.9588 170.012 98.8766 171.783C98.7914 173.553 98.8355 176.162 98.9236 178.599C99.0146 181.035 99.1497 183.296 99.2084 184.655C99.2672 186.011 99.2466 186.466 99.3083 186.663C99.3729 186.86 99.5197 186.795 100.136 186.648L100.139 186.645ZM81.7933 190.573C82.0781 190.732 82.4364 190.902 83.3879 190.776C84.3395 190.649 85.8813 190.227 87.7315 189.223C89.5816 188.219 91.7372 186.633 93.0588 184.954C94.3803 183.275 94.8679 181.499 95.0264 179.333C95.185 177.166 95.0147 174.609 94.9002 172.983C94.7827 171.357 94.721 170.658 93.8635 170.5C93.0059 170.341 91.3584 170.72 89.89 170.964C88.4216 171.207 87.1294 171.313 85.9048 171.366C84.6772 171.419 83.5172 171.419 82.7859 171.724C82.0576 172.029 81.761 172.643 81.6112 173.203C81.4644 173.764 81.4644 174.272 81.3997 176.805C81.3351 179.342 81.2089 183.906 81.1472 186.463C81.0826 189.02 81.0826 189.569 81.1912 189.918C81.297 190.268 81.5084 190.414 81.7933 190.573ZM77.1943 191.049C76.137 190.963 74.234 190.667 72.701 190.056C71.168 189.443 70.005 188.512 68.7275 186.918C67.4471 185.321 66.0521 183.061 65.174 181.264C64.2959 179.468 63.9376 178.135 63.7996 176.447C63.6615 174.756 63.7467 172.707 63.7467 171.618C63.7467 170.529 63.6615 170.403 64.1813 170.382C64.6982 170.362 65.8201 170.447 67.7554 170.541C69.6908 170.635 72.4396 170.743 74.3955 170.881C76.3514 171.019 77.5114 171.187 78.0841 171.756C78.6538 172.326 78.6333 173.297 78.6333 176.468C78.6333 179.638 78.6538 185.004 78.6656 187.775C78.6773 190.544 78.6773 190.714 78.5716 190.861C78.4659 191.007 78.2544 191.137 77.1972 191.051L77.1943 191.049ZM50.12 169.44C50.0877 170.993 49.982 173.773 50.1875 175.842C50.3931 177.912 50.9129 179.277 51.9437 180.624C52.9746 181.972 54.5164 183.305 55.8614 184.297C57.2035 185.289 58.3459 185.944 59.1653 186.205C59.9847 186.463 60.481 186.325 60.8363 185.876C61.1888 185.427 61.4002 184.667 61.4589 181.84C61.5177 179.013 61.4208 174.122 61.3004 171.671C61.1799 169.22 61.0302 169.208 60.2813 169.161C59.5295 169.114 58.1756 169.029 56.5163 168.618C54.857 168.207 52.8894 167.467 51.7646 167.183C50.6398 166.898 50.352 167.065 50.2316 167.315C50.1112 167.564 50.1523 167.89 50.12 169.443V169.44ZM46.4108 181.258C45.7119 181.138 44.5607 180.842 43.3037 179.879C42.0468 178.916 40.6812 177.29 39.947 176.068C39.2128 174.847 39.107 174.034 39.0219 171.63C38.9367 169.226 38.8721 165.23 38.9485 163.305C39.0219 161.376 39.2333 161.514 39.8148 161.878C40.3963 162.242 41.3478 162.835 42.5901 163.457C43.8323 164.08 45.3653 164.737 46.405 165.101C47.4475 165.465 47.9967 165.539 48.2228 165.862C48.449 166.184 48.355 166.754 48.2111 169.111C48.0672 171.468 47.8792 175.611 47.7676 177.935C47.656 180.26 47.6237 180.768 47.4857 181.047C47.3477 181.326 47.1039 181.379 46.4079 181.258H46.4108ZM112.879 181.015C113.314 181.179 114.116 181.082 115.217 180.395C116.315 179.709 117.71 178.432 118.747 177.454C119.784 176.477 120.459 175.798 120.75 173.867C121.041 171.932 120.944 168.741 120.829 166.666C120.712 164.59 120.576 163.628 120.5 163.046C120.427 162.465 120.415 162.266 119.643 162.586C118.87 162.908 117.337 163.754 116.027 164.35C114.718 164.946 113.628 165.295 112.956 165.712C112.283 166.129 112.03 166.616 111.951 167.338C111.872 168.063 111.966 169.023 112.057 171.175C112.148 173.327 112.23 176.664 112.307 178.546C112.38 180.428 112.445 180.85 112.876 181.015H112.879ZM121.02 157.994C121.411 158.373 122.353 158.173 123.223 157.994C124.095 157.815 124.897 157.657 125.246 157.134C125.595 156.612 125.49 155.722 125.299 155.059C125.108 154.392 124.832 153.949 124.758 153.289C124.685 152.628 124.811 151.75 124.791 150.746C124.77 149.743 124.6 148.612 124.38 147.873C124.156 147.133 123.883 146.783 123.525 146.625C123.167 146.466 122.72 146.499 122.215 146.83C121.707 147.162 121.137 147.796 120.806 148.489C120.474 149.182 120.377 149.93 120.441 151.14C120.506 152.349 120.726 154.02 120.759 155.335C120.791 156.65 120.632 157.613 121.023 157.991L121.02 157.994ZM122.509 173.089C122.732 173.306 123.155 173.55 123.525 173.606C123.895 173.664 124.212 173.538 124.676 173.215C125.14 172.892 125.754 172.376 126.145 171.709C126.535 171.043 126.706 170.23 126.694 168.677C126.682 167.124 126.494 164.831 126.344 163.325C126.198 161.819 126.092 161.1 125.883 160.683C125.678 160.266 125.369 160.149 124.944 160.055C124.515 159.961 123.966 159.885 123.528 159.85C123.09 159.811 122.761 159.811 122.482 159.955C122.203 160.096 121.969 160.384 121.907 161.746C121.842 163.108 121.948 165.55 122.013 167.441C122.077 169.331 122.098 170.673 122.13 171.424C122.162 172.173 122.203 172.332 122.236 172.508C122.268 172.681 122.289 172.872 122.512 173.089H122.509ZM37.7121 158.344C37.3479 158.303 36.6489 158.121 36.0998 158.038C35.5506 157.953 35.1483 157.965 34.7988 157.912C34.4493 157.859 34.1527 157.742 34.0323 157.316C33.9119 156.888 33.9647 156.148 34.232 154.956C34.5022 153.761 34.9867 152.114 35.2745 150.788C35.5594 149.461 35.6446 148.457 35.809 147.629C35.9735 146.798 36.2172 146.144 36.7136 145.9C37.2099 145.656 37.9617 145.826 38.552 146.211C39.1423 146.596 39.5769 147.197 39.7737 148.16C39.9705 149.12 39.9264 150.441 39.8471 152.164C39.7678 153.888 39.6503 156.01 39.5417 157.172C39.4301 158.335 39.3244 158.534 39.0924 158.546C38.8604 158.558 38.5021 158.376 38.3053 158.335C38.1085 158.294 38.0762 158.388 37.7121 158.347V158.344ZM37.4478 171.445C37.5476 169.299 37.7796 165.125 37.9617 162.832C38.1408 160.539 38.2671 160.126 37.8912 159.879C37.5153 159.629 36.6372 159.547 35.856 159.503C35.0748 159.462 34.3876 159.462 34.1174 159.867C33.8473 160.275 33.997 161.088 34.0528 162.932C34.1116 164.775 34.0793 167.649 34.0881 169.378C34.0998 171.107 34.1527 171.686 34.464 172.305C34.7753 172.924 35.345 173.579 35.859 174.002C36.3729 174.425 36.8252 174.615 37.0748 174.545C37.3244 174.474 37.3655 174.149 37.3714 173.926C37.3773 173.702 37.345 173.588 37.4448 171.442L37.4478 171.445ZM27.8356 177.172C29.4949 180.14 32.3289 186.017 35.3215 190.993C38.3141 195.969 41.4623 200.049 45.5856 204.264C49.7088 208.48 54.8042 212.833 59.0332 215.719C63.2621 218.604 66.6218 220.019 69.1063 220.516C71.5909 221.012 73.1973 220.589 74.742 220.072C76.2868 219.556 77.764 218.942 79.1384 218.593C80.5128 218.243 81.7815 218.158 82.9856 218.508C84.1897 218.857 85.3321 219.638 86.5068 220.187C87.6786 220.736 88.8856 221.053 90.9032 220.777C92.9208 220.501 95.7548 219.635 98.6622 218.261C101.57 216.887 104.55 215.006 107.246 212.777C109.942 210.546 112.351 207.969 114.668 205.295C116.982 202.62 119.202 199.852 121.951 195.942C124.7 192.032 127.977 186.983 130.08 183.211C132.183 179.438 133.114 176.946 133.419 174.991C133.725 173.036 133.407 171.621 132.658 170.523C131.907 169.425 130.723 168.642 130.056 168.104C129.39 167.564 129.243 167.268 128.832 168.483C128.421 169.698 127.742 172.425 127.128 174.295C126.515 176.165 125.966 177.181 125.375 178.068C124.782 178.954 124.148 179.717 123.769 180.815C123.387 181.913 123.261 183.352 123.02 183.795C122.776 184.238 122.418 183.689 121.772 183.161C121.126 182.632 120.198 182.124 119.519 182.157C118.844 182.189 118.421 182.759 117.563 183.445C116.706 184.132 115.417 184.934 114.603 185.697C113.79 186.457 113.452 187.177 113.155 188.222C112.859 189.267 112.606 190.641 112.192 190.852C111.781 191.063 111.208 190.112 110.838 189.34C110.468 188.568 110.301 187.978 109.569 187.849C108.841 187.723 107.549 188.06 106.515 188.451C105.478 188.841 104.697 189.284 103.872 189.91C103.047 190.532 102.18 191.336 101.42 192.637C100.659 193.937 100.004 195.734 99.3788 196.294C98.7562 196.855 98.1629 196.177 97.602 195.038C97.0411 193.896 96.5125 192.29 95.6784 191.774C94.8444 191.257 93.7019 191.826 92.9413 192.05C92.1807 192.273 91.7989 192.143 90.9737 192.24C90.1484 192.334 88.8797 192.651 87.5288 193.159C86.175 193.667 84.7389 194.363 83.8931 195.22C83.0473 196.077 82.7947 197.09 82.454 198.379C82.1163 199.667 81.6934 201.232 81.1971 201.781C80.7008 202.33 80.1281 201.866 79.485 200.765C78.8389 199.667 78.1223 197.932 77.3705 196.77C76.6216 195.607 75.8375 195.017 74.5688 194.7C73.3001 194.383 71.5439 194.339 69.7495 194.128C67.9522 193.917 66.1138 193.538 64.9919 193.335C63.87 193.136 63.4706 193.112 63.268 193.641C63.0683 194.169 63.0683 195.246 62.9391 196.104C62.8128 196.961 62.5573 197.595 61.9464 197.055C61.3327 196.515 60.3606 194.803 59.5794 193.473C58.7982 192.141 58.205 191.189 56.8306 190.165C55.4561 189.14 53.3005 188.04 52.0407 187.67C50.7837 187.3 50.4225 187.658 50.3403 188.6C50.2551 189.54 50.446 191.063 50.4049 192.141C50.3638 193.218 50.0877 193.852 49.4945 193.112C48.9012 192.372 47.9938 190.259 47.3389 188.515C46.684 186.771 46.2816 185.398 45.3507 184.279C44.4197 183.158 42.963 182.292 41.7766 181.702C40.5931 181.109 39.6827 180.792 39.1863 181.247C38.69 181.702 38.6049 182.926 38.2466 183.316C37.8883 183.707 37.2539 183.263 36.4698 182.145C35.6886 181.024 34.7577 179.227 33.9647 177.231C33.1718 175.235 32.5169 173.036 31.9148 171.515C31.3128 169.995 30.7636 169.149 30.2967 168.653C29.8297 168.157 29.4509 168.007 29.1131 168.219C28.7754 168.43 28.4788 169 27.8327 170.036C27.1866 171.072 26.194 172.572 25.9414 173.353C25.6859 174.134 26.1734 174.199 27.8327 177.166L27.8356 177.172Z" fill="#0C0B08" stroke="#0C0B08" stroke-width="0.200307" stroke-miterlimit="22.9256"/>
<path fill-rule="evenodd" clip-rule="evenodd" d="M73.7647 130.317C74.2023 130.08 74.9423 129.677 76.1112 129.413C77.28 129.149 78.8747 129.023 80.2667 129.064C81.6558 129.105 82.8394 129.316 83.9172 129.639C84.995 129.962 85.967 130.394 86.713 130.717C87.4589 131.039 87.9758 131.251 88.4428 131.339C88.9068 131.43 89.3209 131.398 89.5352 131.148C89.7526 130.899 89.7731 130.435 89.6204 128.949C89.4677 127.464 89.1388 124.96 88.1931 122.045C87.2475 119.127 85.6822 115.801 84.0023 113.591C82.3225 111.383 80.5252 110.294 79.4298 110.018C78.3343 109.742 77.9437 110.282 76.8043 111.841C75.6619 113.4 73.7706 115.977 72.4578 118.478C71.148 120.976 70.4167 123.395 69.9204 125.494C69.4241 127.59 69.1598 129.366 69.2597 130.391C69.3595 131.415 69.8235 131.691 70.2787 131.671C70.7339 131.65 71.1774 131.333 71.6355 131.122C72.0966 130.91 72.5724 130.805 72.8778 130.717C73.1832 130.626 73.3212 130.552 73.7588 130.314L73.7647 130.317ZM74.5312 127.121C76.4548 127.068 79.9848 126.921 82.2579 126.897C84.531 126.877 85.5442 126.983 85.9935 126.839C86.4428 126.695 86.3253 126.304 85.829 125.239C85.3327 124.17 84.4546 122.427 83.7791 121.631C83.1037 120.833 82.6279 120.982 81.4415 120.959C80.2579 120.938 78.3666 120.747 77.1831 120.762C75.9996 120.777 75.5238 121 75.2125 121.291C74.9012 121.581 74.7515 121.939 74.2933 122.785C73.8322 123.63 73.0628 124.963 72.6223 125.758C72.1847 126.557 72.079 126.821 72.1847 126.974C72.2904 127.126 72.6076 127.17 74.5312 127.118V127.121Z" fill="#0C0B08"/>
<path fill-rule="evenodd" clip-rule="evenodd" d="M100.538 121.563C102.107 122.218 105.196 123.433 107.828 123.756C110.459 124.079 112.638 123.507 114.629 122.162C116.62 120.815 118.429 118.69 119.466 117.322C120.503 115.954 120.767 115.34 120.059 115.593C119.351 115.845 117.669 116.966 116.529 117.838C115.387 118.71 114.785 119.332 113.654 119.729C112.523 120.125 110.864 120.292 109.789 120.383C108.717 120.474 108.23 120.483 107.405 120.436C106.579 120.389 105.416 120.284 104.192 120.187C102.964 120.093 101.675 120.008 100.597 119.955C99.5193 119.902 98.653 119.881 98.0333 119.817C97.4137 119.752 97.0436 119.647 96.9643 119.705C96.885 119.764 97.0965 119.984 97.4607 120.181C97.8248 120.377 98.3446 120.545 98.6295 120.677C98.9144 120.809 98.9672 120.903 100.538 121.56V121.563Z" fill="#0C0B08"/>
<path fill-rule="evenodd" clip-rule="evenodd" d="M39.7449 118.457C40.3146 119.038 41.3513 120.083 42.3762 120.981C43.4012 121.88 44.4173 122.631 45.548 123.127C46.6786 123.623 47.9268 123.867 49.5214 123.794C51.1161 123.72 53.0632 123.327 54.8018 122.605C56.5404 121.88 58.0734 120.826 59.0131 120.001C59.9529 119.176 60.3024 118.586 60.1438 118.489C59.9852 118.395 59.3186 118.794 58.5051 119.188C57.6916 119.578 56.7283 119.96 55.768 120.265C54.8077 120.57 53.8444 120.802 52.5346 120.931C51.2248 121.058 49.5655 121.078 48.4025 120.978C47.2396 120.879 46.5729 120.655 45.6478 120.312C44.7227 119.969 43.5392 119.502 42.5936 119.006C41.6479 118.51 40.9401 117.981 40.3645 117.644C39.7889 117.306 39.3455 117.156 39.134 117.189C38.9226 117.221 38.9431 117.432 39.0077 117.597C39.0723 117.761 39.1781 117.876 39.7478 118.457H39.7449Z" fill="#0C0B08"/>
<path fill-rule="evenodd" clip-rule="evenodd" d="M88.296 92.6239C89.227 92.0544 90.622 90.8068 92.3459 89.2862C94.0698 87.7655 96.1196 85.969 97.8846 83.8877C99.6497 81.8064 101.13 79.4403 102.387 77.7818C103.644 76.1232 104.68 75.1721 105.843 74.2943C107.006 73.4166 108.296 72.6152 109.385 72.1279C110.475 71.6406 111.362 71.4733 112.651 71.3881C113.94 71.303 115.632 71.303 116.701 71.3148C117.77 71.3265 118.213 71.347 118.583 71.3059C118.953 71.2619 119.25 71.1592 119.27 71.0212C119.291 70.8832 119.038 70.7159 118.677 70.5339C118.319 70.3548 117.852 70.164 117.505 69.8998C117.156 69.6356 116.924 69.298 116.342 68.8313C115.761 68.3675 114.83 67.7745 113.679 67.2373C112.527 66.6971 111.153 66.2128 110.181 65.9574C109.209 65.7049 108.636 65.6814 107.928 65.8517C107.221 66.022 106.375 66.3801 105.464 67.0024C104.554 67.6248 103.582 68.5142 102.695 69.4536C101.808 70.393 101.004 71.3881 100.096 72.6563C99.1856 73.9245 98.1725 75.4656 97.2415 77.042C96.3105 78.6155 95.4647 80.2212 94.757 81.6479C94.0492 83.0745 93.4765 84.3192 92.7276 85.4406C91.9758 86.562 91.0449 87.5542 89.8936 88.6844C88.7424 89.8146 87.368 91.0827 86.7542 91.8225C86.1404 92.5622 86.2873 92.7736 86.5956 92.9321C86.9011 93.0906 87.368 93.1963 88.299 92.6268L88.296 92.6239Z" fill="#0C0B08"/>
<path fill-rule="evenodd" clip-rule="evenodd" d="M71.9434 92.2616C70.4515 91.2694 67.9171 89.4288 65.6763 87.5823C63.4355 85.7329 61.4884 83.8718 59.5032 82.4569C57.515 81.0419 55.4856 80.0703 54.029 79.5624C52.5694 79.0546 51.6825 79.0135 50.5078 79.2659C49.3331 79.5184 47.8764 80.0703 46.8603 80.5223C45.8442 80.9774 45.2744 81.3355 44.737 81.6936C44.1966 82.0518 43.6886 82.4128 43.298 82.5185C42.9074 82.6242 42.6313 82.4774 42.6959 82.1281C42.7605 81.7788 43.1599 81.2298 43.5212 80.6926C43.8794 80.1525 44.1966 79.6241 45.245 78.717C46.2905 77.807 48.0673 76.5183 49.3889 75.6846C50.7104 74.8509 51.5768 74.4693 52.3374 74.2051C53.098 73.9409 53.7529 73.7941 54.8748 74.2462C55.9966 74.7012 57.5825 75.758 59.324 77.396C61.0685 79.034 62.9715 81.2533 65.0654 83.1027C67.1594 84.9521 69.4413 86.4316 71.1123 87.7409C72.7833 89.0501 73.8406 90.192 74.6864 91.058C75.5322 91.924 76.1665 92.517 76.0725 92.8869C75.9785 93.2567 75.1533 93.4035 74.519 93.4035C73.8846 93.4035 73.4412 93.2567 71.9493 92.2616H71.9434Z" fill="#0C0B08"/>
<path fill-rule="evenodd" clip-rule="evenodd" d="M44.9868 117.919C46.2232 118.363 48.3171 118.891 51.0219 118.744C53.7267 118.597 57.0482 117.773 59.5856 116.939C62.123 116.105 63.8762 115.26 65.4004 114.382C66.9217 113.504 68.2109 112.597 69.3533 111.414C70.4957 110.231 71.4884 108.772 72.0699 107.049C72.6513 105.326 72.8187 103.341 72.481 101.607C72.1433 99.8745 71.2975 98.395 69.7322 96.5574C68.1669 94.7197 65.885 92.521 63.0304 90.6305C60.1759 88.74 56.7516 87.1548 53.8559 86.3094C50.9602 85.4639 48.5902 85.3583 46.699 85.643C44.8077 85.9278 43.3892 86.6059 42.2908 87.8417C41.1925 89.0776 40.4084 90.8741 39.6066 93.1022C38.8019 95.3303 37.9796 97.9928 37.683 100.362C37.3864 102.728 37.6184 104.8 37.9884 106.67C38.3585 108.54 38.8665 110.211 39.4891 111.584C40.1117 112.958 40.8518 114.036 41.4539 114.849C42.0559 115.662 42.5228 116.211 42.9457 116.666C43.3686 117.121 43.7475 117.479 44.9868 117.922V117.919ZM45.4303 91.018C45.2306 91.611 44.3613 92.6443 43.7827 94.7168C43.2012 96.7863 42.9046 99.8951 43.2424 102.199C43.5801 104.504 44.5522 106.004 45.5888 107.249C46.6255 108.496 47.7239 109.488 48.9192 110.134C50.1144 110.78 51.4037 111.074 53.1775 110.927C54.9543 110.78 57.2156 110.187 59.1832 109.353C61.1479 108.52 62.819 107.439 63.8968 106.236C64.9746 105.032 65.4621 103.7 65.791 102.537C66.1199 101.375 66.2873 100.382 66.4459 99.6221C66.6045 98.8618 66.7513 98.3334 67.0597 98.1426C67.3651 97.9517 67.8321 98.0985 68.255 98.5007C68.6779 98.9029 69.0567 99.5575 69.3768 100.233C69.694 100.908 69.9466 101.607 70.0523 102.337C70.158 103.065 70.1169 103.826 69.6088 105.117C69.1008 106.406 68.1287 108.223 66.7455 109.682C65.3593 111.141 63.5649 112.239 61.609 113.316C59.6531 114.394 57.5386 115.451 55.5416 116.126C53.5446 116.801 51.6621 117.097 50.0557 117.077C48.4493 117.056 47.116 116.719 45.8385 115.882C44.558 115.048 43.3334 113.716 42.3408 112.427C41.3481 111.138 40.5875 109.891 40.1117 108.062C39.636 106.233 39.4451 103.826 39.6037 101.765C39.7623 99.7043 40.2703 97.9928 40.6932 96.5779C41.1161 95.163 41.4539 94.0416 41.865 93.1962C42.2762 92.3507 42.7637 91.7812 43.2482 91.3145C43.7357 90.8477 44.2203 90.4896 44.6961 90.3839C45.1718 90.2782 45.6358 90.425 45.4361 91.018H45.4303Z" fill="#0C0B08"/>
<path fill-rule="evenodd" clip-rule="evenodd" d="M86.7652 107.711C86.2895 106.613 85.6346 105.216 85.476 103.792C85.3174 102.365 85.6551 100.906 86.8827 99.3534C88.1073 97.8005 90.2218 96.1507 92.3804 94.3453C94.536 92.537 96.7356 90.5732 99.1673 89.0202C101.599 87.4673 104.263 86.3254 106.735 85.8088C109.208 85.2921 111.493 85.3978 113.29 85.9467C115.088 86.4957 116.397 87.4908 117.604 89.1171C118.809 90.7434 119.91 93.0067 120.406 95.9217C120.902 98.8367 120.797 102.409 120.447 105.527C120.098 108.644 119.507 111.307 118.101 113.388C116.694 115.469 114.474 116.97 112.603 117.815C110.732 118.66 109.211 118.851 107.191 118.766C105.17 118.681 102.656 118.323 100.204 117.615C97.7518 116.908 95.3612 115.851 93.3113 114.592C91.2615 113.335 89.5464 111.876 88.5449 110.746C87.5406 109.616 87.2439 108.812 86.7682 107.714L86.7652 107.711ZM88.8915 105.882C89.379 106.865 90.1602 108.577 91.5228 110.056C92.8855 111.536 94.8326 112.783 96.5447 113.829C98.2569 114.874 99.737 115.719 102.022 116.174C104.304 116.629 107.393 116.691 109.346 116.3C111.302 115.91 112.127 115.064 113.267 114.028C114.409 112.992 115.866 111.768 116.87 109.822C117.875 107.878 118.424 105.216 118.688 103.005C118.952 100.798 118.932 99.0422 118.571 97.3308C118.212 95.6194 117.513 93.949 116.858 92.6398C116.204 91.3305 115.59 90.3794 114.841 89.9127C114.089 89.4488 113.202 89.4694 112.864 89.8481C112.527 90.2297 112.738 90.9695 113.202 91.856C113.666 92.7425 114.386 93.7788 114.861 95.0675C115.337 96.3562 115.569 97.9003 115.284 99.9493C115 101.998 114.195 104.555 113.267 106.363C112.336 108.169 111.279 109.226 110.242 109.86C109.205 110.494 108.192 110.705 107.029 110.611C105.866 110.517 104.556 110.115 103.129 109.628C101.702 109.14 100.16 108.571 98.7326 107.864C97.3054 107.156 95.9956 106.311 94.906 105.486C93.8165 104.661 92.9501 103.859 92.5595 103.002C92.1689 102.145 92.2541 101.238 92.1484 100.413C92.0426 99.5882 91.746 98.8485 91.3877 98.5637C91.0295 98.279 90.6066 98.4463 90.0339 98.9864C89.4641 99.5236 88.7446 100.434 88.1955 101.214C87.6463 101.995 87.2645 102.65 87.2645 103.158C87.2645 103.666 87.6463 104.024 87.9311 104.329C88.216 104.634 88.4069 104.89 88.8915 105.873V105.882Z" fill="#0C0B08"/>
<path d="M29 187.338C35.4 196.138 42.3332 210.004 45.9999 221.838C47.1666 220.504 49.5 217.538 49.5 216.338C49.5 215.138 42.8333 198.838 39.5 190.838L29 167.838L33.5 150.838L35 134.338L25.5 133.338L29 108.338V87.3376C29 86.5376 40.3333 69.3376 46 60.8376L68.5 50.3376L93.5 51.3376C99.3333 53.5043 111.2 57.9376 112 58.3376C112.8 58.7376 115.667 63.1709 117 65.3376V75.8376L127 107.338L132 123.838L127 142.838L129.5 171.338L120 200.338L112 208.338L94.5 221.838H81C75.5 221.838 77.5 246.338 81 238.338C84.5 230.338 115.53 219.772 124 208.338C154 167.838 137.5 159.838 135 137.838C132.5 115.838 139 93.8376 133.5 80.3376C128 66.8376 124 57.3376 116 49.3376C108 41.3376 75.5 46.3376 61 49.3376C46.5 52.3376 35.4999 65.8376 17.9999 88.3376C0.499889 110.838 10.9999 105.838 12.9999 137.838C14.9999 169.838 21 176.338 29 187.338Z" fill="black"/>
<path d="M96.5 238.338V289.338" stroke="white" stroke-width="6" stroke-linecap="round"/>
<path d="M52 231.338V261.338" stroke="white" stroke-width="6" stroke-linecap="round"/>
</svg>
