<svg width="238" height="123" viewBox="0 0 238 123" fill="none" xmlns="http://www.w3.org/2000/svg">
<path d="M103.57 31.63C103.57 31.63 108.04 26.85 110.9 26.63L107.24 31.63H103.57Z" fill="black"/>
<path d="M136.04 0L138.34 4.81V2.4L136.04 0Z" fill="black"/>
<path d="M115.03 10.34L121.74 6.97998L124.63 8.13998L118.62 10.34" fill="black"/>
<path d="M152 13C151.903 12.9657 151.802 12.9455 151.7 12.94C150.758 12.9033 149.817 13.0146 148.91 13.27C146.59 13.82 144.2 16.69 144.2 16.69L149 15.58" fill="black"/>
<path d="M114.63 39.68L128.78 32.79L122.73 38.23L114.63 39.68Z" fill="black"/>
<path d="M149 30.18C149.83 31.51 162.55 50.68 162.55 50.68C162.55 50.68 159.55 40.8 158.66 39.42C157.77 38.04 149 30.18 149 30.18Z" fill="black"/>
<path d="M130.09 38.79C130.09 38.79 131.76 44.84 133.95 46.73C135.193 47.8349 136.708 48.5875 138.34 48.91C138.34 48.91 135.73 42.66 135.42 42.45L130.09 38.79Z" fill="black"/>
<path d="M95.4697 52.55C96.2197 51.81 115.31 46.27 117.13 44.77L105.07 45.5L95.4697 52.55Z" fill="black"/>
<path d="M111.18 19.32L138.24 24.06C140.819 24.9613 143.178 26.3996 145.16 28.28C148.56 31.46 122.46 24.66 122.46 24.66L111.18 19.32Z" fill="black"/>
<path d="M110.27 10.34C106.35 13.4134 102.43 16.49 98.5098 19.57C96.2998 21.31 94.2298 23.23 92.0498 25.14C91.6496 25.5059 91.2217 25.8403 90.7698 26.14C90.2698 26.47 89.7698 26.78 89.2398 27.06L89.0998 27.13L87.7998 28.41C86.4011 29.8163 84.9326 31.1513 83.3998 32.41C81.8302 33.7038 80.1113 34.805 78.2798 35.69C77.9581 36.0983 77.6036 36.4795 77.2198 36.83L77.2998 36.98C76.8998 37.24 76.4698 37.49 76.0398 37.73C75.1198 38.56 73.6098 38.73 72.7698 39.82L67.2198 44.12C57.9731 51.2867 48.7465 58.48 39.5398 65.7C32.4698 71.24 24.4698 72.92 15.7498 71.76C13.9198 71.53 12.1198 71.02 10.2798 70.94C8.89191 70.902 7.51208 71.1629 6.23394 71.7051C4.9558 72.2473 3.80926 73.0582 2.87211 74.0826C1.93497 75.107 1.22916 76.321 0.802574 77.6422C0.375992 78.9635 0.238621 80.361 0.399785 81.74C0.554764 83.3764 0.554764 85.0237 0.399785 86.66C0.329785 87.89 0.0597846 89.1 -0.000215355 90.34C-0.164618 92.2977 0.436465 94.2429 1.67665 95.7665C2.91683 97.2902 4.69948 98.2736 6.64978 98.51C7.43744 98.6597 8.2381 98.73 9.03978 98.72C13.0398 98.56 15.5098 101.03 17.7698 103.72C18.0555 104.291 18.1058 104.952 17.9098 105.56C17.0798 108.5 16.5098 111.45 17.2298 114.49C17.5478 116.34 18.519 118.014 19.9669 119.209C21.4147 120.404 23.2431 121.039 25.1198 121C26.6598 121 28.2198 120.71 29.7298 120.88C34.8598 121.48 38.7798 119.11 42.3198 115.88C47.9898 110.71 47.3898 100.28 38.7698 98.5C38.429 98.4696 38.1 98.36 37.8089 98.1801C37.5178 98.0001 37.2728 97.7548 37.0932 97.4635C36.9136 97.1723 36.8044 96.8431 36.7743 96.5023C36.7442 96.1614 36.794 95.8183 36.9198 95.5C37.223 94.0695 37.8003 92.7112 38.6198 91.5C40.4608 89.037 42.5631 86.7805 44.8898 84.77C58.8898 73.56 73.1098 62.5 87.2398 51.39C87.4957 51.2304 87.7631 51.09 88.0398 50.97C90.1098 49.5765 92.0996 48.0674 93.9998 46.45C94.4198 45.91 94.8398 45.36 95.2998 44.84C96.721 43.2395 98.3446 41.831 100.13 40.65C100.55 39.7 100.96 38.76 101.39 37.82C88.6564 47.82 75.9231 57.79 63.1898 67.73C56.7231 72.77 50.2898 77.86 43.8898 83C39.9512 86.3584 36.5752 90.3251 33.8898 94.75C31.9498 97.75 29.6698 100.47 27.5098 103.27C26.5098 104.64 25.3898 105.92 24.3198 107.27L24.6498 107.59C30.9098 102.87 35.3998 104.86 36.5198 111.32L37.0598 111.43L38.0598 106.43C39.9798 107.79 39.8798 109.51 37.1998 114.6C39.9398 112.6 41.7198 110.46 42.0298 107.41C42.2298 105.41 41.3098 104.3 38.7598 103.31C37.8863 103.004 37.0932 102.505 36.4398 101.85C35.7879 101.198 35.2892 100.409 34.9798 99.54C34.8625 99.1323 34.7887 98.7133 34.7598 98.29C36.0275 99.1425 37.3657 99.8852 38.7598 100.51C44.1598 102.51 46.0098 108.24 42.4398 112.86C39.1998 117.06 34.9898 119.54 29.2498 118.55L32.1398 116.55C29.3298 116.94 26.8998 117.34 24.4598 117.55C22.0198 117.76 20.7798 116.93 20.0598 114.42C19.1298 111.14 20.2398 108.22 21.7798 105.42C22.3598 104.35 23.0998 103.42 23.9898 102.01C19.4598 102.6 17.5298 98.41 13.4098 97.14L18.0098 95.38L17.9398 94.92C16.4098 95.1 14.8698 95.21 13.3598 95.47C11.8498 95.73 10.4898 96.2 9.04978 96.47C8.22785 96.6946 7.3654 96.7279 6.52859 96.5674C5.69177 96.407 4.90281 96.0571 4.22221 95.5444C3.54161 95.0318 2.98744 94.3701 2.60221 93.6101C2.21697 92.8501 2.0109 92.012 1.99978 91.16C1.9802 89.5233 2.06035 87.887 2.23978 86.26L2.87978 86.09L4.44978 89.49L4.99978 89.33C4.64058 87.5207 4.10123 85.7519 3.38978 84.05C2.62505 82.8057 2.26446 81.355 2.35757 79.8975C2.45069 78.4399 2.99293 77.0469 3.90978 75.91C5.77978 73.33 8.48978 72.53 11.5798 72.91L24.2498 74.38C21.6644 75.1893 18.9548 75.528 16.2498 75.38C13.9961 75.2915 11.7392 75.4188 9.50978 75.76C8.57978 75.88 7.73978 76.66 6.50978 77.35C16.0698 78.23 20.3998 80.8 21.1098 86.03C24.9598 82.57 26.6998 77.03 32.4798 75.79L28.1798 81.46L28.4798 81.77L29.7098 80.89C36.1098 76.1 42.5698 71.38 48.8898 66.48C50.9097 64.7155 52.8326 62.8427 54.6498 60.87C55.6498 59.87 56.7498 58.97 57.7798 58.02C59.0835 56.8563 60.2908 55.5888 61.3898 54.23C60.9686 54.4387 60.5641 54.6794 60.1798 54.95C56.8398 57.75 53.4398 60.5 50.1798 63.39C45.6104 67.4374 40.3269 70.598 34.5998 72.71C33.9607 72.9464 33.2696 73.0051 32.5998 72.88C32.7899 72.6983 33.0014 72.5405 33.2298 72.41C42.3098 67.54 49.7998 60.5 57.8198 54.2C74.2865 41.28 90.7931 28.4034 107.34 15.57L110.14 13.4C110.01 12.38 110.054 11.3453 110.27 10.34Z" fill="white"/>
<path d="M107.29 15.59C90.7498 28.4233 74.2431 41.3 57.7698 54.22C49.7698 60.52 42.2598 67.56 33.1798 72.43C32.9515 72.5604 32.7399 72.7183 32.5498 72.9C33.2196 73.0251 33.9108 72.9663 34.5498 72.73C40.2769 70.618 45.5604 67.4574 50.1298 63.41C53.3898 60.52 56.7898 57.77 60.1298 54.97C60.5141 54.6994 60.9187 54.4587 61.3398 54.25C60.2455 55.5941 59.045 56.8482 57.7498 58C56.7498 59 55.6398 59.85 54.6198 60.85C52.8026 62.8227 50.8798 64.6954 48.8598 66.46C42.5398 71.36 36.0798 76.08 29.6798 80.87L28.4498 81.75L28.1498 81.44L32.4498 75.77C26.6698 76.97 24.9298 82.55 21.0798 86.01C20.3698 80.78 16.0798 78.21 6.47981 77.33C7.75981 76.64 8.59981 75.86 9.47981 75.74C11.7092 75.3987 13.9662 75.2715 16.2198 75.36C18.9248 75.508 21.6345 75.1693 24.2198 74.36L11.5698 72.89C8.47981 72.53 5.76981 73.33 3.89981 75.89C2.98296 77.0269 2.44071 78.4199 2.3476 79.8774C2.25449 81.335 2.61508 82.7856 3.37981 84.03C4.09595 85.7379 4.63867 87.5135 4.99981 89.33L4.48981 89.49L2.91981 86.09L2.27981 86.26C2.08701 87.8861 1.99351 89.5225 1.99981 91.16C2.01501 91.9965 2.21811 92.8188 2.59406 93.5662C2.97002 94.3135 3.50921 94.9668 4.17175 95.4776C4.83429 95.9884 5.60321 96.3438 6.42163 96.5173C7.24004 96.6908 8.08699 96.678 8.89981 96.48C10.3398 96.22 11.7498 95.74 13.2098 95.48C14.6698 95.22 16.2098 95.11 17.7898 94.93L17.8598 95.39L13.2598 97.15C17.3798 98.42 19.3098 102.61 23.8398 102.02C22.9498 103.38 22.2098 104.36 21.6298 105.43C20.0898 108.23 18.9798 111.15 19.9098 114.43C20.6298 116.94 21.7598 117.82 24.3098 117.56C26.8598 117.3 29.1798 116.93 31.9898 116.56L29.0998 118.56C34.8398 119.56 39.0998 117.07 42.2898 112.87C45.8598 108.25 44.0098 102.56 38.6098 100.52C37.2157 99.8952 35.8775 99.1525 34.6098 98.3C34.6387 98.7233 34.7125 99.1423 34.8298 99.55C35.1312 100.428 35.6308 101.226 36.2898 101.88C36.9441 102.534 37.7369 103.033 38.6098 103.34C41.1598 104.34 42.0898 105.48 41.8898 107.44C41.5698 110.44 39.7898 112.63 37.0498 114.63C39.7398 109.54 39.8298 107.82 37.9098 106.46L36.9098 111.46L36.3698 111.35C35.2498 104.89 30.7598 102.9 24.4998 107.62L24.1698 107.28C25.2398 105.95 26.3298 104.67 27.3598 103.28C29.5198 100.48 31.7998 97.73 33.7398 94.76C36.4697 90.3204 39.897 86.3495 43.8898 83C50.2898 77.88 56.7131 72.8 63.1598 67.76C75.8931 57.76 88.6265 47.79 101.36 37.85C101.62 37.28 101.89 36.71 102.17 36.15C102.433 35.5905 102.744 35.0552 103.1 34.55C90.6331 44.1833 78.1398 53.7833 65.6198 63.35C62.5598 65.68 59.3098 67.76 56.1498 69.96L55.7098 69.37L82.3398 48.09L82.0598 47.72L67.9998 57.78L67.7198 57.37C71.9098 53.99 76.0198 50.47 80.3198 47.21C86.5998 42.46 92.9598 37.8 99.3198 33.08C97.9198 32.5 97.3198 30.39 98.9198 29.56L99.4598 28.95C99.1248 28.0407 99.0532 27.0554 99.2531 26.1073C99.453 25.1591 99.9163 24.2866 100.59 23.59C101.596 22.619 102.71 21.7668 103.91 21.05C104.422 20.7193 104.861 20.287 105.2 19.78C106.246 18.1121 107.507 16.589 108.95 15.25C109.32 14.63 109.71 14.01 110.13 13.42L107.29 15.59ZM14.7498 92.32C13.1698 92.76 11.5898 93.25 9.98981 93.61C9.34796 93.7697 8.67189 93.7207 8.05981 93.47C7.826 93.3002 7.63353 93.0798 7.49675 92.8253C7.35996 92.5708 7.28239 92.2887 7.26981 92C7.26981 91.77 8.06981 91.21 8.47981 91.26C10.5998 91.43 12.7098 91.75 14.8198 92.01L14.7498 92.32ZM31.1798 83.77L26.7698 87.61L26.2998 87C27.4598 85.32 29.2798 84.57 31.1798 83.77ZM23.6398 90.94L22.9298 90.23L24.8598 88.46L25.4698 89.1L23.6398 90.94ZM39.6398 83.94C36.2262 87.1435 33.4802 90.9907 31.5598 95.26C30.8685 96.4871 29.8777 97.5192 28.6798 98.26C28.3382 98.383 27.9716 98.4201 27.6123 98.3677C27.253 98.3154 26.9121 98.1754 26.6198 97.96C26.4385 97.6606 26.336 97.3201 26.322 96.9703C26.308 96.6205 26.383 96.2729 26.5398 95.96C31.2298 91 35.9998 86.2 40.8298 81.41C41.1652 81.1468 41.5312 80.9252 41.9198 80.75L42.1198 80.99C41.346 82.0064 40.5111 82.9749 39.6198 83.89L39.6398 83.94ZM58.7198 64L57.9998 63.1L64.1798 58.31L64.6798 58.93L58.7198 64ZM66.9998 49.58L71.0798 47.1C70.5998 49.37 68.9998 50.38 66.9998 49.58Z" fill="white"/>
<path d="M103.85 33.7C103.85 33.44 103.85 33.18 103.85 32.92C103.83 32.9256 103.809 32.9256 103.79 32.92C102.79 32.61 100.93 33.32 99.8397 33.24C99.6332 33.2214 99.4307 33.1708 99.2397 33.09C92.9997 37.79 86.6097 42.44 80.3297 47.2C75.9997 50.46 71.9197 54 67.7297 57.36L68.0097 57.77L82.0797 47.69L82.3497 48.06L55.7197 69.33L56.1697 69.92C59.3297 67.72 62.5797 65.65 65.6297 63.32C78.1631 53.72 90.6697 44.0967 103.15 34.45C103.353 34.1732 103.588 33.9214 103.85 33.7Z" fill="white"/>
<path d="M42.12 81C41.3438 82.0176 40.5091 82.9893 39.62 83.91C36.2064 87.1135 33.4604 90.9607 31.54 95.23C30.8537 96.4608 29.8618 97.4941 28.66 98.23C28.3168 98.357 27.9471 98.3952 27.5852 98.341C27.2232 98.2868 26.8809 98.142 26.59 97.92C26.4037 97.6221 26.2992 97.2805 26.2869 96.9294C26.2746 96.5783 26.355 96.2301 26.52 95.92C31.22 91 36 86.18 40.84 81.4C41.174 81.1373 41.5363 80.9126 41.92 80.73L42.12 81Z" fill="white"/>
<path d="M14.7498 92.32C13.1698 92.76 11.5898 93.25 9.97976 93.59C9.34125 93.7497 8.66837 93.7006 8.05977 93.45C7.82718 93.2828 7.63471 93.066 7.49634 92.8152C7.35797 92.5644 7.27716 92.2859 7.25977 92C7.25977 91.77 8.06977 91.22 8.46977 91.25C10.5898 91.42 12.6998 91.74 14.8098 92.01L14.7498 92.32Z" fill="white"/>
<path d="M64.71 58.93L58.71 63.99L58 63.1L64.18 58.31L64.71 58.93Z" fill="white"/>
<path d="M71.08 47.1C70.6 49.37 69 50.38 67 49.58L71.08 47.1Z" fill="white"/>
<path d="M26.2998 87C27.4598 85.31 29.2998 84.56 31.1698 83.75L26.7698 87.6L26.2998 87Z" fill="white"/>
<path d="M22.9399 90.23L24.8699 88.46L25.4799 89.1L23.6599 90.94L22.9399 90.23Z" fill="white"/>
<path d="M110.12 11.23C106.207 14.29 102.3 17.3533 98.3999 20.42C96.2899 22.08 94.3199 23.92 92.2299 25.74C91.8516 26.1065 91.4436 26.441 91.0099 26.74C90.5354 27.0614 90.0447 27.3584 89.5399 27.63L89.4099 27.69L88.1699 28.9C86.8299 30.23 85.4299 31.5 83.9699 32.69C82.4724 33.9347 80.8265 34.9894 79.0699 35.83C78.768 36.2209 78.4334 36.5855 78.0699 36.92L78.1499 37.07C77.7599 37.31 77.3499 37.55 76.9399 37.78C76.0599 38.58 74.6199 38.78 73.8199 39.78L68.4999 43.89C59.6599 50.7433 50.8266 57.6166 41.9999 64.51C35.2899 69.8 27.6399 71.4 19.2999 70.3C17.5499 70.08 15.8399 69.6 14.0699 69.51C12.7438 69.4769 11.4261 69.7288 10.2056 70.2487C8.98524 70.7686 7.89064 71.5444 6.99577 72.5236C6.1009 73.5029 5.42662 74.6628 5.01848 75.9249C4.61034 77.1871 4.47784 78.5222 4.62994 79.84C4.78495 81.4028 4.78495 82.9771 4.62994 84.54C4.62994 85.71 4.31994 86.88 4.26994 88.06C4.11651 89.9311 4.69287 91.789 5.87835 93.2448C7.06384 94.7005 8.76653 95.6413 10.6299 95.87C11.3815 96.0113 12.1452 96.0783 12.9099 96.07C16.7099 95.91 19.0899 98.28 21.2499 100.89C21.5267 101.435 21.5771 102.068 21.3899 102.65C20.4327 105.388 20.2086 108.329 20.7399 111.18C21.0562 112.935 21.9883 114.52 23.3687 115.649C24.749 116.778 26.487 117.378 28.2699 117.34C29.7399 117.34 31.2699 117.07 32.6699 117.23C37.5799 117.8 41.3299 115.54 44.6699 112.45C50.0899 107.51 49.5199 97.54 41.2799 95.84C40.9598 95.8061 40.6518 95.6991 40.3796 95.5272C40.1074 95.3554 39.8783 95.1232 39.7102 94.8487C39.542 94.5742 39.4392 94.2647 39.4097 93.9442C39.3801 93.6236 39.4247 93.3006 39.5399 93C39.8223 91.6212 40.3764 90.3124 41.1699 89.15C42.9336 86.7977 44.9452 84.642 47.1699 82.72C60.5999 72 74.1699 61.43 87.6599 50.82C87.9002 50.6632 88.1547 50.5293 88.4199 50.42C90.3849 49.1026 92.2776 47.6806 94.0899 46.16C94.4899 45.64 94.8899 45.16 95.3299 44.62C96.7701 43.0015 98.4255 41.5883 100.25 40.42C100.65 39.49 101.06 38.57 101.49 37.65C89.1633 47.2166 76.8733 56.8166 64.6199 66.45C58.4533 71.27 52.3133 76.12 46.1999 81C42.4288 84.2091 39.1947 88.0002 36.6199 92.23C34.7599 95.07 32.6199 97.7 30.5199 100.38C29.5199 101.68 28.5199 102.92 27.4699 104.18L27.7799 104.49C33.7799 99.97 38.0599 101.88 39.1299 108.06L39.6399 108.16L40.5599 103.39C42.3999 104.69 42.3099 106.33 39.7399 111.2C42.3599 109.28 44.0599 107.2 44.3599 104.32C44.5499 102.45 43.6699 101.32 41.2299 100.41C40.3912 100.111 39.6295 99.6296 38.9999 99C38.3794 98.3728 37.9019 97.6189 37.5999 96.79C37.4889 96.3987 37.4218 95.9962 37.3999 95.59C38.5938 96.4029 39.8551 97.1121 41.1699 97.71C46.3399 99.71 48.0999 105.1 44.6899 109.51C41.5899 113.51 37.5699 115.9 32.0799 114.95L34.8499 113.08C32.1599 113.45 29.8499 113.84 27.4999 114.08C25.1499 114.32 23.9799 113.48 23.2999 111.08C22.4099 107.93 23.4699 105.15 24.9399 102.47C25.4999 101.47 26.2099 100.47 27.0599 99.22C22.7299 99.77 20.8899 95.77 16.9399 94.56L21.3399 92.87L21.2699 92.44C19.8099 92.61 18.3399 92.71 16.8899 92.96C15.4399 93.21 14.1599 93.66 12.7699 93.96C11.9929 94.1491 11.1833 94.161 10.401 93.9948C9.61881 93.8285 8.88401 93.4883 8.2511 92.9995C7.61819 92.5106 7.1034 91.8856 6.74486 91.1708C6.38633 90.4559 6.19326 89.6696 6.17994 88.87C6.16733 87.3069 6.24412 85.7443 6.40994 84.19L6.99994 84L8.49994 87.25L8.99994 87.1C8.66077 85.3846 8.14468 83.7089 7.45994 82.1C6.72313 80.8994 6.37916 79.4989 6.47595 78.0936C6.57275 76.6883 7.10548 75.3482 7.99994 74.26C9.78994 71.8 12.3799 71.04 15.3299 71.38L27.4399 72.79C24.9834 73.5752 22.406 73.9138 19.8299 73.79C17.6734 73.7045 15.5136 73.8251 13.3799 74.15C12.4899 74.27 11.6899 75.01 10.4699 75.67C19.5999 76.51 23.7399 78.97 24.4699 83.97C28.1499 80.66 29.8199 75.33 35.3399 74.18L31.2199 79.6L31.5199 79.9L32.6899 79.06C38.7399 74.47 44.9099 70 50.9999 65.28C52.9237 63.585 54.7595 61.7927 56.4999 59.91C57.4999 58.96 58.4999 58.1 59.4999 57.18C60.7558 56.0793 61.9135 54.8714 62.9599 53.57C62.5569 53.7615 62.172 53.9891 61.8099 54.25C58.6099 56.93 55.3599 59.56 52.2399 62.32C47.8726 66.1884 42.8233 69.2099 37.3499 71.23C36.7331 71.4576 36.0659 71.5129 35.4199 71.39C35.6044 71.2204 35.8054 71.0696 36.0199 70.94C44.6999 66.28 51.8599 59.56 59.5199 53.54C75.2333 41.18 90.9933 28.87 106.8 16.61L109.2 14.76C109.49 14.3 109.81 13.86 110.13 13.42C110.032 12.6935 110.028 11.9573 110.12 11.23Z" fill="black"/>
<path d="M106.8 16.61C90.9934 28.87 75.2134 41.18 59.46 53.54C51.8 59.54 44.64 66.28 35.96 70.94C35.7455 71.0696 35.5445 71.2204 35.36 71.39C36.006 71.5129 36.6732 71.4576 37.29 71.23C42.7634 69.2099 47.8127 66.1884 52.18 62.32C55.3 59.56 58.55 56.93 61.75 54.25C62.1121 53.9891 62.497 53.7615 62.9 53.57C61.8536 54.8714 60.6959 56.0793 59.44 57.18C58.44 58.1 57.44 58.96 56.44 59.91C54.719 61.7912 52.9033 63.5835 51 65.28C44.91 70 38.74 74.47 32.62 79.05L31.45 79.89L31.15 79.59L35.27 74.17C29.75 75.32 28.08 80.65 24.4 84C23.72 79 19.58 76.54 10.45 75.7C11.67 75.04 12.45 74.3 13.36 74.18C15.4937 73.8551 17.6535 73.7345 19.81 73.82C22.3861 73.9439 24.9634 73.6052 27.42 72.82L15.31 71.38C12.31 71.04 9.77003 71.8 7.98003 74.26C7.10277 75.348 6.58376 76.6809 6.49424 78.0757C6.40472 79.4705 6.74907 80.8588 7.48003 82.05C8.16123 83.6758 8.67067 85.3683 9.00003 87.1L8.51003 87.24L7.00003 84L6.39003 84.17C6.22421 85.7243 6.14742 87.2869 6.16003 88.85C6.17334 89.6496 6.36642 90.436 6.72495 91.1508C7.08348 91.8657 7.59827 92.4907 8.23118 92.9795C8.86409 93.4684 9.59889 93.8085 10.3811 93.9748C11.1634 94.1411 11.973 94.1292 12.75 93.94C14.14 93.69 15.48 93.23 16.87 92.94C18.26 92.65 19.79 92.59 21.25 92.42L21.32 92.85L17 94.58C20.95 95.79 22.79 99.79 27.12 99.24C26.27 100.53 25.56 101.47 25 102.49C23.53 105.17 22.47 107.95 23.36 111.1C24.04 113.49 25.13 114.33 27.56 114.1C29.99 113.87 32.22 113.49 34.91 113.1L32.09 115C37.58 116 41.6 113.58 44.7 109.56C48.11 105.15 46.35 99.71 41.18 97.76C39.8652 97.1622 38.6039 96.4529 37.41 95.64C37.4327 96.0461 37.4997 96.4485 37.61 96.84C37.9164 97.6497 38.3901 98.3857 39 99C39.6291 99.623 40.3868 100.101 41.22 100.4C43.66 101.34 44.54 102.4 44.35 104.31C44.05 107.23 42.35 109.31 39.73 111.19C42.3 106.32 42.39 104.68 40.56 103.38L39.63 108.15L39.12 108.04C38.05 101.87 33.76 99.96 27.77 104.48L27.46 104.15C28.46 102.89 29.52 101.65 30.51 100.35C32.57 97.67 34.75 95.04 36.61 92.2C39.1904 87.9802 42.4278 84.1993 46.2 81C52.32 76.12 58.46 71.2667 64.62 66.44C76.8734 56.8133 89.1567 47.2 101.47 37.6C101.7 37.11 101.93 36.6 102.17 36.12C102.456 35.5456 102.79 34.9969 103.17 34.48L103.23 34.4C91.1567 43.7333 79.08 53.02 67 62.26C64.08 64.49 61 66.48 58 68.58L57.5 68L83 47.68L82.74 47.32L69.25 56.94L69 56.55C73 53.31 77 49.95 81 46.83C87.09 42.22 93.27 37.71 99.39 33.12C97.89 32.63 97.15 30.42 98.85 29.56L99.39 28.95C99.055 28.0408 98.9834 27.0555 99.1833 26.1073C99.3832 25.1592 99.8465 24.2866 100.52 23.59C101.526 22.619 102.64 21.7668 103.84 21.05C104.352 20.7193 104.791 20.2871 105.13 19.78C106.176 18.1121 107.437 16.5891 108.88 15.25L109.17 14.76L106.8 16.61ZM18.35 90C16.83 90.41 15.35 90.88 13.8 91.22C13.1972 91.3566 12.5666 91.297 12 91.05C11.7793 90.8927 11.5966 90.688 11.4651 90.451C11.3336 90.214 11.2567 89.9505 11.24 89.68C11.24 89.45 12 88.92 12.39 88.96C14.39 89.13 16.39 89.43 18.45 89.69L18.35 90ZM34.06 81.82L29.84 85.49L29.39 84.92C30.5 83.26 32.23 82.55 34.06 81.78V81.82ZM26.85 88.67L26.16 88L28 86.26L28.58 86.87L26.85 88.67ZM42.12 81.9C38.861 84.9607 36.2376 88.6341 34.4 92.71C33.7323 93.8722 32.7876 94.8512 31.65 95.56C31.3178 95.6788 30.9613 95.7135 30.6124 95.6612C30.2634 95.6088 29.9328 95.471 29.65 95.26C29.4637 94.9622 29.3592 94.6205 29.3469 94.2694C29.3346 93.9183 29.415 93.5702 29.58 93.26C34.08 88.62 38.67 84.05 43.26 79.47C43.5685 79.223 43.904 79.0116 44.26 78.84L44.45 79.07C43.7284 80.0574 42.9505 81.0023 42.12 81.9ZM60.38 62.9L59.72 62L65.62 57.42L66.1 58.02L60.38 62.9ZM68.29 49.1L72.19 46.73C71.73 48.9 70.17 49.86 68.29 49.1Z" fill="white"/>
<path d="M103.85 33.7C103.85 33.44 103.85 33.18 103.85 32.92C103.83 32.9256 103.809 32.9256 103.79 32.92C102.79 32.61 100.93 33.32 99.8398 33.24C99.6795 33.2269 99.5215 33.1933 99.3698 33.14C93.2898 37.69 87.1198 42.21 80.9998 46.83C76.8898 49.94 72.9998 53.3 68.9998 56.54L69.2798 56.93L82.6998 47.29L82.9598 47.64L57.5098 68L57.9298 68.56C60.9298 66.46 64.0598 64.48 66.9798 62.25C79.0931 52.97 91.1831 43.6667 103.25 34.34C103.431 34.11 103.632 33.8959 103.85 33.7Z" fill="black"/>
<path d="M44.5099 79.12C43.7649 80.093 42.9671 81.0244 42.1199 81.91C38.8578 84.9719 36.2341 88.6492 34.3999 92.73C33.7377 93.8936 32.7916 94.8706 31.6499 95.57C31.32 95.7022 30.9607 95.7441 30.6092 95.6914C30.2577 95.6387 29.9265 95.4932 29.6499 95.27C29.4533 94.9761 29.3426 94.6333 29.3303 94.2799C29.3179 93.9266 29.4044 93.5768 29.5799 93.27C34.0699 88.62 38.6799 84.05 43.2599 79.47C43.5684 79.2229 43.9039 79.0116 44.2599 78.84L44.5099 79.12Z" fill="black"/>
<path d="M18.3497 90C16.8297 90.41 15.3497 90.88 13.7897 91.21C13.1855 91.3219 12.5616 91.2487 11.9997 91C11.7827 90.8368 11.6027 90.6294 11.4717 90.3915C11.3407 90.1537 11.2616 89.8907 11.2397 89.62C11.2397 89.4 12.0097 88.88 12.3997 88.91C14.3997 89.07 16.3997 89.38 18.4597 89.63L18.3497 90Z" fill="black"/>
<path d="M66.1 58L60.39 62.84L59.73 62L65.63 57.42L66.1 58Z" fill="black"/>
<path d="M72.1896 46.73C71.7296 48.9 70.1896 49.86 68.2896 49.1L72.1896 46.73Z" fill="black"/>
<path d="M29.3896 84.88C30.4996 83.26 32.2296 82.55 34.0496 81.77L29.8396 85.45L29.3896 84.88Z" fill="black"/>
<path d="M26.1797 88L27.9997 86.26L28.5897 86.87L26.8397 88.64L26.1797 88Z" fill="black"/>
<path d="M237.56 82.74C236.34 77.58 232.1 74.83 226.2 75.3C216.05 76.11 207.2 73.37 199.95 66.02C188.89 54.88 177.756 43.8133 166.55 32.82C164.55 30.82 162.38 29.04 160.22 27.11C159.783 26.7748 159.375 26.4034 159 26C158.605 25.553 158.235 25.0857 157.89 24.6L157.81 24.48L156.37 23.34C156.02 23.07 155.68 22.77 155.37 22.49C155.81 23.67 156.2 24.86 156.55 26.07L171.55 41.07C179.47 48.99 187.23 57.07 195.24 64.92C198.39 68.01 201.98 70.65 205.38 73.5C205.868 73.8501 206.26 74.3179 206.52 74.86C205.762 74.6455 205.02 74.3782 204.3 74.06C198.63 71.1722 193.598 67.1768 189.5 62.31C187.06 59.4 184.32 56.74 181.68 53.97C181.521 53.7997 181.321 53.6724 181.1 53.6C180.876 53.5453 180.643 53.5453 180.42 53.6C181.72 55.09 183.01 56.6 184.32 58.08C184.73 58.54 185.38 58.89 185.59 59.41C187.52 64.26 191.93 66.79 195.45 70.19C199.94 74.49 204.32 78.9 208.74 83.27C208.89 83.4419 209.074 83.5814 209.28 83.68C209.483 83.7804 209.704 83.8415 209.93 83.86L206.18 77.33C208.639 78.4195 210.726 80.2066 212.18 82.47C213.52 84.59 214.73 86.78 216.25 88.96C216.71 85.53 219.25 84.42 221.84 83.39C224.43 82.36 226.97 81.59 229.78 82.07L231.34 82.31L231.62 81.7C230.204 80.8591 228.715 80.1495 227.17 79.58C225.54 79.12 223.74 79.3 222.05 78.99C219.43 78.51 216.84 77.85 214.23 77.27L214.35 76.58C214.83 76.64 215.35 76.75 215.77 76.77C219.39 76.93 223.02 77.29 226.63 77.17C231.44 77.01 235.1 79.38 235.68 83.92C235.788 85.5402 235.401 87.1551 234.57 88.55C232.95 91.35 232.29 92.73 232.38 95.1L234.38 91.29L234.92 91.48C235.18 93.76 235.31 96.05 234.21 98.2C233.621 99.3001 232.68 100.17 231.538 100.671C230.395 101.172 229.117 101.273 227.91 100.96C226.13 100.48 224.44 99.71 222.68 99.16C221.391 98.7384 220.032 98.572 218.68 98.67L222.68 100.93C218.55 101.59 216.09 105.53 211.74 104.42C212.57 106.35 213.42 107.98 213.99 109.7C214.485 110.932 214.728 112.251 214.704 113.579C214.68 114.907 214.389 116.216 213.85 117.43C212.79 119.59 211.59 120.23 209.25 119.71C206.91 119.19 204.62 118.5 201.84 117.71L204.49 120.15C203.65 120.15 203.13 120.27 202.64 120.25C196.77 120.01 190.42 113.41 190.76 107.94C191.01 104.01 192.9 101.94 196.76 101.05C198.366 100.57 199.936 99.9787 201.46 99.28C201.23 100.149 200.812 100.957 200.237 101.648C199.662 102.339 198.943 102.896 198.13 103.28C197.849 103.405 197.558 103.506 197.26 103.58C192.72 104.98 191.68 107.58 194.1 111.76C194.802 112.882 195.623 113.925 196.55 114.87C194.92 109.21 194.98 108.2 197.15 106.79C197.15 111.03 197.15 111.03 198.03 112.17C198.21 111.49 198.31 110.85 198.53 110.25C198.79 109.439 199.232 108.699 199.823 108.086C200.414 107.473 201.137 107.004 201.938 106.714C202.738 106.424 203.595 106.322 204.441 106.415C205.287 106.508 206.101 106.794 206.82 107.25C208.02 107.97 209.09 108.91 210.66 110.07C210.341 109.139 209.926 108.244 209.42 107.4C205.69 102.75 203.23 97.4 200.61 92.11C198.23 87.32 194.61 83.43 190.82 79.69L167.42 56.46C167.594 57.4829 167.715 58.5143 167.78 59.55C176.12 67.86 184.46 76.15 192.65 84.61C195.167 87.2953 197.258 90.3508 198.85 93.67C200.57 97.09 199.59 98.46 195.91 99.34C191.63 100.34 189.59 102.54 188.91 106.87C187.91 113.51 194.79 121.62 201.77 122.15C203.365 122.267 204.954 122.464 206.53 122.74C212.53 123.74 216.89 120.49 217.35 114.44C217.48 112.62 217.12 110.77 217.13 108.94C217.048 108.135 217.245 107.326 217.69 106.65C220.29 104.13 223.17 102.22 227.08 102.92C227.94 103.025 228.809 103.025 229.67 102.92C231.345 102.867 232.953 102.243 234.226 101.152C235.498 100.061 236.361 98.5678 236.67 96.92C236.97 95.37 236.87 93.75 237.02 92.16C237.18 90.42 237.49 88.7 237.6 86.96C237.793 85.559 237.78 84.1371 237.56 82.74Z" fill="white"/>
<path d="M234.39 91.21L232.39 95.01C232.3 92.65 232.96 91.26 234.58 88.47C235.411 87.0751 235.798 85.4602 235.69 83.84C235.11 79.3 231.45 76.93 226.64 77.09C223.03 77.21 219.4 76.85 215.78 76.69C215.31 76.69 214.84 76.56 214.36 76.5L214.24 77.19C216.85 77.77 219.44 78.43 222.06 78.91C223.75 79.22 225.55 79.04 227.18 79.5C228.724 80.0695 230.214 80.7791 231.63 81.62L231.35 82.23L229.82 82C227.01 81.52 224.46 82.29 221.88 83.32C219.3 84.35 216.75 85.46 216.29 88.89C214.77 86.71 213.56 84.52 212.22 82.4C210.766 80.1366 208.679 78.3495 206.22 77.26L210 83.78C209.773 83.7663 209.551 83.7049 209.35 83.6C209.144 83.5015 208.96 83.3619 208.81 83.19C204.39 78.82 200.01 74.41 195.52 70.11C192 66.71 187.59 64.18 185.66 59.33C185.45 58.81 184.8 58.46 184.39 58C183.08 56.51 181.79 55 180.49 53.52C180.713 53.4653 180.946 53.4653 181.17 53.52C181.391 53.5924 181.591 53.7197 181.75 53.89C184.39 56.66 187.13 59.32 189.57 62.23C193.66 67.1019 198.686 71.1041 204.35 74C205.069 74.3198 205.811 74.5872 206.57 74.8C206.31 74.2579 205.918 73.7902 205.43 73.44C202.03 70.59 198.43 67.95 195.29 64.86C187.28 57 179.52 49 171.6 41L156.6 26C157.792 30.289 158.595 34.6768 159 39.11C159 39.25 159 39.5 159 39.8C159 40.1 159.31 40.15 159.47 40.32C160.86 41.9042 162.108 43.6074 163.2 45.41C169.81 51.85 176.92 57.76 183.6 64.1C187.11 67.41 190.21 71.15 193.49 74.69L193.22 74.95L177.42 60.27L176.94 60.75L186.31 71.14L185.88 71.59C184.44 70.34 182.94 69.16 181.57 67.84C176.61 63.0467 171.663 58.2467 166.73 53.44C167.013 54.4268 167.244 55.4283 167.42 56.44L190.82 79.67C194.58 83.41 198.23 87.3 200.61 92.09C203.23 97.38 205.69 102.73 209.42 107.38C209.926 108.224 210.341 109.119 210.66 110.05C209.09 108.89 208.02 107.95 206.82 107.23C206.101 106.774 205.287 106.488 204.441 106.395C203.595 106.302 202.738 106.404 201.938 106.694C201.137 106.984 200.414 107.453 199.823 108.066C199.232 108.679 198.79 109.419 198.53 110.23C198.31 110.83 198.21 111.47 198.03 112.15C197.15 111.01 197.15 111.01 197.15 106.77C194.98 108.18 194.92 109.19 196.55 114.85C195.623 113.905 194.802 112.862 194.1 111.74C191.68 107.58 192.72 104.96 197.26 103.56C197.558 103.486 197.849 103.385 198.13 103.26C198.941 102.874 199.66 102.317 200.235 101.626C200.81 100.936 201.228 100.128 201.46 99.26C199.936 99.9587 198.366 100.55 196.76 101.03C192.92 101.93 191.03 104.03 190.76 107.92C190.42 113.39 196.76 119.99 202.64 120.23C203.13 120.23 203.64 120.23 204.49 120.13L201.84 117.69C204.62 118.44 206.9 119.13 209.25 119.69C211.6 120.25 212.79 119.57 213.85 117.41C214.389 116.197 214.68 114.887 214.704 113.559C214.728 112.231 214.485 110.912 213.99 109.68C213.42 107.96 212.57 106.33 211.74 104.4C216.09 105.51 218.55 101.57 222.68 100.91L218.68 98.65C220.032 98.552 221.391 98.7184 222.68 99.14C224.44 99.69 226.13 100.46 227.91 100.94C229.117 101.253 230.395 101.152 231.538 100.651C232.68 100.15 233.621 99.2801 234.21 98.18C235.31 96.03 235.21 93.74 234.92 91.46L234.39 91.21ZM174.63 47.93C172.77 47.73 171.76 46.42 170.85 44.93L171.4 44.31L175.12 47.31L174.63 47.93ZM209.63 99.84C208.63 100.84 207.5 100.43 206.72 99.51C205.88 98.622 205.221 97.5794 204.78 96.44C203.468 92.1409 201.29 88.1558 198.38 84.73C197.583 83.6831 196.842 82.5949 196.16 81.47L196.73 81.03C198.73 83.38 200.83 85.63 202.65 88.1C204.86 91.1 206.33 94.62 209.29 97.1C210.05 97.79 210.59 98.86 209.58 99.84H209.63ZM228.15 97.94C227.544 98.0181 226.929 97.9173 226.38 97.65C224.95 97.11 223.56 96.49 222.16 95.91V95.57C224.22 95.57 226.28 95.49 228.32 95.62C228.79 95.62 229.21 96.38 229.66 96.79C229.09 97.2 228.62 97.79 228.1 97.94H228.15Z" fill="white"/>
<path d="M193.24 75L193.51 74.74C190.23 71.2 187.13 67.47 183.62 64.15C176.94 57.8 169.82 51.89 163.21 45.44C164.744 47.9317 165.925 50.624 166.72 53.44C171.66 58.28 176.623 63.0967 181.61 67.89C182.98 69.21 184.48 70.39 185.92 71.63L186.33 71.19L177 60.76L177.47 60.28L193.24 75Z" fill="white"/>
<path d="M196.69 81C198.69 83.35 200.79 85.6 202.61 88.07C204.84 91.07 206.32 94.59 209.25 97.07C210.06 97.76 210.59 98.84 209.59 99.81C209.392 100.011 209.151 100.165 208.885 100.259C208.619 100.353 208.335 100.385 208.054 100.354C207.774 100.322 207.504 100.227 207.266 100.075C207.028 99.9239 206.827 99.7204 206.68 99.48C205.831 98.5991 205.171 97.5545 204.74 96.41C203.428 92.1109 201.25 88.1258 198.34 84.7C197.543 83.6531 196.802 82.5649 196.12 81.44L196.69 81Z" fill="white"/>
<path d="M222.08 95.57C224.14 95.57 226.2 95.49 228.25 95.62C228.71 95.62 229.14 96.36 229.59 96.79C229.09 97.19 228.66 97.79 228.11 97.94C227.504 98.0261 226.886 97.9249 226.34 97.65C224.91 97.11 223.52 96.49 222.11 95.91L222.08 95.57Z" fill="white"/>
<path d="M171.4 44.36L175.12 47.36L174.63 47.97C172.78 47.79 171.76 46.47 170.85 44.97L171.4 44.36Z" fill="white"/>
<path d="M233.56 80.54C232.4 75.6 228.35 72.98 222.71 73.43C213.01 74.2 204.59 71.58 197.62 64.56C187.05 53.91 176.37 43.37 165.7 32.82C163.79 30.94 161.7 29.21 159.7 27.36C159.29 27.0331 158.911 26.6682 158.57 26.27C158.192 25.8436 157.838 25.3962 157.51 24.93L157.43 24.81L156 23.72L155.76 23.53C156.16 24.69 156.52 25.87 156.85 27.07C161.4 31.61 165.97 36.13 170.51 40.68C178.08 48.25 185.51 55.97 193.15 63.47C196.15 66.47 199.6 68.96 202.85 71.68C203.343 72.0107 203.74 72.4661 204 73C203.276 72.7927 202.568 72.5354 201.88 72.23C196.442 69.475 191.614 65.6562 187.68 61C185.34 58.21 182.68 55.66 180.2 53C180.048 52.8395 179.859 52.7193 179.65 52.65C179.437 52.595 179.213 52.595 179 52.65C180.24 54.08 181.47 55.51 182.73 56.93C183.12 57.37 183.73 57.7 183.94 58.2C185.79 62.83 190 65.26 193.37 68.5C197.66 72.61 201.84 76.83 206.07 81.01C206.212 81.173 206.385 81.3056 206.58 81.4C206.775 81.5005 206.99 81.5584 207.21 81.57L203.62 75.33C205.97 76.3693 207.963 78.0768 209.35 80.24C210.62 82.24 211.78 84.37 213.24 86.45C213.68 83.17 216.11 82.11 218.58 81.12C221.05 80.13 223.48 79.41 226.17 79.86L227.67 80.09L227.92 79.51C226.572 78.7117 225.153 78.042 223.68 77.51C222.12 77.07 220.4 77.24 218.79 76.95C216.27 76.49 213.79 75.86 211.3 75.3C211.3 75.08 211.39 74.86 211.42 74.64C211.87 74.7239 212.324 74.784 212.78 74.82C216.24 74.98 219.71 75.32 223.16 75.21C227.76 75.05 231.26 77.32 231.81 81.66C231.899 83.1802 231.53 84.6922 230.75 86C229.2 88.68 228.57 90 228.66 92.27L230.54 88.62L231.06 88.8C231.31 90.98 231.43 93.17 230.37 95.22C229.814 96.2723 228.919 97.1063 227.83 97.5872C226.741 98.0681 225.522 98.1677 224.37 97.87C222.67 97.41 221.05 96.67 219.37 96.15C218.14 95.7418 216.842 95.5788 215.55 95.67L219.38 97.83C215.44 98.47 213.09 102.24 208.93 101.17C209.73 103.02 210.53 104.58 211.08 106.17C211.553 107.348 211.784 108.61 211.76 109.879C211.736 111.149 211.457 112.4 210.94 113.56C209.94 115.62 208.78 116.23 206.54 115.74C204.3 115.25 202.12 114.58 199.47 113.87L202 116.2C201.2 116.2 200.7 116.31 200.23 116.29C194.62 116.06 188.55 109.76 188.88 104.53C189.12 100.77 190.88 98.8 194.59 97.94C196.127 97.4826 197.631 96.9178 199.09 96.25C198.868 97.0817 198.468 97.8551 197.917 98.5165C197.366 99.1779 196.678 99.7114 195.9 100.08C195.632 100.197 195.354 100.291 195.07 100.36C190.73 101.71 189.73 104.21 192.07 108.18C192.743 109.259 193.527 110.265 194.41 111.18C192.85 105.77 192.91 104.8 194.99 103.45C194.99 107.51 194.99 107.51 195.83 108.6C195.958 107.979 196.118 107.365 196.31 106.76C196.556 105.985 196.977 105.278 197.541 104.691C198.104 104.105 198.794 103.656 199.559 103.379C200.323 103.101 201.141 103.003 201.949 103.092C202.757 103.181 203.534 103.454 204.22 103.89C205.37 104.57 206.39 105.47 207.9 106.58C207.593 105.692 207.198 104.838 206.72 104.03C203.15 99.58 200.79 94.47 198.29 89.42C196.02 84.83 192.53 81.12 188.93 77.54L167.38 56.22C167.56 57.22 167.69 58.22 167.77 59.22C175.44 66.86 183.11 74.5 190.65 82.27C193.051 84.8393 195.048 87.7595 196.57 90.93C198.21 94.2 197.28 95.52 193.76 96.35C189.66 97.35 187.76 99.41 187.11 103.55C186.17 109.9 192.72 117.65 199.4 118.15C200.92 118.27 202.4 118.46 203.95 118.72C209.66 119.72 213.85 116.57 214.29 110.79C214.41 109.05 214.07 107.28 214.08 105.53C214.002 104.76 214.193 103.986 214.62 103.34C217.1 100.93 219.85 99.11 223.62 99.78C224.44 99.875 225.269 99.875 226.09 99.78C227.696 99.7373 229.238 99.1436 230.458 98.0984C231.678 97.0533 232.501 95.6203 232.79 94.04C233.07 92.55 232.98 91.04 233.12 89.48C233.26 87.92 233.57 86.17 233.67 84.48C233.826 83.1684 233.789 81.8409 233.56 80.54Z" fill="black"/>
<path d="M230.54 88.63L228.66 92.27C228.57 90.01 229.2 88.68 230.75 86.01C231.546 84.6793 231.915 83.137 231.81 81.59C231.26 77.25 227.76 74.98 223.16 75.14C219.71 75.25 216.24 74.91 212.78 74.75C212.323 74.714 211.87 74.6539 211.42 74.57C211.42 74.79 211.34 75.01 211.3 75.23C213.8 75.79 216.3 76.42 218.79 76.88C220.4 77.17 222.12 77 223.68 77.44C225.153 77.972 226.572 78.6417 227.92 79.44L227.67 80.02L226.17 79.79C223.48 79.34 221.05 80.07 218.58 81.05C216.11 82.03 213.68 83.05 213.24 86.38C211.78 84.3 210.63 82.2 209.35 80.17C207.963 78.0068 205.97 76.2993 203.62 75.26L207.21 81.5C206.99 81.4884 206.775 81.4305 206.58 81.33C206.385 81.2356 206.212 81.103 206.07 80.94C201.84 76.76 197.66 72.54 193.37 68.43C190 65.19 185.79 62.76 183.94 58.13C183.74 57.63 183.12 57.3 182.73 56.86C181.47 55.44 180.24 54.01 179 52.58C179.213 52.525 179.436 52.525 179.65 52.58C179.859 52.6493 180.048 52.7695 180.2 52.93C182.73 55.57 185.34 58.12 187.68 60.93C191.602 65.5749 196.413 69.3896 201.83 72.15C202.532 72.4848 203.257 72.7689 204 73C203.754 72.4806 203.378 72.033 202.91 71.7C199.66 68.98 196.22 66.45 193.21 63.49C185.56 55.99 178.14 48.27 170.57 40.7C166.03 36.15 161.46 31.63 156.91 27.09C157.928 31.0287 158.636 35.0409 159.03 39.09C159.03 39.23 159.03 39.48 159.03 39.78C159.03 40.08 159.34 40.13 159.5 40.3C160.951 41.9536 162.247 43.7379 163.37 45.63C169.45 51.47 175.92 56.91 182.03 62.7C185.38 65.87 188.34 69.44 191.48 72.82L191.22 73.08L176.09 59.08L175.64 59.54L184.64 69.47L184.23 69.9C182.85 68.71 181.41 67.58 180.11 66.32C175.643 62.0134 171.19 57.68 166.75 53.32C167.02 54.27 167.25 55.23 167.43 56.2L188.94 77.56C192.54 81.14 196.03 84.85 198.3 89.44C200.8 94.49 203.16 99.6 206.73 104.05C207.208 104.858 207.603 105.712 207.91 106.6C206.4 105.49 205.38 104.6 204.23 103.91C203.544 103.474 202.767 103.201 201.959 103.112C201.15 103.023 200.333 103.121 199.568 103.399C198.804 103.676 198.114 104.125 197.551 104.711C196.987 105.298 196.566 106.005 196.32 106.78C196.128 107.385 195.968 107.999 195.84 108.62C195 107.53 195 107.53 195 103.47C192.92 104.82 192.86 105.79 194.42 111.2C193.537 110.285 192.753 109.279 192.08 108.2C189.76 104.2 190.76 101.73 195.08 100.38C195.364 100.311 195.642 100.217 195.91 100.1C196.687 99.7314 197.376 99.1979 197.927 98.5365C198.477 97.8751 198.878 97.1017 199.1 96.27C197.641 96.9378 196.137 97.5026 194.6 97.96C190.93 98.82 189.13 100.79 188.89 104.55C188.56 109.78 194.63 116.08 200.24 116.31C200.71 116.31 201.24 116.31 202.01 116.22L199.48 113.89C202.13 114.6 204.32 115.26 206.55 115.76C208.78 116.26 209.94 115.64 210.95 113.58C211.467 112.42 211.745 111.169 211.77 109.899C211.794 108.63 211.562 107.368 211.09 106.19C210.54 104.55 209.74 102.99 208.94 101.19C213.1 102.26 215.45 98.49 219.39 97.85L215.56 95.69C216.852 95.5988 218.15 95.7618 219.38 96.17C221.07 96.69 222.69 97.43 224.38 97.89C225.532 98.1877 226.751 98.0881 227.84 97.6072C228.929 97.1263 229.824 96.2923 230.38 95.24C231.44 93.24 231.32 91 231.07 88.82L230.54 88.63ZM173.42 47.27C171.64 47.08 170.68 45.82 169.81 44.45L170.33 43.85L173.89 46.68L173.42 47.27ZM206.83 96.88C206.641 97.0738 206.41 97.2218 206.155 97.313C205.9 97.4042 205.628 97.436 205.359 97.4061C205.09 97.3763 204.831 97.2854 204.603 97.1405C204.374 96.9957 204.182 96.8005 204.04 96.57C203.238 95.7195 202.61 94.7209 202.19 93.63C200.941 89.5188 198.857 85.7095 196.07 82.44C195.324 81.4378 194.633 80.3963 194 79.32L194.54 78.9C196.44 81.15 198.46 83.3 200.19 85.66C202.31 88.53 203.71 91.89 206.54 94.27C207.28 94.92 207.79 95.94 206.83 96.88ZM224.52 95.07C223.941 95.1429 223.354 95.0456 222.83 94.79C221.47 94.28 220.14 93.68 218.83 93.12V92.8C220.83 92.8 222.76 92.73 224.71 92.8C225.16 92.8 225.56 93.52 225.99 93.91C225.578 94.3872 225.079 94.781 224.52 95.07Z" fill="white"/>
<path d="M191.21 73.1L191.47 72.84C188.33 69.46 185.37 65.84 182.02 62.72C175.91 56.92 169.43 51.48 163.35 45.64C164.796 48.0348 165.919 50.6105 166.69 53.3C171.136 57.6533 175.603 61.9867 180.09 66.3C181.4 67.55 182.83 68.68 184.21 69.87L184.6 69.45L175.65 59.52L176.1 59.06L191.21 73.1Z" fill="black"/>
<path d="M194.51 78.9C196.41 81.15 198.43 83.3 200.17 85.66C202.29 88.53 203.71 91.89 206.51 94.27C207.29 94.92 207.79 95.96 206.83 96.88C206.641 97.0719 206.411 97.2183 206.157 97.3083C205.903 97.3984 205.632 97.4296 205.365 97.3998C205.097 97.37 204.84 97.2798 204.612 97.136C204.384 96.9923 204.192 96.7988 204.05 96.57C203.244 95.7228 202.615 94.7233 202.2 93.63C200.943 89.5223 198.861 85.7145 196.08 82.44C195.331 81.438 194.637 80.3965 194 79.32L194.51 78.9Z" fill="black"/>
<path d="M218.78 92.8C220.78 92.8 222.71 92.73 224.67 92.8C225.11 92.8 225.52 93.51 225.95 93.91C225.48 94.3 225.06 94.91 224.53 95.02C223.951 95.0984 223.362 95.0008 222.84 94.74C221.48 94.23 220.15 93.63 218.84 93.07L218.78 92.8Z" fill="black"/>
<path d="M170.33 43.85L173.89 46.67L173.42 47.26C171.65 47.08 170.68 45.82 169.81 44.44L170.33 43.85Z" fill="black"/>
<path d="M130.85 39.68C130.85 39.68 132.21 44.6 134 46.14C135.014 47.041 136.249 47.6554 137.58 47.92C137.58 47.92 135.45 42.83 135.19 42.66L130.85 39.68Z" fill="white"/>
<path d="M116.3 20.79L135.3 24.11C137.112 24.7535 138.765 25.7763 140.15 27.11C142.53 29.34 124.23 24.57 124.23 24.57L116.3 20.79Z" fill="white"/>
<path d="M150.92 13.47C150.844 13.4585 150.766 13.4585 150.69 13.47C150.015 13.4395 149.34 13.5171 148.69 13.7C147.01 14.1 145.28 16.18 145.28 16.18L148.78 15.4" fill="white"/>
<path d="M154.43 47.26L155.38 51.77V47.93L154.43 47.26Z" fill="white"/>
<path d="M97.6597 51.77C98.2597 51.17 113.49 46.77 114.94 45.56L105.32 46.14L97.6597 51.77Z" fill="white"/>
<path d="M116.3 9.88999L121.24 7.42999L123.36 8.27999L118.94 9.88999" fill="white"/>
<path d="M136.21 0.359985L138.17 4.44999V2.39999L136.21 0.359985Z" fill="white"/>
<path d="M150.92 32.82C151.53 33.82 160.98 48.05 160.98 48.05C160.98 48.05 158.77 40.7 158.09 39.68C157.41 38.66 150.92 32.82 150.92 32.82Z" fill="white"/>
<path d="M104.73 31.09C104.73 31.09 107.79 27.81 109.73 27.66L107.22 31.09H104.73Z" fill="white"/>
<path d="M116.72 38.66L126.68 33.81L122.43 37.64L116.72 38.66Z" fill="white"/>
</svg>
